<?xml version="1.0" encoding="UTF-8" standalone="no"?>
<svg width="60px" height="60px" viewBox="0 0 60 60" version="1.1" xmlns="http://www.w3.org/2000/svg" xmlns:xlink="http://www.w3.org/1999/xlink" xmlns:sketch="http://www.bohemiancoding.com/sketch/ns">
    <!-- Generator: Sketch 3.1 (8751) - http://www.bohemiancoding.com/sketch -->
    <title>balloon-info</title>
    <desc>Created with Sketch.</desc>
    <defs></defs>
    <g id="Page-1" stroke="none" stroke-width="1" fill="none" fill-rule="evenodd" sketch:type="MSPage">
        <g id="balloon-info" sketch:type="MSArtboardGroup">
            <g id="balloon---white-translucent" sketch:type="MSLayerGroup" transform="translate(3.000000, 1.000000)">
                <path d="M51.849441,26.615967 C51.5558085,19.4562822 49.3835412,11.9232709 43.7433675,7.09612976 C38.4661002,2.58001442 31.1065857,1.34815654 24.3556837,2.17777755 C18.6562183,2.87879506 13.0569955,5.0621277 8.79003341,8.94579815 C4.3343118,13.0017364 2.21664588,18.8144593 1.95746993,24.718035 C1.69805345,30.6317652 3.12562584,36.9750896 6.33585969,42.0023934 C7.9793118,44.576793 10.0850111,46.8267868 12.622049,48.5499423 C13.1855612,48.9329454 13.8065612,49.2089681 13.8868998,49.9566962 C13.951363,50.555034 13.8675969,51.1951843 13.7547261,51.7833079 C13.5027661,53.0943708 12.9682984,54.3711473 12.2684031,55.5066571 C14.0650757,55.0948033 16.4777572,54.4300433 17.7112183,52.9316004 C18.0885568,52.5207621 18.3157416,51.8303172 18.9182205,51.7082842 C19.3922539,51.6125335 19.8653252,51.8126962 20.3168686,51.9252915 C21.4792517,52.2157693 22.6631024,52.4233388 23.8537483,52.5595881 C28.9114076,53.14138 34.1758062,52.3993862 38.8149354,50.2932873 C43.182922,48.3104161 46.9190846,44.982793 49.0750557,40.6881648 C51.2526147,36.3503502 52.0471604,31.4347456 51.849441,26.615967 C51.7714477,24.7101504 51.8587016,26.8453388 51.849441,26.615967" id="Fill-1" fill-opacity="0.8" fill="#FFFFFF" sketch:type="MSShapeGroup"></path>
                <path d="M47.5360557,8.17250463 C40.1439488,-0.692953656 26.6710089,-1.76359423 16.3890601,2.13417302 C11.4213608,4.01788877 6.83713363,7.23984552 3.91271492,11.7081153 C1.080902,16.0347003 -0.0639821826,21.2579258 -0.00625389755,26.3727374 C0.0526169265,31.5983522 1.28896437,36.8785026 3.79467261,41.487621 C5.05344989,43.8034398 6.64284187,45.9468115 8.55455011,47.771691 C9.48000668,48.6560865 10.4787661,49.4634274 11.5404855,50.1792585 C12.2893898,50.6845335 11.2178686,52.8167353 10.8905011,53.4527642 C10.4449109,54.3169104 9.8285412,55.1539979 9.12293318,55.8252688 C8.68840757,56.2384964 8.39261024,56.7906612 8.71161915,57.3523831 C9.23682628,58.2652709 10.6242294,57.8335263 11.4462561,57.6867642 C12.9569332,57.4185664 14.4757884,57.0254089 15.9013163,56.4555036 C17.0790935,55.9839176 18.2234967,55.362105 19.1452851,54.4837425 C19.3710869,54.2682286 19.5822762,54.0384387 19.7744633,53.7926406 C20.1112116,53.8765046 20.4496437,53.9538579 20.7892183,54.0264325 C21.5825612,54.194758 22.3826993,54.3313656 23.1868664,54.4364943 C26.063118,54.8130463 28.993069,54.7893924 31.8617439,54.3559753 C36.7068909,53.6242554 41.5155969,51.7146756 45.2743697,48.5458805 C49.0927951,45.3275675 51.6626659,40.8962719 52.8740579,36.0949351 C55.1941336,26.9013079 53.7461759,15.6218908 47.5360557,8.17250463 M51.6015702,26.6381277 C51.7971247,31.4082842 51.0107572,36.275207 48.8549666,40.5700742 C46.7204031,44.8216952 43.0218241,48.1158084 38.6974343,50.0788486 C34.1046682,52.1631452 28.8930067,52.8979114 23.8858597,52.3227497 C22.707,52.1878744 21.5351759,51.9820968 20.3843385,51.6948445 C19.9374855,51.5828465 19.4689844,51.3848939 18.9998218,51.4792709 C18.4034165,51.6004676 18.1782762,52.2835654 17.8048463,52.6907003 C16.5835924,54.1740906 14.1949644,54.8322204 12.416392,55.2401916 C13.1092517,54.115792 13.6383675,52.8518579 13.887922,51.5534583 C13.9995902,50.9717858 14.0825145,50.3374892 14.0185924,49.7451843 C13.9391559,49.0046838 13.3242895,48.731827 12.76649,48.3525273 C10.2548886,46.6474706 8.17023608,44.418622 6.54302004,41.8706838 C3.36495768,36.8935551 1.9516971,30.6143234 2.20858797,24.7586529 C2.46499777,18.9151081 4.56155679,13.1600268 8.97277951,9.14500515 C13.1972873,5.29974253 18.7403452,3.13821215 24.3828641,2.44424305 C31.0664766,1.62268589 38.352147,2.84235839 43.5766771,7.31325644 C49.160265,12.0921936 51.3108241,19.5494645 51.6015702,26.6381277 C51.6108307,26.8653491 51.5244788,24.7514253 51.6015702,26.6381277" id="Fill-178" fill="#000000" sketch:type="MSShapeGroup"></path>
            </g>
            <g id="FYI" sketch:type="MSLayerGroup" transform="translate(9.000000, 14.000000)" fill="#000000">
                <path d="M14.8801862,6.71557864 C14.8801862,4.8346269 12.1184457,4.47877117 10.8328079,4.47877117 C9.16624037,4.47877117 2.59520269,4.47877117 2.07142432,6.46139597 C2.02380811,6.69016037 2,6.94434304 2,7.19852571 C2,7.75772757 2.14284865,8.24067464 2.42854594,8.57111211 C2.28569729,11.3417032 2.07142432,14.086876 2.07142432,16.8320488 C2.07142432,17.518342 2.09523243,18.1792169 2.11904054,18.8655101 C2.21427297,20.3397696 1.83334325,24 3.92845671,24 C5.90452964,24 6.33307557,21.9919569 6.33307557,20.2889331 C6.33307557,19.3738755 6.23784314,18.4588179 6.16641882,17.5691785 C6.14261071,17.0862315 6.11880261,16.6032844 6.0949945,16.1203373 C6.92827826,15.993246 7.76156203,15.8915729 8.59484579,15.8915729 C10.3090295,15.8915729 13.8088213,16.2474287 13.8088213,13.4768376 C13.8088213,11.8754868 11.523243,11.6721406 10.4280701,11.6721406 C8.97577551,11.6721406 7.47586474,11.6721406 6.02357018,11.9517416 C6.04737828,10.9858474 6.0949945,10.0199533 6.16641882,9.05405918 C7.92821878,8.92696784 9.66621063,8.77445824 11.4280106,8.77445824 C12.5231835,8.77445824 14.8801862,8.26609291 14.8801862,6.71557864 L14.8801862,6.71557864 Z M31.5770581,5.01029892 C31.5770581,4.06982305 30.910431,3.33269332 30.0295311,3.33269332 C29.3867122,3.33269332 28.8629338,3.84105865 28.5058122,4.37484225 C28.0534581,5.06113545 27.791569,5.87451999 27.4820636,6.61164972 C26.7916284,8.31467359 25.5297987,9.94144266 24.4584339,11.3902839 C23.2204123,10.2718801 21.2919556,6.40830359 20.5539043,4.75611625 C20.2443989,4.09524132 19.7920448,3.68854905 19.1016097,3.68854905 C17.5778908,3.68854905 16.7922233,5.16280852 16.7922233,6.63706799 C16.7922233,9.00096679 21.0538745,13.0933077 22.053815,15.4826248 C22.0061988,17.5669227 22.1252394,19.6512205 22.1252394,21.7355184 C22.1252394,22.8030856 22.7442502,23.6418884 23.815615,23.6418884 C25.6488393,23.6418884 26.4106987,21.3034079 26.4106987,19.6512205 C26.4106987,18.0498697 26.3154663,16.4485189 26.244042,14.8471681 C27.1725582,13.5 27.9820338,12.0511588 28.8391257,10.6531541 C29.6247932,9.33140426 30.5533094,8.08590919 31.1723202,6.66248626 C31.3865932,6.15412092 31.5770581,5.59491905 31.5770581,5.01029892 L31.5770581,5.01029892 Z M38.996704,7.52445147 C38.996704,6.40604774 39.1395527,3 37.5444095,3 C35.9968825,3 35.0207501,5.287644 35.0445582,6.58397561 C35.0445582,8.97329268 35.0207501,12.2014125 35.0207501,14.5907296 C35.0207501,16.4716814 35.0445582,18.3526331 35.0445582,20.2590031 C35.0445582,21.0469694 35.4254879,22.4703923 36.4254284,22.4703923 C38.3062689,22.4703923 38.8300473,19.674383 38.8300473,18.1747052 C38.8300473,15.963316 38.9252797,12.6081048 38.9490878,10.3712973 C38.9728959,9.43082148 38.996704,8.46492734 38.996704,7.52445147 L38.996704,7.52445147 Z" sketch:type="MSShapeGroup" transform="translate(20.500000, 13.500000) rotate(-11.000000) translate(-20.500000, -13.500000) "></path>
            </g>
        </g>
    </g>
</svg>