<?xml version="1.0" encoding="UTF-8" standalone="no"?>
<svg width="128px" height="40px" viewBox="0 0 128 40" version="1.1" xmlns="http://www.w3.org/2000/svg" xmlns:xlink="http://www.w3.org/1999/xlink" xmlns:sketch="http://www.bohemiancoding.com/sketch/ns">
    <!-- Generator: Sketch 3.3.2 (12043) - http://www.bohemiancoding.com/sketch -->
    <title>button-first</title>
    <desc>Created with Sketch.</desc>
    <defs>
        <rect id="path-1" x="0" y="0" width="32" height="249"></rect>
        <rect id="path-3" x="0" y="0" width="32" height="249"></rect>
        <rect id="path-5" x="0" y="0" width="32" height="249"></rect>
        <rect id="path-7" x="0" y="0" width="32" height="249"></rect>
    </defs>
    <g id="Page-1" stroke="none" stroke-width="1" fill="none" fill-rule="evenodd" sketch:type="MSPage">
        <g id="button-first" sketch:type="MSArtboardGroup">
            <g id="purple-+-purple-dots" sketch:type="MSLayerGroup" transform="translate(0.000000, -142.000000)">
                <mask id="mask-2" sketch:name="purple" fill="white">
                    <use xlink:href="#path-1"></use>
                </mask>
                <use id="purple" fill="#5835A1" sketch:type="MSShapeGroup" xlink:href="#path-1"></use>
                <path d="M1.33582034e-12,242.876007 C-1.36472889,245.335425 -3.98797315,247 -7,247 C-11.4182782,247 -15,243.418278 -15,239 C-15,234.581722 -11.4182782,231 -7,231 C-6.9764985,231 -6.95302066,231.000101 -6.92956691,231.000304 C-7.61035589,229.823542 -8,228.457274 -8,227 C-8,222.581722 -4.41827822,219 0,219 C4.41827822,219 8,222.581722 8,227 C8,228.489106 7.59314749,229.883187 6.88453848,231.077146 L6.88453848,231.077146 C7.24906757,231.026291 7.62146353,231 8,231 C8.37853647,231 8.75093243,231.026291 9.11546152,231.077146 L9.11546152,231.077146 C8.40685251,229.883187 8,228.489106 8,227 C8,222.581722 11.5817218,219 16,219 C20.4182782,219 24,222.581722 24,227 C24,228.457274 23.6103559,229.823542 22.9295669,231.000304 C22.9530207,231.000101 22.9764985,231 23,231 C23.7884151,231 24.5501924,231.11405 25.2697337,231.326552 L25.2697337,231.326552 C24.4662172,230.079204 24,228.594048 24,227 C24,222.581722 27.5817218,219 32,219 C36.4182782,219 40,222.581722 40,227 C40,228.477884 39.5992565,229.86217 38.9005073,231.050118 C42.8948679,231.497567 46,234.886162 46,239 C46,243.418278 42.4182782,247 38,247 C35.6106149,247 33.4658889,245.95249 32,244.291649 L32,250 L0,250 L0,242.876007 Z M29.7302663,234.673448 C30.0391189,235.152899 30.2981372,235.667485 30.5,236.209884 C30.663592,235.770317 30.8647218,235.349017 31.0994927,234.949882 C30.6295739,234.897241 30.1719624,234.803894 29.7302663,234.673448 L29.7302663,234.673448 Z M1.11546152,234.922854 C0.873831916,235.329984 0.667289099,235.760383 0.5,236.209884 L0.5,236.209884 C0.34319822,235.788562 0.151910068,235.384023 -0.0704330925,234.999696 C-0.0469793394,234.999899 -0.0235015042,235 0,235 C0.378536473,235 0.750932434,234.973709 1.11546152,234.922854 L1.11546152,234.922854 Z M14.8845385,234.922854 C15.1261681,235.329984 15.3327109,235.760383 15.5,236.209884 L15.5,236.209884 C15.6568018,235.788562 15.8480899,235.384023 16.0704331,234.999696 C16.0469793,234.999899 16.0235015,235 16,235 C15.6214635,235 15.2490676,234.973709 14.8845385,234.922854 L14.8845385,234.922854 Z M8,221 C11.8659934,221 15,217.865993 15,214 C15,210.134007 11.8659934,207 8,207 C4.13400656,207 1,210.134007 1,214 C1,217.865993 4.13400656,221 8,221 Z M8,193 C11.3137087,193 14,190.313709 14,187 C14,183.686291 11.3137087,181 8,181 C4.68629134,181 2,183.686291 2,187 C2,190.313709 4.68629134,193 8,193 Z M24,193 C27.3137087,193 30,190.313709 30,187 C30,183.686291 27.3137087,181 24,181 C20.6862913,181 18,183.686291 18,187 C18,190.313709 20.6862913,193 24,193 Z M16,179 C19.3137087,179 22,176.313709 22,173 C22,169.686291 19.3137087,167 16,167 C12.6862913,167 10,169.686291 10,173 C10,176.313709 12.6862913,179 16,179 Z M8,164 C10.7614239,164 13,161.761424 13,159 C13,156.238576 10.7614239,154 8,154 C5.23857611,154 3,156.238576 3,159 C3,161.761424 5.23857611,164 8,164 Z M24,164 C26.7614239,164 29,161.761424 29,159 C29,156.238576 26.7614239,154 24,154 C21.2385761,154 19,156.238576 19,159 C19,161.761424 21.2385761,164 24,164 Z M16,149 C18.7614239,149 21,146.761424 21,144 C21,141.238576 18.7614239,139 16,139 C13.2385761,139 11,141.238576 11,144 C11,146.761424 13.2385761,149 16,149 Z M8,133 C10.2091391,133 12,131.209139 12,129 C12,126.790861 10.2091391,125 8,125 C5.79086089,125 4,126.790861 4,129 C4,131.209139 5.79086089,133 8,133 Z M24,133 C26.2091391,133 28,131.209139 28,129 C28,126.790861 26.2091391,125 24,125 C21.7908609,125 20,126.790861 20,129 C20,131.209139 21.7908609,133 24,133 Z M16,117 C18.2091391,117 20,115.209139 20,113 C20,110.790861 18.2091391,109 16,109 C13.7908609,109 12,110.790861 12,113 C12,115.209139 13.7908609,117 16,117 Z M8,100 C9.65685433,100 11,98.6568543 11,97 C11,95.3431457 9.65685433,94 8,94 C6.34314567,94 5,95.3431457 5,97 C5,98.6568543 6.34314567,100 8,100 Z M24,100 C25.6568543,100 27,98.6568543 27,97 C27,95.3431457 25.6568543,94 24,94 C22.3431457,94 21,95.3431457 21,97 C21,98.6568543 22.3431457,100 24,100 Z M16,83 C17.6568543,83 19,81.6568543 19,80 C19,78.3431457 17.6568543,77 16,77 C14.3431457,77 13,78.3431457 13,80 C13,81.6568543 14.3431457,83 16,83 Z M8,63 C9.10456955,63 10,62.1045696 10,61 C10,59.8954304 9.10456955,59 8,59 C6.89543045,59 6,59.8954304 6,61 C6,62.1045696 6.89543045,63 8,63 Z M24,63 C25.1045696,63 26,62.1045696 26,61 C26,59.8954304 25.1045696,59 24,59 C22.8954304,59 22,59.8954304 22,61 C22,62.1045696 22.8954304,63 24,63 Z M0,83 C1.65685433,83 3,81.6568543 3,80 C3,78.3431457 1.65685433,77 0,77 C-1.65685433,77 -3,78.3431457 -3,80 C-3,81.6568543 -1.65685433,83 0,83 Z M32,83 C33.6568543,83 35,81.6568543 35,80 C35,78.3431457 33.6568543,77 32,77 C30.3431457,77 29,78.3431457 29,80 C29,81.6568543 30.3431457,83 32,83 Z M0,117 C2.20913911,117 4,115.209139 4,113 C4,110.790861 2.20913911,109 0,109 C-2.20913911,109 -4,110.790861 -4,113 C-4,115.209139 -2.20913911,117 0,117 Z M32,117 C34.2091391,117 36,115.209139 36,113 C36,110.790861 34.2091391,109 32,109 C29.7908609,109 28,110.790861 28,113 C28,115.209139 29.7908609,117 32,117 Z M0,149 C2.76142389,149 5,146.761424 5,144 C5,141.238576 2.76142389,139 0,139 C-2.76142389,139 -5,141.238576 -5,144 C-5,146.761424 -2.76142389,149 0,149 Z M32,149 C34.7614239,149 37,146.761424 37,144 C37,141.238576 34.7614239,139 32,139 C29.2385761,139 27,141.238576 27,144 C27,146.761424 29.2385761,149 32,149 Z M0,179 C3.31370866,179 6,176.313709 6,173 C6,169.686291 3.31370866,167 0,167 C-3.31370866,167 -6,169.686291 -6,173 C-6,176.313709 -3.31370866,179 0,179 Z M32,179 C35.3137087,179 38,176.313709 38,173 C38,169.686291 35.3137087,167 32,167 C28.6862913,167 26,169.686291 26,173 C26,176.313709 28.6862913,179 32,179 Z M24,221 C27.8659934,221 31,217.865993 31,214 C31,210.134007 27.8659934,207 24,207 C20.1340066,207 17,210.134007 17,214 C17,217.865993 20.1340066,221 24,221 Z M16,208 C19.8659934,208 23,204.865993 23,201 C23,197.134007 19.8659934,194 16,194 C12.1340066,194 9,197.134007 9,201 C9,204.865993 12.1340066,208 16,208 Z M0,208 C3.86599344,208 7,204.865993 7,201 C7,197.134007 3.86599344,194 0,194 C-3.86599344,194 -7,197.134007 -7,201 C-7,204.865993 -3.86599344,208 0,208 Z M32,208 C35.8659934,208 39,204.865993 39,201 C39,197.134007 35.8659934,194 32,194 C28.1340066,194 25,197.134007 25,201 C25,204.865993 28.1340066,208 32,208 Z M16,44 C17.1045696,44 18,43.1045696 18,42 C18,40.8954304 17.1045696,40 16,40 C14.8954304,40 14,40.8954304 14,42 C14,43.1045696 14.8954304,44 16,44 Z M8,22 C8.55228478,22 9,21.5522848 9,21 C9,20.4477152 8.55228478,20 8,20 C7.44771522,20 7,20.4477152 7,21 C7,21.5522848 7.44771522,22 8,22 Z M24,22 C24.5522848,22 25,21.5522848 25,21 C25,20.4477152 24.5522848,20 24,20 C23.4477152,20 23,20.4477152 23,21 C23,21.5522848 23.4477152,22 24,22 Z M32,2 C32.5522848,2 33,1.55228478 33,1 C33,0.447715223 32.5522848,0 32,0 C31.4477152,0 31,0.447715223 31,1 C31,1.55228478 31.4477152,2 32,2 Z M16,2 C16.5522848,2 17,1.55228478 17,1 C17,0.447715223 16.5522848,0 16,0 C15.4477152,0 15,0.447715223 15,1 C15,1.55228478 15.4477152,2 16,2 Z M0,2 C0.552284777,2 1,1.55228478 1,1 C1,0.447715223 0.552284777,0 0,0 C-0.552284777,0 -1,0.447715223 -1,1 C-1,1.55228478 -0.552284777,2 0,2 Z M0,44 C1.10456955,44 2,43.1045696 2,42 C2,40.8954304 1.10456955,40 0,40 C-1.10456955,40 -2,40.8954304 -2,42 C-2,43.1045696 -1.10456955,44 0,44 Z M32,44 C33.1045696,44 34,43.1045696 34,42 C34,40.8954304 33.1045696,40 32,40 C30.8954304,40 30,40.8954304 30,42 C30,43.1045696 30.8954304,44 32,44 Z" id="purple-dots" opacity="0.25" fill="#7855C1" sketch:type="MSShapeGroup" mask="url(#mask-2)"></path>
            </g>
            <g id="purple-+-purple-dots" sketch:type="MSLayerGroup" transform="translate(32.000000, -142.000000)">
                <mask id="mask-4" sketch:name="purple" fill="white">
                    <use xlink:href="#path-3"></use>
                </mask>
                <use id="purple" fill="#5835A1" sketch:type="MSShapeGroup" xlink:href="#path-3"></use>
                <path d="M1.33582034e-12,242.876007 C-1.36472889,245.335425 -3.98797315,247 -7,247 C-11.4182782,247 -15,243.418278 -15,239 C-15,234.581722 -11.4182782,231 -7,231 C-6.9764985,231 -6.95302066,231.000101 -6.92956691,231.000304 C-7.61035589,229.823542 -8,228.457274 -8,227 C-8,222.581722 -4.41827822,219 0,219 C4.41827822,219 8,222.581722 8,227 C8,228.489106 7.59314749,229.883187 6.88453848,231.077146 L6.88453848,231.077146 C7.24906757,231.026291 7.62146353,231 8,231 C8.37853647,231 8.75093243,231.026291 9.11546152,231.077146 L9.11546152,231.077146 C8.40685251,229.883187 8,228.489106 8,227 C8,222.581722 11.5817218,219 16,219 C20.4182782,219 24,222.581722 24,227 C24,228.457274 23.6103559,229.823542 22.9295669,231.000304 C22.9530207,231.000101 22.9764985,231 23,231 C23.7884151,231 24.5501924,231.11405 25.2697337,231.326552 L25.2697337,231.326552 C24.4662172,230.079204 24,228.594048 24,227 C24,222.581722 27.5817218,219 32,219 C36.4182782,219 40,222.581722 40,227 C40,228.477884 39.5992565,229.86217 38.9005073,231.050118 C42.8948679,231.497567 46,234.886162 46,239 C46,243.418278 42.4182782,247 38,247 C35.6106149,247 33.4658889,245.95249 32,244.291649 L32,250 L0,250 L0,242.876007 Z M29.7302663,234.673448 C30.0391189,235.152899 30.2981372,235.667485 30.5,236.209884 C30.663592,235.770317 30.8647218,235.349017 31.0994927,234.949882 C30.6295739,234.897241 30.1719624,234.803894 29.7302663,234.673448 L29.7302663,234.673448 Z M1.11546152,234.922854 C0.873831916,235.329984 0.667289099,235.760383 0.5,236.209884 L0.5,236.209884 C0.34319822,235.788562 0.151910068,235.384023 -0.0704330925,234.999696 C-0.0469793394,234.999899 -0.0235015042,235 0,235 C0.378536473,235 0.750932434,234.973709 1.11546152,234.922854 L1.11546152,234.922854 Z M14.8845385,234.922854 C15.1261681,235.329984 15.3327109,235.760383 15.5,236.209884 L15.5,236.209884 C15.6568018,235.788562 15.8480899,235.384023 16.0704331,234.999696 C16.0469793,234.999899 16.0235015,235 16,235 C15.6214635,235 15.2490676,234.973709 14.8845385,234.922854 L14.8845385,234.922854 Z M8,221 C11.8659934,221 15,217.865993 15,214 C15,210.134007 11.8659934,207 8,207 C4.13400656,207 1,210.134007 1,214 C1,217.865993 4.13400656,221 8,221 Z M8,193 C11.3137087,193 14,190.313709 14,187 C14,183.686291 11.3137087,181 8,181 C4.68629134,181 2,183.686291 2,187 C2,190.313709 4.68629134,193 8,193 Z M24,193 C27.3137087,193 30,190.313709 30,187 C30,183.686291 27.3137087,181 24,181 C20.6862913,181 18,183.686291 18,187 C18,190.313709 20.6862913,193 24,193 Z M16,179 C19.3137087,179 22,176.313709 22,173 C22,169.686291 19.3137087,167 16,167 C12.6862913,167 10,169.686291 10,173 C10,176.313709 12.6862913,179 16,179 Z M8,164 C10.7614239,164 13,161.761424 13,159 C13,156.238576 10.7614239,154 8,154 C5.23857611,154 3,156.238576 3,159 C3,161.761424 5.23857611,164 8,164 Z M24,164 C26.7614239,164 29,161.761424 29,159 C29,156.238576 26.7614239,154 24,154 C21.2385761,154 19,156.238576 19,159 C19,161.761424 21.2385761,164 24,164 Z M16,149 C18.7614239,149 21,146.761424 21,144 C21,141.238576 18.7614239,139 16,139 C13.2385761,139 11,141.238576 11,144 C11,146.761424 13.2385761,149 16,149 Z M8,133 C10.2091391,133 12,131.209139 12,129 C12,126.790861 10.2091391,125 8,125 C5.79086089,125 4,126.790861 4,129 C4,131.209139 5.79086089,133 8,133 Z M24,133 C26.2091391,133 28,131.209139 28,129 C28,126.790861 26.2091391,125 24,125 C21.7908609,125 20,126.790861 20,129 C20,131.209139 21.7908609,133 24,133 Z M16,117 C18.2091391,117 20,115.209139 20,113 C20,110.790861 18.2091391,109 16,109 C13.7908609,109 12,110.790861 12,113 C12,115.209139 13.7908609,117 16,117 Z M8,100 C9.65685433,100 11,98.6568543 11,97 C11,95.3431457 9.65685433,94 8,94 C6.34314567,94 5,95.3431457 5,97 C5,98.6568543 6.34314567,100 8,100 Z M24,100 C25.6568543,100 27,98.6568543 27,97 C27,95.3431457 25.6568543,94 24,94 C22.3431457,94 21,95.3431457 21,97 C21,98.6568543 22.3431457,100 24,100 Z M16,83 C17.6568543,83 19,81.6568543 19,80 C19,78.3431457 17.6568543,77 16,77 C14.3431457,77 13,78.3431457 13,80 C13,81.6568543 14.3431457,83 16,83 Z M8,63 C9.10456955,63 10,62.1045696 10,61 C10,59.8954304 9.10456955,59 8,59 C6.89543045,59 6,59.8954304 6,61 C6,62.1045696 6.89543045,63 8,63 Z M24,63 C25.1045696,63 26,62.1045696 26,61 C26,59.8954304 25.1045696,59 24,59 C22.8954304,59 22,59.8954304 22,61 C22,62.1045696 22.8954304,63 24,63 Z M0,83 C1.65685433,83 3,81.6568543 3,80 C3,78.3431457 1.65685433,77 0,77 C-1.65685433,77 -3,78.3431457 -3,80 C-3,81.6568543 -1.65685433,83 0,83 Z M32,83 C33.6568543,83 35,81.6568543 35,80 C35,78.3431457 33.6568543,77 32,77 C30.3431457,77 29,78.3431457 29,80 C29,81.6568543 30.3431457,83 32,83 Z M0,117 C2.20913911,117 4,115.209139 4,113 C4,110.790861 2.20913911,109 0,109 C-2.20913911,109 -4,110.790861 -4,113 C-4,115.209139 -2.20913911,117 0,117 Z M32,117 C34.2091391,117 36,115.209139 36,113 C36,110.790861 34.2091391,109 32,109 C29.7908609,109 28,110.790861 28,113 C28,115.209139 29.7908609,117 32,117 Z M0,149 C2.76142389,149 5,146.761424 5,144 C5,141.238576 2.76142389,139 0,139 C-2.76142389,139 -5,141.238576 -5,144 C-5,146.761424 -2.76142389,149 0,149 Z M32,149 C34.7614239,149 37,146.761424 37,144 C37,141.238576 34.7614239,139 32,139 C29.2385761,139 27,141.238576 27,144 C27,146.761424 29.2385761,149 32,149 Z M0,179 C3.31370866,179 6,176.313709 6,173 C6,169.686291 3.31370866,167 0,167 C-3.31370866,167 -6,169.686291 -6,173 C-6,176.313709 -3.31370866,179 0,179 Z M32,179 C35.3137087,179 38,176.313709 38,173 C38,169.686291 35.3137087,167 32,167 C28.6862913,167 26,169.686291 26,173 C26,176.313709 28.6862913,179 32,179 Z M24,221 C27.8659934,221 31,217.865993 31,214 C31,210.134007 27.8659934,207 24,207 C20.1340066,207 17,210.134007 17,214 C17,217.865993 20.1340066,221 24,221 Z M16,208 C19.8659934,208 23,204.865993 23,201 C23,197.134007 19.8659934,194 16,194 C12.1340066,194 9,197.134007 9,201 C9,204.865993 12.1340066,208 16,208 Z M0,208 C3.86599344,208 7,204.865993 7,201 C7,197.134007 3.86599344,194 0,194 C-3.86599344,194 -7,197.134007 -7,201 C-7,204.865993 -3.86599344,208 0,208 Z M32,208 C35.8659934,208 39,204.865993 39,201 C39,197.134007 35.8659934,194 32,194 C28.1340066,194 25,197.134007 25,201 C25,204.865993 28.1340066,208 32,208 Z M16,44 C17.1045696,44 18,43.1045696 18,42 C18,40.8954304 17.1045696,40 16,40 C14.8954304,40 14,40.8954304 14,42 C14,43.1045696 14.8954304,44 16,44 Z M8,22 C8.55228478,22 9,21.5522848 9,21 C9,20.4477152 8.55228478,20 8,20 C7.44771522,20 7,20.4477152 7,21 C7,21.5522848 7.44771522,22 8,22 Z M24,22 C24.5522848,22 25,21.5522848 25,21 C25,20.4477152 24.5522848,20 24,20 C23.4477152,20 23,20.4477152 23,21 C23,21.5522848 23.4477152,22 24,22 Z M32,2 C32.5522848,2 33,1.55228478 33,1 C33,0.447715223 32.5522848,0 32,0 C31.4477152,0 31,0.447715223 31,1 C31,1.55228478 31.4477152,2 32,2 Z M16,2 C16.5522848,2 17,1.55228478 17,1 C17,0.447715223 16.5522848,0 16,0 C15.4477152,0 15,0.447715223 15,1 C15,1.55228478 15.4477152,2 16,2 Z M0,2 C0.552284777,2 1,1.55228478 1,1 C1,0.447715223 0.552284777,0 0,0 C-0.552284777,0 -1,0.447715223 -1,1 C-1,1.55228478 -0.552284777,2 0,2 Z M0,44 C1.10456955,44 2,43.1045696 2,42 C2,40.8954304 1.10456955,40 0,40 C-1.10456955,40 -2,40.8954304 -2,42 C-2,43.1045696 -1.10456955,44 0,44 Z M32,44 C33.1045696,44 34,43.1045696 34,42 C34,40.8954304 33.1045696,40 32,40 C30.8954304,40 30,40.8954304 30,42 C30,43.1045696 30.8954304,44 32,44 Z" id="purple-dots" opacity="0.25" fill="#7855C1" sketch:type="MSShapeGroup" mask="url(#mask-4)"></path>
            </g>
            <g id="purple-+-purple-dots" sketch:type="MSLayerGroup" transform="translate(64.000000, -142.000000)">
                <mask id="mask-6" sketch:name="purple" fill="white">
                    <use xlink:href="#path-5"></use>
                </mask>
                <use id="purple" fill="#5835A1" sketch:type="MSShapeGroup" xlink:href="#path-5"></use>
                <path d="M1.33582034e-12,242.876007 C-1.36472889,245.335425 -3.98797315,247 -7,247 C-11.4182782,247 -15,243.418278 -15,239 C-15,234.581722 -11.4182782,231 -7,231 C-6.9764985,231 -6.95302066,231.000101 -6.92956691,231.000304 C-7.61035589,229.823542 -8,228.457274 -8,227 C-8,222.581722 -4.41827822,219 0,219 C4.41827822,219 8,222.581722 8,227 C8,228.489106 7.59314749,229.883187 6.88453848,231.077146 L6.88453848,231.077146 C7.24906757,231.026291 7.62146353,231 8,231 C8.37853647,231 8.75093243,231.026291 9.11546152,231.077146 L9.11546152,231.077146 C8.40685251,229.883187 8,228.489106 8,227 C8,222.581722 11.5817218,219 16,219 C20.4182782,219 24,222.581722 24,227 C24,228.457274 23.6103559,229.823542 22.9295669,231.000304 C22.9530207,231.000101 22.9764985,231 23,231 C23.7884151,231 24.5501924,231.11405 25.2697337,231.326552 L25.2697337,231.326552 C24.4662172,230.079204 24,228.594048 24,227 C24,222.581722 27.5817218,219 32,219 C36.4182782,219 40,222.581722 40,227 C40,228.477884 39.5992565,229.86217 38.9005073,231.050118 C42.8948679,231.497567 46,234.886162 46,239 C46,243.418278 42.4182782,247 38,247 C35.6106149,247 33.4658889,245.95249 32,244.291649 L32,250 L0,250 L0,242.876007 Z M29.7302663,234.673448 C30.0391189,235.152899 30.2981372,235.667485 30.5,236.209884 C30.663592,235.770317 30.8647218,235.349017 31.0994927,234.949882 C30.6295739,234.897241 30.1719624,234.803894 29.7302663,234.673448 L29.7302663,234.673448 Z M1.11546152,234.922854 C0.873831916,235.329984 0.667289099,235.760383 0.5,236.209884 L0.5,236.209884 C0.34319822,235.788562 0.151910068,235.384023 -0.0704330925,234.999696 C-0.0469793394,234.999899 -0.0235015042,235 0,235 C0.378536473,235 0.750932434,234.973709 1.11546152,234.922854 L1.11546152,234.922854 Z M14.8845385,234.922854 C15.1261681,235.329984 15.3327109,235.760383 15.5,236.209884 L15.5,236.209884 C15.6568018,235.788562 15.8480899,235.384023 16.0704331,234.999696 C16.0469793,234.999899 16.0235015,235 16,235 C15.6214635,235 15.2490676,234.973709 14.8845385,234.922854 L14.8845385,234.922854 Z M8,221 C11.8659934,221 15,217.865993 15,214 C15,210.134007 11.8659934,207 8,207 C4.13400656,207 1,210.134007 1,214 C1,217.865993 4.13400656,221 8,221 Z M8,193 C11.3137087,193 14,190.313709 14,187 C14,183.686291 11.3137087,181 8,181 C4.68629134,181 2,183.686291 2,187 C2,190.313709 4.68629134,193 8,193 Z M24,193 C27.3137087,193 30,190.313709 30,187 C30,183.686291 27.3137087,181 24,181 C20.6862913,181 18,183.686291 18,187 C18,190.313709 20.6862913,193 24,193 Z M16,179 C19.3137087,179 22,176.313709 22,173 C22,169.686291 19.3137087,167 16,167 C12.6862913,167 10,169.686291 10,173 C10,176.313709 12.6862913,179 16,179 Z M8,164 C10.7614239,164 13,161.761424 13,159 C13,156.238576 10.7614239,154 8,154 C5.23857611,154 3,156.238576 3,159 C3,161.761424 5.23857611,164 8,164 Z M24,164 C26.7614239,164 29,161.761424 29,159 C29,156.238576 26.7614239,154 24,154 C21.2385761,154 19,156.238576 19,159 C19,161.761424 21.2385761,164 24,164 Z M16,149 C18.7614239,149 21,146.761424 21,144 C21,141.238576 18.7614239,139 16,139 C13.2385761,139 11,141.238576 11,144 C11,146.761424 13.2385761,149 16,149 Z M8,133 C10.2091391,133 12,131.209139 12,129 C12,126.790861 10.2091391,125 8,125 C5.79086089,125 4,126.790861 4,129 C4,131.209139 5.79086089,133 8,133 Z M24,133 C26.2091391,133 28,131.209139 28,129 C28,126.790861 26.2091391,125 24,125 C21.7908609,125 20,126.790861 20,129 C20,131.209139 21.7908609,133 24,133 Z M16,117 C18.2091391,117 20,115.209139 20,113 C20,110.790861 18.2091391,109 16,109 C13.7908609,109 12,110.790861 12,113 C12,115.209139 13.7908609,117 16,117 Z M8,100 C9.65685433,100 11,98.6568543 11,97 C11,95.3431457 9.65685433,94 8,94 C6.34314567,94 5,95.3431457 5,97 C5,98.6568543 6.34314567,100 8,100 Z M24,100 C25.6568543,100 27,98.6568543 27,97 C27,95.3431457 25.6568543,94 24,94 C22.3431457,94 21,95.3431457 21,97 C21,98.6568543 22.3431457,100 24,100 Z M16,83 C17.6568543,83 19,81.6568543 19,80 C19,78.3431457 17.6568543,77 16,77 C14.3431457,77 13,78.3431457 13,80 C13,81.6568543 14.3431457,83 16,83 Z M8,63 C9.10456955,63 10,62.1045696 10,61 C10,59.8954304 9.10456955,59 8,59 C6.89543045,59 6,59.8954304 6,61 C6,62.1045696 6.89543045,63 8,63 Z M24,63 C25.1045696,63 26,62.1045696 26,61 C26,59.8954304 25.1045696,59 24,59 C22.8954304,59 22,59.8954304 22,61 C22,62.1045696 22.8954304,63 24,63 Z M0,83 C1.65685433,83 3,81.6568543 3,80 C3,78.3431457 1.65685433,77 0,77 C-1.65685433,77 -3,78.3431457 -3,80 C-3,81.6568543 -1.65685433,83 0,83 Z M32,83 C33.6568543,83 35,81.6568543 35,80 C35,78.3431457 33.6568543,77 32,77 C30.3431457,77 29,78.3431457 29,80 C29,81.6568543 30.3431457,83 32,83 Z M0,117 C2.20913911,117 4,115.209139 4,113 C4,110.790861 2.20913911,109 0,109 C-2.20913911,109 -4,110.790861 -4,113 C-4,115.209139 -2.20913911,117 0,117 Z M32,117 C34.2091391,117 36,115.209139 36,113 C36,110.790861 34.2091391,109 32,109 C29.7908609,109 28,110.790861 28,113 C28,115.209139 29.7908609,117 32,117 Z M0,149 C2.76142389,149 5,146.761424 5,144 C5,141.238576 2.76142389,139 0,139 C-2.76142389,139 -5,141.238576 -5,144 C-5,146.761424 -2.76142389,149 0,149 Z M32,149 C34.7614239,149 37,146.761424 37,144 C37,141.238576 34.7614239,139 32,139 C29.2385761,139 27,141.238576 27,144 C27,146.761424 29.2385761,149 32,149 Z M0,179 C3.31370866,179 6,176.313709 6,173 C6,169.686291 3.31370866,167 0,167 C-3.31370866,167 -6,169.686291 -6,173 C-6,176.313709 -3.31370866,179 0,179 Z M32,179 C35.3137087,179 38,176.313709 38,173 C38,169.686291 35.3137087,167 32,167 C28.6862913,167 26,169.686291 26,173 C26,176.313709 28.6862913,179 32,179 Z M24,221 C27.8659934,221 31,217.865993 31,214 C31,210.134007 27.8659934,207 24,207 C20.1340066,207 17,210.134007 17,214 C17,217.865993 20.1340066,221 24,221 Z M16,208 C19.8659934,208 23,204.865993 23,201 C23,197.134007 19.8659934,194 16,194 C12.1340066,194 9,197.134007 9,201 C9,204.865993 12.1340066,208 16,208 Z M0,208 C3.86599344,208 7,204.865993 7,201 C7,197.134007 3.86599344,194 0,194 C-3.86599344,194 -7,197.134007 -7,201 C-7,204.865993 -3.86599344,208 0,208 Z M32,208 C35.8659934,208 39,204.865993 39,201 C39,197.134007 35.8659934,194 32,194 C28.1340066,194 25,197.134007 25,201 C25,204.865993 28.1340066,208 32,208 Z M16,44 C17.1045696,44 18,43.1045696 18,42 C18,40.8954304 17.1045696,40 16,40 C14.8954304,40 14,40.8954304 14,42 C14,43.1045696 14.8954304,44 16,44 Z M8,22 C8.55228478,22 9,21.5522848 9,21 C9,20.4477152 8.55228478,20 8,20 C7.44771522,20 7,20.4477152 7,21 C7,21.5522848 7.44771522,22 8,22 Z M24,22 C24.5522848,22 25,21.5522848 25,21 C25,20.4477152 24.5522848,20 24,20 C23.4477152,20 23,20.4477152 23,21 C23,21.5522848 23.4477152,22 24,22 Z M32,2 C32.5522848,2 33,1.55228478 33,1 C33,0.447715223 32.5522848,0 32,0 C31.4477152,0 31,0.447715223 31,1 C31,1.55228478 31.4477152,2 32,2 Z M16,2 C16.5522848,2 17,1.55228478 17,1 C17,0.447715223 16.5522848,0 16,0 C15.4477152,0 15,0.447715223 15,1 C15,1.55228478 15.4477152,2 16,2 Z M0,2 C0.552284777,2 1,1.55228478 1,1 C1,0.447715223 0.552284777,0 0,0 C-0.552284777,0 -1,0.447715223 -1,1 C-1,1.55228478 -0.552284777,2 0,2 Z M0,44 C1.10456955,44 2,43.1045696 2,42 C2,40.8954304 1.10456955,40 0,40 C-1.10456955,40 -2,40.8954304 -2,42 C-2,43.1045696 -1.10456955,44 0,44 Z M32,44 C33.1045696,44 34,43.1045696 34,42 C34,40.8954304 33.1045696,40 32,40 C30.8954304,40 30,40.8954304 30,42 C30,43.1045696 30.8954304,44 32,44 Z" id="purple-dots" opacity="0.25" fill="#7855C1" sketch:type="MSShapeGroup" mask="url(#mask-6)"></path>
            </g>
            <g id="purple-+-purple-dots" sketch:type="MSLayerGroup" transform="translate(96.000000, -142.000000)">
                <mask id="mask-8" sketch:name="purple" fill="white">
                    <use xlink:href="#path-7"></use>
                </mask>
                <use id="purple" fill="#5835A1" sketch:type="MSShapeGroup" xlink:href="#path-7"></use>
                <path d="M1.33582034e-12,242.876007 C-1.36472889,245.335425 -3.98797315,247 -7,247 C-11.4182782,247 -15,243.418278 -15,239 C-15,234.581722 -11.4182782,231 -7,231 C-6.9764985,231 -6.95302066,231.000101 -6.92956691,231.000304 C-7.61035589,229.823542 -8,228.457274 -8,227 C-8,222.581722 -4.41827822,219 0,219 C4.41827822,219 8,222.581722 8,227 C8,228.489106 7.59314749,229.883187 6.88453848,231.077146 L6.88453848,231.077146 C7.24906757,231.026291 7.62146353,231 8,231 C8.37853647,231 8.75093243,231.026291 9.11546152,231.077146 L9.11546152,231.077146 C8.40685251,229.883187 8,228.489106 8,227 C8,222.581722 11.5817218,219 16,219 C20.4182782,219 24,222.581722 24,227 C24,228.457274 23.6103559,229.823542 22.9295669,231.000304 C22.9530207,231.000101 22.9764985,231 23,231 C23.7884151,231 24.5501924,231.11405 25.2697337,231.326552 L25.2697337,231.326552 C24.4662172,230.079204 24,228.594048 24,227 C24,222.581722 27.5817218,219 32,219 C36.4182782,219 40,222.581722 40,227 C40,228.477884 39.5992565,229.86217 38.9005073,231.050118 C42.8948679,231.497567 46,234.886162 46,239 C46,243.418278 42.4182782,247 38,247 C35.6106149,247 33.4658889,245.95249 32,244.291649 L32,250 L0,250 L0,242.876007 Z M29.7302663,234.673448 C30.0391189,235.152899 30.2981372,235.667485 30.5,236.209884 C30.663592,235.770317 30.8647218,235.349017 31.0994927,234.949882 C30.6295739,234.897241 30.1719624,234.803894 29.7302663,234.673448 L29.7302663,234.673448 Z M1.11546152,234.922854 C0.873831916,235.329984 0.667289099,235.760383 0.5,236.209884 L0.5,236.209884 C0.34319822,235.788562 0.151910068,235.384023 -0.0704330925,234.999696 C-0.0469793394,234.999899 -0.0235015042,235 0,235 C0.378536473,235 0.750932434,234.973709 1.11546152,234.922854 L1.11546152,234.922854 Z M14.8845385,234.922854 C15.1261681,235.329984 15.3327109,235.760383 15.5,236.209884 L15.5,236.209884 C15.6568018,235.788562 15.8480899,235.384023 16.0704331,234.999696 C16.0469793,234.999899 16.0235015,235 16,235 C15.6214635,235 15.2490676,234.973709 14.8845385,234.922854 L14.8845385,234.922854 Z M8,221 C11.8659934,221 15,217.865993 15,214 C15,210.134007 11.8659934,207 8,207 C4.13400656,207 1,210.134007 1,214 C1,217.865993 4.13400656,221 8,221 Z M8,193 C11.3137087,193 14,190.313709 14,187 C14,183.686291 11.3137087,181 8,181 C4.68629134,181 2,183.686291 2,187 C2,190.313709 4.68629134,193 8,193 Z M24,193 C27.3137087,193 30,190.313709 30,187 C30,183.686291 27.3137087,181 24,181 C20.6862913,181 18,183.686291 18,187 C18,190.313709 20.6862913,193 24,193 Z M16,179 C19.3137087,179 22,176.313709 22,173 C22,169.686291 19.3137087,167 16,167 C12.6862913,167 10,169.686291 10,173 C10,176.313709 12.6862913,179 16,179 Z M8,164 C10.7614239,164 13,161.761424 13,159 C13,156.238576 10.7614239,154 8,154 C5.23857611,154 3,156.238576 3,159 C3,161.761424 5.23857611,164 8,164 Z M24,164 C26.7614239,164 29,161.761424 29,159 C29,156.238576 26.7614239,154 24,154 C21.2385761,154 19,156.238576 19,159 C19,161.761424 21.2385761,164 24,164 Z M16,149 C18.7614239,149 21,146.761424 21,144 C21,141.238576 18.7614239,139 16,139 C13.2385761,139 11,141.238576 11,144 C11,146.761424 13.2385761,149 16,149 Z M8,133 C10.2091391,133 12,131.209139 12,129 C12,126.790861 10.2091391,125 8,125 C5.79086089,125 4,126.790861 4,129 C4,131.209139 5.79086089,133 8,133 Z M24,133 C26.2091391,133 28,131.209139 28,129 C28,126.790861 26.2091391,125 24,125 C21.7908609,125 20,126.790861 20,129 C20,131.209139 21.7908609,133 24,133 Z M16,117 C18.2091391,117 20,115.209139 20,113 C20,110.790861 18.2091391,109 16,109 C13.7908609,109 12,110.790861 12,113 C12,115.209139 13.7908609,117 16,117 Z M8,100 C9.65685433,100 11,98.6568543 11,97 C11,95.3431457 9.65685433,94 8,94 C6.34314567,94 5,95.3431457 5,97 C5,98.6568543 6.34314567,100 8,100 Z M24,100 C25.6568543,100 27,98.6568543 27,97 C27,95.3431457 25.6568543,94 24,94 C22.3431457,94 21,95.3431457 21,97 C21,98.6568543 22.3431457,100 24,100 Z M16,83 C17.6568543,83 19,81.6568543 19,80 C19,78.3431457 17.6568543,77 16,77 C14.3431457,77 13,78.3431457 13,80 C13,81.6568543 14.3431457,83 16,83 Z M8,63 C9.10456955,63 10,62.1045696 10,61 C10,59.8954304 9.10456955,59 8,59 C6.89543045,59 6,59.8954304 6,61 C6,62.1045696 6.89543045,63 8,63 Z M24,63 C25.1045696,63 26,62.1045696 26,61 C26,59.8954304 25.1045696,59 24,59 C22.8954304,59 22,59.8954304 22,61 C22,62.1045696 22.8954304,63 24,63 Z M0,83 C1.65685433,83 3,81.6568543 3,80 C3,78.3431457 1.65685433,77 0,77 C-1.65685433,77 -3,78.3431457 -3,80 C-3,81.6568543 -1.65685433,83 0,83 Z M32,83 C33.6568543,83 35,81.6568543 35,80 C35,78.3431457 33.6568543,77 32,77 C30.3431457,77 29,78.3431457 29,80 C29,81.6568543 30.3431457,83 32,83 Z M0,117 C2.20913911,117 4,115.209139 4,113 C4,110.790861 2.20913911,109 0,109 C-2.20913911,109 -4,110.790861 -4,113 C-4,115.209139 -2.20913911,117 0,117 Z M32,117 C34.2091391,117 36,115.209139 36,113 C36,110.790861 34.2091391,109 32,109 C29.7908609,109 28,110.790861 28,113 C28,115.209139 29.7908609,117 32,117 Z M0,149 C2.76142389,149 5,146.761424 5,144 C5,141.238576 2.76142389,139 0,139 C-2.76142389,139 -5,141.238576 -5,144 C-5,146.761424 -2.76142389,149 0,149 Z M32,149 C34.7614239,149 37,146.761424 37,144 C37,141.238576 34.7614239,139 32,139 C29.2385761,139 27,141.238576 27,144 C27,146.761424 29.2385761,149 32,149 Z M0,179 C3.31370866,179 6,176.313709 6,173 C6,169.686291 3.31370866,167 0,167 C-3.31370866,167 -6,169.686291 -6,173 C-6,176.313709 -3.31370866,179 0,179 Z M32,179 C35.3137087,179 38,176.313709 38,173 C38,169.686291 35.3137087,167 32,167 C28.6862913,167 26,169.686291 26,173 C26,176.313709 28.6862913,179 32,179 Z M24,221 C27.8659934,221 31,217.865993 31,214 C31,210.134007 27.8659934,207 24,207 C20.1340066,207 17,210.134007 17,214 C17,217.865993 20.1340066,221 24,221 Z M16,208 C19.8659934,208 23,204.865993 23,201 C23,197.134007 19.8659934,194 16,194 C12.1340066,194 9,197.134007 9,201 C9,204.865993 12.1340066,208 16,208 Z M0,208 C3.86599344,208 7,204.865993 7,201 C7,197.134007 3.86599344,194 0,194 C-3.86599344,194 -7,197.134007 -7,201 C-7,204.865993 -3.86599344,208 0,208 Z M32,208 C35.8659934,208 39,204.865993 39,201 C39,197.134007 35.8659934,194 32,194 C28.1340066,194 25,197.134007 25,201 C25,204.865993 28.1340066,208 32,208 Z M16,44 C17.1045696,44 18,43.1045696 18,42 C18,40.8954304 17.1045696,40 16,40 C14.8954304,40 14,40.8954304 14,42 C14,43.1045696 14.8954304,44 16,44 Z M8,22 C8.55228478,22 9,21.5522848 9,21 C9,20.4477152 8.55228478,20 8,20 C7.44771522,20 7,20.4477152 7,21 C7,21.5522848 7.44771522,22 8,22 Z M24,22 C24.5522848,22 25,21.5522848 25,21 C25,20.4477152 24.5522848,20 24,20 C23.4477152,20 23,20.4477152 23,21 C23,21.5522848 23.4477152,22 24,22 Z M32,2 C32.5522848,2 33,1.55228478 33,1 C33,0.447715223 32.5522848,0 32,0 C31.4477152,0 31,0.447715223 31,1 C31,1.55228478 31.4477152,2 32,2 Z M16,2 C16.5522848,2 17,1.55228478 17,1 C17,0.447715223 16.5522848,0 16,0 C15.4477152,0 15,0.447715223 15,1 C15,1.55228478 15.4477152,2 16,2 Z M0,2 C0.552284777,2 1,1.55228478 1,1 C1,0.447715223 0.552284777,0 0,0 C-0.552284777,0 -1,0.447715223 -1,1 C-1,1.55228478 -0.552284777,2 0,2 Z M0,44 C1.10456955,44 2,43.1045696 2,42 C2,40.8954304 1.10456955,40 0,40 C-1.10456955,40 -2,40.8954304 -2,42 C-2,43.1045696 -1.10456955,44 0,44 Z M32,44 C33.1045696,44 34,43.1045696 34,42 C34,40.8954304 33.1045696,40 32,40 C30.8954304,40 30,40.8954304 30,42 C30,43.1045696 30.8954304,44 32,44 Z" id="purple-dots" opacity="0.25" fill="#7855C1" sketch:type="MSShapeGroup" mask="url(#mask-8)"></path>
            </g>
            <path d="M48.14,11.58 C48.14,9.656 45.124,9.292 43.72,9.292 C41.9,9.292 34.724,9.292 34.152,11.32 C34.1,11.554 34.074,11.814 34.074,12.074 C34.074,12.646 34.23,13.14 34.542,13.478 C34.386,16.312 34.152,19.12 34.152,21.928 C34.152,22.63 34.178,23.306 34.204,24.008 C34.308,25.516 33.892,29.26 36.18,29.26 C38.338,29.26 38.806,27.206 38.806,25.464 C38.806,24.528 38.702,23.592 38.624,22.682 C38.598,22.188 38.572,21.694 38.546,21.2 C39.456,21.07 40.366,20.966 41.276,20.966 C43.148,20.966 46.97,21.33 46.97,18.496 C46.97,16.858 44.474,16.65 43.278,16.65 C41.692,16.65 40.054,16.65 38.468,16.936 C38.494,15.948 38.546,14.96 38.624,13.972 C40.548,13.842 42.446,13.686 44.37,13.686 C45.566,13.686 48.14,13.166 48.14,11.58 L48.14,11.58 Z M54.926,27.102 C54.926,26.322 54.484,25.438 54.484,24.268 C54.484,21.59 54.588,19.666 54.588,16.988 C54.588,16.026 54.276,15.142 53.028,15.142 C51.13,15.142 50.792,18.6 50.792,19.848 C50.792,22.63 50.844,24.658 50.844,27.44 C50.844,28.376 51.182,29.494 52.43,29.494 C53.652,29.494 54.926,28.168 54.926,27.102 L54.926,27.102 Z M55.134,10.462 C55.134,9.292 54.484,8.538 53.158,8.538 C51.858,8.538 50.428,10.124 50.428,11.242 C50.428,12.178 51.26,13.114 52.326,13.114 C53.548,13.114 55.134,11.554 55.134,10.462 L55.134,10.462 Z M69.512,16.572 C69.512,14.934 68.472,13.946 66.834,13.946 C65.092,13.946 63.87,14.518 62.804,15.376 C62.778,14.57 62.414,13.92 61.478,13.92 C58.904,13.92 58.852,16.936 58.852,18.808 C58.852,20.758 58.826,22.708 58.826,24.632 C58.826,25.62 58.748,26.608 58.748,27.622 C58.748,28.714 59.346,29.39 60.464,29.39 C62.44,29.39 62.7,27.362 62.7,25.854 L62.7,19.432 C63.61,18.73 64.676,18.132 65.716,18.132 C66.574,18.132 67.25,18.73 68.056,18.73 C69.148,18.73 69.512,17.456 69.512,16.572 L69.512,16.572 Z M84.436,24.32 C84.436,18.34 75.622,20.784 75.622,18.678 C75.622,17.82 76.87,17.534 77.468,17.534 C78.326,17.534 79.548,17.508 80.38,17.716 C80.9,17.846 81.94,18.444 82.33,18.444 C83.266,18.444 83.578,17.508 83.578,16.78 C83.578,14.128 80.9,13.764 78.82,13.764 C77.546,13.764 75.544,14.284 74.4,14.856 C72.866,15.61 71.54,17.898 71.54,19.614 C71.54,22.5 74.348,23.02 76.506,23.618 C77.078,23.8 80.562,24.19 80.562,24.684 C80.562,25.906 77.884,26.088 77.026,26.088 C74.582,26.088 74.27,24.918 72.918,24.918 C71.904,24.918 71.41,25.412 71.41,26.426 C71.41,28.714 73.88,29.702 75.986,29.728 C77.026,29.728 78.092,29.78 79.132,29.572 C81.55,29.078 84.436,27.024 84.436,24.32 L84.436,24.32 Z M96.136,26.556 C96.136,25.932 95.876,25.204 95.148,25.204 C94.29,25.204 93.588,25.88 92.73,25.88 C90.988,25.88 90.988,23.306 90.988,22.084 C90.988,21.304 91.014,20.524 91.014,19.718 C91.014,19.068 91.066,18.392 91.118,17.742 C91.326,17.716 91.534,17.716 91.768,17.716 C92.964,17.716 95.98,16.936 95.98,15.402 C95.98,14.258 95.148,13.868 94.134,13.868 C93.432,13.868 92.73,14.024 92.028,14.024 L91.352,14.024 L91.352,13.478 C91.352,12.932 91.456,12.412 91.456,11.866 C91.456,11.034 91.17,10.046 90.13,10.046 C89.948,10.046 89.74,10.098 89.558,10.124 C88.284,10.462 87.4,12.282 87.4,13.53 L87.4,14.206 C86.49,14.544 85.58,15.714 85.58,16.546 C85.58,17.508 86.204,17.794 87.062,17.794 L87.4,17.794 C87.374,19.874 87.348,21.98 87.348,24.06 C87.348,26.582 88.31,29.754 91.352,29.754 C93.224,29.754 96.136,28.844 96.136,26.556 L96.136,26.556 Z" id="First" fill="#FFFFFF" sketch:type="MSShapeGroup"></path>
        </g>
    </g>
</svg>