<?xml version="1.0" encoding="UTF-8" standalone="no"?>
<svg width="275px" height="206px" viewBox="0 0 275 206" version="1.1" xmlns="http://www.w3.org/2000/svg" xmlns:xlink="http://www.w3.org/1999/xlink" xmlns:sketch="http://www.bohemiancoding.com/sketch/ns">
    <!-- Generator: Sketch 3.3.2 (12043) - http://www.bohemiancoding.com/sketch -->
    <title>no_preview</title>
    <desc>Created with Sketch.</desc>
    <defs></defs>
    <g id="Page-1" stroke="none" stroke-width="1" fill="none" fill-rule="evenodd" sketch:type="MSPage">
        <g id="no_preview" sketch:type="MSArtboardGroup">
            <rect id="Rectangle-1" fill="#EAE7F3" sketch:type="MSShapeGroup" x="0" y="0" width="275" height="206"></rect>
            <path d="M86.08,71.768 C86.08,70.184 86.488,67.184 84.784,67.952 C82.984,68.768 83.248,72.296 83.272,73.376 C83.296,75.584 83.296,78.632 83.296,81.032 C82.624,79.904 81.808,78.488 81.208,77.432 C80.032,75.368 78.88,73.448 77.656,71.24 C76.768,69.608 75.376,67.904 73.624,68.048 C71.2,68.24 71.992,70.088 71.968,71.144 C71.944,72.032 72.04,73.592 72.04,74.432 C72.04,78.344 72.448,80.264 71.992,84.248 C71.848,85.544 72.232,86.696 73.888,86 C74.752,85.64 75.064,82.496 75.064,81.92 C75.064,78.632 75.016,77.024 75.112,73.76 C76.864,76.448 77.968,78.224 79.504,81.056 C79.864,81.704 80.608,83.216 80.968,83.744 C81.52,84.56 82.552,87.128 83.848,86.72 C85.84,86.096 86.008,84.224 86.032,83 C86.08,79.928 86.08,74.816 86.08,71.768 L86.08,71.768 Z M98.728,79.472 C98.728,81.68 98.776,83.864 95.968,83.864 C93.04,83.864 91.576,81.8 91.576,79.352 C91.576,77.312 91.552,75.752 93.544,75.2 C94.144,75.032 95.104,74.96 95.704,75.08 C97.696,75.488 98.728,77.336 98.728,79.472 L98.728,79.472 Z M101.632,77.192 C101.44,75.2 99.64,72.848 97.384,72.344 C96.016,72.056 94.192,72.008 92.824,72.824 C89.824,74.6 88.696,78.248 88.696,80.552 C88.696,84.224 91.288,86.768 94.912,86.768 C99.88,86.768 102.04,81.632 101.632,77.192 L101.632,77.192 Z M121.768,78.44 C122.32,81.008 121.84,83.648 118.888,83.648 C117.28,83.648 116.272,83.024 115.36,82.64 C115.216,80.696 115.408,78.056 115.432,76.4 L115.432,76.16 C116.296,75.632 117.256,75.176 118.048,75.176 C119.896,75.176 121.096,75.32 121.768,78.44 L121.768,78.44 Z M124.936,78.608 C124.936,75.44 123.52,72.128 119.824,72.128 C118.192,72.128 116.752,72.584 115.552,73.64 C115.552,72.896 115.816,72.032 114.448,72.032 C113.2,72.032 112.6,74.48 112.6,75.416 C112.6,76.832 112.648,78.296 112.744,79.736 C112.912,82.304 112.72,84.512 112.624,87.224 C112.576,88.4 112.456,89.072 112.456,90.248 C112.456,91.28 113.104,92 113.824,91.664 C115.048,91.088 115.432,89.648 115.432,88.496 C115.432,87.656 115.456,86.96 115.456,86.312 C116.08,86.48 116.896,86.6 117.832,86.6 C119.752,86.6 121.24,86.336 122.512,84.776 C123.808,83.192 124.936,80.864 124.936,78.608 L124.936,78.608 Z M136.432,73.688 C136.312,72.752 135.52,72.104 134.44,72.104 C132.52,72.104 131.32,72.992 130.24,74.12 L130.24,74.072 C130.288,73.304 130.528,72.08 129.52,72.08 C127.48,72.08 127.528,74.912 127.528,76.424 C127.528,78.368 127.504,80.264 127.504,82.16 C127.504,82.928 127.432,84.32 127.432,85.088 C127.432,85.976 127.864,86.432 128.776,86.36 C130.696,86.192 130.12,82.496 130.168,81.512 C130.24,80.216 130.192,78.416 130.192,76.76 C131.224,75.944 132.472,75.176 133.624,75.272 C134.512,75.344 135.28,76.064 135.832,75.8 C136.36,75.536 136.552,74.696 136.432,73.688 L136.432,73.688 Z M147.448,77.312 C145.504,77.432 142.12,77.48 140.08,77.48 C140.536,76.232 141.544,74.72 144.016,74.72 C145.648,74.72 147.448,75.392 147.448,77.312 L147.448,77.312 Z M149.608,77.936 C149.608,76.352 149.176,74.192 147.952,73.04 C146.68,71.84 145.432,71.864 143.68,71.864 C142.024,71.864 139.672,73.448 138.904,74.648 C137.896,76.232 136.984,78.392 136.984,80.384 C136.984,83.912 140.368,86.696 143.512,86.696 C145.48,86.696 148.696,86.168 149.416,83.888 C149.56,83.408 149.488,82.568 149.056,82.568 C147.592,82.568 147.328,83.48 145.504,83.672 C143.824,83.84 142.528,83.672 141.952,83.384 C140.584,82.664 139.648,81.224 139.744,80.192 C142.408,80.192 143.608,80.24 146.272,80.24 C147.928,80.24 149.608,79.736 149.608,77.936 L149.608,77.936 Z M163,74.12 C163,73.472 162.904,72.224 161.92,72.44 C160.696,72.704 160.768,74.888 160.384,76.064 C159.904,77.528 159.256,79.784 158.56,81.08 C158.248,81.632 158.032,82.28 157.816,82.52 C157.072,80.192 155.416,77.696 155.056,75.2 C154.744,73.064 154.24,72.224 153.256,72.464 C152.272,72.704 151.672,74.24 151.672,74.984 C151.672,75.56 152.152,77.36 152.704,78.272 C153.688,79.928 153.976,81.416 154.984,83.384 C155.44,84.248 155.824,85.064 156.28,85.952 C156.472,86.336 156.736,86.96 157.576,86.864 C158.344,86.768 158.968,85.448 159.28,84.848 C160.096,83.336 160.6,81.488 161.248,79.976 C162.04,78.128 163,76.232 163,74.12 L163,74.12 Z M169.648,84.464 C169.576,83.96 169.408,83.624 169.336,83.144 C169.168,82.256 169.264,81.296 169.264,80.336 C169.24,78.464 169.312,76.856 169.312,74.984 C169.312,74.048 169.624,72.728 168.304,72.728 C166.816,72.728 166.6,75.464 166.6,76.808 C166.6,79.544 166.672,82.16 166.672,84.944 C166.672,85.76 166.936,86.456 167.728,86.456 C168.616,86.456 169.768,85.352 169.648,84.464 L169.648,84.464 Z M169.864,69.224 C169.864,68.024 169.024,67.736 168.064,67.856 C167.2,67.976 166.288,69.512 166.288,69.992 C166.288,70.76 167.032,71.312 167.632,71.312 C168.448,71.312 169.864,70.088 169.864,69.224 L169.864,69.224 Z M182.536,77.312 C180.592,77.432 177.208,77.48 175.168,77.48 C175.624,76.232 176.632,74.72 179.104,74.72 C180.736,74.72 182.536,75.392 182.536,77.312 L182.536,77.312 Z M184.696,77.936 C184.696,76.352 184.264,74.192 183.04,73.04 C181.768,71.84 180.52,71.864 178.768,71.864 C177.112,71.864 174.76,73.448 173.992,74.648 C172.984,76.232 172.072,78.392 172.072,80.384 C172.072,83.912 175.456,86.696 178.6,86.696 C180.568,86.696 183.784,86.168 184.504,83.888 C184.648,83.408 184.576,82.568 184.144,82.568 C182.68,82.568 182.416,83.48 180.592,83.672 C178.912,83.84 177.616,83.672 177.04,83.384 C175.672,82.664 174.736,81.224 174.832,80.192 C177.496,80.192 178.696,80.24 181.36,80.24 C183.016,80.24 184.696,79.736 184.696,77.936 L184.696,77.936 Z M203.68,74.504 C203.848,73.136 203.608,71.72 202.528,71.72 C201.64,71.72 201.496,72.56 201.448,73.352 C201.376,74.576 201.304,75.656 200.968,76.856 C200.464,78.68 200.2,80 199.624,81.824 C198.856,79.376 198.184,77.216 197.344,74.768 C197.176,74.288 196.456,72.296 195.928,72.032 C195.016,71.576 194.224,72.296 194.08,72.8 C193.648,74.264 193.336,75.56 192.832,77.048 C192.28,78.68 191.752,80.576 191.104,81.968 C190.456,79.736 189.784,76.928 189.472,74.36 C189.304,72.944 189.184,71.6 188.032,71.984 C187.144,72.296 186.448,74.192 186.52,75.08 C186.592,75.896 186.952,76.904 187.36,78.104 C188.008,80.048 188.2,81.176 188.728,82.976 C189.064,84.152 189.16,86.792 190.768,86.792 C191.728,86.792 192.088,85.304 192.232,84.608 C192.424,83.696 192.76,82.808 193.096,81.848 C193.576,80.456 194.584,78.176 194.968,76.904 C195.808,79.088 196.96,81.68 197.584,83.816 C197.752,84.416 198.304,86.456 199.216,86.456 C200.848,86.456 201.208,84.368 201.4,83.12 C201.52,82.448 201.688,81.968 201.856,81.392 C202.432,79.448 203.416,76.64 203.68,74.504 L203.68,74.504 Z M94.564,108.928 C94.54,109.96 94.492,110.968 94.468,111.976 C93.364,112.384 92.38,112.672 91.156,112.672 C89.764,112.672 88.54,112.096 88.54,110.56 C88.54,108.568 91.612,108.664 92.524,108.712 C93.028,108.736 93.892,108.88 94.564,108.928 L94.564,108.928 Z M97.42,110.68 C97.42,108.4 97.684,105.112 96.964,103.144 C96.292,101.296 93.796,100.792 91.876,100.792 C90.652,100.792 89.236,101.104 88.036,101.584 C87.148,101.944 86.524,102.808 86.524,103.864 C86.524,104.008 86.548,104.728 87.172,104.728 C87.796,104.728 89.428,103.816 91.18,103.816 C93.22,103.816 94.276,104.224 94.516,105.976 C93.124,105.904 90.82,106.024 89.62,106.504 C87.868,107.176 85.42,109.168 85.42,111.304 C85.42,113.512 87.124,115.672 89.356,115.672 C90.028,115.672 91.3,115.552 91.828,115.432 C92.548,115.264 93.532,114.856 94.42,114.328 C94.492,115 94.78,115.528 95.668,115.528 C97.588,115.528 97.42,112.264 97.42,110.68 L97.42,110.68 Z M111.46,103.12 C111.46,102.472 111.364,101.224 110.38,101.44 C109.156,101.704 109.228,103.888 108.844,105.064 C108.364,106.528 107.716,108.784 107.02,110.08 C106.708,110.632 106.492,111.28 106.276,111.52 C105.532,109.192 103.876,106.696 103.516,104.2 C103.204,102.064 102.7,101.224 101.716,101.464 C100.732,101.704 100.132,103.24 100.132,103.984 C100.132,104.56 100.612,106.36 101.164,107.272 C102.148,108.928 102.436,110.416 103.444,112.384 C103.9,113.248 104.284,114.064 104.74,114.952 C104.932,115.336 105.196,115.96 106.036,115.864 C106.804,115.768 107.428,114.448 107.74,113.848 C108.556,112.336 109.06,110.488 109.708,108.976 C110.5,107.128 111.46,105.232 111.46,103.12 L111.46,103.12 Z M122.524,108.928 C122.5,109.96 122.452,110.968 122.428,111.976 C121.324,112.384 120.34,112.672 119.116,112.672 C117.724,112.672 116.5,112.096 116.5,110.56 C116.5,108.568 119.572,108.664 120.484,108.712 C120.988,108.736 121.852,108.88 122.524,108.928 L122.524,108.928 Z M125.38,110.68 C125.38,108.4 125.644,105.112 124.924,103.144 C124.252,101.296 121.756,100.792 119.836,100.792 C118.612,100.792 117.196,101.104 115.996,101.584 C115.108,101.944 114.484,102.808 114.484,103.864 C114.484,104.008 114.508,104.728 115.132,104.728 C115.756,104.728 117.388,103.816 119.14,103.816 C121.18,103.816 122.236,104.224 122.476,105.976 C121.084,105.904 118.78,106.024 117.58,106.504 C115.828,107.176 113.38,109.168 113.38,111.304 C113.38,113.512 115.084,115.672 117.316,115.672 C117.988,115.672 119.26,115.552 119.788,115.432 C120.508,115.264 121.492,114.856 122.38,114.328 C122.452,115 122.74,115.528 123.628,115.528 C125.548,115.528 125.38,112.264 125.38,110.68 L125.38,110.68 Z M132.052,113.464 C131.98,112.96 131.812,112.624 131.74,112.144 C131.572,111.256 131.668,110.296 131.668,109.336 C131.644,107.464 131.716,105.856 131.716,103.984 C131.716,103.048 132.028,101.728 130.708,101.728 C129.22,101.728 129.004,104.464 129.004,105.808 C129.004,108.544 129.076,111.16 129.076,113.944 C129.076,114.76 129.34,115.456 130.132,115.456 C131.02,115.456 132.172,114.352 132.052,113.464 L132.052,113.464 Z M132.268,98.224 C132.268,97.024 131.428,96.736 130.468,96.856 C129.604,96.976 128.692,98.512 128.692,98.992 C128.692,99.76 129.436,100.312 130.036,100.312 C130.852,100.312 132.268,99.088 132.268,98.224 L132.268,98.224 Z M138.34,105.592 C138.34,103.096 138.508,99.76 138.268,97.408 C138.22,96.904 137.716,96.568 137.236,96.568 C136.156,96.568 135.46,97.912 135.46,98.848 C135.436,101.416 135.7,103.96 135.628,106.528 C135.58,108.712 135.508,110.536 135.412,112.696 C135.316,114.688 135.46,115.336 136.516,115.288 C137.884,115.216 138.34,113.32 138.34,112.024 L138.34,105.592 Z M150.1,108.928 C150.076,109.96 150.028,110.968 150.004,111.976 C148.9,112.384 147.916,112.672 146.692,112.672 C145.3,112.672 144.076,112.096 144.076,110.56 C144.076,108.568 147.148,108.664 148.06,108.712 C148.564,108.736 149.428,108.88 150.1,108.928 L150.1,108.928 Z M152.956,110.68 C152.956,108.4 153.22,105.112 152.5,103.144 C151.828,101.296 149.332,100.792 147.412,100.792 C146.188,100.792 144.772,101.104 143.572,101.584 C142.684,101.944 142.06,102.808 142.06,103.864 C142.06,104.008 142.084,104.728 142.708,104.728 C143.332,104.728 144.964,103.816 146.716,103.816 C148.756,103.816 149.812,104.224 150.052,105.976 C148.66,105.904 146.356,106.024 145.156,106.504 C143.404,107.176 140.956,109.168 140.956,111.304 C140.956,113.512 142.66,115.672 144.892,115.672 C145.564,115.672 146.836,115.552 147.364,115.432 C148.084,115.264 149.068,114.856 149.956,114.328 C150.028,115 150.316,115.528 151.204,115.528 C153.124,115.528 152.956,112.264 152.956,110.68 L152.956,110.68 Z M165.844,107.752 C165.988,110.2 166.036,112.744 162.58,112.744 C160.948,112.744 160.132,112.096 159.196,111.52 C159.22,110.728 159.268,109.96 159.292,109.216 C159.316,108.328 159.34,107.008 159.316,105.568 C160.252,105.016 161.332,104.608 162.508,104.608 C164.356,104.608 165.724,105.712 165.844,107.752 L165.844,107.752 Z M168.772,107.368 C168.772,105.328 167.812,103.12 166.108,102.064 C165.604,101.752 164.212,101.488 163.54,101.488 C162.028,101.488 160.468,102.112 159.316,102.928 C159.292,101.224 159.268,99.616 159.268,98.56 C159.268,97.624 159.22,96.52 158.284,96.52 C156.796,96.52 156.292,98.704 156.34,100.168 C156.46,103.84 156.436,110.416 156.436,112.48 C156.436,113.68 156.172,115.576 157.588,115.576 C158.14,115.576 158.548,115.144 158.788,114.616 C159.676,115.168 161.02,115.6 161.98,115.6 C164.332,115.6 165.844,114.448 167.188,112.48 C168.124,111.112 168.772,108.856 168.772,107.368 L168.772,107.368 Z M174.292,105.592 C174.292,103.096 174.46,99.76 174.22,97.408 C174.172,96.904 173.668,96.568 173.188,96.568 C172.108,96.568 171.412,97.912 171.412,98.848 C171.388,101.416 171.652,103.96 171.58,106.528 C171.532,108.712 171.46,110.536 171.364,112.696 C171.268,114.688 171.412,115.336 172.468,115.288 C173.836,115.216 174.292,113.32 174.292,112.024 L174.292,105.592 Z M187.468,106.312 C185.524,106.432 182.14,106.48 180.1,106.48 C180.556,105.232 181.564,103.72 184.036,103.72 C185.668,103.72 187.468,104.392 187.468,106.312 L187.468,106.312 Z M189.628,106.936 C189.628,105.352 189.196,103.192 187.972,102.04 C186.7,100.84 185.452,100.864 183.7,100.864 C182.044,100.864 179.692,102.448 178.924,103.648 C177.916,105.232 177.004,107.392 177.004,109.384 C177.004,112.912 180.388,115.696 183.532,115.696 C185.5,115.696 188.716,115.168 189.436,112.888 C189.58,112.408 189.508,111.568 189.076,111.568 C187.612,111.568 187.348,112.48 185.524,112.672 C183.844,112.84 182.548,112.672 181.972,112.384 C180.604,111.664 179.668,110.224 179.764,109.192 C182.428,109.192 183.628,109.24 186.292,109.24 C187.948,109.24 189.628,108.736 189.628,106.936 L189.628,106.936 Z" id="No-preview-available" fill="#666680" sketch:type="MSShapeGroup" transform="translate(137.795767, 91.851172) rotate(-5.000000) translate(-137.795767, -91.851172) "></path>
            <path d="M209.5,145.26 C209.5,144.12 208.76,143.84 207.94,143.96 C207.18,144.08 206.38,145.54 206.38,146 C206.38,146.74 207.02,147.28 207.56,147.28 C208.26,147.28 209.5,146.1 209.5,145.26 L209.5,145.26 Z M209.5,137.12 C209.5,135.98 208.76,135.7 207.94,135.82 C207.18,135.92 206.38,137.38 206.38,137.86 C206.38,138.58 207.02,139.12 207.56,139.12 C208.26,139.12 209.5,137.96 209.5,137.12 L209.5,137.12 Z M219.94,147.8 C219.94,147.42 219.66,147.36 219.44,147.16 C218.74,146.46 218.08,145.72 217.64,144.98 C216.72,143.42 216.22,141.64 216.22,139.94 C216.22,138.06 217.06,135.66 217.94,134.16 C218.4,133.38 219.62,132.94 219.66,132 C219.68,131.64 219.28,131.26 218.42,131.58 C217.36,131.98 216.74,132.7 216.16,133.5 C214.92,135.22 214.04,137.4 214.04,139.52 C214.04,141.28 214.22,142.24 214.66,143.96 C214.88,144.8 215.4,145.96 215.8,146.7 C216.32,147.6 217.2,148.86 218.46,148.86 C218.92,148.86 219.94,148.26 219.94,147.8 L219.94,147.8 Z" id=":(" fill="#666680" sketch:type="MSShapeGroup" transform="translate(213.980000, 140.159837) rotate(80.000000) translate(-213.980000, -140.159837) "></path>
        </g>
    </g>
</svg>