<?xml version="1.0" encoding="UTF-8" standalone="no"?>
<svg width="200px" height="200px" viewBox="0 0 200 200" version="1.1" xmlns="http://www.w3.org/2000/svg" xmlns:xlink="http://www.w3.org/1999/xlink" xmlns:sketch="http://www.bohemiancoding.com/sketch/ns">
    <!-- Generator: Sketch 3.3.2 (12043) - http://www.bohemiancoding.com/sketch -->
    <title>hil.header_left</title>
    <desc>Created with Sketch.</desc>
    <defs></defs>
    <g id="Page-1" stroke="none" stroke-width="1" fill="none" fill-rule="evenodd" sketch:type="MSPage">
        <g id="hil.header_left" sketch:type="MSArtboardGroup">
            <rect id="Rectangle-1" fill="#EEEEEE" sketch:type="MSShapeGroup" x="0" y="0" width="200" height="200"></rect>
            <g id="Rectangle-3" sketch:type="MSLayerGroup" transform="translate(110.000000, 54.000000)" fill="#6E1EAB">
                <rect sketch:type="MSShapeGroup" x="0" y="0" width="70" height="69"></rect>
            </g>
            <path d="M30.186,66.642 C30.294,64.788 30.222,63.006 30.186,61.17 C30.15,59.982 30.204,58.434 30.15,56.796 C30.132,56.022 30.186,55.104 29.376,55.104 C28.116,55.104 27.756,56.958 27.756,58.2 L27.756,60.666 C27.54,60.666 27.306,60.684 27.072,60.684 C25.272,60.684 23.796,60.738 21.978,60.738 C22.032,59.388 22.086,57.894 22.248,56.508 C22.338,55.626 22.032,55.104 21.24,55.068 C20.106,55.014 19.638,56.976 19.638,57.894 C19.638,58.974 19.584,59.802 19.584,60.846 C19.584,62.934 19.476,64.968 19.476,67.02 C19.476,67.848 19.062,69.324 20.304,69.324 C21.528,69.324 21.96,67.182 21.96,66.246 C21.96,65.148 21.942,64.32 21.924,63.42 C23.238,63.42 24.75,63.33 26.064,63.312 C26.478,63.312 27.144,63.204 27.756,62.988 C27.756,64.554 27.72,66.084 27.684,67.722 C27.666,68.37 27.45,69.432 28.368,69.432 C29.538,69.432 30.132,67.65 30.186,66.642 L30.186,66.642 Z M40.05,62.484 C38.592,62.574 36.054,62.61 34.524,62.61 C34.866,61.674 35.622,60.54 37.476,60.54 C38.7,60.54 40.05,61.044 40.05,62.484 L40.05,62.484 Z M41.67,62.952 C41.67,61.764 41.346,60.144 40.428,59.28 C39.474,58.38 38.538,58.398 37.224,58.398 C35.982,58.398 34.218,59.586 33.642,60.486 C32.886,61.674 32.202,63.294 32.202,64.788 C32.202,67.434 34.74,69.522 37.098,69.522 C38.574,69.522 40.986,69.126 41.526,67.416 C41.634,67.056 41.58,66.426 41.256,66.426 C40.158,66.426 39.96,67.11 38.592,67.254 C37.332,67.38 36.36,67.254 35.928,67.038 C34.902,66.498 34.2,65.418 34.272,64.644 C36.27,64.644 37.17,64.68 39.168,64.68 C40.41,64.68 41.67,64.302 41.67,62.952 L41.67,62.952 Z M49.716,64.446 C49.698,65.22 49.662,65.976 49.644,66.732 C48.816,67.038 48.078,67.254 47.16,67.254 C46.116,67.254 45.198,66.822 45.198,65.67 C45.198,64.176 47.502,64.248 48.186,64.284 C48.564,64.302 49.212,64.41 49.716,64.446 L49.716,64.446 Z M51.858,65.76 C51.858,64.05 52.056,61.584 51.516,60.108 C51.012,58.722 49.14,58.344 47.7,58.344 C46.782,58.344 45.72,58.578 44.82,58.938 C44.154,59.208 43.686,59.856 43.686,60.648 C43.686,60.756 43.704,61.296 44.172,61.296 C44.64,61.296 45.864,60.612 47.178,60.612 C48.708,60.612 49.5,60.918 49.68,62.232 C48.636,62.178 46.908,62.268 46.008,62.628 C44.694,63.132 42.858,64.626 42.858,66.228 C42.858,67.884 44.136,69.504 45.81,69.504 C46.314,69.504 47.268,69.414 47.664,69.324 C48.204,69.198 48.942,68.892 49.608,68.496 C49.662,69 49.878,69.396 50.544,69.396 C51.984,69.396 51.858,66.948 51.858,65.76 L51.858,65.76 Z M60.696,66.192 C60.462,66.372 60.228,66.534 60.03,66.642 C59.418,66.984 58.716,67.218 57.87,66.984 C56.394,66.57 55.962,64.824 55.962,63.456 C55.962,61.332 57.114,60.648 58.842,60.792 C59.436,60.846 60.084,61.08 60.624,61.314 C60.642,62.52 60.714,64.68 60.696,66.192 L60.696,66.192 Z M62.982,66.498 C62.982,65.4 62.82,64.158 62.82,63.096 C62.82,61.188 62.748,57.912 62.712,56.094 C62.694,55.23 62.64,54.528 61.83,54.528 C60.516,54.528 60.516,57.354 60.534,58.11 C60.534,58.38 60.552,58.632 60.552,58.848 C59.616,58.596 58.5,58.47 57.798,58.614 C55.62,59.046 53.658,61.908 53.658,64.014 C53.658,65.202 53.802,66.462 54.252,67.398 C54.828,68.604 56.088,69.324 57.438,69.324 C58.266,69.324 59.67,68.946 60.66,68.316 C60.678,68.802 60.822,69.216 61.272,69.216 C62.55,69.216 62.982,67.524 62.982,66.498 L62.982,66.498 Z M68.076,67.848 C68.022,67.47 67.896,67.218 67.842,66.858 C67.716,66.192 67.788,65.472 67.788,64.752 C67.77,63.348 67.824,62.142 67.824,60.738 C67.824,60.036 68.058,59.046 67.068,59.046 C65.952,59.046 65.79,61.098 65.79,62.106 C65.79,64.158 65.844,66.12 65.844,68.208 C65.844,68.82 66.042,69.342 66.636,69.342 C67.302,69.342 68.166,68.514 68.076,67.848 L68.076,67.848 Z M68.238,56.418 C68.238,55.518 67.608,55.302 66.888,55.392 C66.24,55.482 65.556,56.634 65.556,56.994 C65.556,57.57 66.114,57.984 66.564,57.984 C67.176,57.984 68.238,57.066 68.238,56.418 L68.238,56.418 Z M79.362,67.398 C79.254,65.976 79.182,64.05 79.146,62.61 C79.128,61.8 79.092,60.72 78.858,60 C78.48,58.812 77.076,58.488 75.906,58.488 C75.006,58.488 73.53,59.262 72.756,60 C72.792,59.262 72.828,58.668 71.91,58.668 C70.29,58.668 70.542,61.062 70.542,62.286 C70.542,64.248 70.758,65.652 70.47,67.686 C70.38,68.388 70.578,69.252 71.316,69.252 C72.792,69.252 72.594,66.696 72.594,65.634 C72.594,64.662 72.648,63.204 72.684,61.926 C73.422,61.314 74.376,60.81 75.096,60.81 C78.066,60.81 77.202,65.238 77.202,67.074 C77.202,67.794 77.076,69.486 77.922,69.504 C79.11,69.54 79.416,68.082 79.362,67.398 L79.362,67.398 Z M88.632,65.58 C88.074,65.868 87.102,66.336 85.896,66.228 C84.456,66.102 83.466,65.292 83.466,63.744 C83.466,61.044 85.014,61.062 86.4,61.062 C87.012,61.062 88.002,61.368 88.614,61.638 C88.578,62.88 88.614,64.266 88.632,65.58 L88.632,65.58 Z M90.54,59.784 C90.54,59.064 90.036,57.984 89.1,58.704 C88.956,58.812 88.848,58.974 88.776,59.154 C88.038,58.83 87.012,58.704 86.4,58.704 C85.068,58.704 83.79,59.172 83.07,60.234 C82.476,61.116 81.522,63.078 81.522,64.194 C81.522,65.67 81.702,66.12 82.458,67.254 C82.998,68.064 84.15,68.568 85.14,68.568 C86.454,68.568 87.894,68.046 88.65,67.578 C88.65,68.244 88.65,68.91 88.56,69.594 C88.416,70.584 87.084,71.088 86.22,71.088 C85.158,71.088 84.51,70.998 83.682,70.512 C82.242,69.666 82.08,71.016 82.332,71.754 C82.71,72.888 84.402,73.158 85.536,73.158 C87.624,73.158 90.09,71.43 90.45,69.324 C90.702,67.902 90.432,66.372 90.45,64.95 C90.486,63.24 90.54,61.494 90.54,59.784 L90.54,59.784 Z" id="Heading" fill="#3B3B3B" sketch:type="MSShapeGroup"></path>
        </g>
    </g>
</svg>