<?xml version="1.0" encoding="UTF-8" standalone="no"?>
<svg width="200px" height="200px" viewBox="0 0 200 200" version="1.1" xmlns="http://www.w3.org/2000/svg" xmlns:xlink="http://www.w3.org/1999/xlink" xmlns:sketch="http://www.bohemiancoding.com/sketch/ns">
    <!-- Generator: Sketch 3.4.4 (17249) - http://www.bohemiancoding.com/sketch -->
    <title>hit.header_top-image_right</title>
    <desc>Created with Sketch.</desc>
    <defs></defs>
    <g id="Page-1" stroke="none" stroke-width="1" fill="none" fill-rule="evenodd" sketch:type="MSPage">
        <g id="hit.header_top-image_right" sketch:type="MSArtboardGroup">
            <rect id="Rectangle-1" fill="#EEEEEE" sketch:type="MSShapeGroup" x="0" y="0" width="200" height="200"></rect>
            <g id="Rectangle-3" sketch:type="MSLayerGroup" transform="translate(110.000000, 59.000000)" fill="#6E1EAB">
                <rect sketch:type="MSShapeGroup" x="0" y="0" width="70" height="69"></rect>
            </g>
            <rect id="Rectangle-42" fill="#EDEDED" sketch:type="MSShapeGroup" x="0" y="180" width="200" height="20"></rect>
            <path d="M33.248,35.856 C33.392,33.384 33.296,31.008 33.248,28.56 C33.2,26.976 33.272,24.912 33.2,22.728 C33.176,21.696 33.248,20.472 32.168,20.472 C30.488,20.472 30.008,22.944 30.008,24.6 L30.008,27.888 C29.72,27.888 29.408,27.912 29.096,27.912 C26.696,27.912 24.728,27.984 22.304,27.984 C22.376,26.184 22.448,24.192 22.664,22.344 C22.784,21.168 22.376,20.472 21.32,20.424 C19.808,20.352 19.184,22.968 19.184,24.192 C19.184,25.632 19.112,26.736 19.112,28.128 C19.112,30.912 18.968,33.624 18.968,36.36 C18.968,37.464 18.416,39.432 20.072,39.432 C21.704,39.432 22.28,36.576 22.28,35.328 C22.28,33.864 22.256,32.76 22.232,31.56 C23.984,31.56 26,31.44 27.752,31.416 C28.304,31.416 29.192,31.272 30.008,30.984 C30.008,33.072 29.96,35.112 29.912,37.296 C29.888,38.16 29.6,39.576 30.824,39.576 C32.384,39.576 33.176,37.2 33.248,35.856 L33.248,35.856 Z M46.4,30.312 C44.456,30.432 41.072,30.48 39.032,30.48 C39.488,29.232 40.496,27.72 42.968,27.72 C44.6,27.72 46.4,28.392 46.4,30.312 L46.4,30.312 Z M48.56,30.936 C48.56,29.352 48.128,27.192 46.904,26.04 C45.632,24.84 44.384,24.864 42.632,24.864 C40.976,24.864 38.624,26.448 37.856,27.648 C36.848,29.232 35.936,31.392 35.936,33.384 C35.936,36.912 39.32,39.696 42.464,39.696 C44.432,39.696 47.648,39.168 48.368,36.888 C48.512,36.408 48.44,35.568 48.008,35.568 C46.544,35.568 46.28,36.48 44.456,36.672 C42.776,36.84 41.48,36.672 40.904,36.384 C39.536,35.664 38.6,34.224 38.696,33.192 C41.36,33.192 42.56,33.24 45.224,33.24 C46.88,33.24 48.56,32.736 48.56,30.936 L48.56,30.936 Z M59.288,32.928 C59.264,33.96 59.216,34.968 59.192,35.976 C58.088,36.384 57.104,36.672 55.88,36.672 C54.488,36.672 53.264,36.096 53.264,34.56 C53.264,32.568 56.336,32.664 57.248,32.712 C57.752,32.736 58.616,32.88 59.288,32.928 L59.288,32.928 Z M62.144,34.68 C62.144,32.4 62.408,29.112 61.688,27.144 C61.016,25.296 58.52,24.792 56.6,24.792 C55.376,24.792 53.96,25.104 52.76,25.584 C51.872,25.944 51.248,26.808 51.248,27.864 C51.248,28.008 51.272,28.728 51.896,28.728 C52.52,28.728 54.152,27.816 55.904,27.816 C57.944,27.816 59,28.224 59.24,29.976 C57.848,29.904 55.544,30.024 54.344,30.504 C52.592,31.176 50.144,33.168 50.144,35.304 C50.144,37.512 51.848,39.672 54.08,39.672 C54.752,39.672 56.024,39.552 56.552,39.432 C57.272,39.264 58.256,38.856 59.144,38.328 C59.216,39 59.504,39.528 60.392,39.528 C62.312,39.528 62.144,36.264 62.144,34.68 L62.144,34.68 Z M73.928,35.256 C73.616,35.496 73.304,35.712 73.04,35.856 C72.224,36.312 71.288,36.624 70.16,36.312 C68.192,35.76 67.616,33.432 67.616,31.608 C67.616,28.776 69.152,27.864 71.456,28.056 C72.248,28.128 73.112,28.44 73.832,28.752 C73.856,30.36 73.952,33.24 73.928,35.256 L73.928,35.256 Z M76.976,35.664 C76.976,34.2 76.76,32.544 76.76,31.128 C76.76,28.584 76.664,24.216 76.616,21.792 C76.592,20.64 76.52,19.704 75.44,19.704 C73.688,19.704 73.688,23.472 73.712,24.48 C73.712,24.84 73.736,25.176 73.736,25.464 C72.488,25.128 71,24.96 70.064,25.152 C67.16,25.728 64.544,29.544 64.544,32.352 C64.544,33.936 64.736,35.616 65.336,36.864 C66.104,38.472 67.784,39.432 69.584,39.432 C70.688,39.432 72.56,38.928 73.88,38.088 C73.904,38.736 74.096,39.288 74.696,39.288 C76.4,39.288 76.976,37.032 76.976,35.664 L76.976,35.664 Z M83.768,37.464 C83.696,36.96 83.528,36.624 83.456,36.144 C83.288,35.256 83.384,34.296 83.384,33.336 C83.36,31.464 83.432,29.856 83.432,27.984 C83.432,27.048 83.744,25.728 82.424,25.728 C80.936,25.728 80.72,28.464 80.72,29.808 C80.72,32.544 80.792,35.16 80.792,37.944 C80.792,38.76 81.056,39.456 81.848,39.456 C82.736,39.456 83.888,38.352 83.768,37.464 L83.768,37.464 Z M83.984,22.224 C83.984,21.024 83.144,20.736 82.184,20.856 C81.32,20.976 80.408,22.512 80.408,22.992 C80.408,23.76 81.152,24.312 81.752,24.312 C82.568,24.312 83.984,23.088 83.984,22.224 L83.984,22.224 Z M98.816,36.864 C98.672,34.968 98.576,32.4 98.528,30.48 C98.504,29.4 98.456,27.96 98.144,27 C97.64,25.416 95.768,24.984 94.208,24.984 C93.008,24.984 91.04,26.016 90.008,27 C90.056,26.016 90.104,25.224 88.88,25.224 C86.72,25.224 87.056,28.416 87.056,30.048 C87.056,32.664 87.344,34.536 86.96,37.248 C86.84,38.184 87.104,39.336 88.088,39.336 C90.056,39.336 89.792,35.928 89.792,34.512 C89.792,33.216 89.864,31.272 89.912,29.568 C90.896,28.752 92.168,28.08 93.128,28.08 C97.088,28.08 95.936,33.984 95.936,36.432 C95.936,37.392 95.768,39.648 96.896,39.672 C98.48,39.72 98.888,37.776 98.816,36.864 L98.816,36.864 Z M111.176,34.44 C110.432,34.824 109.136,35.448 107.528,35.304 C105.608,35.136 104.288,34.056 104.288,31.992 C104.288,28.392 106.352,28.416 108.2,28.416 C109.016,28.416 110.336,28.824 111.152,29.184 C111.104,30.84 111.152,32.688 111.176,34.44 L111.176,34.44 Z M113.72,26.712 C113.72,25.752 113.048,24.312 111.8,25.272 C111.608,25.416 111.464,25.632 111.368,25.872 C110.384,25.44 109.016,25.272 108.2,25.272 C106.424,25.272 104.72,25.896 103.76,27.312 C102.968,28.488 101.696,31.104 101.696,32.592 C101.696,34.56 101.936,35.16 102.944,36.672 C103.664,37.752 105.2,38.424 106.52,38.424 C108.272,38.424 110.192,37.728 111.2,37.104 C111.2,37.992 111.2,38.88 111.08,39.792 C110.888,41.112 109.112,41.784 107.96,41.784 C106.544,41.784 105.68,41.664 104.576,41.016 C102.656,39.888 102.44,41.688 102.776,42.672 C103.28,44.184 105.536,44.544 107.048,44.544 C109.832,44.544 113.12,42.24 113.6,39.432 C113.936,37.536 113.576,35.496 113.6,33.6 C113.648,31.32 113.72,28.992 113.72,26.712 L113.72,26.712 Z" id="Heading" fill="#3B3B3B" sketch:type="MSShapeGroup"></path>
            <text id="Some-things-in-life--Copy" sketch:type="MSTextLayer" font-family="Arial" font-size="9" font-weight="normal" fill="#000000">
                <tspan x="20" y="67">Some things in life </tspan>
                <tspan x="20" y="77.2944336">are bad / They can </tspan>
                <tspan x="20" y="87.5888672">really make you </tspan>
                <tspan x="20" y="97.8833008">mad / Other things </tspan>
                <tspan x="20" y="108.177734">just make you </tspan>
                <tspan x="20" y="118.472168">swear and curse / </tspan>
                <tspan x="20" y="128.766602">When you’re </tspan>
                <tspan x="20" y="139.061035">chewing on life’s </tspan>
                <tspan x="20" y="149.355469">gristle / Don’t </tspan>
                <tspan x="20" y="159.649902">grumble, give a </tspan>
                <tspan x="20" y="169.944336">whistle / And this’ll </tspan>
                <tspan x="20" y="180.23877">help things turn out </tspan>
                <tspan x="20" y="190.533203">for the best …</tspan>
            </text>
        </g>
    </g>
</svg>