<?xml version="1.0" encoding="UTF-8" standalone="no"?>
<svg width="128px" height="40px" viewBox="0 0 128 40" version="1.1" xmlns="http://www.w3.org/2000/svg" xmlns:xlink="http://www.w3.org/1999/xlink" xmlns:sketch="http://www.bohemiancoding.com/sketch/ns">
    <!-- Generator: Sketch 3.3.2 (12043) - http://www.bohemiancoding.com/sketch -->
    <title>button-main</title>
    <desc>Created with Sketch.</desc>
    <defs>
        <rect id="path-1" x="0" y="0" width="32" height="249"></rect>
        <rect id="path-3" x="0" y="0" width="32" height="249"></rect>
        <rect id="path-5" x="0" y="0" width="32" height="249"></rect>
        <rect id="path-7" x="0" y="0" width="32" height="249"></rect>
    </defs>
    <g id="Page-1" stroke="none" stroke-width="1" fill="none" fill-rule="evenodd" sketch:type="MSPage">
        <g id="button-main" sketch:type="MSArtboardGroup">
            <g id="purple-+-purple-dots" sketch:type="MSLayerGroup" transform="translate(0.000000, -142.000000)">
                <mask id="mask-2" sketch:name="purple 2" fill="white">
                    <use xlink:href="#path-1"></use>
                </mask>
                <use id="purple-2" fill="#5835A1" sketch:type="MSShapeGroup" xlink:href="#path-1"></use>
                <path d="M1.33582034e-12,242.876007 C-1.36472889,245.335425 -3.98797315,247 -7,247 C-11.4182782,247 -15,243.418278 -15,239 C-15,234.581722 -11.4182782,231 -7,231 C-6.9764985,231 -6.95302066,231.000101 -6.92956691,231.000304 C-7.61035589,229.823542 -8,228.457274 -8,227 C-8,222.581722 -4.41827822,219 0,219 C4.41827822,219 8,222.581722 8,227 C8,228.489106 7.59314749,229.883187 6.88453848,231.077146 L6.88453848,231.077146 C7.24906757,231.026291 7.62146353,231 8,231 C8.37853647,231 8.75093243,231.026291 9.11546152,231.077146 L9.11546152,231.077146 C8.40685251,229.883187 8,228.489106 8,227 C8,222.581722 11.5817218,219 16,219 C20.4182782,219 24,222.581722 24,227 C24,228.457274 23.6103559,229.823542 22.9295669,231.000304 C22.9530207,231.000101 22.9764985,231 23,231 C23.7884151,231 24.5501924,231.11405 25.2697337,231.326552 L25.2697337,231.326552 C24.4662172,230.079204 24,228.594048 24,227 C24,222.581722 27.5817218,219 32,219 C36.4182782,219 40,222.581722 40,227 C40,228.477884 39.5992565,229.86217 38.9005073,231.050118 C42.8948679,231.497567 46,234.886162 46,239 C46,243.418278 42.4182782,247 38,247 C35.6106149,247 33.4658889,245.95249 32,244.291649 L32,250 L0,250 L0,242.876007 Z M29.7302663,234.673448 C30.0391189,235.152899 30.2981372,235.667485 30.5,236.209884 C30.663592,235.770317 30.8647218,235.349017 31.0994927,234.949882 C30.6295739,234.897241 30.1719624,234.803894 29.7302663,234.673448 L29.7302663,234.673448 Z M1.11546152,234.922854 C0.873831916,235.329984 0.667289099,235.760383 0.5,236.209884 L0.5,236.209884 C0.34319822,235.788562 0.151910068,235.384023 -0.0704330925,234.999696 C-0.0469793394,234.999899 -0.0235015042,235 0,235 C0.378536473,235 0.750932434,234.973709 1.11546152,234.922854 L1.11546152,234.922854 Z M14.8845385,234.922854 C15.1261681,235.329984 15.3327109,235.760383 15.5,236.209884 L15.5,236.209884 C15.6568018,235.788562 15.8480899,235.384023 16.0704331,234.999696 C16.0469793,234.999899 16.0235015,235 16,235 C15.6214635,235 15.2490676,234.973709 14.8845385,234.922854 L14.8845385,234.922854 Z M8,221 C11.8659934,221 15,217.865993 15,214 C15,210.134007 11.8659934,207 8,207 C4.13400656,207 1,210.134007 1,214 C1,217.865993 4.13400656,221 8,221 Z M8,193 C11.3137087,193 14,190.313709 14,187 C14,183.686291 11.3137087,181 8,181 C4.68629134,181 2,183.686291 2,187 C2,190.313709 4.68629134,193 8,193 Z M24,193 C27.3137087,193 30,190.313709 30,187 C30,183.686291 27.3137087,181 24,181 C20.6862913,181 18,183.686291 18,187 C18,190.313709 20.6862913,193 24,193 Z M16,179 C19.3137087,179 22,176.313709 22,173 C22,169.686291 19.3137087,167 16,167 C12.6862913,167 10,169.686291 10,173 C10,176.313709 12.6862913,179 16,179 Z M8,164 C10.7614239,164 13,161.761424 13,159 C13,156.238576 10.7614239,154 8,154 C5.23857611,154 3,156.238576 3,159 C3,161.761424 5.23857611,164 8,164 Z M24,164 C26.7614239,164 29,161.761424 29,159 C29,156.238576 26.7614239,154 24,154 C21.2385761,154 19,156.238576 19,159 C19,161.761424 21.2385761,164 24,164 Z M16,149 C18.7614239,149 21,146.761424 21,144 C21,141.238576 18.7614239,139 16,139 C13.2385761,139 11,141.238576 11,144 C11,146.761424 13.2385761,149 16,149 Z M8,133 C10.2091391,133 12,131.209139 12,129 C12,126.790861 10.2091391,125 8,125 C5.79086089,125 4,126.790861 4,129 C4,131.209139 5.79086089,133 8,133 Z M24,133 C26.2091391,133 28,131.209139 28,129 C28,126.790861 26.2091391,125 24,125 C21.7908609,125 20,126.790861 20,129 C20,131.209139 21.7908609,133 24,133 Z M16,117 C18.2091391,117 20,115.209139 20,113 C20,110.790861 18.2091391,109 16,109 C13.7908609,109 12,110.790861 12,113 C12,115.209139 13.7908609,117 16,117 Z M8,100 C9.65685433,100 11,98.6568543 11,97 C11,95.3431457 9.65685433,94 8,94 C6.34314567,94 5,95.3431457 5,97 C5,98.6568543 6.34314567,100 8,100 Z M24,100 C25.6568543,100 27,98.6568543 27,97 C27,95.3431457 25.6568543,94 24,94 C22.3431457,94 21,95.3431457 21,97 C21,98.6568543 22.3431457,100 24,100 Z M16,83 C17.6568543,83 19,81.6568543 19,80 C19,78.3431457 17.6568543,77 16,77 C14.3431457,77 13,78.3431457 13,80 C13,81.6568543 14.3431457,83 16,83 Z M8,63 C9.10456955,63 10,62.1045696 10,61 C10,59.8954304 9.10456955,59 8,59 C6.89543045,59 6,59.8954304 6,61 C6,62.1045696 6.89543045,63 8,63 Z M24,63 C25.1045696,63 26,62.1045696 26,61 C26,59.8954304 25.1045696,59 24,59 C22.8954304,59 22,59.8954304 22,61 C22,62.1045696 22.8954304,63 24,63 Z M0,83 C1.65685433,83 3,81.6568543 3,80 C3,78.3431457 1.65685433,77 0,77 C-1.65685433,77 -3,78.3431457 -3,80 C-3,81.6568543 -1.65685433,83 0,83 Z M32,83 C33.6568543,83 35,81.6568543 35,80 C35,78.3431457 33.6568543,77 32,77 C30.3431457,77 29,78.3431457 29,80 C29,81.6568543 30.3431457,83 32,83 Z M0,117 C2.20913911,117 4,115.209139 4,113 C4,110.790861 2.20913911,109 0,109 C-2.20913911,109 -4,110.790861 -4,113 C-4,115.209139 -2.20913911,117 0,117 Z M32,117 C34.2091391,117 36,115.209139 36,113 C36,110.790861 34.2091391,109 32,109 C29.7908609,109 28,110.790861 28,113 C28,115.209139 29.7908609,117 32,117 Z M0,149 C2.76142389,149 5,146.761424 5,144 C5,141.238576 2.76142389,139 0,139 C-2.76142389,139 -5,141.238576 -5,144 C-5,146.761424 -2.76142389,149 0,149 Z M32,149 C34.7614239,149 37,146.761424 37,144 C37,141.238576 34.7614239,139 32,139 C29.2385761,139 27,141.238576 27,144 C27,146.761424 29.2385761,149 32,149 Z M0,179 C3.31370866,179 6,176.313709 6,173 C6,169.686291 3.31370866,167 0,167 C-3.31370866,167 -6,169.686291 -6,173 C-6,176.313709 -3.31370866,179 0,179 Z M32,179 C35.3137087,179 38,176.313709 38,173 C38,169.686291 35.3137087,167 32,167 C28.6862913,167 26,169.686291 26,173 C26,176.313709 28.6862913,179 32,179 Z M24,221 C27.8659934,221 31,217.865993 31,214 C31,210.134007 27.8659934,207 24,207 C20.1340066,207 17,210.134007 17,214 C17,217.865993 20.1340066,221 24,221 Z M16,208 C19.8659934,208 23,204.865993 23,201 C23,197.134007 19.8659934,194 16,194 C12.1340066,194 9,197.134007 9,201 C9,204.865993 12.1340066,208 16,208 Z M0,208 C3.86599344,208 7,204.865993 7,201 C7,197.134007 3.86599344,194 0,194 C-3.86599344,194 -7,197.134007 -7,201 C-7,204.865993 -3.86599344,208 0,208 Z M32,208 C35.8659934,208 39,204.865993 39,201 C39,197.134007 35.8659934,194 32,194 C28.1340066,194 25,197.134007 25,201 C25,204.865993 28.1340066,208 32,208 Z M16,44 C17.1045696,44 18,43.1045696 18,42 C18,40.8954304 17.1045696,40 16,40 C14.8954304,40 14,40.8954304 14,42 C14,43.1045696 14.8954304,44 16,44 Z M8,22 C8.55228478,22 9,21.5522848 9,21 C9,20.4477152 8.55228478,20 8,20 C7.44771522,20 7,20.4477152 7,21 C7,21.5522848 7.44771522,22 8,22 Z M24,22 C24.5522848,22 25,21.5522848 25,21 C25,20.4477152 24.5522848,20 24,20 C23.4477152,20 23,20.4477152 23,21 C23,21.5522848 23.4477152,22 24,22 Z M32,2 C32.5522848,2 33,1.55228478 33,1 C33,0.447715223 32.5522848,0 32,0 C31.4477152,0 31,0.447715223 31,1 C31,1.55228478 31.4477152,2 32,2 Z M16,2 C16.5522848,2 17,1.55228478 17,1 C17,0.447715223 16.5522848,0 16,0 C15.4477152,0 15,0.447715223 15,1 C15,1.55228478 15.4477152,2 16,2 Z M0,2 C0.552284777,2 1,1.55228478 1,1 C1,0.447715223 0.552284777,0 0,0 C-0.552284777,0 -1,0.447715223 -1,1 C-1,1.55228478 -0.552284777,2 0,2 Z M0,44 C1.10456955,44 2,43.1045696 2,42 C2,40.8954304 1.10456955,40 0,40 C-1.10456955,40 -2,40.8954304 -2,42 C-2,43.1045696 -1.10456955,44 0,44 Z M32,44 C33.1045696,44 34,43.1045696 34,42 C34,40.8954304 33.1045696,40 32,40 C30.8954304,40 30,40.8954304 30,42 C30,43.1045696 30.8954304,44 32,44 Z" id="purple-dots-2" opacity="0.25" fill="#7855C1" sketch:type="MSShapeGroup" mask="url(#mask-2)"></path>
            </g>
            <g id="purple-+-purple-dots" sketch:type="MSLayerGroup" transform="translate(32.000000, -142.000000)">
                <mask id="mask-4" sketch:name="purple 3" fill="white">
                    <use xlink:href="#path-3"></use>
                </mask>
                <use id="purple-3" fill="#5835A1" sketch:type="MSShapeGroup" xlink:href="#path-3"></use>
                <path d="M1.33582034e-12,242.876007 C-1.36472889,245.335425 -3.98797315,247 -7,247 C-11.4182782,247 -15,243.418278 -15,239 C-15,234.581722 -11.4182782,231 -7,231 C-6.9764985,231 -6.95302066,231.000101 -6.92956691,231.000304 C-7.61035589,229.823542 -8,228.457274 -8,227 C-8,222.581722 -4.41827822,219 0,219 C4.41827822,219 8,222.581722 8,227 C8,228.489106 7.59314749,229.883187 6.88453848,231.077146 L6.88453848,231.077146 C7.24906757,231.026291 7.62146353,231 8,231 C8.37853647,231 8.75093243,231.026291 9.11546152,231.077146 L9.11546152,231.077146 C8.40685251,229.883187 8,228.489106 8,227 C8,222.581722 11.5817218,219 16,219 C20.4182782,219 24,222.581722 24,227 C24,228.457274 23.6103559,229.823542 22.9295669,231.000304 C22.9530207,231.000101 22.9764985,231 23,231 C23.7884151,231 24.5501924,231.11405 25.2697337,231.326552 L25.2697337,231.326552 C24.4662172,230.079204 24,228.594048 24,227 C24,222.581722 27.5817218,219 32,219 C36.4182782,219 40,222.581722 40,227 C40,228.477884 39.5992565,229.86217 38.9005073,231.050118 C42.8948679,231.497567 46,234.886162 46,239 C46,243.418278 42.4182782,247 38,247 C35.6106149,247 33.4658889,245.95249 32,244.291649 L32,250 L0,250 L0,242.876007 Z M29.7302663,234.673448 C30.0391189,235.152899 30.2981372,235.667485 30.5,236.209884 C30.663592,235.770317 30.8647218,235.349017 31.0994927,234.949882 C30.6295739,234.897241 30.1719624,234.803894 29.7302663,234.673448 L29.7302663,234.673448 Z M1.11546152,234.922854 C0.873831916,235.329984 0.667289099,235.760383 0.5,236.209884 L0.5,236.209884 C0.34319822,235.788562 0.151910068,235.384023 -0.0704330925,234.999696 C-0.0469793394,234.999899 -0.0235015042,235 0,235 C0.378536473,235 0.750932434,234.973709 1.11546152,234.922854 L1.11546152,234.922854 Z M14.8845385,234.922854 C15.1261681,235.329984 15.3327109,235.760383 15.5,236.209884 L15.5,236.209884 C15.6568018,235.788562 15.8480899,235.384023 16.0704331,234.999696 C16.0469793,234.999899 16.0235015,235 16,235 C15.6214635,235 15.2490676,234.973709 14.8845385,234.922854 L14.8845385,234.922854 Z M8,221 C11.8659934,221 15,217.865993 15,214 C15,210.134007 11.8659934,207 8,207 C4.13400656,207 1,210.134007 1,214 C1,217.865993 4.13400656,221 8,221 Z M8,193 C11.3137087,193 14,190.313709 14,187 C14,183.686291 11.3137087,181 8,181 C4.68629134,181 2,183.686291 2,187 C2,190.313709 4.68629134,193 8,193 Z M24,193 C27.3137087,193 30,190.313709 30,187 C30,183.686291 27.3137087,181 24,181 C20.6862913,181 18,183.686291 18,187 C18,190.313709 20.6862913,193 24,193 Z M16,179 C19.3137087,179 22,176.313709 22,173 C22,169.686291 19.3137087,167 16,167 C12.6862913,167 10,169.686291 10,173 C10,176.313709 12.6862913,179 16,179 Z M8,164 C10.7614239,164 13,161.761424 13,159 C13,156.238576 10.7614239,154 8,154 C5.23857611,154 3,156.238576 3,159 C3,161.761424 5.23857611,164 8,164 Z M24,164 C26.7614239,164 29,161.761424 29,159 C29,156.238576 26.7614239,154 24,154 C21.2385761,154 19,156.238576 19,159 C19,161.761424 21.2385761,164 24,164 Z M16,149 C18.7614239,149 21,146.761424 21,144 C21,141.238576 18.7614239,139 16,139 C13.2385761,139 11,141.238576 11,144 C11,146.761424 13.2385761,149 16,149 Z M8,133 C10.2091391,133 12,131.209139 12,129 C12,126.790861 10.2091391,125 8,125 C5.79086089,125 4,126.790861 4,129 C4,131.209139 5.79086089,133 8,133 Z M24,133 C26.2091391,133 28,131.209139 28,129 C28,126.790861 26.2091391,125 24,125 C21.7908609,125 20,126.790861 20,129 C20,131.209139 21.7908609,133 24,133 Z M16,117 C18.2091391,117 20,115.209139 20,113 C20,110.790861 18.2091391,109 16,109 C13.7908609,109 12,110.790861 12,113 C12,115.209139 13.7908609,117 16,117 Z M8,100 C9.65685433,100 11,98.6568543 11,97 C11,95.3431457 9.65685433,94 8,94 C6.34314567,94 5,95.3431457 5,97 C5,98.6568543 6.34314567,100 8,100 Z M24,100 C25.6568543,100 27,98.6568543 27,97 C27,95.3431457 25.6568543,94 24,94 C22.3431457,94 21,95.3431457 21,97 C21,98.6568543 22.3431457,100 24,100 Z M16,83 C17.6568543,83 19,81.6568543 19,80 C19,78.3431457 17.6568543,77 16,77 C14.3431457,77 13,78.3431457 13,80 C13,81.6568543 14.3431457,83 16,83 Z M8,63 C9.10456955,63 10,62.1045696 10,61 C10,59.8954304 9.10456955,59 8,59 C6.89543045,59 6,59.8954304 6,61 C6,62.1045696 6.89543045,63 8,63 Z M24,63 C25.1045696,63 26,62.1045696 26,61 C26,59.8954304 25.1045696,59 24,59 C22.8954304,59 22,59.8954304 22,61 C22,62.1045696 22.8954304,63 24,63 Z M0,83 C1.65685433,83 3,81.6568543 3,80 C3,78.3431457 1.65685433,77 0,77 C-1.65685433,77 -3,78.3431457 -3,80 C-3,81.6568543 -1.65685433,83 0,83 Z M32,83 C33.6568543,83 35,81.6568543 35,80 C35,78.3431457 33.6568543,77 32,77 C30.3431457,77 29,78.3431457 29,80 C29,81.6568543 30.3431457,83 32,83 Z M0,117 C2.20913911,117 4,115.209139 4,113 C4,110.790861 2.20913911,109 0,109 C-2.20913911,109 -4,110.790861 -4,113 C-4,115.209139 -2.20913911,117 0,117 Z M32,117 C34.2091391,117 36,115.209139 36,113 C36,110.790861 34.2091391,109 32,109 C29.7908609,109 28,110.790861 28,113 C28,115.209139 29.7908609,117 32,117 Z M0,149 C2.76142389,149 5,146.761424 5,144 C5,141.238576 2.76142389,139 0,139 C-2.76142389,139 -5,141.238576 -5,144 C-5,146.761424 -2.76142389,149 0,149 Z M32,149 C34.7614239,149 37,146.761424 37,144 C37,141.238576 34.7614239,139 32,139 C29.2385761,139 27,141.238576 27,144 C27,146.761424 29.2385761,149 32,149 Z M0,179 C3.31370866,179 6,176.313709 6,173 C6,169.686291 3.31370866,167 0,167 C-3.31370866,167 -6,169.686291 -6,173 C-6,176.313709 -3.31370866,179 0,179 Z M32,179 C35.3137087,179 38,176.313709 38,173 C38,169.686291 35.3137087,167 32,167 C28.6862913,167 26,169.686291 26,173 C26,176.313709 28.6862913,179 32,179 Z M24,221 C27.8659934,221 31,217.865993 31,214 C31,210.134007 27.8659934,207 24,207 C20.1340066,207 17,210.134007 17,214 C17,217.865993 20.1340066,221 24,221 Z M16,208 C19.8659934,208 23,204.865993 23,201 C23,197.134007 19.8659934,194 16,194 C12.1340066,194 9,197.134007 9,201 C9,204.865993 12.1340066,208 16,208 Z M0,208 C3.86599344,208 7,204.865993 7,201 C7,197.134007 3.86599344,194 0,194 C-3.86599344,194 -7,197.134007 -7,201 C-7,204.865993 -3.86599344,208 0,208 Z M32,208 C35.8659934,208 39,204.865993 39,201 C39,197.134007 35.8659934,194 32,194 C28.1340066,194 25,197.134007 25,201 C25,204.865993 28.1340066,208 32,208 Z M16,44 C17.1045696,44 18,43.1045696 18,42 C18,40.8954304 17.1045696,40 16,40 C14.8954304,40 14,40.8954304 14,42 C14,43.1045696 14.8954304,44 16,44 Z M8,22 C8.55228478,22 9,21.5522848 9,21 C9,20.4477152 8.55228478,20 8,20 C7.44771522,20 7,20.4477152 7,21 C7,21.5522848 7.44771522,22 8,22 Z M24,22 C24.5522848,22 25,21.5522848 25,21 C25,20.4477152 24.5522848,20 24,20 C23.4477152,20 23,20.4477152 23,21 C23,21.5522848 23.4477152,22 24,22 Z M32,2 C32.5522848,2 33,1.55228478 33,1 C33,0.447715223 32.5522848,0 32,0 C31.4477152,0 31,0.447715223 31,1 C31,1.55228478 31.4477152,2 32,2 Z M16,2 C16.5522848,2 17,1.55228478 17,1 C17,0.447715223 16.5522848,0 16,0 C15.4477152,0 15,0.447715223 15,1 C15,1.55228478 15.4477152,2 16,2 Z M0,2 C0.552284777,2 1,1.55228478 1,1 C1,0.447715223 0.552284777,0 0,0 C-0.552284777,0 -1,0.447715223 -1,1 C-1,1.55228478 -0.552284777,2 0,2 Z M0,44 C1.10456955,44 2,43.1045696 2,42 C2,40.8954304 1.10456955,40 0,40 C-1.10456955,40 -2,40.8954304 -2,42 C-2,43.1045696 -1.10456955,44 0,44 Z M32,44 C33.1045696,44 34,43.1045696 34,42 C34,40.8954304 33.1045696,40 32,40 C30.8954304,40 30,40.8954304 30,42 C30,43.1045696 30.8954304,44 32,44 Z" id="purple-dots-3" opacity="0.25" fill="#7855C1" sketch:type="MSShapeGroup" mask="url(#mask-4)"></path>
            </g>
            <g id="purple-+-purple-dots" sketch:type="MSLayerGroup" transform="translate(64.000000, -142.000000)">
                <mask id="mask-6" sketch:name="purple 4" fill="white">
                    <use xlink:href="#path-5"></use>
                </mask>
                <use id="purple-4" fill="#5835A1" sketch:type="MSShapeGroup" xlink:href="#path-5"></use>
                <path d="M1.33582034e-12,242.876007 C-1.36472889,245.335425 -3.98797315,247 -7,247 C-11.4182782,247 -15,243.418278 -15,239 C-15,234.581722 -11.4182782,231 -7,231 C-6.9764985,231 -6.95302066,231.000101 -6.92956691,231.000304 C-7.61035589,229.823542 -8,228.457274 -8,227 C-8,222.581722 -4.41827822,219 0,219 C4.41827822,219 8,222.581722 8,227 C8,228.489106 7.59314749,229.883187 6.88453848,231.077146 L6.88453848,231.077146 C7.24906757,231.026291 7.62146353,231 8,231 C8.37853647,231 8.75093243,231.026291 9.11546152,231.077146 L9.11546152,231.077146 C8.40685251,229.883187 8,228.489106 8,227 C8,222.581722 11.5817218,219 16,219 C20.4182782,219 24,222.581722 24,227 C24,228.457274 23.6103559,229.823542 22.9295669,231.000304 C22.9530207,231.000101 22.9764985,231 23,231 C23.7884151,231 24.5501924,231.11405 25.2697337,231.326552 L25.2697337,231.326552 C24.4662172,230.079204 24,228.594048 24,227 C24,222.581722 27.5817218,219 32,219 C36.4182782,219 40,222.581722 40,227 C40,228.477884 39.5992565,229.86217 38.9005073,231.050118 C42.8948679,231.497567 46,234.886162 46,239 C46,243.418278 42.4182782,247 38,247 C35.6106149,247 33.4658889,245.95249 32,244.291649 L32,250 L0,250 L0,242.876007 Z M29.7302663,234.673448 C30.0391189,235.152899 30.2981372,235.667485 30.5,236.209884 C30.663592,235.770317 30.8647218,235.349017 31.0994927,234.949882 C30.6295739,234.897241 30.1719624,234.803894 29.7302663,234.673448 L29.7302663,234.673448 Z M1.11546152,234.922854 C0.873831916,235.329984 0.667289099,235.760383 0.5,236.209884 L0.5,236.209884 C0.34319822,235.788562 0.151910068,235.384023 -0.0704330925,234.999696 C-0.0469793394,234.999899 -0.0235015042,235 0,235 C0.378536473,235 0.750932434,234.973709 1.11546152,234.922854 L1.11546152,234.922854 Z M14.8845385,234.922854 C15.1261681,235.329984 15.3327109,235.760383 15.5,236.209884 L15.5,236.209884 C15.6568018,235.788562 15.8480899,235.384023 16.0704331,234.999696 C16.0469793,234.999899 16.0235015,235 16,235 C15.6214635,235 15.2490676,234.973709 14.8845385,234.922854 L14.8845385,234.922854 Z M8,221 C11.8659934,221 15,217.865993 15,214 C15,210.134007 11.8659934,207 8,207 C4.13400656,207 1,210.134007 1,214 C1,217.865993 4.13400656,221 8,221 Z M8,193 C11.3137087,193 14,190.313709 14,187 C14,183.686291 11.3137087,181 8,181 C4.68629134,181 2,183.686291 2,187 C2,190.313709 4.68629134,193 8,193 Z M24,193 C27.3137087,193 30,190.313709 30,187 C30,183.686291 27.3137087,181 24,181 C20.6862913,181 18,183.686291 18,187 C18,190.313709 20.6862913,193 24,193 Z M16,179 C19.3137087,179 22,176.313709 22,173 C22,169.686291 19.3137087,167 16,167 C12.6862913,167 10,169.686291 10,173 C10,176.313709 12.6862913,179 16,179 Z M8,164 C10.7614239,164 13,161.761424 13,159 C13,156.238576 10.7614239,154 8,154 C5.23857611,154 3,156.238576 3,159 C3,161.761424 5.23857611,164 8,164 Z M24,164 C26.7614239,164 29,161.761424 29,159 C29,156.238576 26.7614239,154 24,154 C21.2385761,154 19,156.238576 19,159 C19,161.761424 21.2385761,164 24,164 Z M16,149 C18.7614239,149 21,146.761424 21,144 C21,141.238576 18.7614239,139 16,139 C13.2385761,139 11,141.238576 11,144 C11,146.761424 13.2385761,149 16,149 Z M8,133 C10.2091391,133 12,131.209139 12,129 C12,126.790861 10.2091391,125 8,125 C5.79086089,125 4,126.790861 4,129 C4,131.209139 5.79086089,133 8,133 Z M24,133 C26.2091391,133 28,131.209139 28,129 C28,126.790861 26.2091391,125 24,125 C21.7908609,125 20,126.790861 20,129 C20,131.209139 21.7908609,133 24,133 Z M16,117 C18.2091391,117 20,115.209139 20,113 C20,110.790861 18.2091391,109 16,109 C13.7908609,109 12,110.790861 12,113 C12,115.209139 13.7908609,117 16,117 Z M8,100 C9.65685433,100 11,98.6568543 11,97 C11,95.3431457 9.65685433,94 8,94 C6.34314567,94 5,95.3431457 5,97 C5,98.6568543 6.34314567,100 8,100 Z M24,100 C25.6568543,100 27,98.6568543 27,97 C27,95.3431457 25.6568543,94 24,94 C22.3431457,94 21,95.3431457 21,97 C21,98.6568543 22.3431457,100 24,100 Z M16,83 C17.6568543,83 19,81.6568543 19,80 C19,78.3431457 17.6568543,77 16,77 C14.3431457,77 13,78.3431457 13,80 C13,81.6568543 14.3431457,83 16,83 Z M8,63 C9.10456955,63 10,62.1045696 10,61 C10,59.8954304 9.10456955,59 8,59 C6.89543045,59 6,59.8954304 6,61 C6,62.1045696 6.89543045,63 8,63 Z M24,63 C25.1045696,63 26,62.1045696 26,61 C26,59.8954304 25.1045696,59 24,59 C22.8954304,59 22,59.8954304 22,61 C22,62.1045696 22.8954304,63 24,63 Z M0,83 C1.65685433,83 3,81.6568543 3,80 C3,78.3431457 1.65685433,77 0,77 C-1.65685433,77 -3,78.3431457 -3,80 C-3,81.6568543 -1.65685433,83 0,83 Z M32,83 C33.6568543,83 35,81.6568543 35,80 C35,78.3431457 33.6568543,77 32,77 C30.3431457,77 29,78.3431457 29,80 C29,81.6568543 30.3431457,83 32,83 Z M0,117 C2.20913911,117 4,115.209139 4,113 C4,110.790861 2.20913911,109 0,109 C-2.20913911,109 -4,110.790861 -4,113 C-4,115.209139 -2.20913911,117 0,117 Z M32,117 C34.2091391,117 36,115.209139 36,113 C36,110.790861 34.2091391,109 32,109 C29.7908609,109 28,110.790861 28,113 C28,115.209139 29.7908609,117 32,117 Z M0,149 C2.76142389,149 5,146.761424 5,144 C5,141.238576 2.76142389,139 0,139 C-2.76142389,139 -5,141.238576 -5,144 C-5,146.761424 -2.76142389,149 0,149 Z M32,149 C34.7614239,149 37,146.761424 37,144 C37,141.238576 34.7614239,139 32,139 C29.2385761,139 27,141.238576 27,144 C27,146.761424 29.2385761,149 32,149 Z M0,179 C3.31370866,179 6,176.313709 6,173 C6,169.686291 3.31370866,167 0,167 C-3.31370866,167 -6,169.686291 -6,173 C-6,176.313709 -3.31370866,179 0,179 Z M32,179 C35.3137087,179 38,176.313709 38,173 C38,169.686291 35.3137087,167 32,167 C28.6862913,167 26,169.686291 26,173 C26,176.313709 28.6862913,179 32,179 Z M24,221 C27.8659934,221 31,217.865993 31,214 C31,210.134007 27.8659934,207 24,207 C20.1340066,207 17,210.134007 17,214 C17,217.865993 20.1340066,221 24,221 Z M16,208 C19.8659934,208 23,204.865993 23,201 C23,197.134007 19.8659934,194 16,194 C12.1340066,194 9,197.134007 9,201 C9,204.865993 12.1340066,208 16,208 Z M0,208 C3.86599344,208 7,204.865993 7,201 C7,197.134007 3.86599344,194 0,194 C-3.86599344,194 -7,197.134007 -7,201 C-7,204.865993 -3.86599344,208 0,208 Z M32,208 C35.8659934,208 39,204.865993 39,201 C39,197.134007 35.8659934,194 32,194 C28.1340066,194 25,197.134007 25,201 C25,204.865993 28.1340066,208 32,208 Z M16,44 C17.1045696,44 18,43.1045696 18,42 C18,40.8954304 17.1045696,40 16,40 C14.8954304,40 14,40.8954304 14,42 C14,43.1045696 14.8954304,44 16,44 Z M8,22 C8.55228478,22 9,21.5522848 9,21 C9,20.4477152 8.55228478,20 8,20 C7.44771522,20 7,20.4477152 7,21 C7,21.5522848 7.44771522,22 8,22 Z M24,22 C24.5522848,22 25,21.5522848 25,21 C25,20.4477152 24.5522848,20 24,20 C23.4477152,20 23,20.4477152 23,21 C23,21.5522848 23.4477152,22 24,22 Z M32,2 C32.5522848,2 33,1.55228478 33,1 C33,0.447715223 32.5522848,0 32,0 C31.4477152,0 31,0.447715223 31,1 C31,1.55228478 31.4477152,2 32,2 Z M16,2 C16.5522848,2 17,1.55228478 17,1 C17,0.447715223 16.5522848,0 16,0 C15.4477152,0 15,0.447715223 15,1 C15,1.55228478 15.4477152,2 16,2 Z M0,2 C0.552284777,2 1,1.55228478 1,1 C1,0.447715223 0.552284777,0 0,0 C-0.552284777,0 -1,0.447715223 -1,1 C-1,1.55228478 -0.552284777,2 0,2 Z M0,44 C1.10456955,44 2,43.1045696 2,42 C2,40.8954304 1.10456955,40 0,40 C-1.10456955,40 -2,40.8954304 -2,42 C-2,43.1045696 -1.10456955,44 0,44 Z M32,44 C33.1045696,44 34,43.1045696 34,42 C34,40.8954304 33.1045696,40 32,40 C30.8954304,40 30,40.8954304 30,42 C30,43.1045696 30.8954304,44 32,44 Z" id="purple-dots-4" opacity="0.25" fill="#7855C1" sketch:type="MSShapeGroup" mask="url(#mask-6)"></path>
            </g>
            <g id="purple-+-purple-dots" sketch:type="MSLayerGroup" transform="translate(96.000000, -142.000000)">
                <mask id="mask-8" sketch:name="purple" fill="white">
                    <use xlink:href="#path-7"></use>
                </mask>
                <use id="purple" fill="#5835A1" sketch:type="MSShapeGroup" xlink:href="#path-7"></use>
                <path d="M1.33582034e-12,242.876007 C-1.36472889,245.335425 -3.98797315,247 -7,247 C-11.4182782,247 -15,243.418278 -15,239 C-15,234.581722 -11.4182782,231 -7,231 C-6.9764985,231 -6.95302066,231.000101 -6.92956691,231.000304 C-7.61035589,229.823542 -8,228.457274 -8,227 C-8,222.581722 -4.41827822,219 0,219 C4.41827822,219 8,222.581722 8,227 C8,228.489106 7.59314749,229.883187 6.88453848,231.077146 L6.88453848,231.077146 C7.24906757,231.026291 7.62146353,231 8,231 C8.37853647,231 8.75093243,231.026291 9.11546152,231.077146 L9.11546152,231.077146 C8.40685251,229.883187 8,228.489106 8,227 C8,222.581722 11.5817218,219 16,219 C20.4182782,219 24,222.581722 24,227 C24,228.457274 23.6103559,229.823542 22.9295669,231.000304 C22.9530207,231.000101 22.9764985,231 23,231 C23.7884151,231 24.5501924,231.11405 25.2697337,231.326552 L25.2697337,231.326552 C24.4662172,230.079204 24,228.594048 24,227 C24,222.581722 27.5817218,219 32,219 C36.4182782,219 40,222.581722 40,227 C40,228.477884 39.5992565,229.86217 38.9005073,231.050118 C42.8948679,231.497567 46,234.886162 46,239 C46,243.418278 42.4182782,247 38,247 C35.6106149,247 33.4658889,245.95249 32,244.291649 L32,250 L0,250 L0,242.876007 Z M29.7302663,234.673448 C30.0391189,235.152899 30.2981372,235.667485 30.5,236.209884 C30.663592,235.770317 30.8647218,235.349017 31.0994927,234.949882 C30.6295739,234.897241 30.1719624,234.803894 29.7302663,234.673448 L29.7302663,234.673448 Z M1.11546152,234.922854 C0.873831916,235.329984 0.667289099,235.760383 0.5,236.209884 L0.5,236.209884 C0.34319822,235.788562 0.151910068,235.384023 -0.0704330925,234.999696 C-0.0469793394,234.999899 -0.0235015042,235 0,235 C0.378536473,235 0.750932434,234.973709 1.11546152,234.922854 L1.11546152,234.922854 Z M14.8845385,234.922854 C15.1261681,235.329984 15.3327109,235.760383 15.5,236.209884 L15.5,236.209884 C15.6568018,235.788562 15.8480899,235.384023 16.0704331,234.999696 C16.0469793,234.999899 16.0235015,235 16,235 C15.6214635,235 15.2490676,234.973709 14.8845385,234.922854 L14.8845385,234.922854 Z M8,221 C11.8659934,221 15,217.865993 15,214 C15,210.134007 11.8659934,207 8,207 C4.13400656,207 1,210.134007 1,214 C1,217.865993 4.13400656,221 8,221 Z M8,193 C11.3137087,193 14,190.313709 14,187 C14,183.686291 11.3137087,181 8,181 C4.68629134,181 2,183.686291 2,187 C2,190.313709 4.68629134,193 8,193 Z M24,193 C27.3137087,193 30,190.313709 30,187 C30,183.686291 27.3137087,181 24,181 C20.6862913,181 18,183.686291 18,187 C18,190.313709 20.6862913,193 24,193 Z M16,179 C19.3137087,179 22,176.313709 22,173 C22,169.686291 19.3137087,167 16,167 C12.6862913,167 10,169.686291 10,173 C10,176.313709 12.6862913,179 16,179 Z M8,164 C10.7614239,164 13,161.761424 13,159 C13,156.238576 10.7614239,154 8,154 C5.23857611,154 3,156.238576 3,159 C3,161.761424 5.23857611,164 8,164 Z M24,164 C26.7614239,164 29,161.761424 29,159 C29,156.238576 26.7614239,154 24,154 C21.2385761,154 19,156.238576 19,159 C19,161.761424 21.2385761,164 24,164 Z M16,149 C18.7614239,149 21,146.761424 21,144 C21,141.238576 18.7614239,139 16,139 C13.2385761,139 11,141.238576 11,144 C11,146.761424 13.2385761,149 16,149 Z M8,133 C10.2091391,133 12,131.209139 12,129 C12,126.790861 10.2091391,125 8,125 C5.79086089,125 4,126.790861 4,129 C4,131.209139 5.79086089,133 8,133 Z M24,133 C26.2091391,133 28,131.209139 28,129 C28,126.790861 26.2091391,125 24,125 C21.7908609,125 20,126.790861 20,129 C20,131.209139 21.7908609,133 24,133 Z M16,117 C18.2091391,117 20,115.209139 20,113 C20,110.790861 18.2091391,109 16,109 C13.7908609,109 12,110.790861 12,113 C12,115.209139 13.7908609,117 16,117 Z M8,100 C9.65685433,100 11,98.6568543 11,97 C11,95.3431457 9.65685433,94 8,94 C6.34314567,94 5,95.3431457 5,97 C5,98.6568543 6.34314567,100 8,100 Z M24,100 C25.6568543,100 27,98.6568543 27,97 C27,95.3431457 25.6568543,94 24,94 C22.3431457,94 21,95.3431457 21,97 C21,98.6568543 22.3431457,100 24,100 Z M16,83 C17.6568543,83 19,81.6568543 19,80 C19,78.3431457 17.6568543,77 16,77 C14.3431457,77 13,78.3431457 13,80 C13,81.6568543 14.3431457,83 16,83 Z M8,63 C9.10456955,63 10,62.1045696 10,61 C10,59.8954304 9.10456955,59 8,59 C6.89543045,59 6,59.8954304 6,61 C6,62.1045696 6.89543045,63 8,63 Z M24,63 C25.1045696,63 26,62.1045696 26,61 C26,59.8954304 25.1045696,59 24,59 C22.8954304,59 22,59.8954304 22,61 C22,62.1045696 22.8954304,63 24,63 Z M0,83 C1.65685433,83 3,81.6568543 3,80 C3,78.3431457 1.65685433,77 0,77 C-1.65685433,77 -3,78.3431457 -3,80 C-3,81.6568543 -1.65685433,83 0,83 Z M32,83 C33.6568543,83 35,81.6568543 35,80 C35,78.3431457 33.6568543,77 32,77 C30.3431457,77 29,78.3431457 29,80 C29,81.6568543 30.3431457,83 32,83 Z M0,117 C2.20913911,117 4,115.209139 4,113 C4,110.790861 2.20913911,109 0,109 C-2.20913911,109 -4,110.790861 -4,113 C-4,115.209139 -2.20913911,117 0,117 Z M32,117 C34.2091391,117 36,115.209139 36,113 C36,110.790861 34.2091391,109 32,109 C29.7908609,109 28,110.790861 28,113 C28,115.209139 29.7908609,117 32,117 Z M0,149 C2.76142389,149 5,146.761424 5,144 C5,141.238576 2.76142389,139 0,139 C-2.76142389,139 -5,141.238576 -5,144 C-5,146.761424 -2.76142389,149 0,149 Z M32,149 C34.7614239,149 37,146.761424 37,144 C37,141.238576 34.7614239,139 32,139 C29.2385761,139 27,141.238576 27,144 C27,146.761424 29.2385761,149 32,149 Z M0,179 C3.31370866,179 6,176.313709 6,173 C6,169.686291 3.31370866,167 0,167 C-3.31370866,167 -6,169.686291 -6,173 C-6,176.313709 -3.31370866,179 0,179 Z M32,179 C35.3137087,179 38,176.313709 38,173 C38,169.686291 35.3137087,167 32,167 C28.6862913,167 26,169.686291 26,173 C26,176.313709 28.6862913,179 32,179 Z M24,221 C27.8659934,221 31,217.865993 31,214 C31,210.134007 27.8659934,207 24,207 C20.1340066,207 17,210.134007 17,214 C17,217.865993 20.1340066,221 24,221 Z M16,208 C19.8659934,208 23,204.865993 23,201 C23,197.134007 19.8659934,194 16,194 C12.1340066,194 9,197.134007 9,201 C9,204.865993 12.1340066,208 16,208 Z M0,208 C3.86599344,208 7,204.865993 7,201 C7,197.134007 3.86599344,194 0,194 C-3.86599344,194 -7,197.134007 -7,201 C-7,204.865993 -3.86599344,208 0,208 Z M32,208 C35.8659934,208 39,204.865993 39,201 C39,197.134007 35.8659934,194 32,194 C28.1340066,194 25,197.134007 25,201 C25,204.865993 28.1340066,208 32,208 Z M16,44 C17.1045696,44 18,43.1045696 18,42 C18,40.8954304 17.1045696,40 16,40 C14.8954304,40 14,40.8954304 14,42 C14,43.1045696 14.8954304,44 16,44 Z M8,22 C8.55228478,22 9,21.5522848 9,21 C9,20.4477152 8.55228478,20 8,20 C7.44771522,20 7,20.4477152 7,21 C7,21.5522848 7.44771522,22 8,22 Z M24,22 C24.5522848,22 25,21.5522848 25,21 C25,20.4477152 24.5522848,20 24,20 C23.4477152,20 23,20.4477152 23,21 C23,21.5522848 23.4477152,22 24,22 Z M32,2 C32.5522848,2 33,1.55228478 33,1 C33,0.447715223 32.5522848,0 32,0 C31.4477152,0 31,0.447715223 31,1 C31,1.55228478 31.4477152,2 32,2 Z M16,2 C16.5522848,2 17,1.55228478 17,1 C17,0.447715223 16.5522848,0 16,0 C15.4477152,0 15,0.447715223 15,1 C15,1.55228478 15.4477152,2 16,2 Z M0,2 C0.552284777,2 1,1.55228478 1,1 C1,0.447715223 0.552284777,0 0,0 C-0.552284777,0 -1,0.447715223 -1,1 C-1,1.55228478 -0.552284777,2 0,2 Z M0,44 C1.10456955,44 2,43.1045696 2,42 C2,40.8954304 1.10456955,40 0,40 C-1.10456955,40 -2,40.8954304 -2,42 C-2,43.1045696 -1.10456955,44 0,44 Z M32,44 C33.1045696,44 34,43.1045696 34,42 C34,40.8954304 33.1045696,40 32,40 C30.8954304,40 30,40.8954304 30,42 C30,43.1045696 30.8954304,44 32,44 Z" id="purple-dots" opacity="0.25" fill="#7855C1" sketch:type="MSShapeGroup" mask="url(#mask-8)"></path>
            </g>
            <path d="M51.767,23.046 C51.767,20.03 51.429,17.04 51.429,14.024 C51.429,13.374 51.507,12.724 51.507,12.048 C51.507,10.878 50.909,8.954 49.453,8.954 C48.283,8.954 47.425,9.604 46.775,10.514 C46.255,11.242 45.943,12.074 45.501,12.828 C44.461,14.648 43.473,16.468 42.537,18.314 C42.043,17.404 41.549,16.494 40.951,15.662 C39.677,13.79 38.637,11.762 37.129,10.046 C36.635,9.5 35.959,8.98 35.205,8.98 C33.489,8.98 32.189,10.956 32.189,12.516 C32.189,14.492 32.475,16.442 32.475,18.418 C32.475,20.94 32.345,23.462 32.345,25.984 C32.345,27.57 32.631,29.468 34.659,29.468 C36.037,29.468 36.947,27.024 36.947,25.88 C36.947,24.19 36.817,22.5 36.817,20.81 L36.817,17.638 C37.909,19.51 39.105,21.382 39.989,23.358 C40.301,24.06 41.133,24.58 41.887,24.58 C42.563,24.58 43.187,24.19 43.603,23.696 C44.747,22.344 46.125,19.12 47.191,17.404 C47.321,18.938 47.399,20.472 47.399,22.006 C47.399,23.332 47.243,24.684 47.243,26.01 C47.243,27.18 47.659,29.416 49.193,29.416 C51.793,29.416 51.767,24.814 51.767,23.046 L51.767,23.046 Z M65.209,22.838 C65.157,23.618 65.131,24.372 65.079,25.152 C64.065,25.49 62.999,25.698 61.933,25.698 C60.841,25.698 59.515,25.646 59.515,24.294 C59.515,22.968 61.517,22.604 62.479,22.604 C63.467,22.604 64.299,22.76 65.209,22.838 L65.209,22.838 Z M69.447,20.836 C69.447,19.458 69.369,17.586 68.849,16.312 C67.913,14.076 64.871,13.608 62.739,13.608 C60.451,13.608 56.369,14.544 56.317,16.962 C56.291,17.69 56.707,18.34 57.513,18.34 C58.579,18.34 60.295,17.404 61.959,17.404 C63.805,17.404 64.923,17.768 65.183,19.38 L64.845,19.38 C63.467,19.38 61.361,19.51 60.061,19.978 C57.981,20.732 55.069,22.344 55.069,24.788 C55.069,27.414 57.305,29.728 59.931,29.728 C60.867,29.728 61.881,29.676 62.791,29.468 C63.493,29.312 64.403,29 65.261,28.558 C65.495,29.182 66.015,29.572 66.951,29.572 C69.265,29.572 69.395,26.66 69.395,24.97 C69.395,23.592 69.447,22.214 69.447,20.836 L69.447,20.836 Z M78.001,27.102 C78.001,26.322 77.559,25.438 77.559,24.268 C77.559,21.59 77.663,19.666 77.663,16.988 C77.663,16.026 77.351,15.142 76.103,15.142 C74.205,15.142 73.867,18.6 73.867,19.848 C73.867,22.63 73.919,24.658 73.919,27.44 C73.919,28.376 74.257,29.494 75.505,29.494 C76.727,29.494 78.001,28.168 78.001,27.102 L78.001,27.102 Z M78.209,10.462 C78.209,9.292 77.559,8.538 76.233,8.538 C74.933,8.538 73.503,10.124 73.503,11.242 C73.503,12.178 74.335,13.114 75.401,13.114 C76.623,13.114 78.209,11.554 78.209,10.462 L78.209,10.462 Z M96.019,26.348 C95.941,24.19 95.759,22.032 95.707,19.874 C95.681,18.756 95.629,17.248 95.265,16.182 C94.563,14.258 92.249,13.816 90.429,13.816 C89.259,13.816 87.543,14.518 86.243,15.402 C86.113,14.492 85.541,14.05 84.527,14.05 C82.317,14.05 81.979,16.26 81.979,17.976 C81.979,19.926 82.109,21.85 82.109,23.774 C82.109,24.762 82.031,25.724 81.901,26.686 C81.875,26.868 81.875,27.024 81.875,27.18 C81.875,28.298 82.369,29.39 83.643,29.39 C85.827,29.39 86.035,26.764 86.035,25.126 C86.035,23.228 86.113,21.304 86.191,19.406 C87.153,18.574 88.219,17.95 89.233,17.95 C91.755,17.95 92.041,20.264 92.041,22.266 C92.041,23.8 91.859,25.334 91.859,26.868 C91.859,27.882 92.015,29.728 93.393,29.728 C95.187,29.728 96.097,28.168 96.045,26.556 L96.019,26.348 Z" id="Main" fill="#FFFFFF" sketch:type="MSShapeGroup"></path>
        </g>
    </g>
</svg>