<?xml version="1.0" encoding="UTF-8" standalone="no"?>
<svg width="128px" height="40px" viewBox="0 0 128 40" version="1.1" xmlns="http://www.w3.org/2000/svg" xmlns:xlink="http://www.w3.org/1999/xlink" xmlns:sketch="http://www.bohemiancoding.com/sketch/ns">
    <!-- Generator: Sketch 3.3.2 (12043) - http://www.bohemiancoding.com/sketch -->
    <title>button-back</title>
    <desc>Created with Sketch.</desc>
    <defs>
        <rect id="path-1" x="0" y="0" width="32" height="249"></rect>
        <rect id="path-3" x="0" y="0" width="32" height="249"></rect>
        <rect id="path-5" x="0" y="0" width="32" height="249"></rect>
        <rect id="path-7" x="0" y="0" width="32" height="249"></rect>
    </defs>
    <g id="Page-1" stroke="none" stroke-width="1" fill="none" fill-rule="evenodd" sketch:type="MSPage">
        <g id="button-back" sketch:type="MSArtboardGroup">
            <g id="purple-+-purple-dots" sketch:type="MSLayerGroup" transform="translate(0.000000, -142.000000)">
                <mask id="mask-2" sketch:name="purple 2" fill="white">
                    <use xlink:href="#path-1"></use>
                </mask>
                <use id="purple-2" fill="#5835A1" sketch:type="MSShapeGroup" xlink:href="#path-1"></use>
                <path d="M1.33582034e-12,242.876007 C-1.36472889,245.335425 -3.98797315,247 -7,247 C-11.4182782,247 -15,243.418278 -15,239 C-15,234.581722 -11.4182782,231 -7,231 C-6.9764985,231 -6.95302066,231.000101 -6.92956691,231.000304 C-7.61035589,229.823542 -8,228.457274 -8,227 C-8,222.581722 -4.41827822,219 0,219 C4.41827822,219 8,222.581722 8,227 C8,228.489106 7.59314749,229.883187 6.88453848,231.077146 L6.88453848,231.077146 C7.24906757,231.026291 7.62146353,231 8,231 C8.37853647,231 8.75093243,231.026291 9.11546152,231.077146 L9.11546152,231.077146 C8.40685251,229.883187 8,228.489106 8,227 C8,222.581722 11.5817218,219 16,219 C20.4182782,219 24,222.581722 24,227 C24,228.457274 23.6103559,229.823542 22.9295669,231.000304 C22.9530207,231.000101 22.9764985,231 23,231 C23.7884151,231 24.5501924,231.11405 25.2697337,231.326552 L25.2697337,231.326552 C24.4662172,230.079204 24,228.594048 24,227 C24,222.581722 27.5817218,219 32,219 C36.4182782,219 40,222.581722 40,227 C40,228.477884 39.5992565,229.86217 38.9005073,231.050118 C42.8948679,231.497567 46,234.886162 46,239 C46,243.418278 42.4182782,247 38,247 C35.6106149,247 33.4658889,245.95249 32,244.291649 L32,250 L0,250 L0,242.876007 Z M29.7302663,234.673448 C30.0391189,235.152899 30.2981372,235.667485 30.5,236.209884 C30.663592,235.770317 30.8647218,235.349017 31.0994927,234.949882 C30.6295739,234.897241 30.1719624,234.803894 29.7302663,234.673448 L29.7302663,234.673448 Z M1.11546152,234.922854 C0.873831916,235.329984 0.667289099,235.760383 0.5,236.209884 L0.5,236.209884 C0.34319822,235.788562 0.151910068,235.384023 -0.0704330925,234.999696 C-0.0469793394,234.999899 -0.0235015042,235 0,235 C0.378536473,235 0.750932434,234.973709 1.11546152,234.922854 L1.11546152,234.922854 Z M14.8845385,234.922854 C15.1261681,235.329984 15.3327109,235.760383 15.5,236.209884 L15.5,236.209884 C15.6568018,235.788562 15.8480899,235.384023 16.0704331,234.999696 C16.0469793,234.999899 16.0235015,235 16,235 C15.6214635,235 15.2490676,234.973709 14.8845385,234.922854 L14.8845385,234.922854 Z M8,221 C11.8659934,221 15,217.865993 15,214 C15,210.134007 11.8659934,207 8,207 C4.13400656,207 1,210.134007 1,214 C1,217.865993 4.13400656,221 8,221 Z M8,193 C11.3137087,193 14,190.313709 14,187 C14,183.686291 11.3137087,181 8,181 C4.68629134,181 2,183.686291 2,187 C2,190.313709 4.68629134,193 8,193 Z M24,193 C27.3137087,193 30,190.313709 30,187 C30,183.686291 27.3137087,181 24,181 C20.6862913,181 18,183.686291 18,187 C18,190.313709 20.6862913,193 24,193 Z M16,179 C19.3137087,179 22,176.313709 22,173 C22,169.686291 19.3137087,167 16,167 C12.6862913,167 10,169.686291 10,173 C10,176.313709 12.6862913,179 16,179 Z M8,164 C10.7614239,164 13,161.761424 13,159 C13,156.238576 10.7614239,154 8,154 C5.23857611,154 3,156.238576 3,159 C3,161.761424 5.23857611,164 8,164 Z M24,164 C26.7614239,164 29,161.761424 29,159 C29,156.238576 26.7614239,154 24,154 C21.2385761,154 19,156.238576 19,159 C19,161.761424 21.2385761,164 24,164 Z M16,149 C18.7614239,149 21,146.761424 21,144 C21,141.238576 18.7614239,139 16,139 C13.2385761,139 11,141.238576 11,144 C11,146.761424 13.2385761,149 16,149 Z M8,133 C10.2091391,133 12,131.209139 12,129 C12,126.790861 10.2091391,125 8,125 C5.79086089,125 4,126.790861 4,129 C4,131.209139 5.79086089,133 8,133 Z M24,133 C26.2091391,133 28,131.209139 28,129 C28,126.790861 26.2091391,125 24,125 C21.7908609,125 20,126.790861 20,129 C20,131.209139 21.7908609,133 24,133 Z M16,117 C18.2091391,117 20,115.209139 20,113 C20,110.790861 18.2091391,109 16,109 C13.7908609,109 12,110.790861 12,113 C12,115.209139 13.7908609,117 16,117 Z M8,100 C9.65685433,100 11,98.6568543 11,97 C11,95.3431457 9.65685433,94 8,94 C6.34314567,94 5,95.3431457 5,97 C5,98.6568543 6.34314567,100 8,100 Z M24,100 C25.6568543,100 27,98.6568543 27,97 C27,95.3431457 25.6568543,94 24,94 C22.3431457,94 21,95.3431457 21,97 C21,98.6568543 22.3431457,100 24,100 Z M16,83 C17.6568543,83 19,81.6568543 19,80 C19,78.3431457 17.6568543,77 16,77 C14.3431457,77 13,78.3431457 13,80 C13,81.6568543 14.3431457,83 16,83 Z M8,63 C9.10456955,63 10,62.1045696 10,61 C10,59.8954304 9.10456955,59 8,59 C6.89543045,59 6,59.8954304 6,61 C6,62.1045696 6.89543045,63 8,63 Z M24,63 C25.1045696,63 26,62.1045696 26,61 C26,59.8954304 25.1045696,59 24,59 C22.8954304,59 22,59.8954304 22,61 C22,62.1045696 22.8954304,63 24,63 Z M0,83 C1.65685433,83 3,81.6568543 3,80 C3,78.3431457 1.65685433,77 0,77 C-1.65685433,77 -3,78.3431457 -3,80 C-3,81.6568543 -1.65685433,83 0,83 Z M32,83 C33.6568543,83 35,81.6568543 35,80 C35,78.3431457 33.6568543,77 32,77 C30.3431457,77 29,78.3431457 29,80 C29,81.6568543 30.3431457,83 32,83 Z M0,117 C2.20913911,117 4,115.209139 4,113 C4,110.790861 2.20913911,109 0,109 C-2.20913911,109 -4,110.790861 -4,113 C-4,115.209139 -2.20913911,117 0,117 Z M32,117 C34.2091391,117 36,115.209139 36,113 C36,110.790861 34.2091391,109 32,109 C29.7908609,109 28,110.790861 28,113 C28,115.209139 29.7908609,117 32,117 Z M0,149 C2.76142389,149 5,146.761424 5,144 C5,141.238576 2.76142389,139 0,139 C-2.76142389,139 -5,141.238576 -5,144 C-5,146.761424 -2.76142389,149 0,149 Z M32,149 C34.7614239,149 37,146.761424 37,144 C37,141.238576 34.7614239,139 32,139 C29.2385761,139 27,141.238576 27,144 C27,146.761424 29.2385761,149 32,149 Z M0,179 C3.31370866,179 6,176.313709 6,173 C6,169.686291 3.31370866,167 0,167 C-3.31370866,167 -6,169.686291 -6,173 C-6,176.313709 -3.31370866,179 0,179 Z M32,179 C35.3137087,179 38,176.313709 38,173 C38,169.686291 35.3137087,167 32,167 C28.6862913,167 26,169.686291 26,173 C26,176.313709 28.6862913,179 32,179 Z M24,221 C27.8659934,221 31,217.865993 31,214 C31,210.134007 27.8659934,207 24,207 C20.1340066,207 17,210.134007 17,214 C17,217.865993 20.1340066,221 24,221 Z M16,208 C19.8659934,208 23,204.865993 23,201 C23,197.134007 19.8659934,194 16,194 C12.1340066,194 9,197.134007 9,201 C9,204.865993 12.1340066,208 16,208 Z M0,208 C3.86599344,208 7,204.865993 7,201 C7,197.134007 3.86599344,194 0,194 C-3.86599344,194 -7,197.134007 -7,201 C-7,204.865993 -3.86599344,208 0,208 Z M32,208 C35.8659934,208 39,204.865993 39,201 C39,197.134007 35.8659934,194 32,194 C28.1340066,194 25,197.134007 25,201 C25,204.865993 28.1340066,208 32,208 Z M16,44 C17.1045696,44 18,43.1045696 18,42 C18,40.8954304 17.1045696,40 16,40 C14.8954304,40 14,40.8954304 14,42 C14,43.1045696 14.8954304,44 16,44 Z M8,22 C8.55228478,22 9,21.5522848 9,21 C9,20.4477152 8.55228478,20 8,20 C7.44771522,20 7,20.4477152 7,21 C7,21.5522848 7.44771522,22 8,22 Z M24,22 C24.5522848,22 25,21.5522848 25,21 C25,20.4477152 24.5522848,20 24,20 C23.4477152,20 23,20.4477152 23,21 C23,21.5522848 23.4477152,22 24,22 Z M32,2 C32.5522848,2 33,1.55228478 33,1 C33,0.447715223 32.5522848,0 32,0 C31.4477152,0 31,0.447715223 31,1 C31,1.55228478 31.4477152,2 32,2 Z M16,2 C16.5522848,2 17,1.55228478 17,1 C17,0.447715223 16.5522848,0 16,0 C15.4477152,0 15,0.447715223 15,1 C15,1.55228478 15.4477152,2 16,2 Z M0,2 C0.552284777,2 1,1.55228478 1,1 C1,0.447715223 0.552284777,0 0,0 C-0.552284777,0 -1,0.447715223 -1,1 C-1,1.55228478 -0.552284777,2 0,2 Z M0,44 C1.10456955,44 2,43.1045696 2,42 C2,40.8954304 1.10456955,40 0,40 C-1.10456955,40 -2,40.8954304 -2,42 C-2,43.1045696 -1.10456955,44 0,44 Z M32,44 C33.1045696,44 34,43.1045696 34,42 C34,40.8954304 33.1045696,40 32,40 C30.8954304,40 30,40.8954304 30,42 C30,43.1045696 30.8954304,44 32,44 Z" id="purple-dots-2" opacity="0.25" fill="#7855C1" sketch:type="MSShapeGroup" mask="url(#mask-2)"></path>
            </g>
            <g id="purple-+-purple-dots" sketch:type="MSLayerGroup" transform="translate(32.000000, -142.000000)">
                <mask id="mask-4" sketch:name="purple 3" fill="white">
                    <use xlink:href="#path-3"></use>
                </mask>
                <use id="purple-3" fill="#5835A1" sketch:type="MSShapeGroup" xlink:href="#path-3"></use>
                <path d="M1.33582034e-12,242.876007 C-1.36472889,245.335425 -3.98797315,247 -7,247 C-11.4182782,247 -15,243.418278 -15,239 C-15,234.581722 -11.4182782,231 -7,231 C-6.9764985,231 -6.95302066,231.000101 -6.92956691,231.000304 C-7.61035589,229.823542 -8,228.457274 -8,227 C-8,222.581722 -4.41827822,219 0,219 C4.41827822,219 8,222.581722 8,227 C8,228.489106 7.59314749,229.883187 6.88453848,231.077146 L6.88453848,231.077146 C7.24906757,231.026291 7.62146353,231 8,231 C8.37853647,231 8.75093243,231.026291 9.11546152,231.077146 L9.11546152,231.077146 C8.40685251,229.883187 8,228.489106 8,227 C8,222.581722 11.5817218,219 16,219 C20.4182782,219 24,222.581722 24,227 C24,228.457274 23.6103559,229.823542 22.9295669,231.000304 C22.9530207,231.000101 22.9764985,231 23,231 C23.7884151,231 24.5501924,231.11405 25.2697337,231.326552 L25.2697337,231.326552 C24.4662172,230.079204 24,228.594048 24,227 C24,222.581722 27.5817218,219 32,219 C36.4182782,219 40,222.581722 40,227 C40,228.477884 39.5992565,229.86217 38.9005073,231.050118 C42.8948679,231.497567 46,234.886162 46,239 C46,243.418278 42.4182782,247 38,247 C35.6106149,247 33.4658889,245.95249 32,244.291649 L32,250 L0,250 L0,242.876007 Z M29.7302663,234.673448 C30.0391189,235.152899 30.2981372,235.667485 30.5,236.209884 C30.663592,235.770317 30.8647218,235.349017 31.0994927,234.949882 C30.6295739,234.897241 30.1719624,234.803894 29.7302663,234.673448 L29.7302663,234.673448 Z M1.11546152,234.922854 C0.873831916,235.329984 0.667289099,235.760383 0.5,236.209884 L0.5,236.209884 C0.34319822,235.788562 0.151910068,235.384023 -0.0704330925,234.999696 C-0.0469793394,234.999899 -0.0235015042,235 0,235 C0.378536473,235 0.750932434,234.973709 1.11546152,234.922854 L1.11546152,234.922854 Z M14.8845385,234.922854 C15.1261681,235.329984 15.3327109,235.760383 15.5,236.209884 L15.5,236.209884 C15.6568018,235.788562 15.8480899,235.384023 16.0704331,234.999696 C16.0469793,234.999899 16.0235015,235 16,235 C15.6214635,235 15.2490676,234.973709 14.8845385,234.922854 L14.8845385,234.922854 Z M8,221 C11.8659934,221 15,217.865993 15,214 C15,210.134007 11.8659934,207 8,207 C4.13400656,207 1,210.134007 1,214 C1,217.865993 4.13400656,221 8,221 Z M8,193 C11.3137087,193 14,190.313709 14,187 C14,183.686291 11.3137087,181 8,181 C4.68629134,181 2,183.686291 2,187 C2,190.313709 4.68629134,193 8,193 Z M24,193 C27.3137087,193 30,190.313709 30,187 C30,183.686291 27.3137087,181 24,181 C20.6862913,181 18,183.686291 18,187 C18,190.313709 20.6862913,193 24,193 Z M16,179 C19.3137087,179 22,176.313709 22,173 C22,169.686291 19.3137087,167 16,167 C12.6862913,167 10,169.686291 10,173 C10,176.313709 12.6862913,179 16,179 Z M8,164 C10.7614239,164 13,161.761424 13,159 C13,156.238576 10.7614239,154 8,154 C5.23857611,154 3,156.238576 3,159 C3,161.761424 5.23857611,164 8,164 Z M24,164 C26.7614239,164 29,161.761424 29,159 C29,156.238576 26.7614239,154 24,154 C21.2385761,154 19,156.238576 19,159 C19,161.761424 21.2385761,164 24,164 Z M16,149 C18.7614239,149 21,146.761424 21,144 C21,141.238576 18.7614239,139 16,139 C13.2385761,139 11,141.238576 11,144 C11,146.761424 13.2385761,149 16,149 Z M8,133 C10.2091391,133 12,131.209139 12,129 C12,126.790861 10.2091391,125 8,125 C5.79086089,125 4,126.790861 4,129 C4,131.209139 5.79086089,133 8,133 Z M24,133 C26.2091391,133 28,131.209139 28,129 C28,126.790861 26.2091391,125 24,125 C21.7908609,125 20,126.790861 20,129 C20,131.209139 21.7908609,133 24,133 Z M16,117 C18.2091391,117 20,115.209139 20,113 C20,110.790861 18.2091391,109 16,109 C13.7908609,109 12,110.790861 12,113 C12,115.209139 13.7908609,117 16,117 Z M8,100 C9.65685433,100 11,98.6568543 11,97 C11,95.3431457 9.65685433,94 8,94 C6.34314567,94 5,95.3431457 5,97 C5,98.6568543 6.34314567,100 8,100 Z M24,100 C25.6568543,100 27,98.6568543 27,97 C27,95.3431457 25.6568543,94 24,94 C22.3431457,94 21,95.3431457 21,97 C21,98.6568543 22.3431457,100 24,100 Z M16,83 C17.6568543,83 19,81.6568543 19,80 C19,78.3431457 17.6568543,77 16,77 C14.3431457,77 13,78.3431457 13,80 C13,81.6568543 14.3431457,83 16,83 Z M8,63 C9.10456955,63 10,62.1045696 10,61 C10,59.8954304 9.10456955,59 8,59 C6.89543045,59 6,59.8954304 6,61 C6,62.1045696 6.89543045,63 8,63 Z M24,63 C25.1045696,63 26,62.1045696 26,61 C26,59.8954304 25.1045696,59 24,59 C22.8954304,59 22,59.8954304 22,61 C22,62.1045696 22.8954304,63 24,63 Z M0,83 C1.65685433,83 3,81.6568543 3,80 C3,78.3431457 1.65685433,77 0,77 C-1.65685433,77 -3,78.3431457 -3,80 C-3,81.6568543 -1.65685433,83 0,83 Z M32,83 C33.6568543,83 35,81.6568543 35,80 C35,78.3431457 33.6568543,77 32,77 C30.3431457,77 29,78.3431457 29,80 C29,81.6568543 30.3431457,83 32,83 Z M0,117 C2.20913911,117 4,115.209139 4,113 C4,110.790861 2.20913911,109 0,109 C-2.20913911,109 -4,110.790861 -4,113 C-4,115.209139 -2.20913911,117 0,117 Z M32,117 C34.2091391,117 36,115.209139 36,113 C36,110.790861 34.2091391,109 32,109 C29.7908609,109 28,110.790861 28,113 C28,115.209139 29.7908609,117 32,117 Z M0,149 C2.76142389,149 5,146.761424 5,144 C5,141.238576 2.76142389,139 0,139 C-2.76142389,139 -5,141.238576 -5,144 C-5,146.761424 -2.76142389,149 0,149 Z M32,149 C34.7614239,149 37,146.761424 37,144 C37,141.238576 34.7614239,139 32,139 C29.2385761,139 27,141.238576 27,144 C27,146.761424 29.2385761,149 32,149 Z M0,179 C3.31370866,179 6,176.313709 6,173 C6,169.686291 3.31370866,167 0,167 C-3.31370866,167 -6,169.686291 -6,173 C-6,176.313709 -3.31370866,179 0,179 Z M32,179 C35.3137087,179 38,176.313709 38,173 C38,169.686291 35.3137087,167 32,167 C28.6862913,167 26,169.686291 26,173 C26,176.313709 28.6862913,179 32,179 Z M24,221 C27.8659934,221 31,217.865993 31,214 C31,210.134007 27.8659934,207 24,207 C20.1340066,207 17,210.134007 17,214 C17,217.865993 20.1340066,221 24,221 Z M16,208 C19.8659934,208 23,204.865993 23,201 C23,197.134007 19.8659934,194 16,194 C12.1340066,194 9,197.134007 9,201 C9,204.865993 12.1340066,208 16,208 Z M0,208 C3.86599344,208 7,204.865993 7,201 C7,197.134007 3.86599344,194 0,194 C-3.86599344,194 -7,197.134007 -7,201 C-7,204.865993 -3.86599344,208 0,208 Z M32,208 C35.8659934,208 39,204.865993 39,201 C39,197.134007 35.8659934,194 32,194 C28.1340066,194 25,197.134007 25,201 C25,204.865993 28.1340066,208 32,208 Z M16,44 C17.1045696,44 18,43.1045696 18,42 C18,40.8954304 17.1045696,40 16,40 C14.8954304,40 14,40.8954304 14,42 C14,43.1045696 14.8954304,44 16,44 Z M8,22 C8.55228478,22 9,21.5522848 9,21 C9,20.4477152 8.55228478,20 8,20 C7.44771522,20 7,20.4477152 7,21 C7,21.5522848 7.44771522,22 8,22 Z M24,22 C24.5522848,22 25,21.5522848 25,21 C25,20.4477152 24.5522848,20 24,20 C23.4477152,20 23,20.4477152 23,21 C23,21.5522848 23.4477152,22 24,22 Z M32,2 C32.5522848,2 33,1.55228478 33,1 C33,0.447715223 32.5522848,0 32,0 C31.4477152,0 31,0.447715223 31,1 C31,1.55228478 31.4477152,2 32,2 Z M16,2 C16.5522848,2 17,1.55228478 17,1 C17,0.447715223 16.5522848,0 16,0 C15.4477152,0 15,0.447715223 15,1 C15,1.55228478 15.4477152,2 16,2 Z M0,2 C0.552284777,2 1,1.55228478 1,1 C1,0.447715223 0.552284777,0 0,0 C-0.552284777,0 -1,0.447715223 -1,1 C-1,1.55228478 -0.552284777,2 0,2 Z M0,44 C1.10456955,44 2,43.1045696 2,42 C2,40.8954304 1.10456955,40 0,40 C-1.10456955,40 -2,40.8954304 -2,42 C-2,43.1045696 -1.10456955,44 0,44 Z M32,44 C33.1045696,44 34,43.1045696 34,42 C34,40.8954304 33.1045696,40 32,40 C30.8954304,40 30,40.8954304 30,42 C30,43.1045696 30.8954304,44 32,44 Z" id="purple-dots-3" opacity="0.25" fill="#7855C1" sketch:type="MSShapeGroup" mask="url(#mask-4)"></path>
            </g>
            <g id="purple-+-purple-dots" sketch:type="MSLayerGroup" transform="translate(64.000000, -142.000000)">
                <mask id="mask-6" sketch:name="purple 4" fill="white">
                    <use xlink:href="#path-5"></use>
                </mask>
                <use id="purple-4" fill="#5835A1" sketch:type="MSShapeGroup" xlink:href="#path-5"></use>
                <path d="M1.33582034e-12,242.876007 C-1.36472889,245.335425 -3.98797315,247 -7,247 C-11.4182782,247 -15,243.418278 -15,239 C-15,234.581722 -11.4182782,231 -7,231 C-6.9764985,231 -6.95302066,231.000101 -6.92956691,231.000304 C-7.61035589,229.823542 -8,228.457274 -8,227 C-8,222.581722 -4.41827822,219 0,219 C4.41827822,219 8,222.581722 8,227 C8,228.489106 7.59314749,229.883187 6.88453848,231.077146 L6.88453848,231.077146 C7.24906757,231.026291 7.62146353,231 8,231 C8.37853647,231 8.75093243,231.026291 9.11546152,231.077146 L9.11546152,231.077146 C8.40685251,229.883187 8,228.489106 8,227 C8,222.581722 11.5817218,219 16,219 C20.4182782,219 24,222.581722 24,227 C24,228.457274 23.6103559,229.823542 22.9295669,231.000304 C22.9530207,231.000101 22.9764985,231 23,231 C23.7884151,231 24.5501924,231.11405 25.2697337,231.326552 L25.2697337,231.326552 C24.4662172,230.079204 24,228.594048 24,227 C24,222.581722 27.5817218,219 32,219 C36.4182782,219 40,222.581722 40,227 C40,228.477884 39.5992565,229.86217 38.9005073,231.050118 C42.8948679,231.497567 46,234.886162 46,239 C46,243.418278 42.4182782,247 38,247 C35.6106149,247 33.4658889,245.95249 32,244.291649 L32,250 L0,250 L0,242.876007 Z M29.7302663,234.673448 C30.0391189,235.152899 30.2981372,235.667485 30.5,236.209884 C30.663592,235.770317 30.8647218,235.349017 31.0994927,234.949882 C30.6295739,234.897241 30.1719624,234.803894 29.7302663,234.673448 L29.7302663,234.673448 Z M1.11546152,234.922854 C0.873831916,235.329984 0.667289099,235.760383 0.5,236.209884 L0.5,236.209884 C0.34319822,235.788562 0.151910068,235.384023 -0.0704330925,234.999696 C-0.0469793394,234.999899 -0.0235015042,235 0,235 C0.378536473,235 0.750932434,234.973709 1.11546152,234.922854 L1.11546152,234.922854 Z M14.8845385,234.922854 C15.1261681,235.329984 15.3327109,235.760383 15.5,236.209884 L15.5,236.209884 C15.6568018,235.788562 15.8480899,235.384023 16.0704331,234.999696 C16.0469793,234.999899 16.0235015,235 16,235 C15.6214635,235 15.2490676,234.973709 14.8845385,234.922854 L14.8845385,234.922854 Z M8,221 C11.8659934,221 15,217.865993 15,214 C15,210.134007 11.8659934,207 8,207 C4.13400656,207 1,210.134007 1,214 C1,217.865993 4.13400656,221 8,221 Z M8,193 C11.3137087,193 14,190.313709 14,187 C14,183.686291 11.3137087,181 8,181 C4.68629134,181 2,183.686291 2,187 C2,190.313709 4.68629134,193 8,193 Z M24,193 C27.3137087,193 30,190.313709 30,187 C30,183.686291 27.3137087,181 24,181 C20.6862913,181 18,183.686291 18,187 C18,190.313709 20.6862913,193 24,193 Z M16,179 C19.3137087,179 22,176.313709 22,173 C22,169.686291 19.3137087,167 16,167 C12.6862913,167 10,169.686291 10,173 C10,176.313709 12.6862913,179 16,179 Z M8,164 C10.7614239,164 13,161.761424 13,159 C13,156.238576 10.7614239,154 8,154 C5.23857611,154 3,156.238576 3,159 C3,161.761424 5.23857611,164 8,164 Z M24,164 C26.7614239,164 29,161.761424 29,159 C29,156.238576 26.7614239,154 24,154 C21.2385761,154 19,156.238576 19,159 C19,161.761424 21.2385761,164 24,164 Z M16,149 C18.7614239,149 21,146.761424 21,144 C21,141.238576 18.7614239,139 16,139 C13.2385761,139 11,141.238576 11,144 C11,146.761424 13.2385761,149 16,149 Z M8,133 C10.2091391,133 12,131.209139 12,129 C12,126.790861 10.2091391,125 8,125 C5.79086089,125 4,126.790861 4,129 C4,131.209139 5.79086089,133 8,133 Z M24,133 C26.2091391,133 28,131.209139 28,129 C28,126.790861 26.2091391,125 24,125 C21.7908609,125 20,126.790861 20,129 C20,131.209139 21.7908609,133 24,133 Z M16,117 C18.2091391,117 20,115.209139 20,113 C20,110.790861 18.2091391,109 16,109 C13.7908609,109 12,110.790861 12,113 C12,115.209139 13.7908609,117 16,117 Z M8,100 C9.65685433,100 11,98.6568543 11,97 C11,95.3431457 9.65685433,94 8,94 C6.34314567,94 5,95.3431457 5,97 C5,98.6568543 6.34314567,100 8,100 Z M24,100 C25.6568543,100 27,98.6568543 27,97 C27,95.3431457 25.6568543,94 24,94 C22.3431457,94 21,95.3431457 21,97 C21,98.6568543 22.3431457,100 24,100 Z M16,83 C17.6568543,83 19,81.6568543 19,80 C19,78.3431457 17.6568543,77 16,77 C14.3431457,77 13,78.3431457 13,80 C13,81.6568543 14.3431457,83 16,83 Z M8,63 C9.10456955,63 10,62.1045696 10,61 C10,59.8954304 9.10456955,59 8,59 C6.89543045,59 6,59.8954304 6,61 C6,62.1045696 6.89543045,63 8,63 Z M24,63 C25.1045696,63 26,62.1045696 26,61 C26,59.8954304 25.1045696,59 24,59 C22.8954304,59 22,59.8954304 22,61 C22,62.1045696 22.8954304,63 24,63 Z M0,83 C1.65685433,83 3,81.6568543 3,80 C3,78.3431457 1.65685433,77 0,77 C-1.65685433,77 -3,78.3431457 -3,80 C-3,81.6568543 -1.65685433,83 0,83 Z M32,83 C33.6568543,83 35,81.6568543 35,80 C35,78.3431457 33.6568543,77 32,77 C30.3431457,77 29,78.3431457 29,80 C29,81.6568543 30.3431457,83 32,83 Z M0,117 C2.20913911,117 4,115.209139 4,113 C4,110.790861 2.20913911,109 0,109 C-2.20913911,109 -4,110.790861 -4,113 C-4,115.209139 -2.20913911,117 0,117 Z M32,117 C34.2091391,117 36,115.209139 36,113 C36,110.790861 34.2091391,109 32,109 C29.7908609,109 28,110.790861 28,113 C28,115.209139 29.7908609,117 32,117 Z M0,149 C2.76142389,149 5,146.761424 5,144 C5,141.238576 2.76142389,139 0,139 C-2.76142389,139 -5,141.238576 -5,144 C-5,146.761424 -2.76142389,149 0,149 Z M32,149 C34.7614239,149 37,146.761424 37,144 C37,141.238576 34.7614239,139 32,139 C29.2385761,139 27,141.238576 27,144 C27,146.761424 29.2385761,149 32,149 Z M0,179 C3.31370866,179 6,176.313709 6,173 C6,169.686291 3.31370866,167 0,167 C-3.31370866,167 -6,169.686291 -6,173 C-6,176.313709 -3.31370866,179 0,179 Z M32,179 C35.3137087,179 38,176.313709 38,173 C38,169.686291 35.3137087,167 32,167 C28.6862913,167 26,169.686291 26,173 C26,176.313709 28.6862913,179 32,179 Z M24,221 C27.8659934,221 31,217.865993 31,214 C31,210.134007 27.8659934,207 24,207 C20.1340066,207 17,210.134007 17,214 C17,217.865993 20.1340066,221 24,221 Z M16,208 C19.8659934,208 23,204.865993 23,201 C23,197.134007 19.8659934,194 16,194 C12.1340066,194 9,197.134007 9,201 C9,204.865993 12.1340066,208 16,208 Z M0,208 C3.86599344,208 7,204.865993 7,201 C7,197.134007 3.86599344,194 0,194 C-3.86599344,194 -7,197.134007 -7,201 C-7,204.865993 -3.86599344,208 0,208 Z M32,208 C35.8659934,208 39,204.865993 39,201 C39,197.134007 35.8659934,194 32,194 C28.1340066,194 25,197.134007 25,201 C25,204.865993 28.1340066,208 32,208 Z M16,44 C17.1045696,44 18,43.1045696 18,42 C18,40.8954304 17.1045696,40 16,40 C14.8954304,40 14,40.8954304 14,42 C14,43.1045696 14.8954304,44 16,44 Z M8,22 C8.55228478,22 9,21.5522848 9,21 C9,20.4477152 8.55228478,20 8,20 C7.44771522,20 7,20.4477152 7,21 C7,21.5522848 7.44771522,22 8,22 Z M24,22 C24.5522848,22 25,21.5522848 25,21 C25,20.4477152 24.5522848,20 24,20 C23.4477152,20 23,20.4477152 23,21 C23,21.5522848 23.4477152,22 24,22 Z M32,2 C32.5522848,2 33,1.55228478 33,1 C33,0.447715223 32.5522848,0 32,0 C31.4477152,0 31,0.447715223 31,1 C31,1.55228478 31.4477152,2 32,2 Z M16,2 C16.5522848,2 17,1.55228478 17,1 C17,0.447715223 16.5522848,0 16,0 C15.4477152,0 15,0.447715223 15,1 C15,1.55228478 15.4477152,2 16,2 Z M0,2 C0.552284777,2 1,1.55228478 1,1 C1,0.447715223 0.552284777,0 0,0 C-0.552284777,0 -1,0.447715223 -1,1 C-1,1.55228478 -0.552284777,2 0,2 Z M0,44 C1.10456955,44 2,43.1045696 2,42 C2,40.8954304 1.10456955,40 0,40 C-1.10456955,40 -2,40.8954304 -2,42 C-2,43.1045696 -1.10456955,44 0,44 Z M32,44 C33.1045696,44 34,43.1045696 34,42 C34,40.8954304 33.1045696,40 32,40 C30.8954304,40 30,40.8954304 30,42 C30,43.1045696 30.8954304,44 32,44 Z" id="purple-dots-4" opacity="0.25" fill="#7855C1" sketch:type="MSShapeGroup" mask="url(#mask-6)"></path>
            </g>
            <g id="purple-+-purple-dots" sketch:type="MSLayerGroup" transform="translate(96.000000, -142.000000)">
                <mask id="mask-8" sketch:name="purple" fill="white">
                    <use xlink:href="#path-7"></use>
                </mask>
                <use id="purple" fill="#5835A1" sketch:type="MSShapeGroup" xlink:href="#path-7"></use>
                <path d="M1.33582034e-12,242.876007 C-1.36472889,245.335425 -3.98797315,247 -7,247 C-11.4182782,247 -15,243.418278 -15,239 C-15,234.581722 -11.4182782,231 -7,231 C-6.9764985,231 -6.95302066,231.000101 -6.92956691,231.000304 C-7.61035589,229.823542 -8,228.457274 -8,227 C-8,222.581722 -4.41827822,219 0,219 C4.41827822,219 8,222.581722 8,227 C8,228.489106 7.59314749,229.883187 6.88453848,231.077146 L6.88453848,231.077146 C7.24906757,231.026291 7.62146353,231 8,231 C8.37853647,231 8.75093243,231.026291 9.11546152,231.077146 L9.11546152,231.077146 C8.40685251,229.883187 8,228.489106 8,227 C8,222.581722 11.5817218,219 16,219 C20.4182782,219 24,222.581722 24,227 C24,228.457274 23.6103559,229.823542 22.9295669,231.000304 C22.9530207,231.000101 22.9764985,231 23,231 C23.7884151,231 24.5501924,231.11405 25.2697337,231.326552 L25.2697337,231.326552 C24.4662172,230.079204 24,228.594048 24,227 C24,222.581722 27.5817218,219 32,219 C36.4182782,219 40,222.581722 40,227 C40,228.477884 39.5992565,229.86217 38.9005073,231.050118 C42.8948679,231.497567 46,234.886162 46,239 C46,243.418278 42.4182782,247 38,247 C35.6106149,247 33.4658889,245.95249 32,244.291649 L32,250 L0,250 L0,242.876007 Z M29.7302663,234.673448 C30.0391189,235.152899 30.2981372,235.667485 30.5,236.209884 C30.663592,235.770317 30.8647218,235.349017 31.0994927,234.949882 C30.6295739,234.897241 30.1719624,234.803894 29.7302663,234.673448 L29.7302663,234.673448 Z M1.11546152,234.922854 C0.873831916,235.329984 0.667289099,235.760383 0.5,236.209884 L0.5,236.209884 C0.34319822,235.788562 0.151910068,235.384023 -0.0704330925,234.999696 C-0.0469793394,234.999899 -0.0235015042,235 0,235 C0.378536473,235 0.750932434,234.973709 1.11546152,234.922854 L1.11546152,234.922854 Z M14.8845385,234.922854 C15.1261681,235.329984 15.3327109,235.760383 15.5,236.209884 L15.5,236.209884 C15.6568018,235.788562 15.8480899,235.384023 16.0704331,234.999696 C16.0469793,234.999899 16.0235015,235 16,235 C15.6214635,235 15.2490676,234.973709 14.8845385,234.922854 L14.8845385,234.922854 Z M8,221 C11.8659934,221 15,217.865993 15,214 C15,210.134007 11.8659934,207 8,207 C4.13400656,207 1,210.134007 1,214 C1,217.865993 4.13400656,221 8,221 Z M8,193 C11.3137087,193 14,190.313709 14,187 C14,183.686291 11.3137087,181 8,181 C4.68629134,181 2,183.686291 2,187 C2,190.313709 4.68629134,193 8,193 Z M24,193 C27.3137087,193 30,190.313709 30,187 C30,183.686291 27.3137087,181 24,181 C20.6862913,181 18,183.686291 18,187 C18,190.313709 20.6862913,193 24,193 Z M16,179 C19.3137087,179 22,176.313709 22,173 C22,169.686291 19.3137087,167 16,167 C12.6862913,167 10,169.686291 10,173 C10,176.313709 12.6862913,179 16,179 Z M8,164 C10.7614239,164 13,161.761424 13,159 C13,156.238576 10.7614239,154 8,154 C5.23857611,154 3,156.238576 3,159 C3,161.761424 5.23857611,164 8,164 Z M24,164 C26.7614239,164 29,161.761424 29,159 C29,156.238576 26.7614239,154 24,154 C21.2385761,154 19,156.238576 19,159 C19,161.761424 21.2385761,164 24,164 Z M16,149 C18.7614239,149 21,146.761424 21,144 C21,141.238576 18.7614239,139 16,139 C13.2385761,139 11,141.238576 11,144 C11,146.761424 13.2385761,149 16,149 Z M8,133 C10.2091391,133 12,131.209139 12,129 C12,126.790861 10.2091391,125 8,125 C5.79086089,125 4,126.790861 4,129 C4,131.209139 5.79086089,133 8,133 Z M24,133 C26.2091391,133 28,131.209139 28,129 C28,126.790861 26.2091391,125 24,125 C21.7908609,125 20,126.790861 20,129 C20,131.209139 21.7908609,133 24,133 Z M16,117 C18.2091391,117 20,115.209139 20,113 C20,110.790861 18.2091391,109 16,109 C13.7908609,109 12,110.790861 12,113 C12,115.209139 13.7908609,117 16,117 Z M8,100 C9.65685433,100 11,98.6568543 11,97 C11,95.3431457 9.65685433,94 8,94 C6.34314567,94 5,95.3431457 5,97 C5,98.6568543 6.34314567,100 8,100 Z M24,100 C25.6568543,100 27,98.6568543 27,97 C27,95.3431457 25.6568543,94 24,94 C22.3431457,94 21,95.3431457 21,97 C21,98.6568543 22.3431457,100 24,100 Z M16,83 C17.6568543,83 19,81.6568543 19,80 C19,78.3431457 17.6568543,77 16,77 C14.3431457,77 13,78.3431457 13,80 C13,81.6568543 14.3431457,83 16,83 Z M8,63 C9.10456955,63 10,62.1045696 10,61 C10,59.8954304 9.10456955,59 8,59 C6.89543045,59 6,59.8954304 6,61 C6,62.1045696 6.89543045,63 8,63 Z M24,63 C25.1045696,63 26,62.1045696 26,61 C26,59.8954304 25.1045696,59 24,59 C22.8954304,59 22,59.8954304 22,61 C22,62.1045696 22.8954304,63 24,63 Z M0,83 C1.65685433,83 3,81.6568543 3,80 C3,78.3431457 1.65685433,77 0,77 C-1.65685433,77 -3,78.3431457 -3,80 C-3,81.6568543 -1.65685433,83 0,83 Z M32,83 C33.6568543,83 35,81.6568543 35,80 C35,78.3431457 33.6568543,77 32,77 C30.3431457,77 29,78.3431457 29,80 C29,81.6568543 30.3431457,83 32,83 Z M0,117 C2.20913911,117 4,115.209139 4,113 C4,110.790861 2.20913911,109 0,109 C-2.20913911,109 -4,110.790861 -4,113 C-4,115.209139 -2.20913911,117 0,117 Z M32,117 C34.2091391,117 36,115.209139 36,113 C36,110.790861 34.2091391,109 32,109 C29.7908609,109 28,110.790861 28,113 C28,115.209139 29.7908609,117 32,117 Z M0,149 C2.76142389,149 5,146.761424 5,144 C5,141.238576 2.76142389,139 0,139 C-2.76142389,139 -5,141.238576 -5,144 C-5,146.761424 -2.76142389,149 0,149 Z M32,149 C34.7614239,149 37,146.761424 37,144 C37,141.238576 34.7614239,139 32,139 C29.2385761,139 27,141.238576 27,144 C27,146.761424 29.2385761,149 32,149 Z M0,179 C3.31370866,179 6,176.313709 6,173 C6,169.686291 3.31370866,167 0,167 C-3.31370866,167 -6,169.686291 -6,173 C-6,176.313709 -3.31370866,179 0,179 Z M32,179 C35.3137087,179 38,176.313709 38,173 C38,169.686291 35.3137087,167 32,167 C28.6862913,167 26,169.686291 26,173 C26,176.313709 28.6862913,179 32,179 Z M24,221 C27.8659934,221 31,217.865993 31,214 C31,210.134007 27.8659934,207 24,207 C20.1340066,207 17,210.134007 17,214 C17,217.865993 20.1340066,221 24,221 Z M16,208 C19.8659934,208 23,204.865993 23,201 C23,197.134007 19.8659934,194 16,194 C12.1340066,194 9,197.134007 9,201 C9,204.865993 12.1340066,208 16,208 Z M0,208 C3.86599344,208 7,204.865993 7,201 C7,197.134007 3.86599344,194 0,194 C-3.86599344,194 -7,197.134007 -7,201 C-7,204.865993 -3.86599344,208 0,208 Z M32,208 C35.8659934,208 39,204.865993 39,201 C39,197.134007 35.8659934,194 32,194 C28.1340066,194 25,197.134007 25,201 C25,204.865993 28.1340066,208 32,208 Z M16,44 C17.1045696,44 18,43.1045696 18,42 C18,40.8954304 17.1045696,40 16,40 C14.8954304,40 14,40.8954304 14,42 C14,43.1045696 14.8954304,44 16,44 Z M8,22 C8.55228478,22 9,21.5522848 9,21 C9,20.4477152 8.55228478,20 8,20 C7.44771522,20 7,20.4477152 7,21 C7,21.5522848 7.44771522,22 8,22 Z M24,22 C24.5522848,22 25,21.5522848 25,21 C25,20.4477152 24.5522848,20 24,20 C23.4477152,20 23,20.4477152 23,21 C23,21.5522848 23.4477152,22 24,22 Z M32,2 C32.5522848,2 33,1.55228478 33,1 C33,0.447715223 32.5522848,0 32,0 C31.4477152,0 31,0.447715223 31,1 C31,1.55228478 31.4477152,2 32,2 Z M16,2 C16.5522848,2 17,1.55228478 17,1 C17,0.447715223 16.5522848,0 16,0 C15.4477152,0 15,0.447715223 15,1 C15,1.55228478 15.4477152,2 16,2 Z M0,2 C0.552284777,2 1,1.55228478 1,1 C1,0.447715223 0.552284777,0 0,0 C-0.552284777,0 -1,0.447715223 -1,1 C-1,1.55228478 -0.552284777,2 0,2 Z M0,44 C1.10456955,44 2,43.1045696 2,42 C2,40.8954304 1.10456955,40 0,40 C-1.10456955,40 -2,40.8954304 -2,42 C-2,43.1045696 -1.10456955,44 0,44 Z M32,44 C33.1045696,44 34,43.1045696 34,42 C34,40.8954304 33.1045696,40 32,40 C30.8954304,40 30,40.8954304 30,42 C30,43.1045696 30.8954304,44 32,44 Z" id="purple-dots" opacity="0.25" fill="#7855C1" sketch:type="MSShapeGroup" mask="url(#mask-8)"></path>
            </g>
            <path d="M43.876,23.254 C43.876,25.49 41.666,25.568 40.028,25.568 C38.936,25.568 37.324,25.516 36.362,24.944 C36.336,23.592 36.232,22.526 36.31,21.174 C37.402,21.07 38.494,20.992 39.586,20.992 C41.224,20.992 43.876,21.096 43.876,23.254 L43.876,23.254 Z M42.524,15.402 C42.524,15.844 42.42,16.78 42.056,17.04 C41.64,16.988 41.25,16.988 40.86,16.988 C39.404,16.988 37.948,17.144 36.492,17.248 C36.518,16.26 36.518,14.726 36.518,13.738 C37.48,13.53 38.52,13.452 39.508,13.452 C40.704,13.452 42.524,13.868 42.524,15.402 L42.524,15.402 Z M48.79,22.11 C48.79,20.368 46.944,18.834 45.462,18.106 C46.372,17.274 47.022,15.844 47.022,14.596 C47.022,12.62 45.878,10.644 43.98,9.968 C42.654,9.5 41.25,9.422 39.872,9.422 C38.156,9.422 33.45,9.448 32.306,10.8 C31.942,11.242 31.812,11.788 31.812,12.334 C31.812,13.036 32.02,13.79 32.436,14.362 C32.41,17.482 32.15,20.628 32.15,23.774 C32.15,24.71 31.994,25.672 31.994,26.634 C31.994,27.986 32.254,29.208 33.944,29.208 C34.542,29.208 34.932,29.208 35.478,29 C36.518,29.39 37.636,29.52 38.754,29.52 C43.226,29.52 48.79,27.336 48.79,22.11 L48.79,22.11 Z M60.412,22.838 C60.36,23.618 60.334,24.372 60.282,25.152 C59.268,25.49 58.202,25.698 57.136,25.698 C56.044,25.698 54.718,25.646 54.718,24.294 C54.718,22.968 56.72,22.604 57.682,22.604 C58.67,22.604 59.502,22.76 60.412,22.838 L60.412,22.838 Z M64.65,20.836 C64.65,19.458 64.572,17.586 64.052,16.312 C63.116,14.076 60.074,13.608 57.942,13.608 C55.654,13.608 51.572,14.544 51.52,16.962 C51.494,17.69 51.91,18.34 52.716,18.34 C53.782,18.34 55.498,17.404 57.162,17.404 C59.008,17.404 60.126,17.768 60.386,19.38 L60.048,19.38 C58.67,19.38 56.564,19.51 55.264,19.978 C53.184,20.732 50.272,22.344 50.272,24.788 C50.272,27.414 52.508,29.728 55.134,29.728 C56.07,29.728 57.084,29.676 57.994,29.468 C58.696,29.312 59.606,29 60.464,28.558 C60.698,29.182 61.218,29.572 62.154,29.572 C64.468,29.572 64.598,26.66 64.598,24.97 C64.598,23.592 64.65,22.214 64.65,20.836 L64.65,20.836 Z M80.874,17.014 C80.874,14.336 78.118,13.894 75.986,13.894 C71.774,13.894 67.744,17.898 67.744,22.11 C67.744,26.062 70.188,29.65 74.426,29.65 C76.194,29.65 80.796,28.662 80.796,26.27 C80.796,25.594 80.432,25.074 79.73,25.074 C79.548,25.074 79.392,25.126 79.236,25.152 C78.04,25.464 76.896,25.724 75.648,25.724 C73.49,25.724 71.748,23.462 71.748,21.408 C71.748,19.068 72.892,17.924 75.232,17.924 C77.156,17.924 78.326,19.12 79.418,19.12 C80.536,19.12 80.874,17.924 80.874,17.014 L80.874,17.014 Z M97.748,27.154 C97.748,26.582 97.462,26.218 96.994,25.906 C95.642,25.074 94.42,24.008 93.276,22.89 C92.652,22.266 92.106,21.538 91.482,20.888 C91.586,20.784 91.664,20.706 91.768,20.602 C92.158,20.238 92.574,19.926 92.99,19.64 C93.458,19.302 93.926,19.016 94.42,18.704 C95.434,18.028 97.566,16.234 97.566,14.908 C97.566,13.946 96.838,13.088 95.824,13.088 C95.746,13.088 95.642,13.114 95.564,13.114 C95.018,13.192 94.576,13.66 94.212,14.024 C92.262,16.13 89.896,17.768 87.816,19.744 L87.816,17.664 C87.816,16.338 87.738,15.012 87.738,13.686 C87.738,12.932 87.816,12.178 87.816,11.424 C87.816,10.202 87.712,9.032 86.23,9.032 C84.228,9.032 83.552,11.242 83.552,12.88 L83.552,19.51 C83.552,21.2 83.5,22.864 83.5,24.528 C83.5,25.672 83.5,26.868 83.656,28.012 C83.76,28.766 84.202,29.312 85.008,29.312 C86.412,29.312 87.686,27.83 87.738,26.478 C87.738,25.724 87.764,24.996 87.764,24.242 C87.894,24.138 87.998,24.034 88.102,23.93 C89.116,24.762 90.078,25.724 90.858,26.582 C91.664,27.466 93.874,29.416 95.096,29.416 C96.344,29.416 97.748,28.532 97.748,27.154 L97.748,27.154 Z" id="Back" fill="#FFFFFF" sketch:type="MSShapeGroup"></path>
        </g>
    </g>
</svg>