<?xml version="1.0" encoding="UTF-8"?>
<svg width="1536px" height="1468px" viewBox="0 0 1536 1468" version="1.1" xmlns="http://www.w3.org/2000/svg" xmlns:xlink="http://www.w3.org/1999/xlink">
    <!-- Generator: Sketch 43.2 (39069) - http://www.bohemiancoding.com/sketch -->
    <title>Shape</title>
    <desc>Created with Sketch.</desc>
    <defs></defs>
    <g id="Page-1" stroke="none" stroke-width="1" fill="none" fill-rule="evenodd">
        <g id="icon-linkedin" fill-rule="nonzero" fill="#000000">
            <path d="M349,477 L349,1468 L19,1468 L19,477 L349,477 Z M370,171 C370.666667,219.666667 353.833333,260.333333 319.5,293 C285.166667,325.666667 240,342 184,342 L182,342 C127.333333,342 83.3333333,325.666667 50,293 C16.6666667,260.333333 0,219.666667 0,171 C0,121.666667 17.1666667,80.8333333 51.5,48.5 C85.8333333,16.1666667 130.666667,0 186,0 C241.333333,0 285.666667,16.1666667 319,48.5 C352.333333,80.8333333 369.333333,121.666667 370,171 Z M1536,900 L1536,1468 L1207,1468 L1207,938 C1207,868 1193.5,813.166667 1166.5,773.5 C1139.5,733.833333 1097.33333,714 1040,714 C998,714 962.833333,725.5 934.5,748.5 C906.166667,771.5 885,800 871,834 C863.666667,854 860,881 860,915 L860,1468 L531,1468 C532.333333,1202 533,986.333333 533,821 C533,655.666667 532.666667,557 532,525 L531,477 L860,477 L860,621 L858,621 C871.333333,599.666667 885,581 899,565 C913,549 931.833333,531.666667 955.5,513 C979.166667,494.333333 1008.16667,479.833333 1042.5,469.5 C1076.83333,459.166667 1115,454 1157,454 C1271,454 1362.66667,491.833333 1432,567.5 C1501.33333,643.166667 1536,754 1536,900 Z" id="Shape"></path>
        </g>
    </g>
</svg>