<?xml version="1.0" encoding="UTF-8"?>
<svg width="1792px" height="1692px" viewBox="0 0 1792 1692" version="1.1" xmlns="http://www.w3.org/2000/svg" xmlns:xlink="http://www.w3.org/1999/xlink">
    <!-- Generator: Sketch 43.2 (39069) - http://www.bohemiancoding.com/sketch -->
    <title>Shape</title>
    <desc>Created with Sketch.</desc>
    <defs></defs>
    <g id="Page-1" stroke="none" stroke-width="1" fill="none" fill-rule="evenodd">
        <g id="icon-reddit" fill-rule="nonzero" fill="#000000">
            <path d="M1792,846 C1792,884.666667 1782.16667,919.833333 1762.5,951.5 C1742.83333,983.166667 1716.33333,1007.33333 1683,1024 C1691,1054.66667 1695,1086.66667 1695,1120 C1695,1223.33333 1659.5,1319 1588.5,1407 C1517.5,1495 1420.66667,1564.5 1298,1615.5 C1175.33333,1666.5 1042,1692 898,1692 C754,1692 620.833333,1666.5 498.5,1615.5 C376.166667,1564.5 279.5,1495 208.5,1407 C137.5,1319 102,1223.33333 102,1120 C102,1088.66667 105.666667,1057.33333 113,1026 C79,1009.33333 51.6666667,984.833333 31,952.5 C10.3333333,920.166667 0,884.666667 0,846 C0,791.333333 19.3333333,744.5 58,705.5 C96.6666667,666.5 143.666667,647 199,647 C255.666667,647 304,668 344,710 C489.333333,608.666667 661,554.666667 859,548 L975,27 C977,18.3333333 982,11.3333333 990,6 C998,0.666666667 1006.66667,-1 1016,1 L1385,82 C1397,57.3333333 1415,37.5 1439,22.5 C1463,7.5 1489.33333,0 1518,0 C1559.33333,0 1594.66667,14.5 1624,43.5 C1653.33333,72.5 1668,107.666667 1668,149 C1668,190.333333 1653.33333,225.666667 1624,255 C1594.66667,284.333333 1559.33333,299 1518,299 C1476.66667,299 1441.5,284.5 1412.5,255.5 C1383.5,226.5 1369,191.333333 1369,150 L1035,76 L931,548 C1131,554 1304,607.333333 1450,708 C1488.66667,667.333333 1536.33333,647 1593,647 C1648.33333,647 1695.33333,666.5 1734,705.5 C1772.66667,744.5 1792,791.333333 1792,846 Z M418,1045 C418,1086.33333 432.5,1121.66667 461.5,1151 C490.5,1180.33333 525.666667,1195 567,1195 C608.333333,1195 643.666667,1180.33333 673,1151 C702.333333,1121.66667 717,1086.33333 717,1045 C717,1003.66667 702.333333,968.5 673,939.5 C643.666667,910.5 608.333333,896 567,896 C526.333333,896 491.333333,910.666667 462,940 C432.666667,969.333333 418,1004.33333 418,1045 Z M1228,1400 C1235.33333,1392.66667 1239,1384 1239,1374 C1239,1364 1235.33333,1355.33333 1228,1348 C1221.33333,1341.33333 1213,1338 1203,1338 C1193,1338 1184.33333,1341.33333 1177,1348 C1149.66667,1376 1109.33333,1396.66667 1056,1410 C1002.66667,1423.33333 949.333333,1430 896,1430 C842.666667,1430 789.333333,1423.33333 736,1410 C682.666667,1396.66667 642.333333,1376 615,1348 C607.666667,1341.33333 599,1338 589,1338 C579,1338 570.666667,1341.33333 564,1348 C556.666667,1354.66667 553,1363.16667 553,1373.5 C553,1383.83333 556.666667,1392.66667 564,1400 C592.666667,1428.66667 632.166667,1451.33333 682.5,1468 C732.833333,1484.66667 773.666667,1494.5 805,1497.5 C836.333333,1500.5 866.666667,1502 896,1502 C925.333333,1502 955.666667,1500.5 987,1497.5 C1018.33333,1494.5 1059.16667,1484.66667 1109.5,1468 C1159.83333,1451.33333 1199.33333,1428.66667 1228,1400 Z M1225,1195 C1266.33333,1195 1301.5,1180.33333 1330.5,1151 C1359.5,1121.66667 1374,1086.33333 1374,1045 C1374,1004.33333 1359.33333,969.333333 1330,940 C1300.66667,910.666667 1265.66667,896 1225,896 C1183.66667,896 1148.33333,910.5 1119,939.5 C1089.66667,968.5 1075,1003.66667 1075,1045 C1075,1086.33333 1089.66667,1121.66667 1119,1151 C1148.33333,1180.33333 1183.66667,1195 1225,1195 Z" id="Shape"></path>
        </g>
    </g>
</svg>