<?xml version="1.0" encoding="UTF-8" standalone="no"?>
<svg width="200px" height="200px" viewBox="0 0 200 200" version="1.1" xmlns="http://www.w3.org/2000/svg" xmlns:xlink="http://www.w3.org/1999/xlink" xmlns:sketch="http://www.bohemiancoding.com/sketch/ns">
    <!-- Generator: Sketch 3.3.2 (12043) - http://www.bohemiancoding.com/sketch -->
    <title>chapter.layout_list</title>
    <desc>Created with Sketch.</desc>
    <defs></defs>
    <g id="Page-1" stroke="none" stroke-width="1" fill="none" fill-rule="evenodd" sketch:type="MSPage">
        <g id="chapter.layout_list" sketch:type="MSArtboardGroup">
            <rect id="Rectangle-1" fill="#EEEEEE" sketch:type="MSShapeGroup" x="0" y="0" width="200" height="200"></rect>
            <path d="M26.502,24.505 C26.541,24.141 26.437,23.374 26.203,23.387 C25.722,23.439 25.384,23.777 24.825,24.076 C24.37,24.31 23.694,24.479 23.304,24.505 C21.666,24.674 20.197,23.283 20.08,21.97 C19.976,20.878 20.041,20.124 20.821,19.214 C21.926,17.914 23.187,17.81 23.824,17.888 C24.578,17.992 25.033,18.759 25.514,18.863 C25.865,18.941 26.411,18.512 26.437,17.641 C26.437,17.16 26.125,16.796 25.761,16.536 C24.838,15.86 23.239,16.016 22.459,16.146 C19.859,16.614 18.546,19.344 18.637,22.152 C18.65,22.945 18.897,23.79 19.066,24.141 C19.898,25.896 21.64,26.52 23.733,26.325 C24.669,26.234 26.398,25.584 26.502,24.505 L26.502,24.505 Z M34.549,25.129 C34.549,24.076 34.458,23.153 34.458,22.048 C34.458,20.644 34.549,19.24 33.145,18.668 C32.859,18.551 32.469,18.473 32.079,18.473 C31.195,18.473 30.337,18.889 29.648,19.526 C29.674,18.876 29.7,18.252 29.713,17.68 C29.726,17.316 29.752,16.939 29.752,16.718 C29.752,16.198 29.817,15.717 29.258,15.847 C28.582,16.003 28.127,16.9 28.127,17.576 C28.127,18.382 28.179,19.175 28.179,19.955 C28.179,21.06 28.166,22.789 28.101,23.829 C28.049,24.609 27.841,26.312 28.608,26.247 C29.44,26.182 29.765,25.207 29.713,24.544 C29.648,23.803 29.57,23.413 29.57,22.672 C29.57,22.152 29.583,21.58 29.596,20.995 C30.064,20.579 30.766,20.215 31.247,20.215 C31.676,20.215 32.443,20.254 32.768,20.774 C33.028,21.203 32.976,22.269 32.976,22.776 C32.976,23.595 32.898,24.284 32.898,25.129 C32.898,25.766 32.82,26.39 33.561,26.39 C34.12,26.39 34.549,25.571 34.549,25.129 L34.549,25.129 Z M40.698,22.711 C40.685,23.27 40.659,23.816 40.646,24.362 C40.048,24.583 39.515,24.739 38.852,24.739 C38.098,24.739 37.435,24.427 37.435,23.595 C37.435,22.516 39.099,22.568 39.593,22.594 C39.866,22.607 40.334,22.685 40.698,22.711 L40.698,22.711 Z M42.245,23.66 C42.245,22.425 42.388,20.644 41.998,19.578 C41.634,18.577 40.282,18.304 39.242,18.304 C38.579,18.304 37.812,18.473 37.162,18.733 C36.681,18.928 36.343,19.396 36.343,19.968 C36.343,20.046 36.356,20.436 36.694,20.436 C37.032,20.436 37.916,19.942 38.865,19.942 C39.97,19.942 40.542,20.163 40.672,21.112 C39.918,21.073 38.67,21.138 38.02,21.398 C37.071,21.762 35.745,22.841 35.745,23.998 C35.745,25.194 36.668,26.364 37.877,26.364 C38.241,26.364 38.93,26.299 39.216,26.234 C39.606,26.143 40.139,25.922 40.62,25.636 C40.659,26 40.815,26.286 41.296,26.286 C42.336,26.286 42.245,24.518 42.245,23.66 L42.245,23.66 Z M49.018,21.905 C49.317,23.296 49.057,24.726 47.458,24.726 C46.587,24.726 46.041,24.388 45.547,24.18 C45.469,23.127 45.573,21.697 45.586,20.8 L45.586,20.67 C46.054,20.384 46.574,20.137 47.003,20.137 C48.004,20.137 48.654,20.215 49.018,21.905 L49.018,21.905 Z M50.734,21.996 C50.734,20.28 49.967,18.486 47.965,18.486 C47.081,18.486 46.301,18.733 45.651,19.305 C45.651,18.902 45.794,18.434 45.053,18.434 C44.377,18.434 44.052,19.76 44.052,20.267 C44.052,21.034 44.078,21.827 44.13,22.607 C44.221,23.998 44.117,25.194 44.065,26.663 C44.039,27.3 43.974,27.664 43.974,28.301 C43.974,28.86 44.325,29.25 44.715,29.068 C45.378,28.756 45.586,27.976 45.586,27.352 C45.586,26.897 45.599,26.52 45.599,26.169 C45.937,26.26 46.379,26.325 46.886,26.325 C47.926,26.325 48.732,26.182 49.421,25.337 C50.123,24.479 50.734,23.218 50.734,21.996 L50.734,21.996 Z M56.246,25.324 C56.35,24.882 56.311,24.466 55.986,24.505 C55.544,24.557 55.232,24.921 54.647,24.843 C53.451,24.674 53.75,22.23 53.737,21.476 C53.724,21.047 53.75,20.553 53.789,20.046 L54.335,20.046 C54.803,20.046 56.207,19.799 56.207,19.084 C56.207,18.252 55.128,18.616 54.465,18.616 C54.27,18.616 54.075,18.616 53.88,18.629 C53.893,18.434 53.906,18.239 53.906,18.07 C53.906,17.706 54.036,16.978 53.867,16.731 C53.672,16.471 53.516,16.51 53.295,16.562 C52.853,16.679 52.385,17.459 52.385,18.096 L52.385,18.668 L52.372,18.668 C52.008,18.668 51.488,19.318 51.488,19.682 C51.488,20.15 51.865,20.072 52.294,20.072 L52.385,20.072 C52.385,21.229 52.385,22.178 52.372,23.478 C52.359,24.115 52.398,24.674 52.658,25.298 C52.918,25.935 53.412,26.338 54.01,26.377 C54.933,26.429 56.103,25.883 56.246,25.324 L56.246,25.324 Z M62.499,21.294 C61.446,21.359 59.613,21.385 58.508,21.385 C58.755,20.709 59.301,19.89 60.64,19.89 C61.524,19.89 62.499,20.254 62.499,21.294 L62.499,21.294 Z M63.669,21.632 C63.669,20.774 63.435,19.604 62.772,18.98 C62.083,18.33 61.407,18.343 60.458,18.343 C59.561,18.343 58.287,19.201 57.871,19.851 C57.325,20.709 56.831,21.879 56.831,22.958 C56.831,24.869 58.664,26.377 60.367,26.377 C61.433,26.377 63.175,26.091 63.565,24.856 C63.643,24.596 63.604,24.141 63.37,24.141 C62.577,24.141 62.434,24.635 61.446,24.739 C60.536,24.83 59.834,24.739 59.522,24.583 C58.781,24.193 58.274,23.413 58.326,22.854 C59.769,22.854 60.419,22.88 61.862,22.88 C62.759,22.88 63.669,22.607 63.669,21.632 L63.669,21.632 Z M69.831,19.331 C69.766,18.824 69.337,18.473 68.752,18.473 C67.712,18.473 67.062,18.954 66.477,19.565 L66.477,19.539 C66.503,19.123 66.633,18.46 66.087,18.46 C64.982,18.46 65.008,19.994 65.008,20.813 C65.008,21.866 64.995,22.893 64.995,23.92 C64.995,24.336 64.956,25.09 64.956,25.506 C64.956,25.987 65.19,26.234 65.684,26.195 C66.724,26.104 66.412,24.102 66.438,23.569 C66.477,22.867 66.451,21.892 66.451,20.995 C67.01,20.553 67.686,20.137 68.31,20.189 C68.791,20.228 69.207,20.618 69.506,20.475 C69.792,20.332 69.896,19.877 69.831,19.331 L69.831,19.331 Z M82.09,25.077 C82.025,24.661 81.661,24.648 80.816,24.648 C80.504,24.648 80.231,24.609 79.958,24.557 C79.867,24.271 79.906,23.647 79.906,23.348 L79.906,18.759 C79.906,17.927 79.932,17.251 79.867,16.458 C79.841,16.133 79.867,15.756 79.594,15.756 C79.165,15.756 78.762,16.042 78.645,16.445 C78.528,16.848 77.93,17.342 77.579,17.407 C77.085,17.498 76.591,17.498 76.279,18.317 C76.227,18.434 76.188,18.941 76.448,19.058 C76.929,19.266 77.514,19.11 78.021,19.019 C78.125,19.695 78.086,21.619 78.086,22.412 C78.086,23.27 78.099,23.712 78.06,24.57 C77.813,24.635 77.371,24.557 76.864,24.713 C76.396,24.856 76.058,25.259 76.058,25.623 C76.058,25.896 76.123,26.221 76.396,26.26 C77.007,26.338 77.605,26.182 78.307,26.182 C79.269,26.182 79.945,26.247 81.193,26.182 C81.531,26.169 82.155,25.48 82.09,25.077 L82.09,25.077 Z M92.373,16.653 C92.36,16.64 92.36,16.627 92.36,16.614 C92.386,16.601 92.399,16.627 92.373,16.653 L92.373,16.653 Z M95.688,16.9 C95.688,15.899 93.842,16.146 93.01,16.146 C91.567,16.146 89.669,16.016 88.33,16.562 C88.005,16.692 87.55,17.186 87.55,17.615 C87.55,18.408 88.681,18.018 89.513,17.979 C89.747,17.966 90.306,17.94 90.748,17.927 C90.644,19.045 90.761,20.267 90.735,21.19 C90.709,21.827 90.709,23.166 90.67,24.349 C90.644,25.376 90.787,26.156 91.359,26.273 C92.035,26.39 92.568,25.428 92.542,24.765 C92.464,22.75 92.477,21.749 92.438,19.786 C92.425,19.188 92.503,18.551 92.503,17.914 C93.127,17.927 93.595,17.94 94.492,17.94 C94.947,17.94 95.688,17.199 95.688,16.9 L95.688,16.9 Z M98.327,25.168 C98.288,24.895 98.197,24.713 98.158,24.453 C98.067,23.972 98.119,23.452 98.119,22.932 C98.106,21.918 98.145,21.047 98.145,20.033 C98.145,19.526 98.314,18.811 97.599,18.811 C96.793,18.811 96.676,20.293 96.676,21.021 C96.676,22.503 96.715,23.92 96.715,25.428 C96.715,25.87 96.858,26.247 97.287,26.247 C97.768,26.247 98.392,25.649 98.327,25.168 L98.327,25.168 Z M98.444,16.913 C98.444,16.263 97.989,16.107 97.469,16.172 C97.001,16.237 96.507,17.069 96.507,17.329 C96.507,17.745 96.91,18.044 97.235,18.044 C97.677,18.044 98.444,17.381 98.444,16.913 L98.444,16.913 Z M104.177,25.324 C104.281,24.882 104.242,24.466 103.917,24.505 C103.475,24.557 103.163,24.921 102.578,24.843 C101.382,24.674 101.681,22.23 101.668,21.476 C101.655,21.047 101.681,20.553 101.72,20.046 L102.266,20.046 C102.734,20.046 104.138,19.799 104.138,19.084 C104.138,18.252 103.059,18.616 102.396,18.616 C102.201,18.616 102.006,18.616 101.811,18.629 C101.824,18.434 101.837,18.239 101.837,18.07 C101.837,17.706 101.967,16.978 101.798,16.731 C101.603,16.471 101.447,16.51 101.226,16.562 C100.784,16.679 100.316,17.459 100.316,18.096 L100.316,18.668 L100.303,18.668 C99.939,18.668 99.419,19.318 99.419,19.682 C99.419,20.15 99.796,20.072 100.225,20.072 L100.316,20.072 C100.316,21.229 100.316,22.178 100.303,23.478 C100.29,24.115 100.329,24.674 100.589,25.298 C100.849,25.935 101.343,26.338 101.941,26.377 C102.864,26.429 104.034,25.883 104.177,25.324 L104.177,25.324 Z M106.855,20.904 C106.855,19.552 106.946,17.745 106.816,16.471 C106.79,16.198 106.517,16.016 106.257,16.016 C105.672,16.016 105.295,16.744 105.295,17.251 C105.282,18.642 105.425,20.02 105.386,21.411 C105.36,22.594 105.321,23.582 105.269,24.752 C105.217,25.831 105.295,26.182 105.867,26.156 C106.608,26.117 106.855,25.09 106.855,24.388 L106.855,20.904 Z M113.992,21.294 C112.939,21.359 111.106,21.385 110.001,21.385 C110.248,20.709 110.794,19.89 112.133,19.89 C113.017,19.89 113.992,20.254 113.992,21.294 L113.992,21.294 Z M115.162,21.632 C115.162,20.774 114.928,19.604 114.265,18.98 C113.576,18.33 112.9,18.343 111.951,18.343 C111.054,18.343 109.78,19.201 109.364,19.851 C108.818,20.709 108.324,21.879 108.324,22.958 C108.324,24.869 110.157,26.377 111.86,26.377 C112.926,26.377 114.668,26.091 115.058,24.856 C115.136,24.596 115.097,24.141 114.863,24.141 C114.07,24.141 113.927,24.635 112.939,24.739 C112.029,24.83 111.327,24.739 111.015,24.583 C110.274,24.193 109.767,23.413 109.819,22.854 C111.262,22.854 111.912,22.88 113.355,22.88 C114.252,22.88 115.162,22.607 115.162,21.632 L115.162,21.632 Z M26.502,46.505 C26.541,46.141 26.437,45.374 26.203,45.387 C25.722,45.439 25.384,45.777 24.825,46.076 C24.37,46.31 23.694,46.479 23.304,46.505 C21.666,46.674 20.197,45.283 20.08,43.97 C19.976,42.878 20.041,42.124 20.821,41.214 C21.926,39.914 23.187,39.81 23.824,39.888 C24.578,39.992 25.033,40.759 25.514,40.863 C25.865,40.941 26.411,40.512 26.437,39.641 C26.437,39.16 26.125,38.796 25.761,38.536 C24.838,37.86 23.239,38.016 22.459,38.146 C19.859,38.614 18.546,41.344 18.637,44.152 C18.65,44.945 18.897,45.79 19.066,46.141 C19.898,47.896 21.64,48.52 23.733,48.325 C24.669,48.234 26.398,47.584 26.502,46.505 L26.502,46.505 Z M34.549,47.129 C34.549,46.076 34.458,45.153 34.458,44.048 C34.458,42.644 34.549,41.24 33.145,40.668 C32.859,40.551 32.469,40.473 32.079,40.473 C31.195,40.473 30.337,40.889 29.648,41.526 C29.674,40.876 29.7,40.252 29.713,39.68 C29.726,39.316 29.752,38.939 29.752,38.718 C29.752,38.198 29.817,37.717 29.258,37.847 C28.582,38.003 28.127,38.9 28.127,39.576 C28.127,40.382 28.179,41.175 28.179,41.955 C28.179,43.06 28.166,44.789 28.101,45.829 C28.049,46.609 27.841,48.312 28.608,48.247 C29.44,48.182 29.765,47.207 29.713,46.544 C29.648,45.803 29.57,45.413 29.57,44.672 C29.57,44.152 29.583,43.58 29.596,42.995 C30.064,42.579 30.766,42.215 31.247,42.215 C31.676,42.215 32.443,42.254 32.768,42.774 C33.028,43.203 32.976,44.269 32.976,44.776 C32.976,45.595 32.898,46.284 32.898,47.129 C32.898,47.766 32.82,48.39 33.561,48.39 C34.12,48.39 34.549,47.571 34.549,47.129 L34.549,47.129 Z M40.698,44.711 C40.685,45.27 40.659,45.816 40.646,46.362 C40.048,46.583 39.515,46.739 38.852,46.739 C38.098,46.739 37.435,46.427 37.435,45.595 C37.435,44.516 39.099,44.568 39.593,44.594 C39.866,44.607 40.334,44.685 40.698,44.711 L40.698,44.711 Z M42.245,45.66 C42.245,44.425 42.388,42.644 41.998,41.578 C41.634,40.577 40.282,40.304 39.242,40.304 C38.579,40.304 37.812,40.473 37.162,40.733 C36.681,40.928 36.343,41.396 36.343,41.968 C36.343,42.046 36.356,42.436 36.694,42.436 C37.032,42.436 37.916,41.942 38.865,41.942 C39.97,41.942 40.542,42.163 40.672,43.112 C39.918,43.073 38.67,43.138 38.02,43.398 C37.071,43.762 35.745,44.841 35.745,45.998 C35.745,47.194 36.668,48.364 37.877,48.364 C38.241,48.364 38.93,48.299 39.216,48.234 C39.606,48.143 40.139,47.922 40.62,47.636 C40.659,48 40.815,48.286 41.296,48.286 C42.336,48.286 42.245,46.518 42.245,45.66 L42.245,45.66 Z M49.018,43.905 C49.317,45.296 49.057,46.726 47.458,46.726 C46.587,46.726 46.041,46.388 45.547,46.18 C45.469,45.127 45.573,43.697 45.586,42.8 L45.586,42.67 C46.054,42.384 46.574,42.137 47.003,42.137 C48.004,42.137 48.654,42.215 49.018,43.905 L49.018,43.905 Z M50.734,43.996 C50.734,42.28 49.967,40.486 47.965,40.486 C47.081,40.486 46.301,40.733 45.651,41.305 C45.651,40.902 45.794,40.434 45.053,40.434 C44.377,40.434 44.052,41.76 44.052,42.267 C44.052,43.034 44.078,43.827 44.13,44.607 C44.221,45.998 44.117,47.194 44.065,48.663 C44.039,49.3 43.974,49.664 43.974,50.301 C43.974,50.86 44.325,51.25 44.715,51.068 C45.378,50.756 45.586,49.976 45.586,49.352 C45.586,48.897 45.599,48.52 45.599,48.169 C45.937,48.26 46.379,48.325 46.886,48.325 C47.926,48.325 48.732,48.182 49.421,47.337 C50.123,46.479 50.734,45.218 50.734,43.996 L50.734,43.996 Z M56.246,47.324 C56.35,46.882 56.311,46.466 55.986,46.505 C55.544,46.557 55.232,46.921 54.647,46.843 C53.451,46.674 53.75,44.23 53.737,43.476 C53.724,43.047 53.75,42.553 53.789,42.046 L54.335,42.046 C54.803,42.046 56.207,41.799 56.207,41.084 C56.207,40.252 55.128,40.616 54.465,40.616 C54.27,40.616 54.075,40.616 53.88,40.629 C53.893,40.434 53.906,40.239 53.906,40.07 C53.906,39.706 54.036,38.978 53.867,38.731 C53.672,38.471 53.516,38.51 53.295,38.562 C52.853,38.679 52.385,39.459 52.385,40.096 L52.385,40.668 L52.372,40.668 C52.008,40.668 51.488,41.318 51.488,41.682 C51.488,42.15 51.865,42.072 52.294,42.072 L52.385,42.072 C52.385,43.229 52.385,44.178 52.372,45.478 C52.359,46.115 52.398,46.674 52.658,47.298 C52.918,47.935 53.412,48.338 54.01,48.377 C54.933,48.429 56.103,47.883 56.246,47.324 L56.246,47.324 Z M62.499,43.294 C61.446,43.359 59.613,43.385 58.508,43.385 C58.755,42.709 59.301,41.89 60.64,41.89 C61.524,41.89 62.499,42.254 62.499,43.294 L62.499,43.294 Z M63.669,43.632 C63.669,42.774 63.435,41.604 62.772,40.98 C62.083,40.33 61.407,40.343 60.458,40.343 C59.561,40.343 58.287,41.201 57.871,41.851 C57.325,42.709 56.831,43.879 56.831,44.958 C56.831,46.869 58.664,48.377 60.367,48.377 C61.433,48.377 63.175,48.091 63.565,46.856 C63.643,46.596 63.604,46.141 63.37,46.141 C62.577,46.141 62.434,46.635 61.446,46.739 C60.536,46.83 59.834,46.739 59.522,46.583 C58.781,46.193 58.274,45.413 58.326,44.854 C59.769,44.854 60.419,44.88 61.862,44.88 C62.759,44.88 63.669,44.607 63.669,43.632 L63.669,43.632 Z M69.831,41.331 C69.766,40.824 69.337,40.473 68.752,40.473 C67.712,40.473 67.062,40.954 66.477,41.565 L66.477,41.539 C66.503,41.123 66.633,40.46 66.087,40.46 C64.982,40.46 65.008,41.994 65.008,42.813 C65.008,43.866 64.995,44.893 64.995,45.92 C64.995,46.336 64.956,47.09 64.956,47.506 C64.956,47.987 65.19,48.234 65.684,48.195 C66.724,48.104 66.412,46.102 66.438,45.569 C66.477,44.867 66.451,43.892 66.451,42.995 C67.01,42.553 67.686,42.137 68.31,42.189 C68.791,42.228 69.207,42.618 69.506,42.475 C69.792,42.332 69.896,41.877 69.831,41.331 L69.831,41.331 Z M82.506,46.986 C82.506,46.089 81.037,46.388 80.465,46.388 C79.49,46.388 78.671,46.427 77.696,46.44 C78.853,45.465 81.037,43.437 81.57,42.241 C82.038,41.201 81.908,40.148 81.453,39.29 C81.076,38.601 79.776,38.198 79.048,38.198 C78.216,38.198 77.891,38.25 76.981,38.419 C76.253,38.562 75.564,39.472 75.564,40.161 C75.564,40.512 75.824,40.616 76.11,40.59 C76.63,40.538 77.384,39.901 78.333,39.901 C79.49,39.901 79.971,40.122 80.062,41.383 C80.127,42.332 78.853,43.84 78.151,44.451 C77.631,44.906 76.448,45.881 75.954,46.388 C75.629,46.713 75.252,47.376 75.447,47.818 C75.655,48.299 76.318,48.273 76.617,48.273 C77.839,48.273 79.321,48.182 80.478,48.182 C81.024,48.182 82.506,47.571 82.506,46.986 L82.506,46.986 Z M92.373,38.653 C92.36,38.64 92.36,38.627 92.36,38.614 C92.386,38.601 92.399,38.627 92.373,38.653 L92.373,38.653 Z M95.688,38.9 C95.688,37.899 93.842,38.146 93.01,38.146 C91.567,38.146 89.669,38.016 88.33,38.562 C88.005,38.692 87.55,39.186 87.55,39.615 C87.55,40.408 88.681,40.018 89.513,39.979 C89.747,39.966 90.306,39.94 90.748,39.927 C90.644,41.045 90.761,42.267 90.735,43.19 C90.709,43.827 90.709,45.166 90.67,46.349 C90.644,47.376 90.787,48.156 91.359,48.273 C92.035,48.39 92.568,47.428 92.542,46.765 C92.464,44.75 92.477,43.749 92.438,41.786 C92.425,41.188 92.503,40.551 92.503,39.914 C93.127,39.927 93.595,39.94 94.492,39.94 C94.947,39.94 95.688,39.199 95.688,38.9 L95.688,38.9 Z M98.327,47.168 C98.288,46.895 98.197,46.713 98.158,46.453 C98.067,45.972 98.119,45.452 98.119,44.932 C98.106,43.918 98.145,43.047 98.145,42.033 C98.145,41.526 98.314,40.811 97.599,40.811 C96.793,40.811 96.676,42.293 96.676,43.021 C96.676,44.503 96.715,45.92 96.715,47.428 C96.715,47.87 96.858,48.247 97.287,48.247 C97.768,48.247 98.392,47.649 98.327,47.168 L98.327,47.168 Z M98.444,38.913 C98.444,38.263 97.989,38.107 97.469,38.172 C97.001,38.237 96.507,39.069 96.507,39.329 C96.507,39.745 96.91,40.044 97.235,40.044 C97.677,40.044 98.444,39.381 98.444,38.913 L98.444,38.913 Z M104.177,47.324 C104.281,46.882 104.242,46.466 103.917,46.505 C103.475,46.557 103.163,46.921 102.578,46.843 C101.382,46.674 101.681,44.23 101.668,43.476 C101.655,43.047 101.681,42.553 101.72,42.046 L102.266,42.046 C102.734,42.046 104.138,41.799 104.138,41.084 C104.138,40.252 103.059,40.616 102.396,40.616 C102.201,40.616 102.006,40.616 101.811,40.629 C101.824,40.434 101.837,40.239 101.837,40.07 C101.837,39.706 101.967,38.978 101.798,38.731 C101.603,38.471 101.447,38.51 101.226,38.562 C100.784,38.679 100.316,39.459 100.316,40.096 L100.316,40.668 L100.303,40.668 C99.939,40.668 99.419,41.318 99.419,41.682 C99.419,42.15 99.796,42.072 100.225,42.072 L100.316,42.072 C100.316,43.229 100.316,44.178 100.303,45.478 C100.29,46.115 100.329,46.674 100.589,47.298 C100.849,47.935 101.343,48.338 101.941,48.377 C102.864,48.429 104.034,47.883 104.177,47.324 L104.177,47.324 Z M106.855,42.904 C106.855,41.552 106.946,39.745 106.816,38.471 C106.79,38.198 106.517,38.016 106.257,38.016 C105.672,38.016 105.295,38.744 105.295,39.251 C105.282,40.642 105.425,42.02 105.386,43.411 C105.36,44.594 105.321,45.582 105.269,46.752 C105.217,47.831 105.295,48.182 105.867,48.156 C106.608,48.117 106.855,47.09 106.855,46.388 L106.855,42.904 Z M113.992,43.294 C112.939,43.359 111.106,43.385 110.001,43.385 C110.248,42.709 110.794,41.89 112.133,41.89 C113.017,41.89 113.992,42.254 113.992,43.294 L113.992,43.294 Z M115.162,43.632 C115.162,42.774 114.928,41.604 114.265,40.98 C113.576,40.33 112.9,40.343 111.951,40.343 C111.054,40.343 109.78,41.201 109.364,41.851 C108.818,42.709 108.324,43.879 108.324,44.958 C108.324,46.869 110.157,48.377 111.86,48.377 C112.926,48.377 114.668,48.091 115.058,46.856 C115.136,46.596 115.097,46.141 114.863,46.141 C114.07,46.141 113.927,46.635 112.939,46.739 C112.029,46.83 111.327,46.739 111.015,46.583 C110.274,46.193 109.767,45.413 109.819,44.854 C111.262,44.854 111.912,44.88 113.355,44.88 C114.252,44.88 115.162,44.607 115.162,43.632 L115.162,43.632 Z M26.502,68.505 C26.541,68.141 26.437,67.374 26.203,67.387 C25.722,67.439 25.384,67.777 24.825,68.076 C24.37,68.31 23.694,68.479 23.304,68.505 C21.666,68.674 20.197,67.283 20.08,65.97 C19.976,64.878 20.041,64.124 20.821,63.214 C21.926,61.914 23.187,61.81 23.824,61.888 C24.578,61.992 25.033,62.759 25.514,62.863 C25.865,62.941 26.411,62.512 26.437,61.641 C26.437,61.16 26.125,60.796 25.761,60.536 C24.838,59.86 23.239,60.016 22.459,60.146 C19.859,60.614 18.546,63.344 18.637,66.152 C18.65,66.945 18.897,67.79 19.066,68.141 C19.898,69.896 21.64,70.52 23.733,70.325 C24.669,70.234 26.398,69.584 26.502,68.505 L26.502,68.505 Z M34.549,69.129 C34.549,68.076 34.458,67.153 34.458,66.048 C34.458,64.644 34.549,63.24 33.145,62.668 C32.859,62.551 32.469,62.473 32.079,62.473 C31.195,62.473 30.337,62.889 29.648,63.526 C29.674,62.876 29.7,62.252 29.713,61.68 C29.726,61.316 29.752,60.939 29.752,60.718 C29.752,60.198 29.817,59.717 29.258,59.847 C28.582,60.003 28.127,60.9 28.127,61.576 C28.127,62.382 28.179,63.175 28.179,63.955 C28.179,65.06 28.166,66.789 28.101,67.829 C28.049,68.609 27.841,70.312 28.608,70.247 C29.44,70.182 29.765,69.207 29.713,68.544 C29.648,67.803 29.57,67.413 29.57,66.672 C29.57,66.152 29.583,65.58 29.596,64.995 C30.064,64.579 30.766,64.215 31.247,64.215 C31.676,64.215 32.443,64.254 32.768,64.774 C33.028,65.203 32.976,66.269 32.976,66.776 C32.976,67.595 32.898,68.284 32.898,69.129 C32.898,69.766 32.82,70.39 33.561,70.39 C34.12,70.39 34.549,69.571 34.549,69.129 L34.549,69.129 Z M40.698,66.711 C40.685,67.27 40.659,67.816 40.646,68.362 C40.048,68.583 39.515,68.739 38.852,68.739 C38.098,68.739 37.435,68.427 37.435,67.595 C37.435,66.516 39.099,66.568 39.593,66.594 C39.866,66.607 40.334,66.685 40.698,66.711 L40.698,66.711 Z M42.245,67.66 C42.245,66.425 42.388,64.644 41.998,63.578 C41.634,62.577 40.282,62.304 39.242,62.304 C38.579,62.304 37.812,62.473 37.162,62.733 C36.681,62.928 36.343,63.396 36.343,63.968 C36.343,64.046 36.356,64.436 36.694,64.436 C37.032,64.436 37.916,63.942 38.865,63.942 C39.97,63.942 40.542,64.163 40.672,65.112 C39.918,65.073 38.67,65.138 38.02,65.398 C37.071,65.762 35.745,66.841 35.745,67.998 C35.745,69.194 36.668,70.364 37.877,70.364 C38.241,70.364 38.93,70.299 39.216,70.234 C39.606,70.143 40.139,69.922 40.62,69.636 C40.659,70 40.815,70.286 41.296,70.286 C42.336,70.286 42.245,68.518 42.245,67.66 L42.245,67.66 Z M49.018,65.905 C49.317,67.296 49.057,68.726 47.458,68.726 C46.587,68.726 46.041,68.388 45.547,68.18 C45.469,67.127 45.573,65.697 45.586,64.8 L45.586,64.67 C46.054,64.384 46.574,64.137 47.003,64.137 C48.004,64.137 48.654,64.215 49.018,65.905 L49.018,65.905 Z M50.734,65.996 C50.734,64.28 49.967,62.486 47.965,62.486 C47.081,62.486 46.301,62.733 45.651,63.305 C45.651,62.902 45.794,62.434 45.053,62.434 C44.377,62.434 44.052,63.76 44.052,64.267 C44.052,65.034 44.078,65.827 44.13,66.607 C44.221,67.998 44.117,69.194 44.065,70.663 C44.039,71.3 43.974,71.664 43.974,72.301 C43.974,72.86 44.325,73.25 44.715,73.068 C45.378,72.756 45.586,71.976 45.586,71.352 C45.586,70.897 45.599,70.52 45.599,70.169 C45.937,70.26 46.379,70.325 46.886,70.325 C47.926,70.325 48.732,70.182 49.421,69.337 C50.123,68.479 50.734,67.218 50.734,65.996 L50.734,65.996 Z M56.246,69.324 C56.35,68.882 56.311,68.466 55.986,68.505 C55.544,68.557 55.232,68.921 54.647,68.843 C53.451,68.674 53.75,66.23 53.737,65.476 C53.724,65.047 53.75,64.553 53.789,64.046 L54.335,64.046 C54.803,64.046 56.207,63.799 56.207,63.084 C56.207,62.252 55.128,62.616 54.465,62.616 C54.27,62.616 54.075,62.616 53.88,62.629 C53.893,62.434 53.906,62.239 53.906,62.07 C53.906,61.706 54.036,60.978 53.867,60.731 C53.672,60.471 53.516,60.51 53.295,60.562 C52.853,60.679 52.385,61.459 52.385,62.096 L52.385,62.668 L52.372,62.668 C52.008,62.668 51.488,63.318 51.488,63.682 C51.488,64.15 51.865,64.072 52.294,64.072 L52.385,64.072 C52.385,65.229 52.385,66.178 52.372,67.478 C52.359,68.115 52.398,68.674 52.658,69.298 C52.918,69.935 53.412,70.338 54.01,70.377 C54.933,70.429 56.103,69.883 56.246,69.324 L56.246,69.324 Z M62.499,65.294 C61.446,65.359 59.613,65.385 58.508,65.385 C58.755,64.709 59.301,63.89 60.64,63.89 C61.524,63.89 62.499,64.254 62.499,65.294 L62.499,65.294 Z M63.669,65.632 C63.669,64.774 63.435,63.604 62.772,62.98 C62.083,62.33 61.407,62.343 60.458,62.343 C59.561,62.343 58.287,63.201 57.871,63.851 C57.325,64.709 56.831,65.879 56.831,66.958 C56.831,68.869 58.664,70.377 60.367,70.377 C61.433,70.377 63.175,70.091 63.565,68.856 C63.643,68.596 63.604,68.141 63.37,68.141 C62.577,68.141 62.434,68.635 61.446,68.739 C60.536,68.83 59.834,68.739 59.522,68.583 C58.781,68.193 58.274,67.413 58.326,66.854 C59.769,66.854 60.419,66.88 61.862,66.88 C62.759,66.88 63.669,66.607 63.669,65.632 L63.669,65.632 Z M69.831,63.331 C69.766,62.824 69.337,62.473 68.752,62.473 C67.712,62.473 67.062,62.954 66.477,63.565 L66.477,63.539 C66.503,63.123 66.633,62.46 66.087,62.46 C64.982,62.46 65.008,63.994 65.008,64.813 C65.008,65.866 64.995,66.893 64.995,67.92 C64.995,68.336 64.956,69.09 64.956,69.506 C64.956,69.987 65.19,70.234 65.684,70.195 C66.724,70.104 66.412,68.102 66.438,67.569 C66.477,66.867 66.451,65.892 66.451,64.995 C67.01,64.553 67.686,64.137 68.31,64.189 C68.791,64.228 69.207,64.618 69.506,64.475 C69.792,64.332 69.896,63.877 69.831,63.331 L69.831,63.331 Z M82.311,67.374 C82.376,66.568 82.194,65.814 81.57,65.268 C81.219,64.969 80.816,64.735 80.4,64.579 C81.193,64.124 81.895,63.344 81.934,62.317 C81.986,60.575 80.361,60.016 78.918,60.016 C78.021,60.016 77.15,60.198 76.487,60.692 C76.084,60.991 75.577,61.628 75.577,62.07 C75.577,62.772 76.136,62.525 76.786,62.161 C77.332,61.862 77.956,61.654 78.658,61.654 C79.425,61.654 80.27,61.823 80.465,62.577 C80.673,63.383 79.724,63.851 79.035,64.007 C78.437,64.137 77.657,64.657 77.501,65.099 C77.241,65.866 77.995,65.788 78.567,65.866 C79.568,66.009 80.751,66.282 80.751,67.166 C80.751,68.297 79.88,68.778 78.697,68.778 C77.787,68.778 77.228,68.518 76.396,68.102 C75.863,67.829 75.291,68.141 75.486,68.999 C75.59,69.467 75.967,70.026 76.539,70.208 C77.176,70.403 77.527,70.468 78.177,70.468 C79.633,70.468 82.168,69.051 82.311,67.374 L82.311,67.374 Z M92.373,60.653 C92.36,60.64 92.36,60.627 92.36,60.614 C92.386,60.601 92.399,60.627 92.373,60.653 L92.373,60.653 Z M95.688,60.9 C95.688,59.899 93.842,60.146 93.01,60.146 C91.567,60.146 89.669,60.016 88.33,60.562 C88.005,60.692 87.55,61.186 87.55,61.615 C87.55,62.408 88.681,62.018 89.513,61.979 C89.747,61.966 90.306,61.94 90.748,61.927 C90.644,63.045 90.761,64.267 90.735,65.19 C90.709,65.827 90.709,67.166 90.67,68.349 C90.644,69.376 90.787,70.156 91.359,70.273 C92.035,70.39 92.568,69.428 92.542,68.765 C92.464,66.75 92.477,65.749 92.438,63.786 C92.425,63.188 92.503,62.551 92.503,61.914 C93.127,61.927 93.595,61.94 94.492,61.94 C94.947,61.94 95.688,61.199 95.688,60.9 L95.688,60.9 Z M98.327,69.168 C98.288,68.895 98.197,68.713 98.158,68.453 C98.067,67.972 98.119,67.452 98.119,66.932 C98.106,65.918 98.145,65.047 98.145,64.033 C98.145,63.526 98.314,62.811 97.599,62.811 C96.793,62.811 96.676,64.293 96.676,65.021 C96.676,66.503 96.715,67.92 96.715,69.428 C96.715,69.87 96.858,70.247 97.287,70.247 C97.768,70.247 98.392,69.649 98.327,69.168 L98.327,69.168 Z M98.444,60.913 C98.444,60.263 97.989,60.107 97.469,60.172 C97.001,60.237 96.507,61.069 96.507,61.329 C96.507,61.745 96.91,62.044 97.235,62.044 C97.677,62.044 98.444,61.381 98.444,60.913 L98.444,60.913 Z M104.177,69.324 C104.281,68.882 104.242,68.466 103.917,68.505 C103.475,68.557 103.163,68.921 102.578,68.843 C101.382,68.674 101.681,66.23 101.668,65.476 C101.655,65.047 101.681,64.553 101.72,64.046 L102.266,64.046 C102.734,64.046 104.138,63.799 104.138,63.084 C104.138,62.252 103.059,62.616 102.396,62.616 C102.201,62.616 102.006,62.616 101.811,62.629 C101.824,62.434 101.837,62.239 101.837,62.07 C101.837,61.706 101.967,60.978 101.798,60.731 C101.603,60.471 101.447,60.51 101.226,60.562 C100.784,60.679 100.316,61.459 100.316,62.096 L100.316,62.668 L100.303,62.668 C99.939,62.668 99.419,63.318 99.419,63.682 C99.419,64.15 99.796,64.072 100.225,64.072 L100.316,64.072 C100.316,65.229 100.316,66.178 100.303,67.478 C100.29,68.115 100.329,68.674 100.589,69.298 C100.849,69.935 101.343,70.338 101.941,70.377 C102.864,70.429 104.034,69.883 104.177,69.324 L104.177,69.324 Z M106.855,64.904 C106.855,63.552 106.946,61.745 106.816,60.471 C106.79,60.198 106.517,60.016 106.257,60.016 C105.672,60.016 105.295,60.744 105.295,61.251 C105.282,62.642 105.425,64.02 105.386,65.411 C105.36,66.594 105.321,67.582 105.269,68.752 C105.217,69.831 105.295,70.182 105.867,70.156 C106.608,70.117 106.855,69.09 106.855,68.388 L106.855,64.904 Z M113.992,65.294 C112.939,65.359 111.106,65.385 110.001,65.385 C110.248,64.709 110.794,63.89 112.133,63.89 C113.017,63.89 113.992,64.254 113.992,65.294 L113.992,65.294 Z M115.162,65.632 C115.162,64.774 114.928,63.604 114.265,62.98 C113.576,62.33 112.9,62.343 111.951,62.343 C111.054,62.343 109.78,63.201 109.364,63.851 C108.818,64.709 108.324,65.879 108.324,66.958 C108.324,68.869 110.157,70.377 111.86,70.377 C112.926,70.377 114.668,70.091 115.058,68.856 C115.136,68.596 115.097,68.141 114.863,68.141 C114.07,68.141 113.927,68.635 112.939,68.739 C112.029,68.83 111.327,68.739 111.015,68.583 C110.274,68.193 109.767,67.413 109.819,66.854 C111.262,66.854 111.912,66.88 113.355,66.88 C114.252,66.88 115.162,66.607 115.162,65.632 L115.162,65.632 Z M26.502,90.505 C26.541,90.141 26.437,89.374 26.203,89.387 C25.722,89.439 25.384,89.777 24.825,90.076 C24.37,90.31 23.694,90.479 23.304,90.505 C21.666,90.674 20.197,89.283 20.08,87.97 C19.976,86.878 20.041,86.124 20.821,85.214 C21.926,83.914 23.187,83.81 23.824,83.888 C24.578,83.992 25.033,84.759 25.514,84.863 C25.865,84.941 26.411,84.512 26.437,83.641 C26.437,83.16 26.125,82.796 25.761,82.536 C24.838,81.86 23.239,82.016 22.459,82.146 C19.859,82.614 18.546,85.344 18.637,88.152 C18.65,88.945 18.897,89.79 19.066,90.141 C19.898,91.896 21.64,92.52 23.733,92.325 C24.669,92.234 26.398,91.584 26.502,90.505 L26.502,90.505 Z M34.549,91.129 C34.549,90.076 34.458,89.153 34.458,88.048 C34.458,86.644 34.549,85.24 33.145,84.668 C32.859,84.551 32.469,84.473 32.079,84.473 C31.195,84.473 30.337,84.889 29.648,85.526 C29.674,84.876 29.7,84.252 29.713,83.68 C29.726,83.316 29.752,82.939 29.752,82.718 C29.752,82.198 29.817,81.717 29.258,81.847 C28.582,82.003 28.127,82.9 28.127,83.576 C28.127,84.382 28.179,85.175 28.179,85.955 C28.179,87.06 28.166,88.789 28.101,89.829 C28.049,90.609 27.841,92.312 28.608,92.247 C29.44,92.182 29.765,91.207 29.713,90.544 C29.648,89.803 29.57,89.413 29.57,88.672 C29.57,88.152 29.583,87.58 29.596,86.995 C30.064,86.579 30.766,86.215 31.247,86.215 C31.676,86.215 32.443,86.254 32.768,86.774 C33.028,87.203 32.976,88.269 32.976,88.776 C32.976,89.595 32.898,90.284 32.898,91.129 C32.898,91.766 32.82,92.39 33.561,92.39 C34.12,92.39 34.549,91.571 34.549,91.129 L34.549,91.129 Z M40.698,88.711 C40.685,89.27 40.659,89.816 40.646,90.362 C40.048,90.583 39.515,90.739 38.852,90.739 C38.098,90.739 37.435,90.427 37.435,89.595 C37.435,88.516 39.099,88.568 39.593,88.594 C39.866,88.607 40.334,88.685 40.698,88.711 L40.698,88.711 Z M42.245,89.66 C42.245,88.425 42.388,86.644 41.998,85.578 C41.634,84.577 40.282,84.304 39.242,84.304 C38.579,84.304 37.812,84.473 37.162,84.733 C36.681,84.928 36.343,85.396 36.343,85.968 C36.343,86.046 36.356,86.436 36.694,86.436 C37.032,86.436 37.916,85.942 38.865,85.942 C39.97,85.942 40.542,86.163 40.672,87.112 C39.918,87.073 38.67,87.138 38.02,87.398 C37.071,87.762 35.745,88.841 35.745,89.998 C35.745,91.194 36.668,92.364 37.877,92.364 C38.241,92.364 38.93,92.299 39.216,92.234 C39.606,92.143 40.139,91.922 40.62,91.636 C40.659,92 40.815,92.286 41.296,92.286 C42.336,92.286 42.245,90.518 42.245,89.66 L42.245,89.66 Z M49.018,87.905 C49.317,89.296 49.057,90.726 47.458,90.726 C46.587,90.726 46.041,90.388 45.547,90.18 C45.469,89.127 45.573,87.697 45.586,86.8 L45.586,86.67 C46.054,86.384 46.574,86.137 47.003,86.137 C48.004,86.137 48.654,86.215 49.018,87.905 L49.018,87.905 Z M50.734,87.996 C50.734,86.28 49.967,84.486 47.965,84.486 C47.081,84.486 46.301,84.733 45.651,85.305 C45.651,84.902 45.794,84.434 45.053,84.434 C44.377,84.434 44.052,85.76 44.052,86.267 C44.052,87.034 44.078,87.827 44.13,88.607 C44.221,89.998 44.117,91.194 44.065,92.663 C44.039,93.3 43.974,93.664 43.974,94.301 C43.974,94.86 44.325,95.25 44.715,95.068 C45.378,94.756 45.586,93.976 45.586,93.352 C45.586,92.897 45.599,92.52 45.599,92.169 C45.937,92.26 46.379,92.325 46.886,92.325 C47.926,92.325 48.732,92.182 49.421,91.337 C50.123,90.479 50.734,89.218 50.734,87.996 L50.734,87.996 Z M56.246,91.324 C56.35,90.882 56.311,90.466 55.986,90.505 C55.544,90.557 55.232,90.921 54.647,90.843 C53.451,90.674 53.75,88.23 53.737,87.476 C53.724,87.047 53.75,86.553 53.789,86.046 L54.335,86.046 C54.803,86.046 56.207,85.799 56.207,85.084 C56.207,84.252 55.128,84.616 54.465,84.616 C54.27,84.616 54.075,84.616 53.88,84.629 C53.893,84.434 53.906,84.239 53.906,84.07 C53.906,83.706 54.036,82.978 53.867,82.731 C53.672,82.471 53.516,82.51 53.295,82.562 C52.853,82.679 52.385,83.459 52.385,84.096 L52.385,84.668 L52.372,84.668 C52.008,84.668 51.488,85.318 51.488,85.682 C51.488,86.15 51.865,86.072 52.294,86.072 L52.385,86.072 C52.385,87.229 52.385,88.178 52.372,89.478 C52.359,90.115 52.398,90.674 52.658,91.298 C52.918,91.935 53.412,92.338 54.01,92.377 C54.933,92.429 56.103,91.883 56.246,91.324 L56.246,91.324 Z M62.499,87.294 C61.446,87.359 59.613,87.385 58.508,87.385 C58.755,86.709 59.301,85.89 60.64,85.89 C61.524,85.89 62.499,86.254 62.499,87.294 L62.499,87.294 Z M63.669,87.632 C63.669,86.774 63.435,85.604 62.772,84.98 C62.083,84.33 61.407,84.343 60.458,84.343 C59.561,84.343 58.287,85.201 57.871,85.851 C57.325,86.709 56.831,87.879 56.831,88.958 C56.831,90.869 58.664,92.377 60.367,92.377 C61.433,92.377 63.175,92.091 63.565,90.856 C63.643,90.596 63.604,90.141 63.37,90.141 C62.577,90.141 62.434,90.635 61.446,90.739 C60.536,90.83 59.834,90.739 59.522,90.583 C58.781,90.193 58.274,89.413 58.326,88.854 C59.769,88.854 60.419,88.88 61.862,88.88 C62.759,88.88 63.669,88.607 63.669,87.632 L63.669,87.632 Z M69.831,85.331 C69.766,84.824 69.337,84.473 68.752,84.473 C67.712,84.473 67.062,84.954 66.477,85.565 L66.477,85.539 C66.503,85.123 66.633,84.46 66.087,84.46 C64.982,84.46 65.008,85.994 65.008,86.813 C65.008,87.866 64.995,88.893 64.995,89.92 C64.995,90.336 64.956,91.09 64.956,91.506 C64.956,91.987 65.19,92.234 65.684,92.195 C66.724,92.104 66.412,90.102 66.438,89.569 C66.477,88.867 66.451,87.892 66.451,86.995 C67.01,86.553 67.686,86.137 68.31,86.189 C68.791,86.228 69.207,86.618 69.506,86.475 C69.792,86.332 69.896,85.877 69.831,85.331 L69.831,85.331 Z M79.477,84.512 C79.477,85.591 79.399,86.839 79.399,88.074 C78.294,88.074 77.618,88.074 76.539,88.113 C77.293,87.047 78.489,85.994 79.295,84.902 C79.516,84.59 79.347,84.85 79.477,84.512 L79.477,84.512 Z M82.948,88.555 C83.026,88.204 82.597,87.944 82.272,87.957 C81.973,87.97 81.544,87.996 81.128,88.022 C81.115,87.008 81.154,85.929 81.154,84.941 C81.154,84.278 81.31,83.446 81.258,82.822 C81.219,82.315 81.31,81.938 80.504,81.938 C80.205,81.938 79.932,82.159 79.789,82.419 C78.97,83.862 77.8,84.876 76.682,86.228 C76.11,86.93 74.823,87.957 74.888,89.322 C74.914,89.855 75.902,89.738 76.149,89.738 C76.786,89.738 77.553,89.673 78.229,89.673 C78.71,89.673 79.139,89.66 79.555,89.647 C79.542,90.18 79.542,90.778 79.555,91.363 C79.555,91.727 79.477,92.598 80.049,92.598 C80.829,92.598 81.232,91.051 81.232,90.388 C81.232,90.167 81.219,89.933 81.206,89.686 C81.999,89.712 82.844,89.049 82.948,88.555 L82.948,88.555 Z M92.373,82.653 C92.36,82.64 92.36,82.627 92.36,82.614 C92.386,82.601 92.399,82.627 92.373,82.653 L92.373,82.653 Z M95.688,82.9 C95.688,81.899 93.842,82.146 93.01,82.146 C91.567,82.146 89.669,82.016 88.33,82.562 C88.005,82.692 87.55,83.186 87.55,83.615 C87.55,84.408 88.681,84.018 89.513,83.979 C89.747,83.966 90.306,83.94 90.748,83.927 C90.644,85.045 90.761,86.267 90.735,87.19 C90.709,87.827 90.709,89.166 90.67,90.349 C90.644,91.376 90.787,92.156 91.359,92.273 C92.035,92.39 92.568,91.428 92.542,90.765 C92.464,88.75 92.477,87.749 92.438,85.786 C92.425,85.188 92.503,84.551 92.503,83.914 C93.127,83.927 93.595,83.94 94.492,83.94 C94.947,83.94 95.688,83.199 95.688,82.9 L95.688,82.9 Z M98.327,91.168 C98.288,90.895 98.197,90.713 98.158,90.453 C98.067,89.972 98.119,89.452 98.119,88.932 C98.106,87.918 98.145,87.047 98.145,86.033 C98.145,85.526 98.314,84.811 97.599,84.811 C96.793,84.811 96.676,86.293 96.676,87.021 C96.676,88.503 96.715,89.92 96.715,91.428 C96.715,91.87 96.858,92.247 97.287,92.247 C97.768,92.247 98.392,91.649 98.327,91.168 L98.327,91.168 Z M98.444,82.913 C98.444,82.263 97.989,82.107 97.469,82.172 C97.001,82.237 96.507,83.069 96.507,83.329 C96.507,83.745 96.91,84.044 97.235,84.044 C97.677,84.044 98.444,83.381 98.444,82.913 L98.444,82.913 Z M104.177,91.324 C104.281,90.882 104.242,90.466 103.917,90.505 C103.475,90.557 103.163,90.921 102.578,90.843 C101.382,90.674 101.681,88.23 101.668,87.476 C101.655,87.047 101.681,86.553 101.72,86.046 L102.266,86.046 C102.734,86.046 104.138,85.799 104.138,85.084 C104.138,84.252 103.059,84.616 102.396,84.616 C102.201,84.616 102.006,84.616 101.811,84.629 C101.824,84.434 101.837,84.239 101.837,84.07 C101.837,83.706 101.967,82.978 101.798,82.731 C101.603,82.471 101.447,82.51 101.226,82.562 C100.784,82.679 100.316,83.459 100.316,84.096 L100.316,84.668 L100.303,84.668 C99.939,84.668 99.419,85.318 99.419,85.682 C99.419,86.15 99.796,86.072 100.225,86.072 L100.316,86.072 C100.316,87.229 100.316,88.178 100.303,89.478 C100.29,90.115 100.329,90.674 100.589,91.298 C100.849,91.935 101.343,92.338 101.941,92.377 C102.864,92.429 104.034,91.883 104.177,91.324 L104.177,91.324 Z M106.855,86.904 C106.855,85.552 106.946,83.745 106.816,82.471 C106.79,82.198 106.517,82.016 106.257,82.016 C105.672,82.016 105.295,82.744 105.295,83.251 C105.282,84.642 105.425,86.02 105.386,87.411 C105.36,88.594 105.321,89.582 105.269,90.752 C105.217,91.831 105.295,92.182 105.867,92.156 C106.608,92.117 106.855,91.09 106.855,90.388 L106.855,86.904 Z M113.992,87.294 C112.939,87.359 111.106,87.385 110.001,87.385 C110.248,86.709 110.794,85.89 112.133,85.89 C113.017,85.89 113.992,86.254 113.992,87.294 L113.992,87.294 Z M115.162,87.632 C115.162,86.774 114.928,85.604 114.265,84.98 C113.576,84.33 112.9,84.343 111.951,84.343 C111.054,84.343 109.78,85.201 109.364,85.851 C108.818,86.709 108.324,87.879 108.324,88.958 C108.324,90.869 110.157,92.377 111.86,92.377 C112.926,92.377 114.668,92.091 115.058,90.856 C115.136,90.596 115.097,90.141 114.863,90.141 C114.07,90.141 113.927,90.635 112.939,90.739 C112.029,90.83 111.327,90.739 111.015,90.583 C110.274,90.193 109.767,89.413 109.819,88.854 C111.262,88.854 111.912,88.88 113.355,88.88 C114.252,88.88 115.162,88.607 115.162,87.632 L115.162,87.632 Z M26.502,112.505 C26.541,112.141 26.437,111.374 26.203,111.387 C25.722,111.439 25.384,111.777 24.825,112.076 C24.37,112.31 23.694,112.479 23.304,112.505 C21.666,112.674 20.197,111.283 20.08,109.97 C19.976,108.878 20.041,108.124 20.821,107.214 C21.926,105.914 23.187,105.81 23.824,105.888 C24.578,105.992 25.033,106.759 25.514,106.863 C25.865,106.941 26.411,106.512 26.437,105.641 C26.437,105.16 26.125,104.796 25.761,104.536 C24.838,103.86 23.239,104.016 22.459,104.146 C19.859,104.614 18.546,107.344 18.637,110.152 C18.65,110.945 18.897,111.79 19.066,112.141 C19.898,113.896 21.64,114.52 23.733,114.325 C24.669,114.234 26.398,113.584 26.502,112.505 L26.502,112.505 Z M34.549,113.129 C34.549,112.076 34.458,111.153 34.458,110.048 C34.458,108.644 34.549,107.24 33.145,106.668 C32.859,106.551 32.469,106.473 32.079,106.473 C31.195,106.473 30.337,106.889 29.648,107.526 C29.674,106.876 29.7,106.252 29.713,105.68 C29.726,105.316 29.752,104.939 29.752,104.718 C29.752,104.198 29.817,103.717 29.258,103.847 C28.582,104.003 28.127,104.9 28.127,105.576 C28.127,106.382 28.179,107.175 28.179,107.955 C28.179,109.06 28.166,110.789 28.101,111.829 C28.049,112.609 27.841,114.312 28.608,114.247 C29.44,114.182 29.765,113.207 29.713,112.544 C29.648,111.803 29.57,111.413 29.57,110.672 C29.57,110.152 29.583,109.58 29.596,108.995 C30.064,108.579 30.766,108.215 31.247,108.215 C31.676,108.215 32.443,108.254 32.768,108.774 C33.028,109.203 32.976,110.269 32.976,110.776 C32.976,111.595 32.898,112.284 32.898,113.129 C32.898,113.766 32.82,114.39 33.561,114.39 C34.12,114.39 34.549,113.571 34.549,113.129 L34.549,113.129 Z M40.698,110.711 C40.685,111.27 40.659,111.816 40.646,112.362 C40.048,112.583 39.515,112.739 38.852,112.739 C38.098,112.739 37.435,112.427 37.435,111.595 C37.435,110.516 39.099,110.568 39.593,110.594 C39.866,110.607 40.334,110.685 40.698,110.711 L40.698,110.711 Z M42.245,111.66 C42.245,110.425 42.388,108.644 41.998,107.578 C41.634,106.577 40.282,106.304 39.242,106.304 C38.579,106.304 37.812,106.473 37.162,106.733 C36.681,106.928 36.343,107.396 36.343,107.968 C36.343,108.046 36.356,108.436 36.694,108.436 C37.032,108.436 37.916,107.942 38.865,107.942 C39.97,107.942 40.542,108.163 40.672,109.112 C39.918,109.073 38.67,109.138 38.02,109.398 C37.071,109.762 35.745,110.841 35.745,111.998 C35.745,113.194 36.668,114.364 37.877,114.364 C38.241,114.364 38.93,114.299 39.216,114.234 C39.606,114.143 40.139,113.922 40.62,113.636 C40.659,114 40.815,114.286 41.296,114.286 C42.336,114.286 42.245,112.518 42.245,111.66 L42.245,111.66 Z M49.018,109.905 C49.317,111.296 49.057,112.726 47.458,112.726 C46.587,112.726 46.041,112.388 45.547,112.18 C45.469,111.127 45.573,109.697 45.586,108.8 L45.586,108.67 C46.054,108.384 46.574,108.137 47.003,108.137 C48.004,108.137 48.654,108.215 49.018,109.905 L49.018,109.905 Z M50.734,109.996 C50.734,108.28 49.967,106.486 47.965,106.486 C47.081,106.486 46.301,106.733 45.651,107.305 C45.651,106.902 45.794,106.434 45.053,106.434 C44.377,106.434 44.052,107.76 44.052,108.267 C44.052,109.034 44.078,109.827 44.13,110.607 C44.221,111.998 44.117,113.194 44.065,114.663 C44.039,115.3 43.974,115.664 43.974,116.301 C43.974,116.86 44.325,117.25 44.715,117.068 C45.378,116.756 45.586,115.976 45.586,115.352 C45.586,114.897 45.599,114.52 45.599,114.169 C45.937,114.26 46.379,114.325 46.886,114.325 C47.926,114.325 48.732,114.182 49.421,113.337 C50.123,112.479 50.734,111.218 50.734,109.996 L50.734,109.996 Z M56.246,113.324 C56.35,112.882 56.311,112.466 55.986,112.505 C55.544,112.557 55.232,112.921 54.647,112.843 C53.451,112.674 53.75,110.23 53.737,109.476 C53.724,109.047 53.75,108.553 53.789,108.046 L54.335,108.046 C54.803,108.046 56.207,107.799 56.207,107.084 C56.207,106.252 55.128,106.616 54.465,106.616 C54.27,106.616 54.075,106.616 53.88,106.629 C53.893,106.434 53.906,106.239 53.906,106.07 C53.906,105.706 54.036,104.978 53.867,104.731 C53.672,104.471 53.516,104.51 53.295,104.562 C52.853,104.679 52.385,105.459 52.385,106.096 L52.385,106.668 L52.372,106.668 C52.008,106.668 51.488,107.318 51.488,107.682 C51.488,108.15 51.865,108.072 52.294,108.072 L52.385,108.072 C52.385,109.229 52.385,110.178 52.372,111.478 C52.359,112.115 52.398,112.674 52.658,113.298 C52.918,113.935 53.412,114.338 54.01,114.377 C54.933,114.429 56.103,113.883 56.246,113.324 L56.246,113.324 Z M62.499,109.294 C61.446,109.359 59.613,109.385 58.508,109.385 C58.755,108.709 59.301,107.89 60.64,107.89 C61.524,107.89 62.499,108.254 62.499,109.294 L62.499,109.294 Z M63.669,109.632 C63.669,108.774 63.435,107.604 62.772,106.98 C62.083,106.33 61.407,106.343 60.458,106.343 C59.561,106.343 58.287,107.201 57.871,107.851 C57.325,108.709 56.831,109.879 56.831,110.958 C56.831,112.869 58.664,114.377 60.367,114.377 C61.433,114.377 63.175,114.091 63.565,112.856 C63.643,112.596 63.604,112.141 63.37,112.141 C62.577,112.141 62.434,112.635 61.446,112.739 C60.536,112.83 59.834,112.739 59.522,112.583 C58.781,112.193 58.274,111.413 58.326,110.854 C59.769,110.854 60.419,110.88 61.862,110.88 C62.759,110.88 63.669,110.607 63.669,109.632 L63.669,109.632 Z M69.831,107.331 C69.766,106.824 69.337,106.473 68.752,106.473 C67.712,106.473 67.062,106.954 66.477,107.565 L66.477,107.539 C66.503,107.123 66.633,106.46 66.087,106.46 C64.982,106.46 65.008,107.994 65.008,108.813 C65.008,109.866 64.995,110.893 64.995,111.92 C64.995,112.336 64.956,113.09 64.956,113.506 C64.956,113.987 65.19,114.234 65.684,114.195 C66.724,114.104 66.412,112.102 66.438,111.569 C66.477,110.867 66.451,109.892 66.451,108.995 C67.01,108.553 67.686,108.137 68.31,108.189 C68.791,108.228 69.207,108.618 69.506,108.475 C69.792,108.332 69.896,107.877 69.831,107.331 L69.831,107.331 Z M82.389,110.425 C82.389,108.436 80.608,107.838 78.905,107.838 C78.762,107.838 77.787,107.864 77.514,107.864 C77.501,107.448 77.527,106.369 77.527,105.966 C78.45,105.875 79.217,105.94 79.737,105.953 C80.361,105.966 80.816,106.018 81.271,105.849 C81.661,105.706 82.415,104.393 81.856,104.263 C81.089,104.094 80.595,104.25 79.841,104.25 C79.074,104.25 78.32,104.224 77.553,104.224 C77.124,104.224 76.006,104.848 75.993,105.433 C75.98,106.07 75.954,106.278 75.954,106.954 C75.954,107.773 75.98,108.54 75.98,109.281 C75.98,109.554 76.24,109.801 76.422,109.801 C77.098,109.801 77.566,109.528 78.242,109.528 C79.776,109.528 80.972,109.606 80.972,111.075 C80.972,112.206 79.607,112.778 78.801,112.778 C78.294,112.778 77.761,112.648 77.319,112.466 C76.942,112.31 76.318,111.842 75.811,112.102 C75.564,112.232 75.59,112.778 75.707,113.324 C75.902,114.208 77.124,114.481 77.761,114.481 C78.918,114.481 80.075,114.429 80.881,113.688 C81.752,112.895 82.389,111.296 82.389,110.425 L82.389,110.425 Z M92.373,104.653 C92.36,104.64 92.36,104.627 92.36,104.614 C92.386,104.601 92.399,104.627 92.373,104.653 L92.373,104.653 Z M95.688,104.9 C95.688,103.899 93.842,104.146 93.01,104.146 C91.567,104.146 89.669,104.016 88.33,104.562 C88.005,104.692 87.55,105.186 87.55,105.615 C87.55,106.408 88.681,106.018 89.513,105.979 C89.747,105.966 90.306,105.94 90.748,105.927 C90.644,107.045 90.761,108.267 90.735,109.19 C90.709,109.827 90.709,111.166 90.67,112.349 C90.644,113.376 90.787,114.156 91.359,114.273 C92.035,114.39 92.568,113.428 92.542,112.765 C92.464,110.75 92.477,109.749 92.438,107.786 C92.425,107.188 92.503,106.551 92.503,105.914 C93.127,105.927 93.595,105.94 94.492,105.94 C94.947,105.94 95.688,105.199 95.688,104.9 L95.688,104.9 Z M98.327,113.168 C98.288,112.895 98.197,112.713 98.158,112.453 C98.067,111.972 98.119,111.452 98.119,110.932 C98.106,109.918 98.145,109.047 98.145,108.033 C98.145,107.526 98.314,106.811 97.599,106.811 C96.793,106.811 96.676,108.293 96.676,109.021 C96.676,110.503 96.715,111.92 96.715,113.428 C96.715,113.87 96.858,114.247 97.287,114.247 C97.768,114.247 98.392,113.649 98.327,113.168 L98.327,113.168 Z M98.444,104.913 C98.444,104.263 97.989,104.107 97.469,104.172 C97.001,104.237 96.507,105.069 96.507,105.329 C96.507,105.745 96.91,106.044 97.235,106.044 C97.677,106.044 98.444,105.381 98.444,104.913 L98.444,104.913 Z M104.177,113.324 C104.281,112.882 104.242,112.466 103.917,112.505 C103.475,112.557 103.163,112.921 102.578,112.843 C101.382,112.674 101.681,110.23 101.668,109.476 C101.655,109.047 101.681,108.553 101.72,108.046 L102.266,108.046 C102.734,108.046 104.138,107.799 104.138,107.084 C104.138,106.252 103.059,106.616 102.396,106.616 C102.201,106.616 102.006,106.616 101.811,106.629 C101.824,106.434 101.837,106.239 101.837,106.07 C101.837,105.706 101.967,104.978 101.798,104.731 C101.603,104.471 101.447,104.51 101.226,104.562 C100.784,104.679 100.316,105.459 100.316,106.096 L100.316,106.668 L100.303,106.668 C99.939,106.668 99.419,107.318 99.419,107.682 C99.419,108.15 99.796,108.072 100.225,108.072 L100.316,108.072 C100.316,109.229 100.316,110.178 100.303,111.478 C100.29,112.115 100.329,112.674 100.589,113.298 C100.849,113.935 101.343,114.338 101.941,114.377 C102.864,114.429 104.034,113.883 104.177,113.324 L104.177,113.324 Z M106.855,108.904 C106.855,107.552 106.946,105.745 106.816,104.471 C106.79,104.198 106.517,104.016 106.257,104.016 C105.672,104.016 105.295,104.744 105.295,105.251 C105.282,106.642 105.425,108.02 105.386,109.411 C105.36,110.594 105.321,111.582 105.269,112.752 C105.217,113.831 105.295,114.182 105.867,114.156 C106.608,114.117 106.855,113.09 106.855,112.388 L106.855,108.904 Z M113.992,109.294 C112.939,109.359 111.106,109.385 110.001,109.385 C110.248,108.709 110.794,107.89 112.133,107.89 C113.017,107.89 113.992,108.254 113.992,109.294 L113.992,109.294 Z M115.162,109.632 C115.162,108.774 114.928,107.604 114.265,106.98 C113.576,106.33 112.9,106.343 111.951,106.343 C111.054,106.343 109.78,107.201 109.364,107.851 C108.818,108.709 108.324,109.879 108.324,110.958 C108.324,112.869 110.157,114.377 111.86,114.377 C112.926,114.377 114.668,114.091 115.058,112.856 C115.136,112.596 115.097,112.141 114.863,112.141 C114.07,112.141 113.927,112.635 112.939,112.739 C112.029,112.83 111.327,112.739 111.015,112.583 C110.274,112.193 109.767,111.413 109.819,110.854 C111.262,110.854 111.912,110.88 113.355,110.88 C114.252,110.88 115.162,110.607 115.162,109.632 L115.162,109.632 Z M26.502,134.505 C26.541,134.141 26.437,133.374 26.203,133.387 C25.722,133.439 25.384,133.777 24.825,134.076 C24.37,134.31 23.694,134.479 23.304,134.505 C21.666,134.674 20.197,133.283 20.08,131.97 C19.976,130.878 20.041,130.124 20.821,129.214 C21.926,127.914 23.187,127.81 23.824,127.888 C24.578,127.992 25.033,128.759 25.514,128.863 C25.865,128.941 26.411,128.512 26.437,127.641 C26.437,127.16 26.125,126.796 25.761,126.536 C24.838,125.86 23.239,126.016 22.459,126.146 C19.859,126.614 18.546,129.344 18.637,132.152 C18.65,132.945 18.897,133.79 19.066,134.141 C19.898,135.896 21.64,136.52 23.733,136.325 C24.669,136.234 26.398,135.584 26.502,134.505 L26.502,134.505 Z M34.549,135.129 C34.549,134.076 34.458,133.153 34.458,132.048 C34.458,130.644 34.549,129.24 33.145,128.668 C32.859,128.551 32.469,128.473 32.079,128.473 C31.195,128.473 30.337,128.889 29.648,129.526 C29.674,128.876 29.7,128.252 29.713,127.68 C29.726,127.316 29.752,126.939 29.752,126.718 C29.752,126.198 29.817,125.717 29.258,125.847 C28.582,126.003 28.127,126.9 28.127,127.576 C28.127,128.382 28.179,129.175 28.179,129.955 C28.179,131.06 28.166,132.789 28.101,133.829 C28.049,134.609 27.841,136.312 28.608,136.247 C29.44,136.182 29.765,135.207 29.713,134.544 C29.648,133.803 29.57,133.413 29.57,132.672 C29.57,132.152 29.583,131.58 29.596,130.995 C30.064,130.579 30.766,130.215 31.247,130.215 C31.676,130.215 32.443,130.254 32.768,130.774 C33.028,131.203 32.976,132.269 32.976,132.776 C32.976,133.595 32.898,134.284 32.898,135.129 C32.898,135.766 32.82,136.39 33.561,136.39 C34.12,136.39 34.549,135.571 34.549,135.129 L34.549,135.129 Z M40.698,132.711 C40.685,133.27 40.659,133.816 40.646,134.362 C40.048,134.583 39.515,134.739 38.852,134.739 C38.098,134.739 37.435,134.427 37.435,133.595 C37.435,132.516 39.099,132.568 39.593,132.594 C39.866,132.607 40.334,132.685 40.698,132.711 L40.698,132.711 Z M42.245,133.66 C42.245,132.425 42.388,130.644 41.998,129.578 C41.634,128.577 40.282,128.304 39.242,128.304 C38.579,128.304 37.812,128.473 37.162,128.733 C36.681,128.928 36.343,129.396 36.343,129.968 C36.343,130.046 36.356,130.436 36.694,130.436 C37.032,130.436 37.916,129.942 38.865,129.942 C39.97,129.942 40.542,130.163 40.672,131.112 C39.918,131.073 38.67,131.138 38.02,131.398 C37.071,131.762 35.745,132.841 35.745,133.998 C35.745,135.194 36.668,136.364 37.877,136.364 C38.241,136.364 38.93,136.299 39.216,136.234 C39.606,136.143 40.139,135.922 40.62,135.636 C40.659,136 40.815,136.286 41.296,136.286 C42.336,136.286 42.245,134.518 42.245,133.66 L42.245,133.66 Z M49.018,131.905 C49.317,133.296 49.057,134.726 47.458,134.726 C46.587,134.726 46.041,134.388 45.547,134.18 C45.469,133.127 45.573,131.697 45.586,130.8 L45.586,130.67 C46.054,130.384 46.574,130.137 47.003,130.137 C48.004,130.137 48.654,130.215 49.018,131.905 L49.018,131.905 Z M50.734,131.996 C50.734,130.28 49.967,128.486 47.965,128.486 C47.081,128.486 46.301,128.733 45.651,129.305 C45.651,128.902 45.794,128.434 45.053,128.434 C44.377,128.434 44.052,129.76 44.052,130.267 C44.052,131.034 44.078,131.827 44.13,132.607 C44.221,133.998 44.117,135.194 44.065,136.663 C44.039,137.3 43.974,137.664 43.974,138.301 C43.974,138.86 44.325,139.25 44.715,139.068 C45.378,138.756 45.586,137.976 45.586,137.352 C45.586,136.897 45.599,136.52 45.599,136.169 C45.937,136.26 46.379,136.325 46.886,136.325 C47.926,136.325 48.732,136.182 49.421,135.337 C50.123,134.479 50.734,133.218 50.734,131.996 L50.734,131.996 Z M56.246,135.324 C56.35,134.882 56.311,134.466 55.986,134.505 C55.544,134.557 55.232,134.921 54.647,134.843 C53.451,134.674 53.75,132.23 53.737,131.476 C53.724,131.047 53.75,130.553 53.789,130.046 L54.335,130.046 C54.803,130.046 56.207,129.799 56.207,129.084 C56.207,128.252 55.128,128.616 54.465,128.616 C54.27,128.616 54.075,128.616 53.88,128.629 C53.893,128.434 53.906,128.239 53.906,128.07 C53.906,127.706 54.036,126.978 53.867,126.731 C53.672,126.471 53.516,126.51 53.295,126.562 C52.853,126.679 52.385,127.459 52.385,128.096 L52.385,128.668 L52.372,128.668 C52.008,128.668 51.488,129.318 51.488,129.682 C51.488,130.15 51.865,130.072 52.294,130.072 L52.385,130.072 C52.385,131.229 52.385,132.178 52.372,133.478 C52.359,134.115 52.398,134.674 52.658,135.298 C52.918,135.935 53.412,136.338 54.01,136.377 C54.933,136.429 56.103,135.883 56.246,135.324 L56.246,135.324 Z M62.499,131.294 C61.446,131.359 59.613,131.385 58.508,131.385 C58.755,130.709 59.301,129.89 60.64,129.89 C61.524,129.89 62.499,130.254 62.499,131.294 L62.499,131.294 Z M63.669,131.632 C63.669,130.774 63.435,129.604 62.772,128.98 C62.083,128.33 61.407,128.343 60.458,128.343 C59.561,128.343 58.287,129.201 57.871,129.851 C57.325,130.709 56.831,131.879 56.831,132.958 C56.831,134.869 58.664,136.377 60.367,136.377 C61.433,136.377 63.175,136.091 63.565,134.856 C63.643,134.596 63.604,134.141 63.37,134.141 C62.577,134.141 62.434,134.635 61.446,134.739 C60.536,134.83 59.834,134.739 59.522,134.583 C58.781,134.193 58.274,133.413 58.326,132.854 C59.769,132.854 60.419,132.88 61.862,132.88 C62.759,132.88 63.669,132.607 63.669,131.632 L63.669,131.632 Z M69.831,129.331 C69.766,128.824 69.337,128.473 68.752,128.473 C67.712,128.473 67.062,128.954 66.477,129.565 L66.477,129.539 C66.503,129.123 66.633,128.46 66.087,128.46 C64.982,128.46 65.008,129.994 65.008,130.813 C65.008,131.866 64.995,132.893 64.995,133.92 C64.995,134.336 64.956,135.09 64.956,135.506 C64.956,135.987 65.19,136.234 65.684,136.195 C66.724,136.104 66.412,134.102 66.438,133.569 C66.477,132.867 66.451,131.892 66.451,130.995 C67.01,130.553 67.686,130.137 68.31,130.189 C68.791,130.228 69.207,130.618 69.506,130.475 C69.792,130.332 69.896,129.877 69.831,129.331 L69.831,129.331 Z M81.05,133.322 C81.05,134.427 80.023,134.752 79.074,134.752 C78.32,134.752 77.488,134.063 77.267,133.309 C77.15,132.919 77.111,132.49 77.098,132.048 C77.605,131.84 78.138,131.658 78.567,131.658 C79.646,131.645 81.05,132.1 81.05,133.322 L81.05,133.322 Z M82.506,133.023 C82.506,132.321 82.35,131.32 81.856,130.8 C81.206,130.124 80.426,129.89 79.412,129.89 C78.515,129.89 77.787,130.02 77.111,130.475 C77.163,129.162 77.475,128.174 78.918,127.888 C79.49,127.771 80.023,127.784 80.595,127.914 C81.401,128.096 81.908,127.953 81.778,126.9 C81.7,126.237 81.128,125.99 80.27,125.99 C79.412,125.99 77.826,126.614 77.293,127.238 C76.734,127.901 75.993,128.798 75.785,129.617 C75.564,130.514 75.33,131.84 75.408,132.776 C75.538,134.427 76.019,135.519 76.968,136.052 C77.527,136.364 78.229,136.507 78.918,136.507 C81.245,136.507 82.506,134.167 82.506,133.023 L82.506,133.023 Z M92.373,126.653 C92.36,126.64 92.36,126.627 92.36,126.614 C92.386,126.601 92.399,126.627 92.373,126.653 L92.373,126.653 Z M95.688,126.9 C95.688,125.899 93.842,126.146 93.01,126.146 C91.567,126.146 89.669,126.016 88.33,126.562 C88.005,126.692 87.55,127.186 87.55,127.615 C87.55,128.408 88.681,128.018 89.513,127.979 C89.747,127.966 90.306,127.94 90.748,127.927 C90.644,129.045 90.761,130.267 90.735,131.19 C90.709,131.827 90.709,133.166 90.67,134.349 C90.644,135.376 90.787,136.156 91.359,136.273 C92.035,136.39 92.568,135.428 92.542,134.765 C92.464,132.75 92.477,131.749 92.438,129.786 C92.425,129.188 92.503,128.551 92.503,127.914 C93.127,127.927 93.595,127.94 94.492,127.94 C94.947,127.94 95.688,127.199 95.688,126.9 L95.688,126.9 Z M98.327,135.168 C98.288,134.895 98.197,134.713 98.158,134.453 C98.067,133.972 98.119,133.452 98.119,132.932 C98.106,131.918 98.145,131.047 98.145,130.033 C98.145,129.526 98.314,128.811 97.599,128.811 C96.793,128.811 96.676,130.293 96.676,131.021 C96.676,132.503 96.715,133.92 96.715,135.428 C96.715,135.87 96.858,136.247 97.287,136.247 C97.768,136.247 98.392,135.649 98.327,135.168 L98.327,135.168 Z M98.444,126.913 C98.444,126.263 97.989,126.107 97.469,126.172 C97.001,126.237 96.507,127.069 96.507,127.329 C96.507,127.745 96.91,128.044 97.235,128.044 C97.677,128.044 98.444,127.381 98.444,126.913 L98.444,126.913 Z M104.177,135.324 C104.281,134.882 104.242,134.466 103.917,134.505 C103.475,134.557 103.163,134.921 102.578,134.843 C101.382,134.674 101.681,132.23 101.668,131.476 C101.655,131.047 101.681,130.553 101.72,130.046 L102.266,130.046 C102.734,130.046 104.138,129.799 104.138,129.084 C104.138,128.252 103.059,128.616 102.396,128.616 C102.201,128.616 102.006,128.616 101.811,128.629 C101.824,128.434 101.837,128.239 101.837,128.07 C101.837,127.706 101.967,126.978 101.798,126.731 C101.603,126.471 101.447,126.51 101.226,126.562 C100.784,126.679 100.316,127.459 100.316,128.096 L100.316,128.668 L100.303,128.668 C99.939,128.668 99.419,129.318 99.419,129.682 C99.419,130.15 99.796,130.072 100.225,130.072 L100.316,130.072 C100.316,131.229 100.316,132.178 100.303,133.478 C100.29,134.115 100.329,134.674 100.589,135.298 C100.849,135.935 101.343,136.338 101.941,136.377 C102.864,136.429 104.034,135.883 104.177,135.324 L104.177,135.324 Z M106.855,130.904 C106.855,129.552 106.946,127.745 106.816,126.471 C106.79,126.198 106.517,126.016 106.257,126.016 C105.672,126.016 105.295,126.744 105.295,127.251 C105.282,128.642 105.425,130.02 105.386,131.411 C105.36,132.594 105.321,133.582 105.269,134.752 C105.217,135.831 105.295,136.182 105.867,136.156 C106.608,136.117 106.855,135.09 106.855,134.388 L106.855,130.904 Z M113.992,131.294 C112.939,131.359 111.106,131.385 110.001,131.385 C110.248,130.709 110.794,129.89 112.133,129.89 C113.017,129.89 113.992,130.254 113.992,131.294 L113.992,131.294 Z M115.162,131.632 C115.162,130.774 114.928,129.604 114.265,128.98 C113.576,128.33 112.9,128.343 111.951,128.343 C111.054,128.343 109.78,129.201 109.364,129.851 C108.818,130.709 108.324,131.879 108.324,132.958 C108.324,134.869 110.157,136.377 111.86,136.377 C112.926,136.377 114.668,136.091 115.058,134.856 C115.136,134.596 115.097,134.141 114.863,134.141 C114.07,134.141 113.927,134.635 112.939,134.739 C112.029,134.83 111.327,134.739 111.015,134.583 C110.274,134.193 109.767,133.413 109.819,132.854 C111.262,132.854 111.912,132.88 113.355,132.88 C114.252,132.88 115.162,132.607 115.162,131.632 L115.162,131.632 Z M26.502,156.505 C26.541,156.141 26.437,155.374 26.203,155.387 C25.722,155.439 25.384,155.777 24.825,156.076 C24.37,156.31 23.694,156.479 23.304,156.505 C21.666,156.674 20.197,155.283 20.08,153.97 C19.976,152.878 20.041,152.124 20.821,151.214 C21.926,149.914 23.187,149.81 23.824,149.888 C24.578,149.992 25.033,150.759 25.514,150.863 C25.865,150.941 26.411,150.512 26.437,149.641 C26.437,149.16 26.125,148.796 25.761,148.536 C24.838,147.86 23.239,148.016 22.459,148.146 C19.859,148.614 18.546,151.344 18.637,154.152 C18.65,154.945 18.897,155.79 19.066,156.141 C19.898,157.896 21.64,158.52 23.733,158.325 C24.669,158.234 26.398,157.584 26.502,156.505 L26.502,156.505 Z M34.549,157.129 C34.549,156.076 34.458,155.153 34.458,154.048 C34.458,152.644 34.549,151.24 33.145,150.668 C32.859,150.551 32.469,150.473 32.079,150.473 C31.195,150.473 30.337,150.889 29.648,151.526 C29.674,150.876 29.7,150.252 29.713,149.68 C29.726,149.316 29.752,148.939 29.752,148.718 C29.752,148.198 29.817,147.717 29.258,147.847 C28.582,148.003 28.127,148.9 28.127,149.576 C28.127,150.382 28.179,151.175 28.179,151.955 C28.179,153.06 28.166,154.789 28.101,155.829 C28.049,156.609 27.841,158.312 28.608,158.247 C29.44,158.182 29.765,157.207 29.713,156.544 C29.648,155.803 29.57,155.413 29.57,154.672 C29.57,154.152 29.583,153.58 29.596,152.995 C30.064,152.579 30.766,152.215 31.247,152.215 C31.676,152.215 32.443,152.254 32.768,152.774 C33.028,153.203 32.976,154.269 32.976,154.776 C32.976,155.595 32.898,156.284 32.898,157.129 C32.898,157.766 32.82,158.39 33.561,158.39 C34.12,158.39 34.549,157.571 34.549,157.129 L34.549,157.129 Z M40.698,154.711 C40.685,155.27 40.659,155.816 40.646,156.362 C40.048,156.583 39.515,156.739 38.852,156.739 C38.098,156.739 37.435,156.427 37.435,155.595 C37.435,154.516 39.099,154.568 39.593,154.594 C39.866,154.607 40.334,154.685 40.698,154.711 L40.698,154.711 Z M42.245,155.66 C42.245,154.425 42.388,152.644 41.998,151.578 C41.634,150.577 40.282,150.304 39.242,150.304 C38.579,150.304 37.812,150.473 37.162,150.733 C36.681,150.928 36.343,151.396 36.343,151.968 C36.343,152.046 36.356,152.436 36.694,152.436 C37.032,152.436 37.916,151.942 38.865,151.942 C39.97,151.942 40.542,152.163 40.672,153.112 C39.918,153.073 38.67,153.138 38.02,153.398 C37.071,153.762 35.745,154.841 35.745,155.998 C35.745,157.194 36.668,158.364 37.877,158.364 C38.241,158.364 38.93,158.299 39.216,158.234 C39.606,158.143 40.139,157.922 40.62,157.636 C40.659,158 40.815,158.286 41.296,158.286 C42.336,158.286 42.245,156.518 42.245,155.66 L42.245,155.66 Z M49.018,153.905 C49.317,155.296 49.057,156.726 47.458,156.726 C46.587,156.726 46.041,156.388 45.547,156.18 C45.469,155.127 45.573,153.697 45.586,152.8 L45.586,152.67 C46.054,152.384 46.574,152.137 47.003,152.137 C48.004,152.137 48.654,152.215 49.018,153.905 L49.018,153.905 Z M50.734,153.996 C50.734,152.28 49.967,150.486 47.965,150.486 C47.081,150.486 46.301,150.733 45.651,151.305 C45.651,150.902 45.794,150.434 45.053,150.434 C44.377,150.434 44.052,151.76 44.052,152.267 C44.052,153.034 44.078,153.827 44.13,154.607 C44.221,155.998 44.117,157.194 44.065,158.663 C44.039,159.3 43.974,159.664 43.974,160.301 C43.974,160.86 44.325,161.25 44.715,161.068 C45.378,160.756 45.586,159.976 45.586,159.352 C45.586,158.897 45.599,158.52 45.599,158.169 C45.937,158.26 46.379,158.325 46.886,158.325 C47.926,158.325 48.732,158.182 49.421,157.337 C50.123,156.479 50.734,155.218 50.734,153.996 L50.734,153.996 Z M56.246,157.324 C56.35,156.882 56.311,156.466 55.986,156.505 C55.544,156.557 55.232,156.921 54.647,156.843 C53.451,156.674 53.75,154.23 53.737,153.476 C53.724,153.047 53.75,152.553 53.789,152.046 L54.335,152.046 C54.803,152.046 56.207,151.799 56.207,151.084 C56.207,150.252 55.128,150.616 54.465,150.616 C54.27,150.616 54.075,150.616 53.88,150.629 C53.893,150.434 53.906,150.239 53.906,150.07 C53.906,149.706 54.036,148.978 53.867,148.731 C53.672,148.471 53.516,148.51 53.295,148.562 C52.853,148.679 52.385,149.459 52.385,150.096 L52.385,150.668 L52.372,150.668 C52.008,150.668 51.488,151.318 51.488,151.682 C51.488,152.15 51.865,152.072 52.294,152.072 L52.385,152.072 C52.385,153.229 52.385,154.178 52.372,155.478 C52.359,156.115 52.398,156.674 52.658,157.298 C52.918,157.935 53.412,158.338 54.01,158.377 C54.933,158.429 56.103,157.883 56.246,157.324 L56.246,157.324 Z M62.499,153.294 C61.446,153.359 59.613,153.385 58.508,153.385 C58.755,152.709 59.301,151.89 60.64,151.89 C61.524,151.89 62.499,152.254 62.499,153.294 L62.499,153.294 Z M63.669,153.632 C63.669,152.774 63.435,151.604 62.772,150.98 C62.083,150.33 61.407,150.343 60.458,150.343 C59.561,150.343 58.287,151.201 57.871,151.851 C57.325,152.709 56.831,153.879 56.831,154.958 C56.831,156.869 58.664,158.377 60.367,158.377 C61.433,158.377 63.175,158.091 63.565,156.856 C63.643,156.596 63.604,156.141 63.37,156.141 C62.577,156.141 62.434,156.635 61.446,156.739 C60.536,156.83 59.834,156.739 59.522,156.583 C58.781,156.193 58.274,155.413 58.326,154.854 C59.769,154.854 60.419,154.88 61.862,154.88 C62.759,154.88 63.669,154.607 63.669,153.632 L63.669,153.632 Z M69.831,151.331 C69.766,150.824 69.337,150.473 68.752,150.473 C67.712,150.473 67.062,150.954 66.477,151.565 L66.477,151.539 C66.503,151.123 66.633,150.46 66.087,150.46 C64.982,150.46 65.008,151.994 65.008,152.813 C65.008,153.866 64.995,154.893 64.995,155.92 C64.995,156.336 64.956,157.09 64.956,157.506 C64.956,157.987 65.19,158.234 65.684,158.195 C66.724,158.104 66.412,156.102 66.438,155.569 C66.477,154.867 66.451,153.892 66.451,152.995 C67.01,152.553 67.686,152.137 68.31,152.189 C68.791,152.228 69.207,152.618 69.506,152.475 C69.792,152.332 69.896,151.877 69.831,151.331 L69.831,151.331 Z M82.636,148.861 C82.636,148.146 81.869,148.263 81.362,148.263 C79.672,148.263 76.838,148.159 76.292,148.25 C75.876,148.328 75.252,149.121 75.252,149.524 C75.252,150.096 75.603,150.083 76.084,150.07 C77.41,150.031 79.152,149.94 80.647,150.057 C80.439,150.564 79.841,151.5 79.607,151.955 C79.204,152.735 78.619,153.619 78.112,154.659 C77.748,155.413 77.449,155.842 77.15,156.609 C76.955,157.103 76.89,157.441 76.89,157.818 C76.89,158.013 77.085,158.481 77.371,158.416 C78.45,158.156 78.983,157.116 79.152,156.271 C79.334,155.387 80.569,152.995 81.18,151.916 C81.648,151.097 82.636,149.836 82.636,148.861 L82.636,148.861 Z M92.373,148.653 C92.36,148.64 92.36,148.627 92.36,148.614 C92.386,148.601 92.399,148.627 92.373,148.653 L92.373,148.653 Z M95.688,148.9 C95.688,147.899 93.842,148.146 93.01,148.146 C91.567,148.146 89.669,148.016 88.33,148.562 C88.005,148.692 87.55,149.186 87.55,149.615 C87.55,150.408 88.681,150.018 89.513,149.979 C89.747,149.966 90.306,149.94 90.748,149.927 C90.644,151.045 90.761,152.267 90.735,153.19 C90.709,153.827 90.709,155.166 90.67,156.349 C90.644,157.376 90.787,158.156 91.359,158.273 C92.035,158.39 92.568,157.428 92.542,156.765 C92.464,154.75 92.477,153.749 92.438,151.786 C92.425,151.188 92.503,150.551 92.503,149.914 C93.127,149.927 93.595,149.94 94.492,149.94 C94.947,149.94 95.688,149.199 95.688,148.9 L95.688,148.9 Z M98.327,157.168 C98.288,156.895 98.197,156.713 98.158,156.453 C98.067,155.972 98.119,155.452 98.119,154.932 C98.106,153.918 98.145,153.047 98.145,152.033 C98.145,151.526 98.314,150.811 97.599,150.811 C96.793,150.811 96.676,152.293 96.676,153.021 C96.676,154.503 96.715,155.92 96.715,157.428 C96.715,157.87 96.858,158.247 97.287,158.247 C97.768,158.247 98.392,157.649 98.327,157.168 L98.327,157.168 Z M98.444,148.913 C98.444,148.263 97.989,148.107 97.469,148.172 C97.001,148.237 96.507,149.069 96.507,149.329 C96.507,149.745 96.91,150.044 97.235,150.044 C97.677,150.044 98.444,149.381 98.444,148.913 L98.444,148.913 Z M104.177,157.324 C104.281,156.882 104.242,156.466 103.917,156.505 C103.475,156.557 103.163,156.921 102.578,156.843 C101.382,156.674 101.681,154.23 101.668,153.476 C101.655,153.047 101.681,152.553 101.72,152.046 L102.266,152.046 C102.734,152.046 104.138,151.799 104.138,151.084 C104.138,150.252 103.059,150.616 102.396,150.616 C102.201,150.616 102.006,150.616 101.811,150.629 C101.824,150.434 101.837,150.239 101.837,150.07 C101.837,149.706 101.967,148.978 101.798,148.731 C101.603,148.471 101.447,148.51 101.226,148.562 C100.784,148.679 100.316,149.459 100.316,150.096 L100.316,150.668 L100.303,150.668 C99.939,150.668 99.419,151.318 99.419,151.682 C99.419,152.15 99.796,152.072 100.225,152.072 L100.316,152.072 C100.316,153.229 100.316,154.178 100.303,155.478 C100.29,156.115 100.329,156.674 100.589,157.298 C100.849,157.935 101.343,158.338 101.941,158.377 C102.864,158.429 104.034,157.883 104.177,157.324 L104.177,157.324 Z M106.855,152.904 C106.855,151.552 106.946,149.745 106.816,148.471 C106.79,148.198 106.517,148.016 106.257,148.016 C105.672,148.016 105.295,148.744 105.295,149.251 C105.282,150.642 105.425,152.02 105.386,153.411 C105.36,154.594 105.321,155.582 105.269,156.752 C105.217,157.831 105.295,158.182 105.867,158.156 C106.608,158.117 106.855,157.09 106.855,156.388 L106.855,152.904 Z M113.992,153.294 C112.939,153.359 111.106,153.385 110.001,153.385 C110.248,152.709 110.794,151.89 112.133,151.89 C113.017,151.89 113.992,152.254 113.992,153.294 L113.992,153.294 Z M115.162,153.632 C115.162,152.774 114.928,151.604 114.265,150.98 C113.576,150.33 112.9,150.343 111.951,150.343 C111.054,150.343 109.78,151.201 109.364,151.851 C108.818,152.709 108.324,153.879 108.324,154.958 C108.324,156.869 110.157,158.377 111.86,158.377 C112.926,158.377 114.668,158.091 115.058,156.856 C115.136,156.596 115.097,156.141 114.863,156.141 C114.07,156.141 113.927,156.635 112.939,156.739 C112.029,156.83 111.327,156.739 111.015,156.583 C110.274,156.193 109.767,155.413 109.819,154.854 C111.262,154.854 111.912,154.88 113.355,154.88 C114.252,154.88 115.162,154.607 115.162,153.632 L115.162,153.632 Z M26.502,178.505 C26.541,178.141 26.437,177.374 26.203,177.387 C25.722,177.439 25.384,177.777 24.825,178.076 C24.37,178.31 23.694,178.479 23.304,178.505 C21.666,178.674 20.197,177.283 20.08,175.97 C19.976,174.878 20.041,174.124 20.821,173.214 C21.926,171.914 23.187,171.81 23.824,171.888 C24.578,171.992 25.033,172.759 25.514,172.863 C25.865,172.941 26.411,172.512 26.437,171.641 C26.437,171.16 26.125,170.796 25.761,170.536 C24.838,169.86 23.239,170.016 22.459,170.146 C19.859,170.614 18.546,173.344 18.637,176.152 C18.65,176.945 18.897,177.79 19.066,178.141 C19.898,179.896 21.64,180.52 23.733,180.325 C24.669,180.234 26.398,179.584 26.502,178.505 L26.502,178.505 Z M34.549,179.129 C34.549,178.076 34.458,177.153 34.458,176.048 C34.458,174.644 34.549,173.24 33.145,172.668 C32.859,172.551 32.469,172.473 32.079,172.473 C31.195,172.473 30.337,172.889 29.648,173.526 C29.674,172.876 29.7,172.252 29.713,171.68 C29.726,171.316 29.752,170.939 29.752,170.718 C29.752,170.198 29.817,169.717 29.258,169.847 C28.582,170.003 28.127,170.9 28.127,171.576 C28.127,172.382 28.179,173.175 28.179,173.955 C28.179,175.06 28.166,176.789 28.101,177.829 C28.049,178.609 27.841,180.312 28.608,180.247 C29.44,180.182 29.765,179.207 29.713,178.544 C29.648,177.803 29.57,177.413 29.57,176.672 C29.57,176.152 29.583,175.58 29.596,174.995 C30.064,174.579 30.766,174.215 31.247,174.215 C31.676,174.215 32.443,174.254 32.768,174.774 C33.028,175.203 32.976,176.269 32.976,176.776 C32.976,177.595 32.898,178.284 32.898,179.129 C32.898,179.766 32.82,180.39 33.561,180.39 C34.12,180.39 34.549,179.571 34.549,179.129 L34.549,179.129 Z M40.698,176.711 C40.685,177.27 40.659,177.816 40.646,178.362 C40.048,178.583 39.515,178.739 38.852,178.739 C38.098,178.739 37.435,178.427 37.435,177.595 C37.435,176.516 39.099,176.568 39.593,176.594 C39.866,176.607 40.334,176.685 40.698,176.711 L40.698,176.711 Z M42.245,177.66 C42.245,176.425 42.388,174.644 41.998,173.578 C41.634,172.577 40.282,172.304 39.242,172.304 C38.579,172.304 37.812,172.473 37.162,172.733 C36.681,172.928 36.343,173.396 36.343,173.968 C36.343,174.046 36.356,174.436 36.694,174.436 C37.032,174.436 37.916,173.942 38.865,173.942 C39.97,173.942 40.542,174.163 40.672,175.112 C39.918,175.073 38.67,175.138 38.02,175.398 C37.071,175.762 35.745,176.841 35.745,177.998 C35.745,179.194 36.668,180.364 37.877,180.364 C38.241,180.364 38.93,180.299 39.216,180.234 C39.606,180.143 40.139,179.922 40.62,179.636 C40.659,180 40.815,180.286 41.296,180.286 C42.336,180.286 42.245,178.518 42.245,177.66 L42.245,177.66 Z M49.018,175.905 C49.317,177.296 49.057,178.726 47.458,178.726 C46.587,178.726 46.041,178.388 45.547,178.18 C45.469,177.127 45.573,175.697 45.586,174.8 L45.586,174.67 C46.054,174.384 46.574,174.137 47.003,174.137 C48.004,174.137 48.654,174.215 49.018,175.905 L49.018,175.905 Z M50.734,175.996 C50.734,174.28 49.967,172.486 47.965,172.486 C47.081,172.486 46.301,172.733 45.651,173.305 C45.651,172.902 45.794,172.434 45.053,172.434 C44.377,172.434 44.052,173.76 44.052,174.267 C44.052,175.034 44.078,175.827 44.13,176.607 C44.221,177.998 44.117,179.194 44.065,180.663 C44.039,181.3 43.974,181.664 43.974,182.301 C43.974,182.86 44.325,183.25 44.715,183.068 C45.378,182.756 45.586,181.976 45.586,181.352 C45.586,180.897 45.599,180.52 45.599,180.169 C45.937,180.26 46.379,180.325 46.886,180.325 C47.926,180.325 48.732,180.182 49.421,179.337 C50.123,178.479 50.734,177.218 50.734,175.996 L50.734,175.996 Z M56.246,179.324 C56.35,178.882 56.311,178.466 55.986,178.505 C55.544,178.557 55.232,178.921 54.647,178.843 C53.451,178.674 53.75,176.23 53.737,175.476 C53.724,175.047 53.75,174.553 53.789,174.046 L54.335,174.046 C54.803,174.046 56.207,173.799 56.207,173.084 C56.207,172.252 55.128,172.616 54.465,172.616 C54.27,172.616 54.075,172.616 53.88,172.629 C53.893,172.434 53.906,172.239 53.906,172.07 C53.906,171.706 54.036,170.978 53.867,170.731 C53.672,170.471 53.516,170.51 53.295,170.562 C52.853,170.679 52.385,171.459 52.385,172.096 L52.385,172.668 L52.372,172.668 C52.008,172.668 51.488,173.318 51.488,173.682 C51.488,174.15 51.865,174.072 52.294,174.072 L52.385,174.072 C52.385,175.229 52.385,176.178 52.372,177.478 C52.359,178.115 52.398,178.674 52.658,179.298 C52.918,179.935 53.412,180.338 54.01,180.377 C54.933,180.429 56.103,179.883 56.246,179.324 L56.246,179.324 Z M62.499,175.294 C61.446,175.359 59.613,175.385 58.508,175.385 C58.755,174.709 59.301,173.89 60.64,173.89 C61.524,173.89 62.499,174.254 62.499,175.294 L62.499,175.294 Z M63.669,175.632 C63.669,174.774 63.435,173.604 62.772,172.98 C62.083,172.33 61.407,172.343 60.458,172.343 C59.561,172.343 58.287,173.201 57.871,173.851 C57.325,174.709 56.831,175.879 56.831,176.958 C56.831,178.869 58.664,180.377 60.367,180.377 C61.433,180.377 63.175,180.091 63.565,178.856 C63.643,178.596 63.604,178.141 63.37,178.141 C62.577,178.141 62.434,178.635 61.446,178.739 C60.536,178.83 59.834,178.739 59.522,178.583 C58.781,178.193 58.274,177.413 58.326,176.854 C59.769,176.854 60.419,176.88 61.862,176.88 C62.759,176.88 63.669,176.607 63.669,175.632 L63.669,175.632 Z M69.831,173.331 C69.766,172.824 69.337,172.473 68.752,172.473 C67.712,172.473 67.062,172.954 66.477,173.565 L66.477,173.539 C66.503,173.123 66.633,172.46 66.087,172.46 C64.982,172.46 65.008,173.994 65.008,174.813 C65.008,175.866 64.995,176.893 64.995,177.92 C64.995,178.336 64.956,179.09 64.956,179.506 C64.956,179.987 65.19,180.234 65.684,180.195 C66.724,180.104 66.412,178.102 66.438,177.569 C66.477,176.867 66.451,175.892 66.451,174.995 C67.01,174.553 67.686,174.137 68.31,174.189 C68.791,174.228 69.207,174.618 69.506,174.475 C69.792,174.332 69.896,173.877 69.831,173.331 L69.831,173.331 Z M80.621,177.66 C80.608,178.531 80.062,178.869 79.191,178.869 C77.852,178.869 77.072,178.232 77.072,177.101 C77.072,176.672 77.384,176.347 77.605,176.022 C77.67,175.931 77.774,175.827 77.891,175.723 L77.917,175.736 C79.009,176.113 80.634,176.425 80.621,177.66 L80.621,177.66 Z M80.465,173.097 C80.465,173.708 80.231,174.046 79.737,174.332 C78.736,174.033 77.423,173.656 77.423,172.525 C77.423,171.693 77.709,171.485 78.723,171.485 C79.672,171.485 80.465,171.992 80.465,173.097 L80.465,173.097 Z M82.584,177.179 C82.558,175.801 81.908,175.216 80.829,174.735 C82.012,174.059 82.207,173.006 82.207,172.239 C82.207,170.9 80.699,169.886 79.256,169.886 C78.242,169.886 77.15,170.276 76.487,171.043 C76.084,171.511 75.512,172.616 75.512,173.097 C75.512,173.773 75.993,174.553 76.461,174.969 C76.578,175.073 76.695,175.151 76.812,175.229 C75.85,176.074 74.836,177.634 75.434,178.882 C75.837,179.74 76.903,180.429 77.852,180.546 C79.62,180.754 82.623,179.389 82.584,177.179 L82.584,177.179 Z M92.373,170.653 C92.36,170.64 92.36,170.627 92.36,170.614 C92.386,170.601 92.399,170.627 92.373,170.653 L92.373,170.653 Z M95.688,170.9 C95.688,169.899 93.842,170.146 93.01,170.146 C91.567,170.146 89.669,170.016 88.33,170.562 C88.005,170.692 87.55,171.186 87.55,171.615 C87.55,172.408 88.681,172.018 89.513,171.979 C89.747,171.966 90.306,171.94 90.748,171.927 C90.644,173.045 90.761,174.267 90.735,175.19 C90.709,175.827 90.709,177.166 90.67,178.349 C90.644,179.376 90.787,180.156 91.359,180.273 C92.035,180.39 92.568,179.428 92.542,178.765 C92.464,176.75 92.477,175.749 92.438,173.786 C92.425,173.188 92.503,172.551 92.503,171.914 C93.127,171.927 93.595,171.94 94.492,171.94 C94.947,171.94 95.688,171.199 95.688,170.9 L95.688,170.9 Z M98.327,179.168 C98.288,178.895 98.197,178.713 98.158,178.453 C98.067,177.972 98.119,177.452 98.119,176.932 C98.106,175.918 98.145,175.047 98.145,174.033 C98.145,173.526 98.314,172.811 97.599,172.811 C96.793,172.811 96.676,174.293 96.676,175.021 C96.676,176.503 96.715,177.92 96.715,179.428 C96.715,179.87 96.858,180.247 97.287,180.247 C97.768,180.247 98.392,179.649 98.327,179.168 L98.327,179.168 Z M98.444,170.913 C98.444,170.263 97.989,170.107 97.469,170.172 C97.001,170.237 96.507,171.069 96.507,171.329 C96.507,171.745 96.91,172.044 97.235,172.044 C97.677,172.044 98.444,171.381 98.444,170.913 L98.444,170.913 Z M104.177,179.324 C104.281,178.882 104.242,178.466 103.917,178.505 C103.475,178.557 103.163,178.921 102.578,178.843 C101.382,178.674 101.681,176.23 101.668,175.476 C101.655,175.047 101.681,174.553 101.72,174.046 L102.266,174.046 C102.734,174.046 104.138,173.799 104.138,173.084 C104.138,172.252 103.059,172.616 102.396,172.616 C102.201,172.616 102.006,172.616 101.811,172.629 C101.824,172.434 101.837,172.239 101.837,172.07 C101.837,171.706 101.967,170.978 101.798,170.731 C101.603,170.471 101.447,170.51 101.226,170.562 C100.784,170.679 100.316,171.459 100.316,172.096 L100.316,172.668 L100.303,172.668 C99.939,172.668 99.419,173.318 99.419,173.682 C99.419,174.15 99.796,174.072 100.225,174.072 L100.316,174.072 C100.316,175.229 100.316,176.178 100.303,177.478 C100.29,178.115 100.329,178.674 100.589,179.298 C100.849,179.935 101.343,180.338 101.941,180.377 C102.864,180.429 104.034,179.883 104.177,179.324 L104.177,179.324 Z M106.855,174.904 C106.855,173.552 106.946,171.745 106.816,170.471 C106.79,170.198 106.517,170.016 106.257,170.016 C105.672,170.016 105.295,170.744 105.295,171.251 C105.282,172.642 105.425,174.02 105.386,175.411 C105.36,176.594 105.321,177.582 105.269,178.752 C105.217,179.831 105.295,180.182 105.867,180.156 C106.608,180.117 106.855,179.09 106.855,178.388 L106.855,174.904 Z M113.992,175.294 C112.939,175.359 111.106,175.385 110.001,175.385 C110.248,174.709 110.794,173.89 112.133,173.89 C113.017,173.89 113.992,174.254 113.992,175.294 L113.992,175.294 Z M115.162,175.632 C115.162,174.774 114.928,173.604 114.265,172.98 C113.576,172.33 112.9,172.343 111.951,172.343 C111.054,172.343 109.78,173.201 109.364,173.851 C108.818,174.709 108.324,175.879 108.324,176.958 C108.324,178.869 110.157,180.377 111.86,180.377 C112.926,180.377 114.668,180.091 115.058,178.856 C115.136,178.596 115.097,178.141 114.863,178.141 C114.07,178.141 113.927,178.635 112.939,178.739 C112.029,178.83 111.327,178.739 111.015,178.583 C110.274,178.193 109.767,177.413 109.819,176.854 C111.262,176.854 111.912,176.88 113.355,176.88 C114.252,176.88 115.162,176.607 115.162,175.632 L115.162,175.632 Z" id="Chapter-1-Title" fill="#3B3B3B" sketch:type="MSShapeGroup"></path>
        </g>
    </g>
</svg>