<?xml version="1.0" encoding="UTF-8"?>
<svg width="1536px" height="1536px" viewBox="0 0 1536 1536" version="1.1" xmlns="http://www.w3.org/2000/svg" xmlns:xlink="http://www.w3.org/1999/xlink">
    <!-- Generator: Sketch 43.2 (39069) - http://www.bohemiancoding.com/sketch -->
    <title>Shape</title>
    <desc>Created with Sketch.</desc>
    <defs></defs>
    <g id="Page-1" stroke="none" stroke-width="1" fill="none" fill-rule="evenodd">
        <g id="icon-tumblr" fill-rule="nonzero" fill="#000000">
            <path d="M1136,1333 L1074,1150 C1044.66667,1164.66667 1010.33333,1172 971,1172 C947,1172.66667 926.333333,1169.16667 909,1161.5 C891.666667,1153.83333 878.833333,1143.33333 870.5,1130 C862.166667,1116.66667 856.333333,1103.16667 853,1089.5 C849.666667,1075.83333 848,1061.33333 848,1046 L848,648 L1105,648 L1105,454 L849,454 L849,128 L661,128 C655.666667,128 652.666667,131.333333 652,138 C648.666667,167.333333 642.833333,196.333333 634.5,225 C626.166667,253.666667 613.166667,285.333333 595.5,320 C577.833333,354.666667 552.166667,386.333333 518.5,415 C484.833333,443.666667 445.333333,466.333333 400,483 L400,648 L530,648 L530,1066 C530,1104 537.166667,1142.33333 551.5,1181 C565.833333,1219.66667 587.5,1256.66667 616.5,1292 C645.5,1327.33333 685.833333,1355.83333 737.5,1377.5 C789.166667,1399.16667 848,1409.33333 914,1408 C960,1407.33333 1005.5,1399 1050.5,1383 C1095.5,1367 1124,1350.33333 1136,1333 Z M1536,288 L1536,1248 C1536,1327.33333 1507.83333,1395.16667 1451.5,1451.5 C1395.16667,1507.83333 1327.33333,1536 1248,1536 L288,1536 C208.666667,1536 140.833333,1507.83333 84.5,1451.5 C28.1666667,1395.16667 0,1327.33333 0,1248 L0,288 C0,208.666667 28.1666667,140.833333 84.5,84.5 C140.833333,28.1666667 208.666667,0 288,0 L1248,0 C1327.33333,0 1395.16667,28.1666667 1451.5,84.5 C1507.83333,140.833333 1536,208.666667 1536,288 Z" id="Shape"></path>
        </g>
    </g>
</svg>