<?xml version="1.0" encoding="UTF-8"?>
<svg width="2304px" height="1466px" viewBox="0 0 2304 1466" version="1.1" xmlns="http://www.w3.org/2000/svg" xmlns:xlink="http://www.w3.org/1999/xlink">
    <!-- Generator: Sketch 43.2 (39069) - http://www.bohemiancoding.com/sketch -->
    <title>Shape</title>
    <desc>Created with Sketch.</desc>
    <defs></defs>
    <g id="Page-1" stroke="none" stroke-width="1" fill="none" fill-rule="evenodd">
        <g id="icon-google-plus" fill-rule="nonzero" fill="#000000">
            <path d="M1437,750 C1437,888.666667 1408,1012.16667 1350,1120.5 C1292,1228.83333 1209.33333,1313.5 1102,1374.5 C994.666667,1435.5 871.666667,1466 733,1466 C633.666667,1466 538.666667,1446.66667 448,1408 C357.333333,1369.33333 279.333333,1317.33333 214,1252 C148.666667,1186.66667 96.6666667,1108.66667 58,1018 C19.3333333,927.333333 0,832.333333 0,733 C0,633.666667 19.3333333,538.666667 58,448 C96.6666667,357.333333 148.666667,279.333333 214,214 C279.333333,148.666667 357.333333,96.6666667 448,58 C538.666667,19.3333333 633.666667,0 733,0 C923.666667,0 1087.33333,64 1224,192 L1025,383 C947,307.666667 849.666667,270 733,270 C651,270 575.166667,290.666667 505.5,332 C435.833333,373.333333 380.666667,429.5 340,500.5 C299.333333,571.5 279,649 279,733 C279,817 299.333333,894.5 340,965.5 C380.666667,1036.5 435.833333,1092.66667 505.5,1134 C575.166667,1175.33333 651,1196 733,1196 C788.333333,1196 839.166667,1188.33333 885.5,1173 C931.833333,1157.66667 970,1138.5 1000,1115.5 C1030,1092.5 1056.16667,1066.33333 1078.5,1037 C1100.83333,1007.66667 1117.16667,980 1127.5,954 C1137.83333,928 1145,903.333333 1149,880 L733,880 L733,628 L1425,628 C1433,670 1437,710.666667 1437,750 Z M2304,628 L2304,838 L2095,838 L2095,1047 L1885,1047 L1885,838 L1676,838 L1676,628 L1885,628 L1885,419 L2095,419 L2095,628 L2304,628 Z" id="Shape"></path>
        </g>
    </g>
</svg>