<?xml version="1.0" encoding="UTF-8"?>
<svg width="1409px" height="1408px" viewBox="0 0 1409 1408" version="1.1" xmlns="http://www.w3.org/2000/svg" xmlns:xlink="http://www.w3.org/1999/xlink">
    <!-- Generator: Sketch 43.2 (39069) - http://www.bohemiancoding.com/sketch -->
    <title>Shape</title>
    <desc>Created with Sketch.</desc>
    <defs></defs>
    <g id="Page-1" stroke="none" stroke-width="1" fill="none" fill-rule="evenodd">
        <g id="icon-rss" fill-rule="nonzero" fill="#000000">
            <path d="M384,1216 C384,1269.33333 365.333333,1314.66667 328,1352 C290.666667,1389.33333 245.333333,1408 192,1408 C138.666667,1408 93.3333333,1389.33333 56,1352 C18.6666667,1314.66667 0,1269.33333 0,1216 C0,1162.66667 18.6666667,1117.33333 56,1080 C93.3333333,1042.66667 138.666667,1024 192,1024 C245.333333,1024 290.666667,1042.66667 328,1080 C365.333333,1117.33333 384,1162.66667 384,1216 Z M896,1339 C897.333333,1357.66667 891.666667,1373.66667 879,1387 C867,1401 851.333333,1408 832,1408 L697,1408 C680.333333,1408 666,1402.5 654,1391.5 C642,1380.5 635.333333,1366.66667 634,1350 C619.333333,1197.33333 557.833333,1066.83333 449.5,958.5 C341.166667,850.166667 210.666667,788.666667 58,774 C41.3333333,772.666667 27.5,766 16.5,754 C5.5,742 0,727.666667 0,711 L0,576 C0,556.666667 7,541 21,529 C32.3333333,517.666667 46.6666667,512 64,512 L69,512 C175.666667,520.666667 277.666667,547.5 375,592.5 C472.333333,637.5 558.666667,698 634,774 C710,849.333333 770.5,935.666667 815.5,1033 C860.5,1130.33333 887.333333,1232.33333 896,1339 Z M1408,1341 C1409.33333,1359 1403.33333,1374.66667 1390,1388 C1378,1401.33333 1362.66667,1408 1344,1408 L1201,1408 C1183.66667,1408 1168.83333,1402.16667 1156.5,1390.5 C1144.16667,1378.83333 1137.66667,1364.66667 1137,1348 C1129,1204.66667 1095.33333,1068.5 1036,939.5 C976.666667,810.5 899.5,698.5 804.5,603.5 C709.5,508.5 597.5,431.333333 468.5,372 C339.5,312.666667 203.333333,278.666667 60,270 C43.3333333,269.333333 29.1666667,262.833333 17.5,250.5 C5.83333333,238.166667 0,223.666667 0,207 L0,64 C0,45.3333333 6.66666667,30 20,18 C32,6 46.6666667,0 64,0 L67,0 C241.666667,8.66666667 408.833333,48.6666667 568.5,120 C728.166667,191.333333 870,289.333333 994,414 C1118.66667,538 1216.66667,679.833333 1288,839.5 C1359.33333,999.166667 1399.33333,1166.33333 1408,1341 Z" id="Shape"></path>
        </g>
    </g>
</svg>