<?xml version="1.0" encoding="UTF-8"?>
<svg width="427px" height="452px" viewBox="0 0 427 452" version="1.1" xmlns="http://www.w3.org/2000/svg" xmlns:xlink="http://www.w3.org/1999/xlink">
    <!-- Generator: Sketch 43.1 (39012) - http://www.bohemiancoding.com/sketch -->
    <title>Logo</title>
    <desc>Created with Sketch.</desc>
    <defs></defs>
    <g id="Page-1" stroke="none" stroke-width="1" fill="none" fill-rule="evenodd">
        <g id="Logo">
            <g id="logo1" transform="translate(26.000000, 27.000000)">
                <g id="Group" transform="translate(0.834140, 0.783540)" fill-rule="nonzero" fill="#FFD580">
                    <path d="M46.4720117,302.366081 C24.0408969,326.735618 0.40105296,334.21637 2.94662522,338.931528 C5.63423707,343.908483 41.375297,345.927674 72.2201688,339.204466 C108.398488,380.543557 159.468683,402.498422 227.215997,390.553171 C341.31835,370.430895 377.828094,280.617313 369.219381,169.865424 C360.610668,59.1135353 279.380733,-15.9112192 159.279297,5.27217537 C39.177861,26.4444296 -9.72553428,128.843834 18.2952562,231.738984 C25.2551961,257.292184 34.6019582,281.185471 46.4720117,302.366081" id="Shape"></path>
                </g>
                <g id="Group" transform="translate(226.426430, 287.647810)" fill-rule="nonzero" fill="#FFEABF">
                    <path d="M23.611993,12.8364798 C23.611993,6.39178155 18.3788089,1.16416762 11.9313256,1.16416762 C5.47827203,1.16416762 0.24787301,6.39178155 0.24787301,12.8364798 C0.24787301,19.278393 5.47827203,24.5032218 11.9313256,24.5032218 C18.3788089,24.5032218 23.611993,19.278393 23.611993,12.8364798" id="Shape"></path>
                </g>
                <g id="Group" transform="translate(179.079900, 298.788170)" fill-rule="nonzero" fill="#FFEABF">
                    <path d="M14.1009107,24.260919 C20.5511791,24.260919 25.7815781,19.0388752 25.7815781,12.5886068 C25.7815781,6.14112345 20.5511791,0.91350952 14.1009107,0.91350952 C7.65064223,0.91350952 2.41745812,6.14112345 2.41745812,12.5886068 C2.41745812,19.0388752 7.65064223,24.260919 14.1009107,24.260919" id="Shape"></path>
                </g>
                <g id="Group" transform="translate(134.518460, 307.143440)" fill-rule="nonzero" fill="#FFEABF">
                    <path d="M13.4854058,25.2412707 C19.9356742,25.2412707 25.1688583,20.0192269 25.1688583,13.5745287 C25.1688583,7.12704531 19.9356742,1.89943138 13.4854058,1.89943138 C7.03513734,1.89943138 1.80473832,7.12704531 1.80473832,13.5745287 C1.80473832,20.0192269 7.03513734,25.2412707 13.4854058,25.2412707" id="Shape"></path>
                </g>
                <g id="Group" transform="translate(106.667560, 293.217990)" fill-rule="nonzero" fill="#FFEABF">
                    <path d="M14.0758449,25.157718 C20.9605873,25.157718 26.5391226,19.587538 26.5391226,12.7111508 C26.5391226,5.83754864 20.9605873,0.26179846 14.0758449,0.26179846 C7.19388747,0.26179846 1.61256711,5.83754864 1.61256711,12.7111508 C1.61256711,19.587538 7.19388747,25.157718 14.0758449,25.157718" id="Shape"></path>
                </g>
                <g id="Group" transform="translate(120.593010, 265.367090)" fill-rule="nonzero" fill="#FFEABF">
                    <path d="M28.190681,15.6661312 C28.190681,7.93193632 21.9130881,1.65991364 14.1705379,1.65991364 C6.42798772,1.65991364 0.15039486,7.93193632 0.15039486,15.6661312 C0.15039486,23.4003262 6.42798772,29.6723489 14.1705379,29.6723489 C21.9130881,29.6723489 28.190681,23.4003262 28.190681,15.6661312" id="Shape"></path>
                </g>
                <g id="Group" transform="translate(76.031570, 273.722360)" fill-rule="nonzero" fill="#FFEABF">
                    <path d="M2.65419077,15.8666577 C2.65419077,23.1719488 8.58086229,29.0958352 15.8945086,29.0958352 C23.208155,29.0958352 29.1376116,23.1719488 29.1376116,15.8666577 C29.1376116,8.56136666 23.208155,2.64305041 15.8945086,2.64305041 C8.58086229,2.64305041 2.65419077,8.56136666 2.65419077,15.8666577" id="Shape"></path>
                </g>
                <g id="Group" transform="translate(48.180670, 259.796910)" fill-rule="nonzero" fill="#FFEABF">
                    <path d="M0.90793934,15.0144202 C0.90793934,22.7430449 7.18274711,29.0150676 14.9280824,29.0150676 C22.6706326,29.0150676 28.9454404,22.7430449 28.9454404,15.0144202 C28.9454404,7.28022526 22.6706326,1.00820258 14.9280824,1.00820258 C7.18274711,1.00820258 0.90793934,7.28022526 0.90793934,15.0144202" id="Shape"></path>
                </g>
                <g id="Group" transform="translate(62.106120, 301.573260)" fill-rule="nonzero" fill="#FFEABF">
                    <path d="M25.9264028,13.6915024 C25.9264028,6.81511523 20.3478675,1.24493523 13.4631251,1.24493523 C6.58116767,1.24493523 1.0026324,6.81511523 1.0026324,13.6915024 C1.0026324,20.5678897 6.58116767,26.1436398 13.4631251,26.1436398 C20.3478675,26.1436398 25.9264028,20.5678897 25.9264028,13.6915024" id="Shape"></path>
                </g>
                <g id="Group" transform="translate(37.040310, 284.862720)" fill-rule="nonzero" fill="#FFEABF">
                    <path d="M22.9519267,13.2904495 C22.9519267,6.41406227 17.3733914,0.83831209 10.4886489,0.83831209 C7.52531318,0.83831209 4.80985043,1.87715066 2.67090131,3.60112137 C5.08278925,8.61706846 7.60051061,13.5299672 10.2658417,18.289686 C8.34134455,20.3785035 6.405707,22.341992 4.47842472,24.1912917 C6.26088232,25.1772136 8.30792347,25.7425869 10.4886489,25.7425869 C17.3733914,25.7425869 22.9519267,20.1668367 22.9519267,13.2904495" id="Shape"></path>
                </g>
                <g id="Group" transform="translate(151.229000, 282.077630)" fill-rule="nonzero" fill="#FFEABF">
                    <path d="M27.1546275,15.2957143 C27.1546275,7.98485303 21.2251709,2.06653678 13.9115245,2.06653678 C6.6006633,2.06653678 0.67120669,7.98485303 0.67120669,15.2957143 C0.67120669,22.6010054 6.6006633,28.5248918 13.9115245,28.5248918 C21.2251709,28.5248918 27.1546275,22.6010054 27.1546275,15.2957143" id="Shape"></path>
                </g>
                <g id="Group" transform="translate(193.005350, 270.937270)" fill-rule="nonzero" fill="#FFEABF">
                    <path d="M28.995572,15.5408022 C28.995572,8.23551113 23.0689005,2.3116247 15.752469,2.3116247 C8.44160779,2.3116247 2.51215118,8.23551113 2.51215118,15.5408022 C2.51215118,22.8460933 8.44160779,28.7644095 15.752469,28.7644095 C23.0689005,28.7644095 28.995572,22.8460933 28.995572,15.5408022" id="Shape"></path>
                </g>
                <g id="Group" transform="translate(240.351880, 259.796910)" fill-rule="nonzero" fill="#FFEABF">
                    <path d="M26.8232018,15.7914603 C26.8232018,8.48616923 20.8965303,2.5622828 13.5800988,2.5622828 C6.26923759,2.5622828 0.33978098,8.48616923 0.33978098,15.7914603 C0.33978098,23.0967514 6.26923759,29.0150676 13.5800988,29.0150676 C20.8965303,29.0150676 26.8232018,23.0967514 26.8232018,15.7914603" id="Shape"></path>
                </g>
                <g id="Group" transform="translate(254.277330, 234.731100)" fill-rule="nonzero" fill="#FFEABF">
                    <path d="M1.99133935,15.9557806 C1.99133935,23.2610717 7.92079596,29.1849581 15.2316572,29.1849581 C22.5425185,29.1849581 28.4719751,23.2610717 28.4719751,15.9557806 C28.4719751,8.65605972 22.5425185,2.73217329 15.2316572,2.73217329 C7.92079596,2.73217329 1.99133935,8.65605972 1.99133935,15.9557806" id="Shape"></path>
                </g>
                <g id="Group" transform="translate(209.715890, 248.656550)" fill-rule="nonzero" fill="#FFEABF">
                    <path d="M1.37861955,14.3766346 C1.37861955,22.1052593 7.65621241,28.377282 15.4015477,28.377282 C23.1413128,28.377282 29.4189057,22.1052593 29.4189057,14.3766346 C29.4189057,6.63686947 23.1413128,0.37041697 15.4015477,0.37041697 C7.65621241,0.37041697 1.37861955,6.63686947 1.37861955,14.3766346" id="Shape"></path>
                </g>
                <g id="Group" transform="translate(298.838770, 229.160920)" fill-rule="nonzero" fill="#FFEABF">
                    <path d="M25.9737493,12.9701641 C25.9737493,6.09377692 20.392429,0.52081183 13.5104716,0.52081183 C6.62572911,0.52081183 1.04719384,6.09377692 1.04719384,12.9701641 C1.04719384,19.8437662 6.62572911,25.4139462 13.5104716,25.4139462 C20.392429,25.4139462 25.9737493,19.8437662 25.9737493,12.9701641" id="Shape"></path>
                </g>
                <g id="Group" transform="translate(312.764220, 201.310020)" fill-rule="nonzero" fill="#FFEABF">
                    <path d="M29.182173,15.1453194 C29.182173,7.84002835 23.2527164,1.91614192 15.9418552,1.91614192 C8.63099391,1.91614192 2.69875221,7.84002835 2.69875221,15.1453194 C2.69875221,22.4506105 8.63099391,28.3717118 15.9418552,28.3717118 C23.2527164,28.3717118 29.182173,22.4506105 29.182173,15.1453194" id="Shape"></path>
                </g>
                <g id="Group" transform="translate(268.202780, 212.450380)" fill-rule="nonzero" fill="#FFEABF">
                    <path d="M2.08603241,14.1204063 C2.08603241,21.8518161 8.36084018,28.1238388 16.1061755,28.1238388 C23.8487257,28.1238388 30.1235334,21.8518161 30.1235334,14.1204063 C30.1235334,6.38342628 23.8487257,0.11697378 16.1061755,0.11697378 C8.36084018,0.11697378 2.08603241,6.38342628 2.08603241,14.1204063" id="Shape"></path>
                </g>
                <g id="Group" transform="translate(223.641340, 220.805650)" fill-rule="nonzero" fill="#FFEABF">
                    <path d="M31.070464,15.8805832 C31.070464,7.7146993 24.4447349,1.09454037 16.2732809,1.09454037 C8.09625663,1.09454037 1.4760977,7.7146993 1.4760977,15.8805832 C1.4760977,24.043682 8.09625663,30.6582707 16.2732809,30.6582707 C24.4447349,30.6582707 31.070464,24.043682 31.070464,15.8805832" id="Shape"></path>
                </g>
                <g id="Group" transform="translate(284.913320, 187.384570)" fill-rule="nonzero" fill="#FFEABF">
                    <path d="M30.5524373,15.0645518 C30.5524373,6.89866793 23.9267082,0.28129409 15.752469,0.28129409 C7.57822989,0.28129409 0.95528587,6.89866793 0.95528587,15.0645518 C0.95528587,23.2304357 7.57822989,29.8505946 15.752469,29.8505946 C23.9267082,29.8505946 30.5524373,23.2304357 30.5524373,15.0645518" id="Shape"></path>
                </g>
                <g id="Group" transform="translate(329.474760, 176.244210)" fill-rule="nonzero" fill="#FFEABF">
                    <path d="M28.0514265,14.5325996 C28.0514265,6.80118978 21.7710485,0.5291671 14.0312834,0.5291671 C6.28873322,0.5291671 0.01114036,6.80118978 0.01114036,14.5325996 C0.01114036,22.2695796 6.28873322,28.5416023 14.0312834,28.5416023 C21.7710485,28.5416023 28.0514265,22.2695796 28.0514265,14.5325996" id="Shape"></path>
                </g>
                <g id="Group" transform="translate(165.154450, 254.226730)" fill-rule="nonzero" fill="#FFEABF">
                    <path d="M28.8034008,15.9112192 C28.8034008,8.18259442 22.5258079,1.91057174 14.7860428,1.91057174 C7.04070752,1.91057174 0.76311466,8.18259442 0.76311466,15.9112192 C0.76311466,23.6509843 7.04070752,29.9174368 14.7860428,29.9174368 C22.5258079,29.9174368 28.8034008,23.6509843 28.8034008,15.9112192" id="Shape"></path>
                </g>
                <g id="Group" transform="translate(89.957020, 248.656550)" fill-rule="nonzero" fill="#FFEABF">
                    <path d="M32.3460353,16.0365482 C32.3460353,7.87623452 25.7203061,1.25607559 17.546067,1.25607559 C9.37461294,1.25607559 2.74888383,7.87623452 2.74888383,16.0365482 C2.74888383,24.2024321 9.37461294,30.822591 17.546067,30.822591 C25.7203061,30.822591 32.3460353,24.2024321 32.3460353,16.0365482" id="Shape"></path>
                </g>
                <g id="Group" transform="translate(360.110750, 192.954750)" fill-rule="nonzero" fill="#FFEABF">
                    <path d="M11.0623775,1.44267662 C5.87932499,2.94941031 2.0888175,7.72026948 2.0888175,13.3823574 C2.0888175,18.907976 5.68715378,23.581357 10.6696798,25.2134198 C11.079088,17.4402336 11.2072022,9.50829726 11.0623775,1.44267662" id="Shape"></path>
                </g>
                <g id="Group" transform="translate(268.202780, 279.292540)" fill-rule="nonzero" fill="#FFEABF">
                    <path d="M23.8932871,12.6359533 C23.8932871,6.61458875 19.0138094,1.74068125 12.9896598,1.74068125 C6.96829518,1.74068125 2.08603241,6.61458875 2.08603241,12.6359533 C2.08603241,18.6461776 6.96829518,23.5256552 12.9896598,23.5256552 C19.0138094,23.5256552 23.8932871,18.6461776 23.8932871,12.6359533" id="Shape"></path>
                </g>
                <g id="Group" transform="translate(282.128230, 254.226730)" fill-rule="nonzero" fill="#FFEABF">
                    <path d="M24.8764239,13.5773137 C24.8764239,7.13540058 19.6460249,1.91057174 13.1929713,1.91057174 C6.7399178,1.91057174 1.50951878,7.13540058 1.50951878,13.5773137 C1.50951878,20.022012 6.7399178,25.2496259 13.1929713,25.2496259 C19.6460249,25.2496259 24.8764239,20.022012 24.8764239,13.5773137" id="Shape"></path>
                </g>
                <g id="Group" transform="translate(346.185300, 218.020560)" fill-rule="nonzero" fill="#FFEABF">
                    <path d="M12.1207117,2.32555015 C5.66765815,2.32555015 0.43725913,7.5475939 0.43725913,13.9922922 C0.43725913,20.4453457 5.66765815,25.6673894 12.1207117,25.6673894 C17.2842685,25.6673894 21.6150835,22.3002156 23.1608084,17.6574706 C23.3390542,16.061614 23.5340105,14.4713276 23.6871904,12.8615456 C23.1078917,6.95158464 18.1810675,2.32555015 12.1207117,2.32555015" id="Shape"></path>
                </g>
                <g id="Group" transform="translate(332.259850, 243.086370)" fill-rule="nonzero" fill="#FFEABF">
                    <path d="M22.1498208,13.0509317 C22.1498208,7.03235225 17.267558,2.15565966 11.2434083,2.15565966 C5.21925866,2.15565966 0.33978098,7.03235225 0.33978098,13.0509317 C0.33978098,19.061156 5.21925866,23.9406336 11.2434083,23.9406336 C17.267558,23.9406336 22.1498208,19.061156 22.1498208,13.0509317" id="Shape"></path>
                </g>
                <g id="Group" transform="translate(315.549310, 270.937270)" fill-rule="nonzero" fill="#FFEABF">
                    <path d="M21.7209169,10.8729914 C21.7209169,5.28610082 17.1923606,0.76032957 11.5971148,0.76032957 C6.00465404,0.76032957 1.47331261,5.28610082 1.47331261,10.8729914 C1.47331261,16.4598819 6.00465404,20.9912233 11.5971148,20.9912233 C17.1923606,20.9912233 21.7209169,16.4598819 21.7209169,10.8729914" id="Shape"></path>
                </g>
                <g id="Group" transform="translate(298.838770, 296.003080)" fill-rule="nonzero" fill="#FFEABF">
                    <path d="M21.3003683,9.92884585 C21.3003683,4.77085917 17.1143781,0.58765399 11.9536063,0.58765399 C6.79283451,0.58765399 2.60684424,4.77085917 2.60684424,9.92884585 C2.60684424,15.0868325 6.79283451,19.2644675 11.9536063,19.2644675 C17.1143781,19.2644675 21.3003683,15.0868325 21.3003683,9.92884585" id="Shape"></path>
                </g>
                <g id="Group" transform="translate(357.325660, 265.367090)" fill-rule="nonzero" fill="#FFEABF">
                    <path d="M1.75739179,9.44424019 C1.75739179,11.14036 2.24478254,12.7139359 3.04131828,14.0897703 C4.35031058,9.89542477 5.57018,5.64816252 6.63408438,1.28949667 C3.74037587,2.87978306 1.75739179,5.91274607 1.75739179,9.44424019" id="Shape"></path>
                </g>
                <g id="Group" transform="translate(284.913320, 321.068890)" fill-rule="nonzero" fill="#FFEABF">
                    <path d="M10.2992628,1.98019899 C6.00186895,1.98019899 2.51215118,5.46156149 2.51215118,9.75895536 C2.51215118,14.0563492 6.00186895,17.5377117 10.2992628,17.5377117 C14.6022269,17.5377117 18.0891595,14.0563492 18.0891595,9.75895536 C18.0891595,5.46156149 14.6022269,1.98019899 10.2992628,1.98019899" id="Shape"></path>
                </g>
                <g id="Group" transform="translate(343.400210, 290.432900)" fill-rule="nonzero" fill="#FFEABF">
                    <path d="M1.66269873,9.26877952 C1.66269873,12.3630145 3.4813625,15.00885 6.09377692,16.2649256 C8.39147617,11.6723122 10.4970042,6.94601446 12.410361,2.08324732 C11.4968515,1.70726017 10.4997893,1.49559333 9.45259546,1.49559333 C5.14684632,1.49559333 1.66269873,4.97695583 1.66269873,9.26877952" id="Shape"></path>
                </g>
                <g id="Group" transform="translate(106.667560, 360.060150)" fill-rule="nonzero" fill="#FFEABF">
                    <path d="M8.62263864,1.8938612 C4.75136354,1.8938612 1.61256711,5.02708745 1.61256711,8.89557746 C1.61256711,9.5528587 1.73511107,10.1795039 1.90500156,10.7810834 C4.60653886,12.5134094 7.36099287,14.1538274 10.1739338,15.7106927 C13.2960197,15.0032798 15.6354953,12.2293302 15.6354953,8.89557746 C15.6354953,5.02708745 12.4966988,1.8938612 8.62263864,1.8938612" id="Shape"></path>
                </g>
                <g id="Group" transform="translate(81.601750, 343.349610)" fill-rule="nonzero" fill="#FFEABF">
                    <path d="M7.20781292,1.47888279 C4.10243757,1.47888279 1.49837842,3.51199849 0.57651363,6.30822885 C3.61504682,9.31334096 6.74270289,12.1847688 9.96505202,14.9197271 C12.4660628,13.8474675 14.2178845,11.3743076 14.2178845,8.48616923 C14.2178845,4.61767922 11.079088,1.47888279 7.20781292,1.47888279" id="Shape"></path>
                </g>
                <g id="Group" transform="translate(270.987870, 348.919790)" fill-rule="nonzero" fill="#FFEABF">
                    <path d="M7.09083914,0.58208381 C3.6484679,0.58208381 0.86059281,3.37274399 0.86059281,6.80954505 C0.86059281,10.2491312 3.6484679,13.0342212 7.09083914,13.0342212 C10.5304253,13.0342212 13.3210855,10.2491312 13.3210855,6.80954505 C13.3210855,3.37274399 10.5304253,0.58208381 7.09083914,0.58208381" id="Shape"></path>
                </g>
                <g id="Group" transform="translate(329.474760, 318.283800)" fill-rule="nonzero" fill="#FFEABF">
                    <path d="M6.24138669,0.09190797 C2.79901545,0.09190797 0.01114036,2.88256815 0.01114036,6.31936921 C0.01114036,9.38853839 2.23642727,11.9229703 5.16077177,12.4354268 C7.41669467,9.4414551 9.5807096,6.37507101 11.6110402,3.21399386 C10.5359955,1.35912392 8.54744121,0.09190797 6.24138669,0.09190797" id="Shape"></path>
                </g>
                <g id="Group" transform="translate(226.426430, 357.275060)" fill-rule="nonzero" fill="#FFEABF">
                    <path d="M8.03498465,1.56800567 C4.59261341,1.56800567 1.80473832,4.35309567 1.80473832,7.78989673 C1.80473832,11.2294829 4.59261341,14.0145729 8.03498465,14.0145729 C11.4745708,14.0145729 14.265231,11.2294829 14.265231,7.78989673 C14.265231,4.35309567 11.4745708,1.56800567 8.03498465,1.56800567" id="Shape"></path>
                </g>
                <g id="Group" transform="translate(181.864990, 368.415420)" fill-rule="nonzero" fill="#FFEABF">
                    <path d="M8.19930496,1.31734757 C5.19140776,1.31734757 2.74888383,3.75430132 2.74888383,6.76219852 C2.74888383,9.77009572 5.19140776,12.2070495 8.19930496,12.2070495 C11.2127723,12.2070495 13.6525112,9.77009572 13.6525112,6.76219852 C13.6525112,3.75430132 11.2127723,1.31734757 8.19930496,1.31734757" id="Shape"></path>
                </g>
                <g id="Group" transform="translate(212.500980, 385.125960)" fill-rule="nonzero" fill="#FFEABF">
                    <path d="M4.82377588,1.71840053 C2.24199745,1.71840053 0.15039486,3.81278821 0.15039486,6.39178155 C0.15039486,7.07691369 0.3063599,7.72305457 0.57094345,8.31070856 C3.49250286,8.00156357 6.43077281,7.64785714 9.4136042,7.20224274 C9.46373582,6.94044428 9.4971569,6.66750546 9.4971569,6.39178155 C9.4971569,3.81278821 7.40276922,1.71840053 4.82377588,1.71840053" id="Shape"></path>
                </g>
                <g id="Group" transform="translate(257.062420, 373.985600)" fill-rule="nonzero" fill="#FFEABF">
                    <path d="M5.43928077,0.41219332 C2.85750234,0.41219332 0.76589975,2.50101082 0.76589975,5.08000416 C0.76589975,6.83182577 1.74346634,8.34412964 3.1750026,9.13788029 C5.4030746,8.37476563 7.62557642,7.60886588 9.78402117,6.78169415 C9.99011783,6.25531214 10.1126618,5.68436869 10.1126618,5.08000416 C10.1126618,2.50101082 8.0210592,0.41219332 5.43928077,0.41219332" id="Shape"></path>
                </g>
                <g id="Group" transform="translate(312.764220, 340.564520)" fill-rule="nonzero" fill="#FFEABF">
                    <path d="M2.7015373,7.3804885 C2.7015373,8.41932707 3.05245864,9.37182785 3.62897227,10.148868 C5.91831625,8.07119082 8.12689262,5.9322417 10.2547014,3.72923551 C9.46095073,3.09980517 8.4666736,2.71267766 7.37491832,2.71267766 C4.79313989,2.71267766 2.7015373,4.80149516 2.7015373,7.3804885" id="Shape"></path>
                </g>
                <g id="Group" transform="translate(137.303550, 376.770690)" fill-rule="nonzero" fill="#FFEABF">
                    <path d="M6.80675996,2.29491416 C4.22776662,2.29491416 2.13616403,4.38930184 2.13616403,6.962725 C2.13616403,7.83724326 2.38960722,8.64213427 2.80458563,9.34397695 C4.74579336,10.0096135 6.70928181,10.6390438 8.69505098,11.232268 C10.335469,10.5081446 11.480141,8.87051165 11.480141,6.962725 C11.480141,4.38930184 9.39132348,2.29491416 6.80675996,2.29491416" id="Shape"></path>
                </g>
                <g id="Group" transform="translate(240.351880, 329.424160)" fill-rule="nonzero" fill="#FFEABF">
                    <path d="M8.90671782,1.40368536 C4.177635,1.40368536 0.33978098,5.23875429 0.33978098,9.96505202 C0.33978098,14.6885647 4.177635,18.5208485 8.90671782,18.5208485 C13.6385857,18.5208485 17.4764398,14.6885647 17.4764398,9.96505202 C17.4764398,5.23875429 13.6385857,1.40368536 8.90671782,1.40368536" id="Shape"></path>
                </g>
                <g id="Group" transform="translate(193.005350, 340.564520)" fill-rule="nonzero" fill="#FFEABF">
                    <path d="M11.079088,1.15302726 C6.3500052,1.15302726 2.51215118,4.98809619 2.51215118,9.71439392 C2.51215118,14.4406917 6.3500052,18.2757606 11.079088,18.2757606 C15.8109559,18.2757606 19.64881,14.4406917 19.64881,9.71439392 C19.64881,4.98809619 15.8109559,1.15302726 11.079088,1.15302726" id="Shape"></path>
                </g>
                <g id="Group" transform="translate(151.229000, 348.919790)" fill-rule="nonzero" fill="#FFEABF">
                    <path d="M8.45831833,2.13894912 C4.15813937,2.13894912 0.67120669,5.62031162 0.67120669,9.92327567 C0.67120669,14.2150994 4.15813937,17.702032 8.45831833,17.702032 C12.7612824,17.702032 16.2482151,14.2150994 16.2482151,9.92327567 C16.2482151,5.62031162 12.7612824,2.13894912 8.45831833,2.13894912" id="Shape"></path>
                </g>
                <g id="Group" transform="translate(254.277330, 304.358350)" fill-rule="nonzero" fill="#FFEABF">
                    <path d="M11.4467199,21.8016845 C17.0391806,21.8016845 21.5733071,17.2759133 21.5733071,11.6834525 C21.5733071,6.09656201 17.0391806,1.57079076 11.4467199,1.57079076 C5.85425918,1.57079076 1.32013266,6.09656201 1.32013266,11.6834525 C1.32013266,17.2759133 5.85425918,21.8016845 11.4467199,21.8016845" id="Shape"></path>
                </g>
                <g id="Group" transform="translate(209.715890, 315.498710)" fill-rule="nonzero" fill="#FFEABF">
                    <path d="M11.5052068,21.5565966 C17.0976675,21.5565966 21.631794,17.0252552 21.631794,11.4383646 C21.631794,5.85147409 17.0976675,1.32570284 11.5052068,1.32570284 C5.91274607,1.32570284 1.37861955,5.85147409 1.37861955,11.4383646 C1.37861955,17.0252552 5.91274607,21.5565966 11.5052068,21.5565966" id="Shape"></path>
                </g>
                <g id="Group" transform="translate(165.154450, 323.853980)" fill-rule="nonzero" fill="#FFEABF">
                    <path d="M22.5759395,10.861851 C22.5759395,5.27496046 18.041813,0.74918921 12.4493523,0.74918921 C6.85689158,0.74918921 2.32276506,5.27496046 2.32276506,10.861851 C2.32276506,16.4487415 6.85689158,20.9745128 12.4493523,20.9745128 C18.041813,20.9745128 22.5759395,16.4487415 22.5759395,10.861851" id="Shape"></path>
                </g>
                <g id="Group" transform="translate(120.593010, 334.994340)" fill-rule="nonzero" fill="#FFEABF">
                    <path d="M11.0568073,0.5013162 C5.89603553,0.5013162 1.71004526,4.68452138 1.71004526,9.83693788 C1.71004526,14.9921395 5.89603553,19.1753447 11.0568073,19.1753447 C16.2175791,19.1753447 20.4035693,14.9921395 20.4035693,9.83693788 C20.4035693,4.68452138 16.2175791,0.5013162 11.0568073,0.5013162" id="Shape"></path>
                </g>
                <g id="Group" transform="translate(92.742110, 318.283800)" fill-rule="nonzero" fill="#FFEABF">
                    <path d="M21.7710485,11.7670053 C21.7710485,6.18011471 17.2397071,1.65434346 11.6472464,1.65434346 C6.05478566,1.65434346 1.52065914,6.18011471 1.52065914,11.7670053 C1.52065914,17.3538958 6.05478566,21.8852372 11.6472464,21.8852372 C17.2397071,21.8852372 21.7710485,17.3538958 21.7710485,11.7670053" id="Shape"></path>
                </g>
                <g id="Group" transform="translate(48.180670, 326.639070)" fill-rule="nonzero" fill="#FFEABF">
                    <path d="M10.2547014,2.63191005 C5.09114452,2.63191005 0.90793934,6.80954505 0.90793934,11.9675317 C0.90793934,13.7277086 1.42596608,15.3542012 2.27263344,16.7634567 C7.85673889,16.2537852 13.5773137,15.5018109 19.217121,14.4796829 C19.4427133,13.6747919 19.6014634,12.84205 19.6014634,11.9675317 C19.6014634,6.80954505 15.4182582,2.63191005 10.2547014,2.63191005" id="Shape"></path>
                </g>
                <g id="Group" transform="translate(20.329770, 312.713620)" fill-rule="nonzero" fill="#FFEABF">
                    <path d="M14.6523585,2.24756763 C9.8313677,6.34443502 5.19419285,9.747815 1.0304833,12.6164577 C2.05539642,16.6631935 5.69272396,19.6710907 10.0653153,19.6710907 C15.226087,19.6710907 19.4092922,15.4934557 19.4092922,10.335469 C19.4092922,6.85410649 17.4792248,3.85177947 14.6523585,2.24756763" id="Shape"></path>
                </g>
                <g id="Group" transform="translate(9.189410, 0.783540)" fill-rule="nonzero" fill="#FFEABF">
                    <path d="M15.752469,172.878892 C19.5457616,172.878892 23.0744706,171.778781 26.0684424,169.904415 C26.3720172,172.090711 27.0543643,174.157248 28.0764923,176.023258 C27.8620404,176.012118 27.6503735,175.989837 27.4359216,175.989837 C23.2527164,175.989837 19.4232177,177.491001 16.4487415,179.978086 C16.493303,179.432208 16.5322942,178.877975 16.5322942,178.323743 C16.5322942,176.429881 16.2482151,174.608432 15.7441138,172.878892 L15.752469,172.878892 Z M25.9848897,103.382541 C26.087938,104.404669 26.2940347,105.396161 26.5446928,106.362587 C25.1437925,106.646666 23.795809,107.07557 22.5146676,107.629803 C22.3447771,106.485131 22.0885488,105.37388 21.7348424,104.30162 C23.2053699,104.154011 24.6257658,103.83094 25.9848897,103.382541 L25.9848897,103.382541 Z M38.4175315,144.838605 C38.5540009,146.660054 38.9466986,148.411876 39.5315675,150.069004 C37.9802723,150.444992 36.5041746,151.010365 35.1394805,151.765124 C34.9723751,149.78771 34.5100502,147.899419 33.7970671,146.136457 C35.4068492,145.880229 36.9581443,145.45411 38.4175315,144.838605 L38.4175315,144.838605 Z M40.6762394,218.005705 C35.6742178,218.005705 31.2041484,220.253272 28.2046064,223.787552 C28.7114928,222.211191 28.9927869,220.528996 28.9927869,218.782745 C28.9927869,215.624453 28.0792774,212.680613 26.5224121,210.179602 C26.8259869,210.193527 27.1267766,210.226948 27.4359216,210.226948 C31.6191268,210.226948 35.4486255,208.725785 38.4231016,206.235915 C38.37297,206.781792 38.3395489,207.33324 38.3395489,207.893043 C38.3395489,211.66684 39.5148569,215.162128 41.5117664,218.050266 C41.2332574,218.033556 40.9575335,218.005705 40.6762394,218.005705 L40.6762394,218.005705 Z M43.7899701,185.331029 C47.5693372,185.331029 51.0701953,184.155721 53.9583337,182.158811 C53.9444082,182.43732 53.9165573,182.707474 53.9165573,182.991553 C53.9165573,185.492564 54.434584,187.876601 55.3648041,190.037831 C51.21502,190.241143 47.4412231,191.84814 44.5057382,194.402067 C44.5363742,193.973163 44.5697953,193.544259 44.5697953,193.109785 C44.5697953,190.280134 43.8735228,187.620373 42.6592235,185.269757 C43.0324256,185.294823 43.4084127,185.331029 43.7899701,185.331029 L43.7899701,185.331029 Z M55.515199,119.212992 C55.5681157,120.602752 55.763072,121.953521 56.0833573,123.254158 C54.2062067,123.488106 52.4070385,123.958786 50.7248442,124.666199 C50.6329362,123.454684 50.4324097,122.273806 50.1371902,121.126349 C52.0421917,120.744792 53.844145,120.087511 55.515199,119.212992 L55.515199,119.212992 Z M70.3485883,218.913644 C69.7999256,220.590268 69.4935657,222.372726 69.4935657,224.227596 C69.4935657,227.090668 70.2037636,229.77828 71.4459138,232.142822 C70.8053431,232.064839 70.1564171,232.009137 69.4935657,232.009137 C63.8454032,232.009137 58.9130088,235.02539 56.1808355,239.526095 C56.723928,237.896818 57.033073,236.158921 57.033073,234.345828 C57.033073,231.170825 56.1084231,228.210275 54.5376324,225.700909 C55.1030056,225.753825 55.6739491,225.787246 56.2532478,225.787246 C61.9793929,225.787246 67.0677523,223.091279 70.3485883,218.913644 L70.3485883,218.913644 Z M69.6216798,160.262434 C69.813851,161.969694 70.2316145,163.601757 70.8359791,165.147482 C67.4409544,165.334083 64.2965877,166.448119 61.6646777,168.266783 C61.675818,167.988274 61.706454,167.715335 61.706454,167.431256 C61.706454,166.024785 61.5282083,164.665661 61.2190633,163.351099 C64.2910176,162.952831 67.1429497,161.875001 69.6216798,160.262434 L69.6216798,160.262434 Z M70.1369215,95.5703634 C70.401505,96.6537634 70.7301456,97.7093125 71.1506942,98.7203001 C69.4545744,99.1129978 67.8420073,99.7117922 66.3380587,100.499973 C66.2990675,99.5363315 66.2043744,98.5894009 66.037269,97.6703212 C67.4688052,97.0854523 68.8334993,96.3752544 70.1369215,95.5703634 L70.1369215,95.5703634 Z M83.6557483,196.410117 C83.5694105,197.11196 83.5164938,197.827728 83.5164938,198.554636 C83.5164938,201.676722 84.3185998,204.606637 85.7250702,207.160564 C80.6645617,207.422363 76.188922,209.867672 73.2283714,213.582982 C73.8299508,211.794954 74.1697318,209.884382 74.1697318,207.893043 C74.1697318,205.386462 73.651705,203.00521 72.721485,200.841195 C76.9074753,200.635099 80.7091231,199.003036 83.6557483,196.410117 L83.6557483,196.410117 Z M84.01781,136.856538 C84.1932707,137.633578 84.4272183,138.385552 84.6890167,139.126386 C82.5444974,139.610992 80.5392326,140.446519 78.7289241,141.571695 C78.631446,140.516146 78.4810511,139.474522 78.2331781,138.47189 C80.271864,138.218447 82.2158568,137.664214 84.01781,136.856538 L84.01781,136.856538 Z M88.966915,177.549488 C92.7184312,177.549488 96.208149,176.468873 99.1826251,174.633498 C99.3831516,176.783588 99.9568801,178.813918 100.823043,180.691069 C96.5256492,180.833109 92.618168,182.484667 89.6047006,185.133288 C89.6882533,184.431445 89.7439551,183.721247 89.7439551,182.991553 C89.7439551,181.092122 89.4431653,179.265103 88.8945026,177.546702 C88.9195684,177.546702 88.9418492,177.549488 88.966915,177.549488 L88.966915,177.549488 Z M99.2355418,110.682262 C99.3107392,111.339543 99.4110025,111.994039 99.5446868,112.63461 C98.1242909,112.9354 96.765167,113.394939 95.4728852,113.974238 C95.31135,113.255685 95.1080384,112.559412 94.8740908,111.87428 C96.3863947,111.623622 97.8457819,111.225354 99.2355418,110.682262 L99.2355418,110.682262 Z M113.135926,212.079033 C113.130356,212.240569 113.113645,212.396534 113.113645,212.558069 C113.113645,216.354146 114.302879,219.86893 116.322069,222.765424 C115.778976,222.709722 115.227529,222.676301 114.670511,222.676301 C110.258928,222.676301 106.284605,224.51446 103.452168,227.455515 C103.652695,226.411106 103.764098,225.333277 103.764098,224.227596 C103.764098,221.41744 103.073396,218.76882 101.867452,216.429344 C106.175986,216.32351 110.097393,214.705373 113.135926,212.079033 L113.135926,212.079033 Z M111.631977,151.066067 C111.732241,152.425191 111.966188,153.745323 112.325465,155.018109 C110.930135,155.441443 109.610002,156.040237 108.373422,156.761576 C108.264804,155.215851 108.00022,153.709117 107.554606,152.283151 C108.969431,152.012997 110.334125,151.609159 111.631977,151.066067 L111.631977,151.066067 Z M128.827123,187.915592 C128.746355,188.600725 128.690654,189.291427 128.690654,189.996055 C128.690654,191.639258 128.935742,193.229544 129.370216,194.739063 C125.540717,195.089984 122.06771,196.655205 119.318826,199.033672 C119.324396,198.872137 119.343892,198.716172 119.343892,198.554636 C119.343892,196.064766 118.83422,193.697439 117.91514,191.54178 C122.000867,191.516714 125.763524,190.165945 128.827123,187.915592 L128.827123,187.915592 Z M129.127913,127.261902 C129.283878,127.997166 129.489974,128.710149 129.721137,129.411992 C127.690806,129.618089 125.749599,130.12776 123.942075,130.890875 C123.886373,130.244734 123.808391,129.606948 123.702557,128.980303 C125.613129,128.648877 127.429008,128.066793 129.127913,127.261902 L129.127913,127.261902 Z M142.836126,166.47597 C143.089569,168.776454 143.755205,170.948824 144.741127,172.934593 C141.599546,173.12955 138.683557,174.151678 136.224322,175.817162 C136.377502,174.859091 136.477765,173.878739 136.477765,172.878892 C136.477765,171.653452 136.352436,170.455863 136.126844,169.294481 C138.555442,168.765314 140.816935,167.790532 142.836126,166.47597 L142.836126,166.47597 Z M156.772716,203.161175 C156.756006,203.442469 156.728155,203.715408 156.728155,204.005057 C156.728155,207.458569 157.761423,210.666993 159.52717,213.360175 C159.371205,213.354605 159.223595,213.337894 159.06763,213.337894 C154.912276,213.337894 151.132909,214.897544 148.247556,217.445902 C148.6876,215.889036 148.938258,214.254189 148.938258,212.558069 C148.938258,210.600151 148.612402,208.720215 148.033104,206.954468 C151.327865,206.531134 154.335762,205.185936 156.772716,203.161175 L156.772716,203.161175 Z M158.326796,141.003537 C158.382498,142.432288 158.588595,143.822048 158.925591,145.161676 C156.410654,145.58501 154.062824,146.484594 151.974006,147.77966 C151.831966,146.194944 151.511681,144.663145 151.029861,143.206543 C153.642275,142.933604 156.104294,142.167704 158.326796,141.003537 L158.326796,141.003537 Z M162.181361,183.771379 C166.590158,183.771379 170.642464,182.289711 173.90659,179.822121 C173.895449,180.103415 173.864813,180.376354 173.864813,180.660433 C173.864813,182.866224 174.265866,184.971752 174.970494,186.938026 C174.602862,186.91296 174.238015,186.882324 173.864813,186.882324 C169.701104,186.882324 165.888316,188.366777 162.916625,190.834367 C162.933335,190.553073 162.961186,190.277349 162.961186,189.996055 C162.961186,187.790263 162.526712,185.68752 161.769168,183.749098 C161.908422,183.751883 162.042106,183.771379 162.181361,183.771379 L162.181361,183.771379 Z M174.3717,118.188079 C174.53045,118.906632 174.736547,119.608475 174.973279,120.301963 C172.909528,120.669594 170.951609,121.343586 169.152441,122.282162 C169.10788,121.195976 168.999261,120.129287 168.793165,119.093233 C170.692596,118.920558 172.544681,118.586347 174.3717,118.188079 L174.3717,118.188079 Z M186.692938,158.708354 C186.954736,160.056337 187.353004,161.362544 187.879386,162.599124 C185.581687,163.189563 183.456663,164.203336 181.590653,165.559675 C181.615719,165.147482 181.651925,164.735288 181.651925,164.32031 C181.651925,162.916625 181.498745,161.554716 181.217451,160.231798 C183.139163,159.97557 184.977323,159.465898 186.692938,158.708354 L186.692938,158.708354 Z M192.555552,199.331676 C196.644065,199.331676 200.406721,198.008759 203.484246,195.791827 C203.478675,195.933867 203.461965,196.073121 203.461965,196.220731 C203.461965,197.852794 203.704268,199.423584 204.133172,200.919178 C203.907579,200.908037 203.687557,200.888542 203.461965,200.888542 C198.434877,200.888542 193.931387,203.063697 190.795376,206.506068 C190.915134,205.684467 190.998687,204.85451 190.998687,204.005057 C190.998687,202.328433 190.748029,200.713081 190.29963,199.184067 C191.040463,199.27319 191.792438,199.331676 192.555552,199.331676 L192.555552,199.331676 Z M202.152973,132.311271 C202.331218,133.494934 202.598587,134.647961 202.974574,135.759212 C201.420494,135.987589 199.91933,136.383072 198.504505,136.956801 C198.320689,135.814914 198.04775,134.709233 197.680118,133.642544 C199.239768,133.364035 200.738147,132.921205 202.152973,132.311271 L202.152973,132.311271 Z M215.972589,171.544833 C216.128554,174.341064 216.916735,176.975759 218.214587,179.287384 C215.646734,179.64666 213.259911,180.56017 211.185019,181.922079 C211.215655,181.50153 211.251862,181.086552 211.251862,180.660433 C211.251862,178.295892 210.795107,176.048324 209.993001,173.967862 C212.14309,173.494396 214.153925,172.661655 215.972589,171.544833 L215.972589,171.544833 Z M215.978159,105.493639 C216.056142,106.989232 216.29566,108.445834 216.685572,109.84395 C215.805484,110.089038 214.944891,110.384257 214.120504,110.740749 C213.908837,109.328708 213.552346,107.966799 213.064955,106.668947 C214.075943,106.357017 215.045154,105.953179 215.978159,105.493639 L215.978159,105.493639 Z M233.131529,146.289637 C233.306989,148.567841 233.883503,150.723501 234.797012,152.698129 C234.482297,152.678634 234.162012,152.647998 233.838941,152.647998 C230.730781,152.647998 227.809222,153.441748 225.263649,154.831508 C225.249724,152.943217 224.96286,151.121768 224.447618,149.395013 C227.625406,149.041306 230.572031,147.943981 233.131529,146.289637 L233.131529,146.289637 Z M233.137099,81.8454398 C233.206726,82.7060326 233.3237,83.5527 233.496375,84.3770866 C231.090058,84.6945869 228.814639,85.4242805 226.750887,86.5104656 C226.68126,85.6526579 226.564286,84.8059905 226.391611,83.9843889 C228.797929,83.6641036 231.073347,82.93441 233.137099,81.8454398 L233.137099,81.8454398 Z M247.146102,182.495807 C247.11268,182.919141 247.079259,183.33969 247.079259,183.771379 C247.079259,188.235878 248.806015,192.288184 251.610601,195.335072 C250.176279,194.900598 248.65562,194.663866 247.079259,194.663866 C243.53384,194.663866 240.269714,195.861454 237.648945,197.858364 C237.701861,197.318056 237.732497,196.774964 237.732497,196.220731 C237.732497,193.368799 237.02787,190.692327 235.794075,188.327786 C240.291995,187.840395 244.277459,185.684735 247.146102,182.495807 L247.146102,182.495807 Z M248.658405,120.315888 C248.65562,120.463498 248.636125,120.602752 248.636125,120.747577 C248.636125,122.694355 248.934129,124.574291 249.463296,126.348393 C246.906584,126.657538 244.508621,127.49028 242.378027,128.729645 C242.330681,127.050236 242.080023,125.423743 241.642764,123.869663 C244.230112,123.15111 246.603009,121.93124 248.658405,120.315888 L248.658405,120.315888 Z M250.35174,56.9105291 C250.521631,58.2919337 250.847486,59.6259918 251.304241,60.901563 C248.658405,61.0686684 246.162965,61.7538006 243.909827,62.8678366 C243.8402,61.5783399 243.653599,60.3222643 243.355594,59.1079651 C245.856605,58.7988201 248.218361,58.0496309 250.35174,56.9105291 L250.35174,56.9105291 Z M262.681334,159.99785 C262.675763,160.142675 262.659053,160.284715 262.659053,160.426754 C262.659053,162.635331 263.087957,164.735288 263.851071,166.670926 C259.038436,166.776759 254.721546,168.857222 251.671873,172.132487 C251.719219,171.611676 251.75264,171.082509 251.75264,170.544986 C251.75264,168.03005 251.229043,165.637658 250.290468,163.468072 C250.772289,163.507064 251.259679,163.5377 251.75264,163.5377 C255.838367,163.5377 259.603809,162.217567 262.681334,159.99785 L262.681334,159.99785 Z M264.291116,95.7681047 C264.438725,97.7705845 264.88991,99.6895115 265.600108,101.477539 C262.166092,101.917583 259.01894,103.254427 256.38146,105.245766 C256.395385,104.964472 256.426021,104.694318 256.426021,104.410239 C256.426021,102.697409 256.189289,101.037495 255.788236,99.4472086 C258.946528,98.9124714 261.843021,97.6257598 264.291116,95.7681047 L264.291116,95.7681047 Z M264.371883,30.4577442 C264.619756,32.4880749 265.199055,34.4070019 266.045722,36.175534 C264.279975,36.4484728 262.597781,36.9581443 261.029775,37.6878379 C260.898876,35.7633407 260.503393,33.916826 259.873963,32.1789299 C261.453109,31.7778769 262.965413,31.2097185 264.371883,30.4577442 L264.371883,30.4577442 Z M278.422662,137.226954 C278.729022,139.41325 279.411369,141.482572 280.436282,143.345797 C280.219045,143.337442 280.007378,143.312376 279.792926,143.312376 C276.317134,143.312376 273.083645,144.354 270.382107,146.130887 C270.409958,145.713124 270.44895,145.29536 270.44895,144.866456 C270.44895,143.223253 270.212217,141.632967 269.811164,140.115093 C272.961101,139.842154 275.885445,138.817241 278.422662,137.226954 L278.422662,137.226954 Z M280.088146,69.5409122 C280.408431,71.4459138 281.007226,73.2562223 281.845538,74.9356315 C278.133013,75.2837678 274.737988,76.6790979 271.927832,78.818047 C271.780223,76.8489884 271.340178,74.9606974 270.646691,73.1977354 C274.1754,72.8690948 277.406104,71.5489621 280.088146,69.5409122 L280.088146,69.5409122 Z M291.022409,44.9597079 C291.220151,46.1043799 291.5098,47.2156308 291.883002,48.2906755 C290.198023,48.9813778 288.638372,49.9060277 287.229117,51.0144935 C286.922757,49.4604133 286.413085,47.9843156 285.750234,46.5945557 C287.616244,46.3104765 289.384776,45.7534585 291.022409,44.9597079 L291.022409,44.9597079 Z M295.99658,116.865161 C292.916271,116.887442 290.022562,117.692333 287.496485,119.087663 C287.332165,117.149241 286.883766,115.299941 286.195848,113.56483 C289.039425,113.199983 291.682476,112.227987 294.002456,110.768599 C294.30603,112.949325 294.982807,115.013077 295.99658,116.865161 L295.99658,116.865161 Z M307.89727,148.2392 C307.863849,148.673674 307.833213,149.099793 307.833213,149.537052 C307.833213,154.341333 310.013938,158.630371 313.436814,161.482303 C311.696132,160.813882 309.810627,160.426754 307.833213,160.426754 C303.112485,160.426754 298.895859,162.532282 296.041142,165.843754 C296.606515,164.136494 296.929585,162.320615 296.929585,160.426754 C296.929585,157.599888 296.230528,154.942912 295.013443,152.592296 C295.392216,152.614577 295.765418,152.647998 296.14976,152.647998 C300.64768,152.647998 304.752903,150.979729 307.89727,148.2392 L307.89727,148.2392 Z M309.417929,82.8592126 C309.412359,83.0430285 309.390078,83.2184892 309.390078,83.4023051 C309.390078,85.903316 309.908105,88.287353 310.83554,90.4485828 C308.033739,90.5878373 305.396259,91.350952 303.076279,92.6348785 C302.861827,90.1366528 302.176695,87.7804666 301.110005,85.6443026 C304.134613,85.3574383 306.953124,84.3715165 309.417929,82.8592126 L309.417929,82.8592126 Z M321.892347,123.025781 C321.881207,123.301504 321.853356,123.580013 321.853356,123.858522 C321.853356,127.752078 323.220835,131.325349 325.493468,134.132719 C324.811121,134.040812 324.117634,133.973969 323.410221,133.973969 C319.811885,133.973969 316.505983,135.207764 313.868503,137.254805 C313.985476,136.433204 314.063459,135.606032 314.063459,134.753795 C314.063459,131.651204 313.269708,128.729645 311.879948,126.184073 C315.598044,126.156222 319.0432,124.994839 321.892347,123.025781 L321.892347,123.025781 Z M337.474925,98.127076 C337.45543,98.405585 337.430364,98.6757387 337.430364,98.9598179 C337.430364,102.221158 338.499839,105.223485 340.285081,107.668794 C339.605519,107.582457 338.914817,107.521185 338.210189,107.521185 C335.026831,107.521185 332.069066,108.443049 329.551344,110.01384 C329.609831,109.448467 329.640467,108.877523 329.640467,108.30101 C329.640467,105.797214 329.122441,103.415962 328.195006,101.249162 C331.629022,101.082056 334.815165,99.9596652 337.474925,98.127076 L337.474925,98.127076 Z M352.840267,150.027228 C351.645463,149.720868 350.403313,149.537052 349.113817,149.537052 C344.802497,149.537052 340.934007,151.391922 338.2269,154.330192 C338.717076,152.817888 338.987229,151.210891 338.987229,149.537052 C338.987229,145.933146 337.753434,142.627244 335.692468,139.984194 C336.516855,140.115093 337.352382,140.201431 338.210189,140.201431 C342.173372,140.201431 345.802345,138.79496 348.634781,136.449914 C348.439825,137.407985 348.336776,138.402262 348.336776,139.41882 C348.336776,143.585315 350.063532,147.339616 352.840267,150.027228 L352.840267,150.027228 Z M25.1103714,229.341021 C24.6007,230.920167 24.3194059,232.599576 24.3194059,234.345828 C24.3194059,238.334077 25.7537272,241.98533 28.1321941,244.823336 C27.1546275,244.594959 26.1436398,244.45849 25.0992311,244.45849 C21.1109822,244.45849 17.5432819,246.229807 15.1146834,249.014897 C17.5349266,256.434377 20.175192,263.686751 23.0354794,270.735814 C23.7094712,270.838862 24.3946033,270.916845 25.0992311,270.916845 C32.4100923,270.916845 38.3395489,264.992958 38.3395489,257.687667 C38.3395489,254.793959 37.3981885,252.128628 35.8246127,249.950687 C37.3564122,250.424152 38.9856898,250.680381 40.6762394,250.680381 C46.6363321,250.680381 51.8360951,247.488668 54.6963825,242.728949 C54.1950663,244.257963 53.9165573,245.878886 53.9165573,247.569435 C53.9165573,256.164223 60.8932078,263.132518 69.4935657,263.132518 C78.0967087,263.132518 85.0733591,256.164223 85.0733591,247.569435 C85.0733591,245.24667 84.5497622,243.049234 83.6362527,241.069035 C84.6082491,241.244496 85.6080964,241.347544 86.6302245,241.347544 C91.6656672,241.347544 96.1802981,239.166819 99.3135243,235.710522 C99.17984,236.532124 99.0907171,237.376006 99.0907171,238.236599 C99.0907171,246.828601 106.067368,253.791326 114.670511,253.791326 C123.273654,253.791326 130.247519,246.828601 130.247519,238.236599 C130.247519,235.281618 129.409207,232.532734 127.977671,230.179333 C128.969163,230.349224 129.98572,230.457842 131.027344,230.457842 C135.750857,230.457842 140.03711,228.616898 143.237179,225.625711 C142.902968,226.926348 142.708012,228.277117 142.708012,229.680802 C142.708012,233.93642 144.356785,237.802125 147.027686,240.709759 C145.434615,240.127675 143.727355,239.790679 141.930971,239.790679 C133.756732,239.790679 127.133788,246.410838 127.133788,254.573937 C127.133788,262.73425 133.756732,269.354409 141.930971,269.354409 C150.102426,269.354409 156.728155,262.73425 156.728155,254.573937 C156.728155,250.855841 155.343965,247.466387 153.074117,244.867898 C154.931772,245.597591 156.945392,246.015355 159.06763,246.015355 C168.099677,246.015355 175.424464,238.698924 175.424464,229.680802 C175.424464,226.51694 174.508169,223.570315 172.951304,221.074874 C173.257664,221.088799 173.558454,221.11665 173.864813,221.11665 C178.891901,221.11665 183.395391,218.94428 186.531403,215.499124 C186.408859,216.320725 186.328091,217.150682 186.328091,218.005705 C186.328091,222.255752 187.887742,226.135383 190.455595,229.126569 C189.614497,228.987315 188.76226,228.898192 187.884956,228.898192 C179.281813,228.898192 172.307948,235.863702 172.307948,244.45849 C172.307948,253.053277 179.281813,260.021573 187.884956,260.021573 C196.488099,260.021573 203.461965,253.053277 203.461965,244.45849 C203.461965,240.801666 202.189179,237.442848 200.07251,234.785872 C201.169836,235.005894 202.300582,235.122868 203.461965,235.122868 C212.925701,235.122868 220.598624,227.461085 220.598624,218.005705 C220.598624,216.373642 220.353536,214.800066 219.927417,213.301688 C220.150224,213.312828 220.373031,213.337894 220.598624,213.337894 C224.759548,213.337894 228.575121,211.853441 231.544027,209.383066 C231.530102,209.66436 231.502251,209.945654 231.502251,210.226948 C231.502251,218.821736 238.476116,225.787246 247.079259,225.787246 C255.682402,225.787246 262.659053,218.821736 262.659053,210.226948 C262.659053,206.305542 261.194095,202.737841 258.804488,200.000098 C260.506178,200.565471 262.322057,200.888542 264.215918,200.888542 C273.679654,200.888542 281.349792,193.223974 281.349792,183.771379 C281.349792,181.565587 280.918103,179.465629 280.157773,177.529992 C285.296264,177.421373 289.877737,175.065187 292.946907,171.391654 C292.498507,172.84547 292.253419,174.391195 292.253419,175.989837 C292.253419,184.584625 299.23007,191.55292 307.833213,191.55292 C316.436356,191.55292 323.410221,184.584625 323.410221,175.989837 C323.410221,171.188342 321.22671,166.896518 317.80662,164.039016 C319.547301,164.713008 321.432807,165.094565 323.410221,165.094565 C328.008405,165.094565 332.127553,163.097655 334.9767,159.933793 C334.547796,161.317983 334.313848,162.794081 334.313848,164.32031 C334.313848,172.480624 340.942363,179.100783 349.113817,179.100783 C354.032286,179.100783 358.379811,176.69168 361.067423,173.004221 C360.995011,171.957027 360.947664,170.920973 360.864111,169.868209 C357.72253,129.448198 344.89719,93.796261 324.053577,65.8367425 C322.137435,66.1876638 320.313201,66.8170942 318.664428,67.7250335 C318.697849,67.245998 318.73684,66.7725328 318.73684,66.285142 C318.73684,64.5973775 318.500107,62.9680998 318.093484,61.4056643 C318.759121,61.1967826 319.408047,60.9433394 320.043047,60.6648304 C283.399618,15.4015477 224.444833,-7.69520367 150.924027,5.27217537 C71.6631508,19.2449719 23.4337473,68.605122 7.83724326,130.12219 C8.76467823,129.874317 9.67818775,129.573527 10.5471358,129.200325 C10.8172896,131.005063 11.326961,132.723464 12.037159,134.338816 C10.0179687,134.728729 8.12132244,135.444497 6.37507101,136.402568 C2.24199745,155.64197 1.24772032,175.961986 3.3978098,196.688626 C5.99908386,195.791827 8.35805509,194.368646 10.3298988,192.533272 C10.3215435,192.722658 10.2992628,192.912044 10.2992628,193.109785 C10.2992628,196.566082 11.3353163,199.777291 13.0982783,202.464903 C12.9423132,202.462118 12.7919184,202.442622 12.6359533,202.442622 C9.61691577,202.442622 6.7956196,203.275364 4.36980621,204.704115 C5.64816252,213.67489 7.48075174,222.706937 9.93998621,231.741769 C10.2407759,232.844664 10.5722016,233.928064 10.8785615,235.022605 C11.4578603,235.086662 12.0427292,235.122868 12.6359533,235.122868 C17.637975,235.122868 22.1080444,232.872515 25.1103714,229.341021 L25.1103714,229.341021 Z" id="Shape"></path>
                </g>
                <g id="Group" transform="translate(44.610490, 30.634440)" fill="#000000">
                    <path d="M86.4655988,94.2053639 C82.7001571,84.368426 76.943376,77.0269287 70.2340942,73.5594917 C67.3041796,72.0416176 64.2322253,71.3035688 61.1463456,71.3035688 C55.9159465,71.3035688 50.607565,73.4369477 45.7921444,77.6507889 C39.2249022,83.4047849 35.1196795,90.4482775 33.9332312,98.0432179 C32.8275504,105.173048 34.331499,112.339085 38.2556909,118.716941 C44.0709588,128.166751 54.723928,134.92895 68.2343996,137.758601 C75.2806773,139.215203 82.9842363,139.638537 91.2475983,139.020247 C92.6679942,121.557733 91.0470718,106.14226 86.4655988,94.2053639 M175.443654,105.816404 C182.222563,100.7364 188.093533,95.322185 193.048208,89.5737592 C203.010475,78.0044953 208.767256,65.2320726 209.249076,53.6293877 C209.658485,43.6726909 205.984951,36.5372903 202.130386,34.6434291 C200.701635,33.9415864 199.275669,33.6407967 197.885909,33.6407967 C192.034435,33.6407967 186.946076,39.0076652 184.75978,41.7203428 C175.170715,53.5597604 169.074153,76.383573 175.443654,105.816404 M216.565508,250.448913 C212.337741,238.999408 204.539489,225.667182 193.348998,210.753025 C189.628117,212.607895 185.932303,214.6243 182.200282,216.810596 C144.66841,238.921425 127.615304,256.949313 119.92567,268.198291 C115.856654,274.161169 109.581846,285.393437 113.247024,293.885177 C115.686763,299.497133 122.465672,304.198365 131.856996,306.749507 C141.688363,309.442689 161.008533,309.442689 173.173806,305.972467 C200.779618,298.132439 215.23145,288.030917 219.113865,275.943627 C221.241674,269.303972 220.403362,260.73982 216.565508,250.448913 M204.077164,167.539569 C217.634982,163.448271 232.87221,160.058817 249.727575,157.382345 C252.693695,156.906095 259.912649,156.13741 259.912649,156.13741 C269.810859,153.831356 279.697928,159.983619 282.009553,169.884614 C284.310037,179.785609 278.182839,189.798008 268.287414,192.104062 C264.145985,192.463339 259.96835,192.986936 255.693237,193.644217 C246.098602,195.162091 237.52331,196.869351 229.867098,198.682445 C239.113597,212.209627 246.878427,226.009748 251.248234,237.790679 C257.95473,255.904904 258.974073,272.506826 254.300692,287.117408 C249.75264,301.229459 239.9909,313.222056 225.285625,322.713643 C214.30123,329.840688 201.155605,336.182338 183.342169,341.237277 C172.193454,344.43456 159.922348,345.153113 148.907317,345.153113 C139.549414,345.153113 130.461665,344.43456 122.022843,342.106225 C101.482804,336.488698 86.3346995,324.526737 79.3496938,308.434487 C75.3224537,299.140641 74.2279133,289.075326 76.0605025,278.500339 C77.809539,268.362612 82.2991041,257.960301 89.3899433,247.594196 C103.655174,226.747797 128.537168,205.801135 163.345223,185.261096 C165.932572,183.732082 172.363345,180.367693 172.363345,180.367693 C166.701257,171.820252 161.718731,163.203184 157.477038,154.538769 C153.410807,156.360217 149.213676,158.15103 144.868936,159.863861 C136.569368,163.100135 128.395129,165.759896 120.429771,167.790227 C113.341717,195.565929 98.201968,218.762944 75.2138352,236.90502 C75.2138352,236.90502 63.7030582,246.287988 51.9666889,234.281465 C41.3360004,223.402904 54.3618663,210.886709 54.3618663,210.886709 C64.2684315,203.074532 72.300631,193.900446 78.2022367,183.651314 C80.2659884,180.105895 82.0651566,176.437931 83.6554429,172.561086 C75.890612,172.538805 68.4098603,171.797971 61.3385168,170.305163 C38.7013053,165.55937 20.3614876,153.402452 9.68066746,136.093117 C1.6763188,123.075607 -1.46804781,107.757612 0.82965144,92.9548585 C3.22482884,77.5560959 11.1233441,63.636216 23.6785298,52.6685316 C41.7314832,36.8909968 65.4966561,33.5934502 85.6913437,44.0514632 C99.8980878,51.4068858 110.999457,64.6666993 117.761655,82.3798717 C123.212076,96.622822 125.682451,113.138406 125.17835,131.623048 C127.615304,130.795876 130.094034,129.890722 132.567194,128.918726 C137.009412,127.166904 141.278955,125.351025 145.381393,123.446024 C142.771763,114.388911 141.006016,105.39307 140.061871,96.5086333 C136.975991,66.8362844 143.7549,39.2666785 158.671842,20.868374 C174.37418,1.45629669 197.267619,-4.8407918 216.935925,4.81790032 C225.449945,8.98996514 232.368109,16.1225806 236.938441,25.4609874 C241.155068,34.1059068 243.174258,44.3216169 242.723073,54.9940818 C242.166055,68.4544217 237.51774,89.1392852 218.49279,111.208338 C209.898002,121.204026 199.30909,130.316841 186.848598,138.513361 C191.24347,147.701373 197.153431,157.710986 204.077164,167.539569" id="Shape"></path>
                </g>
            </g>
        </g>
    </g>
</svg>