<?xml version="1.0" encoding="UTF-8" standalone="no"?>
<svg width="200px" height="200px" viewBox="0 0 200 200" version="1.1" xmlns="http://www.w3.org/2000/svg" xmlns:xlink="http://www.w3.org/1999/xlink" xmlns:sketch="http://www.bohemiancoding.com/sketch/ns">
    <!-- Generator: Sketch 3.3.2 (12043) - http://www.bohemiancoding.com/sketch -->
    <title>freeform</title>
    <desc>Created with Sketch.</desc>
    <defs></defs>
    <g id="Page-1" stroke="none" stroke-width="1" fill="none" fill-rule="evenodd" sketch:type="MSPage">
        <g id="freeform" sketch:type="MSArtboardGroup">
            <rect id="Rectangle-1" fill="#EEEEEE" sketch:type="MSShapeGroup" x="0" y="0" width="200" height="200"></rect>
            <path d="M43.416,91.356 C43.56,89.772 42.66,89.664 41.508,89.34 C39.348,88.728 36.576,87.684 34.776,86.964 C32.976,86.208 29.196,84.444 27.792,83.796 C31.5,81.204 37.8,78.684 39.456,77.964 C41.652,77.028 43.92,76.164 42.984,74.4 C42.012,72.6 40.176,73.356 38.34,74.292 C36.36,75.3 33.228,76.524 31.32,77.604 C28.836,79.08 26.64,79.476 24.3,81.42 C23.22,82.284 21.672,84.084 21.672,85.812 C21.672,87.396 25.38,88.764 26.424,89.124 C28.8,89.988 29.988,90.78 32.22,91.68 C34.812,92.76 36.9,94.2 39.78,94.452 C42.408,94.668 43.308,92.184 43.416,91.356 L43.416,91.356 Z M71.82,91.284 C72.036,87.576 71.892,84.012 71.82,80.34 C71.748,77.964 71.856,74.868 71.748,71.592 C71.712,70.044 71.82,68.208 70.2,68.208 C67.68,68.208 66.96,71.916 66.96,74.4 L66.96,79.332 C66.528,79.332 66.06,79.368 65.592,79.368 C61.992,79.368 59.04,79.476 55.404,79.476 C55.512,76.776 55.62,73.788 55.944,71.016 C56.124,69.252 55.512,68.208 53.928,68.136 C51.66,68.028 50.724,71.952 50.724,73.788 C50.724,75.948 50.616,77.604 50.616,79.692 C50.616,83.868 50.4,87.936 50.4,92.04 C50.4,93.696 49.572,96.648 52.056,96.648 C54.504,96.648 55.368,92.364 55.368,90.492 C55.368,88.296 55.332,86.64 55.296,84.84 C57.924,84.84 60.948,84.66 63.576,84.624 C64.404,84.624 65.736,84.408 66.96,83.976 C66.96,87.108 66.888,90.168 66.816,93.444 C66.78,94.74 66.348,96.864 68.184,96.864 C70.524,96.864 71.712,93.3 71.82,91.284 L71.82,91.284 Z M87.768,70.116 C87.732,70.08 87.732,70.044 87.732,70.008 C87.804,69.972 87.84,70.044 87.768,70.116 L87.768,70.116 Z M96.948,70.8 C96.948,68.028 91.836,68.712 89.532,68.712 C85.536,68.712 80.28,68.352 76.572,69.864 C75.672,70.224 74.412,71.592 74.412,72.78 C74.412,74.976 77.544,73.896 79.848,73.788 C80.496,73.752 82.044,73.68 83.268,73.644 C82.98,76.74 83.304,80.124 83.232,82.68 C83.16,84.444 83.16,88.152 83.052,91.428 C82.98,94.272 83.376,96.432 84.96,96.756 C86.832,97.08 88.308,94.416 88.236,92.58 C88.02,87 88.056,84.228 87.948,78.792 C87.912,77.136 88.128,75.372 88.128,73.608 C89.856,73.644 91.152,73.68 93.636,73.68 C94.896,73.68 96.948,71.628 96.948,70.8 L96.948,70.8 Z M124.056,87.036 C124.056,83.796 123.588,78.252 123.588,74.904 C123.588,73.68 123.804,71.988 123.624,71.052 C123.372,69.756 122.904,68.244 121.644,68.244 C118.908,68.244 117.9,71.736 116.964,73.536 C115.308,76.704 113.868,79.692 112.464,82.716 C111.564,80.808 110.844,79.296 109.836,77.676 C108.18,75.048 106.812,72.096 104.796,69.612 C104.292,68.964 103.464,68.172 102.564,68.28 C100.98,68.496 99.396,70.476 99.396,72.708 C99.396,74.436 99.54,75.624 99.648,77.136 C99.972,80.88 99.648,86.208 99.648,89.952 C99.648,92.4 99.072,96.648 102.024,96.648 C103.608,96.648 104.4,93.48 104.4,92.148 C104.4,89.844 104.22,86.964 104.22,84.768 L104.22,77.64 C104.976,78.936 105.732,80.304 106.272,81.42 C107.568,84.012 108.54,85.164 109.692,88.188 C109.944,88.872 110.916,89.628 111.78,89.52 C113.184,89.34 113.832,87.864 114.336,86.892 C116.028,83.652 117.144,80.808 119.124,77.748 C119.556,82.5 119.7,87.144 119.376,91.86 C119.268,93.48 119.556,96.612 121.284,96.576 C124.236,96.504 124.056,89.88 124.056,87.036 L124.056,87.036 Z M146.952,92.832 C146.952,91.644 145.872,91.5 144.9,91.572 C139.752,91.968 138.924,91.896 134.712,91.644 C134.568,86.172 134.316,84.984 134.604,80.484 C134.784,77.352 134.748,74.4 134.748,71.304 C134.748,69.72 134.784,68.352 133.416,68.352 C131.292,68.352 130.14,71.772 129.96,73.284 C129.6,76.38 129.96,80.088 129.96,83.112 C129.96,86.352 129.96,88.872 129.744,92.148 C129.636,93.336 129.384,94.848 129.384,95.172 C129.384,97.08 131.292,96.972 132.768,96.972 C136.188,96.972 139.824,96.756 142.848,96.396 C144.324,96.216 146.952,94.56 146.952,92.832 L146.952,92.832 Z M172.728,83.616 C172.728,81.996 168.984,80.34 167.976,79.872 C165.6,78.828 164.412,77.964 162.18,76.848 C159.588,75.588 157.5,73.968 154.62,73.464 C151.956,73.032 151.056,75.444 150.984,76.272 C150.84,77.856 151.74,78 152.892,78.432 C155.052,79.224 157.824,80.484 159.624,81.384 C161.424,82.284 165.204,84.336 166.608,85.128 C162.9,87.396 156.6,89.412 154.944,89.988 C152.748,90.744 150.48,91.392 151.416,93.228 C152.352,95.136 154.224,94.524 156.06,93.732 C158.04,92.904 161.172,91.968 163.08,90.996 C165.564,89.772 167.76,89.52 170.1,87.792 C171.18,87 172.728,85.344 172.728,83.616 L172.728,83.616 Z" id="&lt;HTML&gt;" fill="#3B3B3B" sketch:type="MSShapeGroup"></path>
        </g>
    </g>
</svg>