<?xml version="1.0" encoding="UTF-8" standalone="no"?>
<svg width="200px" height="200px" viewBox="0 0 200 200" version="1.1" xmlns="http://www.w3.org/2000/svg" xmlns:xlink="http://www.w3.org/1999/xlink" xmlns:sketch="http://www.bohemiancoding.com/sketch/ns">
    <!-- Generator: Sketch 3.3.2 (12043) - http://www.bohemiancoding.com/sketch -->
    <title>hil.header_right</title>
    <desc>Created with Sketch.</desc>
    <defs></defs>
    <g id="Page-1" stroke="none" stroke-width="1" fill="none" fill-rule="evenodd" sketch:type="MSPage">
        <g id="hil.header_right" sketch:type="MSArtboardGroup">
            <rect id="Rectangle-4" fill="#EEEEEE" sketch:type="MSShapeGroup" x="-1" y="0" width="204" height="204"></rect>
            <rect id="Rectangle-3" fill="#6E1EAB" sketch:type="MSShapeGroup" x="20" y="56" width="70" height="69"></rect>
            <path d="M120.186,66.642 C120.294,64.788 120.222,63.006 120.186,61.17 C120.15,59.982 120.204,58.434 120.15,56.796 C120.132,56.022 120.186,55.104 119.376,55.104 C118.116,55.104 117.756,56.958 117.756,58.2 L117.756,60.666 C117.54,60.666 117.306,60.684 117.072,60.684 C115.272,60.684 113.796,60.738 111.978,60.738 C112.032,59.388 112.086,57.894 112.248,56.508 C112.338,55.626 112.032,55.104 111.24,55.068 C110.106,55.014 109.638,56.976 109.638,57.894 C109.638,58.974 109.584,59.802 109.584,60.846 C109.584,62.934 109.476,64.968 109.476,67.02 C109.476,67.848 109.062,69.324 110.304,69.324 C111.528,69.324 111.96,67.182 111.96,66.246 C111.96,65.148 111.942,64.32 111.924,63.42 C113.238,63.42 114.75,63.33 116.064,63.312 C116.478,63.312 117.144,63.204 117.756,62.988 C117.756,64.554 117.72,66.084 117.684,67.722 C117.666,68.37 117.45,69.432 118.368,69.432 C119.538,69.432 120.132,67.65 120.186,66.642 L120.186,66.642 Z M130.05,62.484 C128.592,62.574 126.054,62.61 124.524,62.61 C124.866,61.674 125.622,60.54 127.476,60.54 C128.7,60.54 130.05,61.044 130.05,62.484 L130.05,62.484 Z M131.67,62.952 C131.67,61.764 131.346,60.144 130.428,59.28 C129.474,58.38 128.538,58.398 127.224,58.398 C125.982,58.398 124.218,59.586 123.642,60.486 C122.886,61.674 122.202,63.294 122.202,64.788 C122.202,67.434 124.74,69.522 127.098,69.522 C128.574,69.522 130.986,69.126 131.526,67.416 C131.634,67.056 131.58,66.426 131.256,66.426 C130.158,66.426 129.96,67.11 128.592,67.254 C127.332,67.38 126.36,67.254 125.928,67.038 C124.902,66.498 124.2,65.418 124.272,64.644 C126.27,64.644 127.17,64.68 129.168,64.68 C130.41,64.68 131.67,64.302 131.67,62.952 L131.67,62.952 Z M139.716,64.446 C139.698,65.22 139.662,65.976 139.644,66.732 C138.816,67.038 138.078,67.254 137.16,67.254 C136.116,67.254 135.198,66.822 135.198,65.67 C135.198,64.176 137.502,64.248 138.186,64.284 C138.564,64.302 139.212,64.41 139.716,64.446 L139.716,64.446 Z M141.858,65.76 C141.858,64.05 142.056,61.584 141.516,60.108 C141.012,58.722 139.14,58.344 137.7,58.344 C136.782,58.344 135.72,58.578 134.82,58.938 C134.154,59.208 133.686,59.856 133.686,60.648 C133.686,60.756 133.704,61.296 134.172,61.296 C134.64,61.296 135.864,60.612 137.178,60.612 C138.708,60.612 139.5,60.918 139.68,62.232 C138.636,62.178 136.908,62.268 136.008,62.628 C134.694,63.132 132.858,64.626 132.858,66.228 C132.858,67.884 134.136,69.504 135.81,69.504 C136.314,69.504 137.268,69.414 137.664,69.324 C138.204,69.198 138.942,68.892 139.608,68.496 C139.662,69 139.878,69.396 140.544,69.396 C141.984,69.396 141.858,66.948 141.858,65.76 L141.858,65.76 Z M150.696,66.192 C150.462,66.372 150.228,66.534 150.03,66.642 C149.418,66.984 148.716,67.218 147.87,66.984 C146.394,66.57 145.962,64.824 145.962,63.456 C145.962,61.332 147.114,60.648 148.842,60.792 C149.436,60.846 150.084,61.08 150.624,61.314 C150.642,62.52 150.714,64.68 150.696,66.192 L150.696,66.192 Z M152.982,66.498 C152.982,65.4 152.82,64.158 152.82,63.096 C152.82,61.188 152.748,57.912 152.712,56.094 C152.694,55.23 152.64,54.528 151.83,54.528 C150.516,54.528 150.516,57.354 150.534,58.11 C150.534,58.38 150.552,58.632 150.552,58.848 C149.616,58.596 148.5,58.47 147.798,58.614 C145.62,59.046 143.658,61.908 143.658,64.014 C143.658,65.202 143.802,66.462 144.252,67.398 C144.828,68.604 146.088,69.324 147.438,69.324 C148.266,69.324 149.67,68.946 150.66,68.316 C150.678,68.802 150.822,69.216 151.272,69.216 C152.55,69.216 152.982,67.524 152.982,66.498 L152.982,66.498 Z M158.076,67.848 C158.022,67.47 157.896,67.218 157.842,66.858 C157.716,66.192 157.788,65.472 157.788,64.752 C157.77,63.348 157.824,62.142 157.824,60.738 C157.824,60.036 158.058,59.046 157.068,59.046 C155.952,59.046 155.79,61.098 155.79,62.106 C155.79,64.158 155.844,66.12 155.844,68.208 C155.844,68.82 156.042,69.342 156.636,69.342 C157.302,69.342 158.166,68.514 158.076,67.848 L158.076,67.848 Z M158.238,56.418 C158.238,55.518 157.608,55.302 156.888,55.392 C156.24,55.482 155.556,56.634 155.556,56.994 C155.556,57.57 156.114,57.984 156.564,57.984 C157.176,57.984 158.238,57.066 158.238,56.418 L158.238,56.418 Z M169.362,67.398 C169.254,65.976 169.182,64.05 169.146,62.61 C169.128,61.8 169.092,60.72 168.858,60 C168.48,58.812 167.076,58.488 165.906,58.488 C165.006,58.488 163.53,59.262 162.756,60 C162.792,59.262 162.828,58.668 161.91,58.668 C160.29,58.668 160.542,61.062 160.542,62.286 C160.542,64.248 160.758,65.652 160.47,67.686 C160.38,68.388 160.578,69.252 161.316,69.252 C162.792,69.252 162.594,66.696 162.594,65.634 C162.594,64.662 162.648,63.204 162.684,61.926 C163.422,61.314 164.376,60.81 165.096,60.81 C168.066,60.81 167.202,65.238 167.202,67.074 C167.202,67.794 167.076,69.486 167.922,69.504 C169.11,69.54 169.416,68.082 169.362,67.398 L169.362,67.398 Z M178.632,65.58 C178.074,65.868 177.102,66.336 175.896,66.228 C174.456,66.102 173.466,65.292 173.466,63.744 C173.466,61.044 175.014,61.062 176.4,61.062 C177.012,61.062 178.002,61.368 178.614,61.638 C178.578,62.88 178.614,64.266 178.632,65.58 L178.632,65.58 Z M180.54,59.784 C180.54,59.064 180.036,57.984 179.1,58.704 C178.956,58.812 178.848,58.974 178.776,59.154 C178.038,58.83 177.012,58.704 176.4,58.704 C175.068,58.704 173.79,59.172 173.07,60.234 C172.476,61.116 171.522,63.078 171.522,64.194 C171.522,65.67 171.702,66.12 172.458,67.254 C172.998,68.064 174.15,68.568 175.14,68.568 C176.454,68.568 177.894,68.046 178.65,67.578 C178.65,68.244 178.65,68.91 178.56,69.594 C178.416,70.584 177.084,71.088 176.22,71.088 C175.158,71.088 174.51,70.998 173.682,70.512 C172.242,69.666 172.08,71.016 172.332,71.754 C172.71,72.888 174.402,73.158 175.536,73.158 C177.624,73.158 180.09,71.43 180.45,69.324 C180.702,67.902 180.432,66.372 180.45,64.95 C180.486,63.24 180.54,61.494 180.54,59.784 L180.54,59.784 Z" id="Heading" fill="#3B3B3B" sketch:type="MSShapeGroup"></path>
        </g>
    </g>
</svg>