<?xml version="1.0" encoding="UTF-8" standalone="no"?>
<svg width="200px" height="200px" viewBox="0 0 200 200" version="1.1" xmlns="http://www.w3.org/2000/svg" xmlns:xlink="http://www.w3.org/1999/xlink" xmlns:sketch="http://www.bohemiancoding.com/sketch/ns">
    <!-- Generator: Sketch 3.3.2 (12043) - http://www.bohemiancoding.com/sketch -->
    <title>hil.default</title>
    <desc>Created with Sketch.</desc>
    <defs></defs>
    <g id="Page-1" stroke="none" stroke-width="1" fill="none" fill-rule="evenodd" sketch:type="MSPage">
        <g id="hil.default" sketch:type="MSArtboardGroup">
            <rect id="Rectangle-1" fill="#EEEEEE" sketch:type="MSShapeGroup" x="0" y="0" width="200" height="200"></rect>
            <g id="Rectangle-3" sketch:type="MSLayerGroup" transform="translate(21.000000, 56.000000)" fill="#6E1EAB">
                <rect sketch:type="MSShapeGroup" x="0" y="0" width="159" height="71"></rect>
            </g>
            <path d="M34.894,34.118 C35.026,31.852 34.938,29.674 34.894,27.43 C34.85,25.978 34.916,24.086 34.85,22.084 C34.828,21.138 34.894,20.016 33.904,20.016 C32.364,20.016 31.924,22.282 31.924,23.8 L31.924,26.814 C31.66,26.814 31.374,26.836 31.088,26.836 C28.888,26.836 27.084,26.902 24.862,26.902 C24.928,25.252 24.994,23.426 25.192,21.732 C25.302,20.654 24.928,20.016 23.96,19.972 C22.574,19.906 22.002,22.304 22.002,23.426 C22.002,24.746 21.936,25.758 21.936,27.034 C21.936,29.586 21.804,32.072 21.804,34.58 C21.804,35.592 21.298,37.396 22.816,37.396 C24.312,37.396 24.84,34.778 24.84,33.634 C24.84,32.292 24.818,31.28 24.796,30.18 C26.402,30.18 28.25,30.07 29.856,30.048 C30.362,30.048 31.176,29.916 31.924,29.652 C31.924,31.566 31.88,33.436 31.836,35.438 C31.814,36.23 31.55,37.528 32.672,37.528 C34.102,37.528 34.828,35.35 34.894,34.118 L34.894,34.118 Z M46.95,29.036 C45.168,29.146 42.066,29.19 40.196,29.19 C40.614,28.046 41.538,26.66 43.804,26.66 C45.3,26.66 46.95,27.276 46.95,29.036 L46.95,29.036 Z M48.93,29.608 C48.93,28.156 48.534,26.176 47.412,25.12 C46.246,24.02 45.102,24.042 43.496,24.042 C41.978,24.042 39.822,25.494 39.118,26.594 C38.194,28.046 37.358,30.026 37.358,31.852 C37.358,35.086 40.46,37.638 43.342,37.638 C45.146,37.638 48.094,37.154 48.754,35.064 C48.886,34.624 48.82,33.854 48.424,33.854 C47.082,33.854 46.84,34.69 45.168,34.866 C43.628,35.02 42.44,34.866 41.912,34.602 C40.658,33.942 39.8,32.622 39.888,31.676 C42.33,31.676 43.43,31.72 45.872,31.72 C47.39,31.72 48.93,31.258 48.93,29.608 L48.93,29.608 Z M58.764,31.434 C58.742,32.38 58.698,33.304 58.676,34.228 C57.664,34.602 56.762,34.866 55.64,34.866 C54.364,34.866 53.242,34.338 53.242,32.93 C53.242,31.104 56.058,31.192 56.894,31.236 C57.356,31.258 58.148,31.39 58.764,31.434 L58.764,31.434 Z M61.382,33.04 C61.382,30.95 61.624,27.936 60.964,26.132 C60.348,24.438 58.06,23.976 56.3,23.976 C55.178,23.976 53.88,24.262 52.78,24.702 C51.966,25.032 51.394,25.824 51.394,26.792 C51.394,26.924 51.416,27.584 51.988,27.584 C52.56,27.584 54.056,26.748 55.662,26.748 C57.532,26.748 58.5,27.122 58.72,28.728 C57.444,28.662 55.332,28.772 54.232,29.212 C52.626,29.828 50.382,31.654 50.382,33.612 C50.382,35.636 51.944,37.616 53.99,37.616 C54.606,37.616 55.772,37.506 56.256,37.396 C56.916,37.242 57.818,36.868 58.632,36.384 C58.698,37 58.962,37.484 59.776,37.484 C61.536,37.484 61.382,34.492 61.382,33.04 L61.382,33.04 Z M72.184,33.568 C71.898,33.788 71.612,33.986 71.37,34.118 C70.622,34.536 69.764,34.822 68.73,34.536 C66.926,34.03 66.398,31.896 66.398,30.224 C66.398,27.628 67.806,26.792 69.918,26.968 C70.644,27.034 71.436,27.32 72.096,27.606 C72.118,29.08 72.206,31.72 72.184,33.568 L72.184,33.568 Z M74.978,33.942 C74.978,32.6 74.78,31.082 74.78,29.784 C74.78,27.452 74.692,23.448 74.648,21.226 C74.626,20.17 74.56,19.312 73.57,19.312 C71.964,19.312 71.964,22.766 71.986,23.69 C71.986,24.02 72.008,24.328 72.008,24.592 C70.864,24.284 69.5,24.13 68.642,24.306 C65.98,24.834 63.582,28.332 63.582,30.906 C63.582,32.358 63.758,33.898 64.308,35.042 C65.012,36.516 66.552,37.396 68.202,37.396 C69.214,37.396 70.93,36.934 72.14,36.164 C72.162,36.758 72.338,37.264 72.888,37.264 C74.45,37.264 74.978,35.196 74.978,33.942 L74.978,33.942 Z M81.204,35.592 C81.138,35.13 80.984,34.822 80.918,34.382 C80.764,33.568 80.852,32.688 80.852,31.808 C80.83,30.092 80.896,28.618 80.896,26.902 C80.896,26.044 81.182,24.834 79.972,24.834 C78.608,24.834 78.41,27.342 78.41,28.574 C78.41,31.082 78.476,33.48 78.476,36.032 C78.476,36.78 78.718,37.418 79.444,37.418 C80.258,37.418 81.314,36.406 81.204,35.592 L81.204,35.592 Z M81.402,21.622 C81.402,20.522 80.632,20.258 79.752,20.368 C78.96,20.478 78.124,21.886 78.124,22.326 C78.124,23.03 78.806,23.536 79.356,23.536 C80.104,23.536 81.402,22.414 81.402,21.622 L81.402,21.622 Z M94.998,35.042 C94.866,33.304 94.778,30.95 94.734,29.19 C94.712,28.2 94.668,26.88 94.382,26 C93.92,24.548 92.204,24.152 90.774,24.152 C89.674,24.152 87.87,25.098 86.924,26 C86.968,25.098 87.012,24.372 85.89,24.372 C83.91,24.372 84.218,27.298 84.218,28.794 C84.218,31.192 84.482,32.908 84.13,35.394 C84.02,36.252 84.262,37.308 85.164,37.308 C86.968,37.308 86.726,34.184 86.726,32.886 C86.726,31.698 86.792,29.916 86.836,28.354 C87.738,27.606 88.904,26.99 89.784,26.99 C93.414,26.99 92.358,32.402 92.358,34.646 C92.358,35.526 92.204,37.594 93.238,37.616 C94.69,37.66 95.064,35.878 94.998,35.042 L94.998,35.042 Z M106.328,32.82 C105.646,33.172 104.458,33.744 102.984,33.612 C101.224,33.458 100.014,32.468 100.014,30.576 C100.014,27.276 101.906,27.298 103.6,27.298 C104.348,27.298 105.558,27.672 106.306,28.002 C106.262,29.52 106.306,31.214 106.328,32.82 L106.328,32.82 Z M108.66,25.736 C108.66,24.856 108.044,23.536 106.9,24.416 C106.724,24.548 106.592,24.746 106.504,24.966 C105.602,24.57 104.348,24.416 103.6,24.416 C101.972,24.416 100.41,24.988 99.53,26.286 C98.804,27.364 97.638,29.762 97.638,31.126 C97.638,32.93 97.858,33.48 98.782,34.866 C99.442,35.856 100.85,36.472 102.06,36.472 C103.666,36.472 105.426,35.834 106.35,35.262 C106.35,36.076 106.35,36.89 106.24,37.726 C106.064,38.936 104.436,39.552 103.38,39.552 C102.082,39.552 101.29,39.442 100.278,38.848 C98.518,37.814 98.32,39.464 98.628,40.366 C99.09,41.752 101.158,42.082 102.544,42.082 C105.096,42.082 108.11,39.97 108.55,37.396 C108.858,35.658 108.528,33.788 108.55,32.05 C108.594,29.96 108.66,27.826 108.66,25.736 L108.66,25.736 Z" id="Heading" fill="#3B3B3B" sketch:type="MSShapeGroup"></path>
        </g>
    </g>
</svg>