<?xml version="1.0" encoding="UTF-8" standalone="no"?>
<svg width="200px" height="200px" viewBox="0 0 200 200" version="1.1" xmlns="http://www.w3.org/2000/svg" xmlns:xlink="http://www.w3.org/1999/xlink" xmlns:sketch="http://www.bohemiancoding.com/sketch/ns">
    <!-- Generator: Sketch 3.2.2 (9983) - http://www.bohemiancoding.com/sketch -->
    <title>hit.header_top-image_right</title>
    <desc>Created with Sketch.</desc>
    <defs></defs>
    <g id="Page-1" stroke="none" stroke-width="1" fill="none" fill-rule="evenodd" sketch:type="MSPage">
        <g id="hit.header_top-image_right" sketch:type="MSArtboardGroup">
            <rect id="Rectangle-1" fill="#EEEEEE" sketch:type="MSShapeGroup" x="0" y="0" width="200" height="200"></rect>
            <text id="Heading" sketch:type="MSTextLayer" font-family="CCLegendaryLegerdemain" font-size="24" font-weight="normal" fill="#3B3B3B">
                <tspan x="17" y="39">Heading</tspan>
            </text>
            <text id="Some-things-in-life-" sketch:type="MSTextLayer" font-family="Verdana" font-size="9" font-weight="normal" fill="#000000">
                <tspan x="19" y="67">Some things in </tspan>
                <tspan x="19" y="78">life are bad / </tspan>
                <tspan x="19" y="89">They can really </tspan>
                <tspan x="19" y="100">make you mad / </tspan>
                <tspan x="19" y="111">Other things </tspan>
                <tspan x="19" y="122">just make you </tspan>
                <tspan x="19" y="133">swear and </tspan>
                <tspan x="19" y="144">curse / When </tspan>
                <tspan x="19" y="155">you're chewing </tspan>
                <tspan x="19" y="166">on life's gristle / </tspan>
                <tspan x="19" y="177">Don't grumble, </tspan>
                <tspan x="19" y="188">give a whistle / </tspan>
                <tspan x="19" y="199">And this'll help </tspan>
                <tspan x="19" y="210">things turn out </tspan>
                <tspan x="19" y="221">for the best... / </tspan>
                <tspan x="19" y="232">And... / ...alway</tspan>
                <tspan x="19" y="243">s look on the </tspan>
                <tspan x="19" y="254">bright side / of </tspan>
                <tspan x="19" y="265">life... / </tspan>
                <tspan x="19" y="276">(Whistle) / </tspan>
                <tspan x="19" y="287">Always look on </tspan>
                <tspan x="19" y="298">the light side / </tspan>
                <tspan x="19" y="309">of life... / </tspan>
                <tspan x="19" y="320">(Whistle) / If </tspan>
                <tspan x="19" y="331">life seems jolly </tspan>
                <tspan x="19" y="342">rotten / There's </tspan>
                <tspan x="19" y="353">something </tspan>
                <tspan x="19" y="364">you've </tspan>
                <tspan x="19" y="375">forgotten / And </tspan>
                <tspan x="19" y="386">that's to laugh </tspan>
                <tspan x="19" y="397">and smile and </tspan>
                <tspan x="19" y="408">dance and </tspan>
                <tspan x="19" y="419">sing / When </tspan>
                <tspan x="19" y="430">you're feeling in </tspan>
                <tspan x="19" y="441">the dumps / </tspan>
                <tspan x="19" y="452">Don't be silly </tspan>
                <tspan x="19" y="463">chumps / Just </tspan>
                <tspan x="19" y="474">purse your lips </tspan>
                <tspan x="19" y="485">and whistle / - </tspan>
                <tspan x="19" y="496">that's the </tspan>
                <tspan x="19" y="507">thing. / </tspan>
                <tspan x="19" y="518">And...always </tspan>
                <tspan x="19" y="529">look on the </tspan>
                <tspan x="19" y="540">bright / side of </tspan>
                <tspan x="19" y="551">life... / </tspan>
                <tspan x="19" y="562">(Whistle)</tspan>
            </text>
            <g id="Rectangle-3" sketch:type="MSLayerGroup" transform="translate(110.000000, 59.000000)" fill="#6E1EAB">
                <rect sketch:type="MSShapeGroup" x="0" y="0" width="70" height="69"></rect>
            </g>
            <rect id="Rectangle-42" fill="#EDEDED" sketch:type="MSShapeGroup" x="0" y="180" width="200" height="20"></rect>
        </g>
    </g>
</svg>