<?xml version="1.0" encoding="UTF-8" standalone="no"?>
<svg width="200px" height="200px" viewBox="0 0 200 200" version="1.1" xmlns="http://www.w3.org/2000/svg" xmlns:xlink="http://www.w3.org/1999/xlink" xmlns:sketch="http://www.bohemiancoding.com/sketch/ns">
    <!-- Generator: Sketch 3.4.4 (17249) - http://www.bohemiancoding.com/sketch -->
    <title>hit.header_right</title>
    <desc>Created with Sketch.</desc>
    <defs></defs>
    <g id="Page-1" stroke="none" stroke-width="1" fill="none" fill-rule="evenodd" sketch:type="MSPage">
        <g id="hit.header_right" sketch:type="MSArtboardGroup">
            <rect id="Rectangle-1" fill="#EEEEEE" sketch:type="MSShapeGroup" x="0" y="0" width="200" height="200"></rect>
            <g id="Rectangle-3" sketch:type="MSLayerGroup" transform="translate(20.000000, 20.000000)" fill="#6E1EAB">
                <rect sketch:type="MSShapeGroup" x="0" y="0" width="70" height="69"></rect>
            </g>
            <rect id="Rectangle-42" fill="#EDEDED" sketch:type="MSShapeGroup" x="0" y="181" width="200" height="20"></rect>
            <path d="M119.186,28.642 C119.294,26.788 119.222,25.006 119.186,23.17 C119.15,21.982 119.204,20.434 119.15,18.796 C119.132,18.022 119.186,17.104 118.376,17.104 C117.116,17.104 116.756,18.958 116.756,20.2 L116.756,22.666 C116.54,22.666 116.306,22.684 116.072,22.684 C114.272,22.684 112.796,22.738 110.978,22.738 C111.032,21.388 111.086,19.894 111.248,18.508 C111.338,17.626 111.032,17.104 110.24,17.068 C109.106,17.014 108.638,18.976 108.638,19.894 C108.638,20.974 108.584,21.802 108.584,22.846 C108.584,24.934 108.476,26.968 108.476,29.02 C108.476,29.848 108.062,31.324 109.304,31.324 C110.528,31.324 110.96,29.182 110.96,28.246 C110.96,27.148 110.942,26.32 110.924,25.42 C112.238,25.42 113.75,25.33 115.064,25.312 C115.478,25.312 116.144,25.204 116.756,24.988 C116.756,26.554 116.72,28.084 116.684,29.722 C116.666,30.37 116.45,31.432 117.368,31.432 C118.538,31.432 119.132,29.65 119.186,28.642 L119.186,28.642 Z M129.05,24.484 C127.592,24.574 125.054,24.61 123.524,24.61 C123.866,23.674 124.622,22.54 126.476,22.54 C127.7,22.54 129.05,23.044 129.05,24.484 L129.05,24.484 Z M130.67,24.952 C130.67,23.764 130.346,22.144 129.428,21.28 C128.474,20.38 127.538,20.398 126.224,20.398 C124.982,20.398 123.218,21.586 122.642,22.486 C121.886,23.674 121.202,25.294 121.202,26.788 C121.202,29.434 123.74,31.522 126.098,31.522 C127.574,31.522 129.986,31.126 130.526,29.416 C130.634,29.056 130.58,28.426 130.256,28.426 C129.158,28.426 128.96,29.11 127.592,29.254 C126.332,29.38 125.36,29.254 124.928,29.038 C123.902,28.498 123.2,27.418 123.272,26.644 C125.27,26.644 126.17,26.68 128.168,26.68 C129.41,26.68 130.67,26.302 130.67,24.952 L130.67,24.952 Z M138.716,26.446 C138.698,27.22 138.662,27.976 138.644,28.732 C137.816,29.038 137.078,29.254 136.16,29.254 C135.116,29.254 134.198,28.822 134.198,27.67 C134.198,26.176 136.502,26.248 137.186,26.284 C137.564,26.302 138.212,26.41 138.716,26.446 L138.716,26.446 Z M140.858,27.76 C140.858,26.05 141.056,23.584 140.516,22.108 C140.012,20.722 138.14,20.344 136.7,20.344 C135.782,20.344 134.72,20.578 133.82,20.938 C133.154,21.208 132.686,21.856 132.686,22.648 C132.686,22.756 132.704,23.296 133.172,23.296 C133.64,23.296 134.864,22.612 136.178,22.612 C137.708,22.612 138.5,22.918 138.68,24.232 C137.636,24.178 135.908,24.268 135.008,24.628 C133.694,25.132 131.858,26.626 131.858,28.228 C131.858,29.884 133.136,31.504 134.81,31.504 C135.314,31.504 136.268,31.414 136.664,31.324 C137.204,31.198 137.942,30.892 138.608,30.496 C138.662,31 138.878,31.396 139.544,31.396 C140.984,31.396 140.858,28.948 140.858,27.76 L140.858,27.76 Z M149.696,28.192 C149.462,28.372 149.228,28.534 149.03,28.642 C148.418,28.984 147.716,29.218 146.87,28.984 C145.394,28.57 144.962,26.824 144.962,25.456 C144.962,23.332 146.114,22.648 147.842,22.792 C148.436,22.846 149.084,23.08 149.624,23.314 C149.642,24.52 149.714,26.68 149.696,28.192 L149.696,28.192 Z M151.982,28.498 C151.982,27.4 151.82,26.158 151.82,25.096 C151.82,23.188 151.748,19.912 151.712,18.094 C151.694,17.23 151.64,16.528 150.83,16.528 C149.516,16.528 149.516,19.354 149.534,20.11 C149.534,20.38 149.552,20.632 149.552,20.848 C148.616,20.596 147.5,20.47 146.798,20.614 C144.62,21.046 142.658,23.908 142.658,26.014 C142.658,27.202 142.802,28.462 143.252,29.398 C143.828,30.604 145.088,31.324 146.438,31.324 C147.266,31.324 148.67,30.946 149.66,30.316 C149.678,30.802 149.822,31.216 150.272,31.216 C151.55,31.216 151.982,29.524 151.982,28.498 L151.982,28.498 Z M157.076,29.848 C157.022,29.47 156.896,29.218 156.842,28.858 C156.716,28.192 156.788,27.472 156.788,26.752 C156.77,25.348 156.824,24.142 156.824,22.738 C156.824,22.036 157.058,21.046 156.068,21.046 C154.952,21.046 154.79,23.098 154.79,24.106 C154.79,26.158 154.844,28.12 154.844,30.208 C154.844,30.82 155.042,31.342 155.636,31.342 C156.302,31.342 157.166,30.514 157.076,29.848 L157.076,29.848 Z M157.238,18.418 C157.238,17.518 156.608,17.302 155.888,17.392 C155.24,17.482 154.556,18.634 154.556,18.994 C154.556,19.57 155.114,19.984 155.564,19.984 C156.176,19.984 157.238,19.066 157.238,18.418 L157.238,18.418 Z M168.362,29.398 C168.254,27.976 168.182,26.05 168.146,24.61 C168.128,23.8 168.092,22.72 167.858,22 C167.48,20.812 166.076,20.488 164.906,20.488 C164.006,20.488 162.53,21.262 161.756,22 C161.792,21.262 161.828,20.668 160.91,20.668 C159.29,20.668 159.542,23.062 159.542,24.286 C159.542,26.248 159.758,27.652 159.47,29.686 C159.38,30.388 159.578,31.252 160.316,31.252 C161.792,31.252 161.594,28.696 161.594,27.634 C161.594,26.662 161.648,25.204 161.684,23.926 C162.422,23.314 163.376,22.81 164.096,22.81 C167.066,22.81 166.202,27.238 166.202,29.074 C166.202,29.794 166.076,31.486 166.922,31.504 C168.11,31.54 168.416,30.082 168.362,29.398 L168.362,29.398 Z M177.632,27.58 C177.074,27.868 176.102,28.336 174.896,28.228 C173.456,28.102 172.466,27.292 172.466,25.744 C172.466,23.044 174.014,23.062 175.4,23.062 C176.012,23.062 177.002,23.368 177.614,23.638 C177.578,24.88 177.614,26.266 177.632,27.58 L177.632,27.58 Z M179.54,21.784 C179.54,21.064 179.036,19.984 178.1,20.704 C177.956,20.812 177.848,20.974 177.776,21.154 C177.038,20.83 176.012,20.704 175.4,20.704 C174.068,20.704 172.79,21.172 172.07,22.234 C171.476,23.116 170.522,25.078 170.522,26.194 C170.522,27.67 170.702,28.12 171.458,29.254 C171.998,30.064 173.15,30.568 174.14,30.568 C175.454,30.568 176.894,30.046 177.65,29.578 C177.65,30.244 177.65,30.91 177.56,31.594 C177.416,32.584 176.084,33.088 175.22,33.088 C174.158,33.088 173.51,32.998 172.682,32.512 C171.242,31.666 171.08,33.016 171.332,33.754 C171.71,34.888 173.402,35.158 174.536,35.158 C176.624,35.158 179.09,33.43 179.45,31.324 C179.702,29.902 179.432,28.372 179.45,26.95 C179.486,25.24 179.54,23.494 179.54,21.784 L179.54,21.784 Z" id="Heading" fill="#3B3B3B" sketch:type="MSShapeGroup"></path>
            <text id="Some-things-in-life--Copy" sketch:type="MSTextLayer" font-family="Arial" font-size="9" font-weight="normal" fill="#000000">
                <tspan x="109" y="50.5">Some things in </tspan>
                <tspan x="109" y="60.7944336">life are bad / </tspan>
                <tspan x="109" y="71.0888672">They can really </tspan>
                <tspan x="109" y="81.3833008">make you mad / </tspan>
                <tspan x="109" y="91.6777344">Other things just </tspan>
                <tspan x="109" y="101.972168">make you swear </tspan>
                <tspan x="109" y="112.266602">and curse / </tspan>
                <tspan x="109" y="122.561035">When you’re </tspan>
                <tspan x="109" y="132.855469">chewing on life’s </tspan>
                <tspan x="109" y="143.149902">gristle / Don’t </tspan>
                <tspan x="109" y="153.444336">grumble, give a </tspan>
                <tspan x="109" y="163.73877">whistle / And </tspan>
                <tspan x="109" y="174.033203">this’ll help things </tspan>
                <tspan x="109" y="184.327637">turn out for the </tspan>
                <tspan x="109" y="194.62207">best …</tspan>
            </text>
        </g>
    </g>
</svg>