<?xml version="1.0" encoding="UTF-8" standalone="no"?>
<svg width="200px" height="200px" viewBox="0 0 200 200" version="1.1" xmlns="http://www.w3.org/2000/svg" xmlns:xlink="http://www.w3.org/1999/xlink" xmlns:sketch="http://www.bohemiancoding.com/sketch/ns">
    <!-- Generator: Sketch 3.3.2 (12043) - http://www.bohemiancoding.com/sketch -->
    <title>hl.default</title>
    <desc>Created with Sketch.</desc>
    <defs></defs>
    <g id="Page-1" stroke="none" stroke-width="1" fill="none" fill-rule="evenodd" sketch:type="MSPage">
        <g id="hl.default" sketch:type="MSArtboardGroup">
            <rect id="Rectangle-2" fill="#EEEEEE" sketch:type="MSShapeGroup" x="0" y="0" width="200" height="200"></rect>
            <path d="M67.036,83.856 C67.18,81.384 67.084,79.008 67.036,76.56 C66.988,74.976 67.06,72.912 66.988,70.728 C66.964,69.696 67.036,68.472 65.956,68.472 C64.276,68.472 63.796,70.944 63.796,72.6 L63.796,75.888 C63.508,75.888 63.196,75.912 62.884,75.912 C60.484,75.912 58.516,75.984 56.092,75.984 C56.164,74.184 56.236,72.192 56.452,70.344 C56.572,69.168 56.164,68.472 55.108,68.424 C53.596,68.352 52.972,70.968 52.972,72.192 C52.972,73.632 52.9,74.736 52.9,76.128 C52.9,78.912 52.756,81.624 52.756,84.36 C52.756,85.464 52.204,87.432 53.86,87.432 C55.492,87.432 56.068,84.576 56.068,83.328 C56.068,81.864 56.044,80.76 56.02,79.56 C57.772,79.56 59.788,79.44 61.54,79.416 C62.092,79.416 62.98,79.272 63.796,78.984 C63.796,81.072 63.748,83.112 63.7,85.296 C63.676,86.16 63.388,87.576 64.612,87.576 C66.172,87.576 66.964,85.2 67.036,83.856 L67.036,83.856 Z M80.188,78.312 C78.244,78.432 74.86,78.48 72.82,78.48 C73.276,77.232 74.284,75.72 76.756,75.72 C78.388,75.72 80.188,76.392 80.188,78.312 L80.188,78.312 Z M82.348,78.936 C82.348,77.352 81.916,75.192 80.692,74.04 C79.42,72.84 78.172,72.864 76.42,72.864 C74.764,72.864 72.412,74.448 71.644,75.648 C70.636,77.232 69.724,79.392 69.724,81.384 C69.724,84.912 73.108,87.696 76.252,87.696 C78.22,87.696 81.436,87.168 82.156,84.888 C82.3,84.408 82.228,83.568 81.796,83.568 C80.332,83.568 80.068,84.48 78.244,84.672 C76.564,84.84 75.268,84.672 74.692,84.384 C73.324,83.664 72.388,82.224 72.484,81.192 C75.148,81.192 76.348,81.24 79.012,81.24 C80.668,81.24 82.348,80.736 82.348,78.936 L82.348,78.936 Z M93.076,80.928 C93.052,81.96 93.004,82.968 92.98,83.976 C91.876,84.384 90.892,84.672 89.668,84.672 C88.276,84.672 87.052,84.096 87.052,82.56 C87.052,80.568 90.124,80.664 91.036,80.712 C91.54,80.736 92.404,80.88 93.076,80.928 L93.076,80.928 Z M95.932,82.68 C95.932,80.4 96.196,77.112 95.476,75.144 C94.804,73.296 92.308,72.792 90.388,72.792 C89.164,72.792 87.748,73.104 86.548,73.584 C85.66,73.944 85.036,74.808 85.036,75.864 C85.036,76.008 85.06,76.728 85.684,76.728 C86.308,76.728 87.94,75.816 89.692,75.816 C91.732,75.816 92.788,76.224 93.028,77.976 C91.636,77.904 89.332,78.024 88.132,78.504 C86.38,79.176 83.932,81.168 83.932,83.304 C83.932,85.512 85.636,87.672 87.868,87.672 C88.54,87.672 89.812,87.552 90.34,87.432 C91.06,87.264 92.044,86.856 92.932,86.328 C93.004,87 93.292,87.528 94.18,87.528 C96.1,87.528 95.932,84.264 95.932,82.68 L95.932,82.68 Z M107.716,83.256 C107.404,83.496 107.092,83.712 106.828,83.856 C106.012,84.312 105.076,84.624 103.948,84.312 C101.98,83.76 101.404,81.432 101.404,79.608 C101.404,76.776 102.94,75.864 105.244,76.056 C106.036,76.128 106.9,76.44 107.62,76.752 C107.644,78.36 107.74,81.24 107.716,83.256 L107.716,83.256 Z M110.764,83.664 C110.764,82.2 110.548,80.544 110.548,79.128 C110.548,76.584 110.452,72.216 110.404,69.792 C110.38,68.64 110.308,67.704 109.228,67.704 C107.476,67.704 107.476,71.472 107.5,72.48 C107.5,72.84 107.524,73.176 107.524,73.464 C106.276,73.128 104.788,72.96 103.852,73.152 C100.948,73.728 98.332,77.544 98.332,80.352 C98.332,81.936 98.524,83.616 99.124,84.864 C99.892,86.472 101.572,87.432 103.372,87.432 C104.476,87.432 106.348,86.928 107.668,86.088 C107.692,86.736 107.884,87.288 108.484,87.288 C110.188,87.288 110.764,85.032 110.764,83.664 L110.764,83.664 Z M117.556,85.464 C117.484,84.96 117.316,84.624 117.244,84.144 C117.076,83.256 117.172,82.296 117.172,81.336 C117.148,79.464 117.22,77.856 117.22,75.984 C117.22,75.048 117.532,73.728 116.212,73.728 C114.724,73.728 114.508,76.464 114.508,77.808 C114.508,80.544 114.58,83.16 114.58,85.944 C114.58,86.76 114.844,87.456 115.636,87.456 C116.524,87.456 117.676,86.352 117.556,85.464 L117.556,85.464 Z M117.772,70.224 C117.772,69.024 116.932,68.736 115.972,68.856 C115.108,68.976 114.196,70.512 114.196,70.992 C114.196,71.76 114.94,72.312 115.54,72.312 C116.356,72.312 117.772,71.088 117.772,70.224 L117.772,70.224 Z M132.604,84.864 C132.46,82.968 132.364,80.4 132.316,78.48 C132.292,77.4 132.244,75.96 131.932,75 C131.428,73.416 129.556,72.984 127.996,72.984 C126.796,72.984 124.828,74.016 123.796,75 C123.844,74.016 123.892,73.224 122.668,73.224 C120.508,73.224 120.844,76.416 120.844,78.048 C120.844,80.664 121.132,82.536 120.748,85.248 C120.628,86.184 120.892,87.336 121.876,87.336 C123.844,87.336 123.58,83.928 123.58,82.512 C123.58,81.216 123.652,79.272 123.7,77.568 C124.684,76.752 125.956,76.08 126.916,76.08 C130.876,76.08 129.724,81.984 129.724,84.432 C129.724,85.392 129.556,87.648 130.684,87.672 C132.268,87.72 132.676,85.776 132.604,84.864 L132.604,84.864 Z M144.964,82.44 C144.22,82.824 142.924,83.448 141.316,83.304 C139.396,83.136 138.076,82.056 138.076,79.992 C138.076,76.392 140.14,76.416 141.988,76.416 C142.804,76.416 144.124,76.824 144.94,77.184 C144.892,78.84 144.94,80.688 144.964,82.44 L144.964,82.44 Z M147.508,74.712 C147.508,73.752 146.836,72.312 145.588,73.272 C145.396,73.416 145.252,73.632 145.156,73.872 C144.172,73.44 142.804,73.272 141.988,73.272 C140.212,73.272 138.508,73.896 137.548,75.312 C136.756,76.488 135.484,79.104 135.484,80.592 C135.484,82.56 135.724,83.16 136.732,84.672 C137.452,85.752 138.988,86.424 140.308,86.424 C142.06,86.424 143.98,85.728 144.988,85.104 C144.988,85.992 144.988,86.88 144.868,87.792 C144.676,89.112 142.9,89.784 141.748,89.784 C140.332,89.784 139.468,89.664 138.364,89.016 C136.444,87.888 136.228,89.688 136.564,90.672 C137.068,92.184 139.324,92.544 140.836,92.544 C143.62,92.544 146.908,90.24 147.388,87.432 C147.724,85.536 147.364,83.496 147.388,81.6 C147.436,79.32 147.508,76.992 147.508,74.712 L147.508,74.712 Z" id="Heading" fill="#3B3B3B" sketch:type="MSShapeGroup"></path>
        </g>
    </g>
</svg>