<?xml version="1.0" encoding="UTF-8" standalone="no"?>
<svg width="200px" height="200px" viewBox="0 0 200 200" version="1.1" xmlns="http://www.w3.org/2000/svg" xmlns:xlink="http://www.w3.org/1999/xlink" xmlns:sketch="http://www.bohemiancoding.com/sketch/ns">
    <!-- Generator: Sketch 3.4.4 (17249) - http://www.bohemiancoding.com/sketch -->
    <title>ht.default</title>
    <desc>Created with Sketch.</desc>
    <defs></defs>
    <g id="Page-1" stroke="none" stroke-width="1" fill="none" fill-rule="evenodd" sketch:type="MSPage">
        <g id="ht.default" sketch:type="MSArtboardGroup">
            <rect id="Rectangle-2" fill="#EEEEEE" sketch:type="MSShapeGroup" x="0" y="0" width="200" height="200"></rect>
            <rect id="Rectangle-42" fill="#EDEDED" sketch:type="MSShapeGroup" x="0" y="180" width="200" height="20"></rect>
            <path d="M34.248,34.856 C34.392,32.384 34.296,30.008 34.248,27.56 C34.2,25.976 34.272,23.912 34.2,21.728 C34.176,20.696 34.248,19.472 33.168,19.472 C31.488,19.472 31.008,21.944 31.008,23.6 L31.008,26.888 C30.72,26.888 30.408,26.912 30.096,26.912 C27.696,26.912 25.728,26.984 23.304,26.984 C23.376,25.184 23.448,23.192 23.664,21.344 C23.784,20.168 23.376,19.472 22.32,19.424 C20.808,19.352 20.184,21.968 20.184,23.192 C20.184,24.632 20.112,25.736 20.112,27.128 C20.112,29.912 19.968,32.624 19.968,35.36 C19.968,36.464 19.416,38.432 21.072,38.432 C22.704,38.432 23.28,35.576 23.28,34.328 C23.28,32.864 23.256,31.76 23.232,30.56 C24.984,30.56 27,30.44 28.752,30.416 C29.304,30.416 30.192,30.272 31.008,29.984 C31.008,32.072 30.96,34.112 30.912,36.296 C30.888,37.16 30.6,38.576 31.824,38.576 C33.384,38.576 34.176,36.2 34.248,34.856 L34.248,34.856 Z M47.4,29.312 C45.456,29.432 42.072,29.48 40.032,29.48 C40.488,28.232 41.496,26.72 43.968,26.72 C45.6,26.72 47.4,27.392 47.4,29.312 L47.4,29.312 Z M49.56,29.936 C49.56,28.352 49.128,26.192 47.904,25.04 C46.632,23.84 45.384,23.864 43.632,23.864 C41.976,23.864 39.624,25.448 38.856,26.648 C37.848,28.232 36.936,30.392 36.936,32.384 C36.936,35.912 40.32,38.696 43.464,38.696 C45.432,38.696 48.648,38.168 49.368,35.888 C49.512,35.408 49.44,34.568 49.008,34.568 C47.544,34.568 47.28,35.48 45.456,35.672 C43.776,35.84 42.48,35.672 41.904,35.384 C40.536,34.664 39.6,33.224 39.696,32.192 C42.36,32.192 43.56,32.24 46.224,32.24 C47.88,32.24 49.56,31.736 49.56,29.936 L49.56,29.936 Z M60.288,31.928 C60.264,32.96 60.216,33.968 60.192,34.976 C59.088,35.384 58.104,35.672 56.88,35.672 C55.488,35.672 54.264,35.096 54.264,33.56 C54.264,31.568 57.336,31.664 58.248,31.712 C58.752,31.736 59.616,31.88 60.288,31.928 L60.288,31.928 Z M63.144,33.68 C63.144,31.4 63.408,28.112 62.688,26.144 C62.016,24.296 59.52,23.792 57.6,23.792 C56.376,23.792 54.96,24.104 53.76,24.584 C52.872,24.944 52.248,25.808 52.248,26.864 C52.248,27.008 52.272,27.728 52.896,27.728 C53.52,27.728 55.152,26.816 56.904,26.816 C58.944,26.816 60,27.224 60.24,28.976 C58.848,28.904 56.544,29.024 55.344,29.504 C53.592,30.176 51.144,32.168 51.144,34.304 C51.144,36.512 52.848,38.672 55.08,38.672 C55.752,38.672 57.024,38.552 57.552,38.432 C58.272,38.264 59.256,37.856 60.144,37.328 C60.216,38 60.504,38.528 61.392,38.528 C63.312,38.528 63.144,35.264 63.144,33.68 L63.144,33.68 Z M74.928,34.256 C74.616,34.496 74.304,34.712 74.04,34.856 C73.224,35.312 72.288,35.624 71.16,35.312 C69.192,34.76 68.616,32.432 68.616,30.608 C68.616,27.776 70.152,26.864 72.456,27.056 C73.248,27.128 74.112,27.44 74.832,27.752 C74.856,29.36 74.952,32.24 74.928,34.256 L74.928,34.256 Z M77.976,34.664 C77.976,33.2 77.76,31.544 77.76,30.128 C77.76,27.584 77.664,23.216 77.616,20.792 C77.592,19.64 77.52,18.704 76.44,18.704 C74.688,18.704 74.688,22.472 74.712,23.48 C74.712,23.84 74.736,24.176 74.736,24.464 C73.488,24.128 72,23.96 71.064,24.152 C68.16,24.728 65.544,28.544 65.544,31.352 C65.544,32.936 65.736,34.616 66.336,35.864 C67.104,37.472 68.784,38.432 70.584,38.432 C71.688,38.432 73.56,37.928 74.88,37.088 C74.904,37.736 75.096,38.288 75.696,38.288 C77.4,38.288 77.976,36.032 77.976,34.664 L77.976,34.664 Z M84.768,36.464 C84.696,35.96 84.528,35.624 84.456,35.144 C84.288,34.256 84.384,33.296 84.384,32.336 C84.36,30.464 84.432,28.856 84.432,26.984 C84.432,26.048 84.744,24.728 83.424,24.728 C81.936,24.728 81.72,27.464 81.72,28.808 C81.72,31.544 81.792,34.16 81.792,36.944 C81.792,37.76 82.056,38.456 82.848,38.456 C83.736,38.456 84.888,37.352 84.768,36.464 L84.768,36.464 Z M84.984,21.224 C84.984,20.024 84.144,19.736 83.184,19.856 C82.32,19.976 81.408,21.512 81.408,21.992 C81.408,22.76 82.152,23.312 82.752,23.312 C83.568,23.312 84.984,22.088 84.984,21.224 L84.984,21.224 Z M99.816,35.864 C99.672,33.968 99.576,31.4 99.528,29.48 C99.504,28.4 99.456,26.96 99.144,26 C98.64,24.416 96.768,23.984 95.208,23.984 C94.008,23.984 92.04,25.016 91.008,26 C91.056,25.016 91.104,24.224 89.88,24.224 C87.72,24.224 88.056,27.416 88.056,29.048 C88.056,31.664 88.344,33.536 87.96,36.248 C87.84,37.184 88.104,38.336 89.088,38.336 C91.056,38.336 90.792,34.928 90.792,33.512 C90.792,32.216 90.864,30.272 90.912,28.568 C91.896,27.752 93.168,27.08 94.128,27.08 C98.088,27.08 96.936,32.984 96.936,35.432 C96.936,36.392 96.768,38.648 97.896,38.672 C99.48,38.72 99.888,36.776 99.816,35.864 L99.816,35.864 Z M112.176,33.44 C111.432,33.824 110.136,34.448 108.528,34.304 C106.608,34.136 105.288,33.056 105.288,30.992 C105.288,27.392 107.352,27.416 109.2,27.416 C110.016,27.416 111.336,27.824 112.152,28.184 C112.104,29.84 112.152,31.688 112.176,33.44 L112.176,33.44 Z M114.72,25.712 C114.72,24.752 114.048,23.312 112.8,24.272 C112.608,24.416 112.464,24.632 112.368,24.872 C111.384,24.44 110.016,24.272 109.2,24.272 C107.424,24.272 105.72,24.896 104.76,26.312 C103.968,27.488 102.696,30.104 102.696,31.592 C102.696,33.56 102.936,34.16 103.944,35.672 C104.664,36.752 106.2,37.424 107.52,37.424 C109.272,37.424 111.192,36.728 112.2,36.104 C112.2,36.992 112.2,37.88 112.08,38.792 C111.888,40.112 110.112,40.784 108.96,40.784 C107.544,40.784 106.68,40.664 105.576,40.016 C103.656,38.888 103.44,40.688 103.776,41.672 C104.28,43.184 106.536,43.544 108.048,43.544 C110.832,43.544 114.12,41.24 114.6,38.432 C114.936,36.536 114.576,34.496 114.6,32.6 C114.648,30.32 114.72,27.992 114.72,25.712 L114.72,25.712 Z" id="Heading" fill="#3B3B3B" sketch:type="MSShapeGroup"></path>
            <text id="Some-things-in-life--Copy" sketch:type="MSTextLayer" font-family="Arial" font-size="9" font-weight="normal" fill="#000000">
                <tspan x="21" y="70">Some things in life are bad / They can </tspan>
                <tspan x="21" y="80.2944336">really make you mad / Other things just </tspan>
                <tspan x="21" y="90.5888672">make you swear and curse / When </tspan>
                <tspan x="21" y="100.883301">you’re chewing on life’s gristle / Don’t </tspan>
                <tspan x="21" y="111.177734">grumble, give a whistle / And this’ll help </tspan>
                <tspan x="21" y="121.472168">things turn out for the best …</tspan>
            </text>
        </g>
    </g>
</svg>