<?xml version="1.0" encoding="UTF-8"?>
<svg width="1280px" height="1664px" viewBox="0 0 1280 1664" version="1.1" xmlns="http://www.w3.org/2000/svg" xmlns:xlink="http://www.w3.org/1999/xlink">
    <!-- Generator: Sketch 43.2 (39069) - http://www.bohemiancoding.com/sketch -->
    <title>Shape</title>
    <desc>Created with Sketch.</desc>
    <defs></defs>
    <g id="Page-1" stroke="none" stroke-width="1" fill="none" fill-rule="evenodd">
        <g id="icon-pinterest" fill-rule="nonzero" fill="#000000">
            <path d="M0,597 C0,525 12.5,457.166667 37.5,393.5 C62.5,329.833333 97,274.333333 141,227 C185,179.666667 235.666667,138.666667 293,104 C350.333333,69.3333333 412,43.3333333 478,26 C544,8.66666667 611.333333,0 680,0 C785.333333,0 883.333333,22.1666667 974,66.5 C1064.66667,110.833333 1138.33333,175.333333 1195,260 C1251.66667,344.666667 1280,440.333333 1280,547 C1280,611 1273.66667,673.666667 1261,735 C1248.33333,796.333333 1228.33333,855.333333 1201,912 C1173.66667,968.666667 1140.33333,1018.5 1101,1061.5 C1061.66667,1104.5 1013.33333,1138.83333 956,1164.5 C898.666667,1190.16667 835.666667,1203 767,1203 C721.666667,1203 676.666667,1192.33333 632,1171 C587.333333,1149.66667 555.333333,1120.33333 536,1083 C529.333333,1109 520,1146.5 508,1195.5 C496,1244.5 488.166667,1276.16667 484.5,1290.5 C480.833333,1304.83333 474,1328.5 464,1361.5 C454,1394.5 445.333333,1418.16667 438,1432.5 C430.666667,1446.83333 420,1467.66667 406,1495 C392,1522.33333 376.666667,1548.16667 360,1572.5 C343.333333,1596.83333 322.666667,1625.66667 298,1659 L284,1664 L275,1654 C265,1549.33333 260,1486.66667 260,1466 C260,1404.66667 267.166667,1335.83333 281.5,1259.5 C295.833333,1183.16667 318,1087.33333 348,972 C378,856.666667 395.333333,789 400,769 C378.666667,725.666667 368,669.333333 368,600 C368,544.666667 385.333333,492.666667 420,444 C454.666667,395.333333 498.666667,371 552,371 C592.666667,371 624.333333,384.5 647,411.5 C669.666667,438.5 681,472.666667 681,514 C681,558 666.333333,621.666667 637,705 C607.666667,788.333333 593,850.666667 593,892 C593,934 608,968.833333 638,996.5 C668,1024.16667 704.333333,1038 747,1038 C783.666667,1038 817.666667,1029.66667 849,1013 C880.333333,996.333333 906.5,973.666667 927.5,945 C948.5,916.333333 967.166667,884.666667 983.5,850 C999.833333,815.333333 1012.5,778.5 1021.5,739.5 C1030.5,700.5 1037.16667,663.5 1041.5,628.5 C1045.83333,593.5 1048,560.333333 1048,529 C1048,413.666667 1011.5,323.833333 938.5,259.5 C865.5,195.166667 770.333333,163 653,163 C519.666667,163 408.333333,206.166667 319,292.5 C229.666667,378.833333 185,488.333333 185,621 C185,650.333333 189.166667,678.666667 197.5,706 C205.833333,733.333333 214.833333,755 224.5,771 C234.166667,787 243.166667,802.166667 251.5,816.5 C259.833333,830.833333 264,841 264,847 C264,865.666667 259,890 249,920 C239,950 226.666667,965 212,965 C210.666667,965 205,964 195,962 C161,952 130.833333,933.333333 104.5,906 C78.1666667,878.666667 57.8333333,847.166667 43.5,811.5 C29.1666667,775.833333 18.3333333,739.833333 11,703.5 C3.66666667,667.166667 0,631.666667 0,597 Z" id="Shape"></path>
        </g>
    </g>
</svg>