<?xml version="1.0" encoding="UTF-8"?>
<svg width="1920px" height="1466px" viewBox="0 0 1920 1466" version="1.1" xmlns="http://www.w3.org/2000/svg" xmlns:xlink="http://www.w3.org/1999/xlink">
    <!-- Generator: Sketch 43.2 (39069) - http://www.bohemiancoding.com/sketch -->
    <title>Shape</title>
    <desc>Created with Sketch.</desc>
    <defs></defs>
    <g id="Page-1" stroke="none" stroke-width="1" fill="none" fill-rule="evenodd">
        <g id="icon-stumbleupon" fill-rule="nonzero" fill="#000000">
            <path d="M1062,549 L1062,431 C1062,403 1052,379 1032,359 C1012,339 988,329 960,329 C932,329 908,339 888,359 C868,379 858,403 858,431 L858,1043 C858,1159.66667 816,1259.33333 732,1342 C648,1424.66667 547,1466 429,1466 C310.333333,1466 209.166667,1424.16667 125.5,1340.5 C41.8333333,1256.83333 0,1155.66667 0,1037 L0,771 L328,771 L328,1033 C328,1061.66667 338,1085.83333 358,1105.5 C378,1125.16667 402,1135 430,1135 C458,1135 482,1125.16667 502,1105.5 C522,1085.83333 532,1061.66667 532,1033 L532,413 C532,299 574.166667,201.666667 658.5,121 C742.833333,40.3333333 843.333333,0 960,0 C1077.33333,0 1178,40.6666667 1262,122 C1346,203.333333 1388,301.333333 1388,416 L1388,552 L1193,610 L1062,549 Z M1592,771 L1920,771 L1920,1037 C1920,1155.66667 1878.16667,1256.83333 1794.5,1340.5 C1710.83333,1424.16667 1609.66667,1466 1491,1466 C1373,1466 1272,1424.5 1188,1341.5 C1104,1258.5 1062,1158.33333 1062,1041 L1062,773 L1193,834 L1388,776 L1388,1046 C1388,1074 1398,1097.83333 1418,1117.5 C1438,1137.16667 1462,1147 1490,1147 C1518,1147 1542,1137.16667 1562,1117.5 C1582,1097.83333 1592,1074 1592,1046 L1592,771 Z" id="Shape"></path>
        </g>
    </g>
</svg>