<?xml version="1.0" encoding="UTF-8"?>
<svg width="1536px" height="1536px" viewBox="0 0 1536 1536" version="1.1" xmlns="http://www.w3.org/2000/svg" xmlns:xlink="http://www.w3.org/1999/xlink">
    <!-- Generator: Sketch 43.2 (39069) - http://www.bohemiancoding.com/sketch -->
    <title>Shape</title>
    <desc>Created with Sketch.</desc>
    <defs></defs>
    <g id="Page-1" stroke="none" stroke-width="1" fill="none" fill-rule="evenodd">
        <g id="icon-instagram" fill-rule="nonzero" fill="#000000">
            <path d="M1362,1298 L1362,650 L1227,650 C1240.33333,692 1247,735.666667 1247,781 C1247,865 1225.66667,942.5 1183,1013.5 C1140.33333,1084.5 1082.33333,1140.66667 1009,1182 C935.666667,1223.33333 855.666667,1244 769,1244 C637.666667,1244 525.333333,1198.83333 432,1108.5 C338.666667,1018.16667 292,909 292,781 C292,735.666667 298.666667,692 312,650 L171,650 L171,1298 C171,1315.33333 176.833333,1329.83333 188.5,1341.5 C200.166667,1353.16667 214.666667,1359 232,1359 L1301,1359 C1317.66667,1359 1332,1353.16667 1344,1341.5 C1356,1329.83333 1362,1315.33333 1362,1298 Z M1078,765 C1078,682.333333 1047.83333,611.833333 987.5,553.5 C927.166667,495.166667 854.333333,466 769,466 C684.333333,466 611.833333,495.166667 551.5,553.5 C491.166667,611.833333 461,682.333333 461,765 C461,847.666667 491.166667,918.166667 551.5,976.5 C611.833333,1034.83333 684.333333,1064 769,1064 C854.333333,1064 927.166667,1034.83333 987.5,976.5 C1047.83333,918.166667 1078,847.666667 1078,765 Z M1362,405 L1362,240 C1362,221.333333 1355.33333,205.166667 1342,191.5 C1328.66667,177.833333 1312.33333,171 1293,171 L1119,171 C1099.66667,171 1083.33333,177.833333 1070,191.5 C1056.66667,205.166667 1050,221.333333 1050,240 L1050,405 C1050,424.333333 1056.66667,440.666667 1070,454 C1083.33333,467.333333 1099.66667,474 1119,474 L1293,474 C1312.33333,474 1328.66667,467.333333 1342,454 C1355.33333,440.666667 1362,424.333333 1362,405 Z M1536,197 L1536,1339 C1536,1393 1516.66667,1439.33333 1478,1478 C1439.33333,1516.66667 1393,1536 1339,1536 L197,1536 C143,1536 96.6666667,1516.66667 58,1478 C19.3333333,1439.33333 0,1393 0,1339 L0,197 C0,143 19.3333333,96.6666667 58,58 C96.6666667,19.3333333 143,0 197,0 L1339,0 C1393,0 1439.33333,19.3333333 1478,58 C1516.66667,96.6666667 1536,143 1536,197 Z" id="Shape"></path>
        </g>
    </g>
</svg>