<?xml version="1.0" encoding="UTF-8"?>
<svg width="1576px" height="1280px" viewBox="0 0 1576 1280" version="1.1" xmlns="http://www.w3.org/2000/svg" xmlns:xlink="http://www.w3.org/1999/xlink">
    <!-- Generator: Sketch 43.2 (39069) - http://www.bohemiancoding.com/sketch -->
    <title>Shape</title>
    <desc>Created with Sketch.</desc>
    <defs></defs>
    <g id="Page-1" stroke="none" stroke-width="1" fill="none" fill-rule="evenodd">
        <g id="icon-twitter" fill-rule="nonzero" fill="#000000">
            <path d="M1576,152 C1531.33333,217.333333 1477.33333,273 1414,319 C1414.66667,328.333333 1415,342.333333 1415,361 C1415,447.666667 1402.33333,534.166667 1377,620.5 C1351.66667,706.833333 1313.16667,789.666667 1261.5,869 C1209.83333,948.333333 1148.33333,1018.5 1077,1079.5 C1005.66667,1140.5 919.666667,1189.16667 819,1225.5 C718.333333,1261.83333 610.666667,1280 496,1280 C315.333333,1280 150,1231.66667 0,1135 C23.3333333,1137.66667 49.3333333,1139 78,1139 C228,1139 361.666667,1093 479,1001 C409,999.666667 346.333333,978.166667 291,936.5 C235.666667,894.833333 197.666667,841.666667 177,777 C199,780.333333 219.333333,782 238,782 C266.666667,782 295,778.333333 323,771 C248.333333,755.666667 186.5,718.5 137.5,659.5 C88.5,600.5 64,532 64,454 L64,450 C109.333333,475.333333 158,489 210,491 C166,461.666667 131,423.333333 105,376 C79,328.666667 66,277.333333 66,222 C66,163.333333 80.6666667,109 110,59 C190.666667,158.333333 288.833333,237.833333 404.5,297.5 C520.166667,357.166667 644,390.333333 776,397 C770.666667,371.666667 768,347 768,323 C768,233.666667 799.5,157.5 862.5,94.5 C925.5,31.5 1001.66667,0 1091,0 C1184.33333,0 1263,34 1327,102 C1399.66667,88 1468,62 1532,24 C1507.33333,100.666667 1460,160 1390,202 C1452,195.333333 1514,178.666667 1576,152 Z" id="Shape"></path>
        </g>
    </g>
</svg>