<?xml version="1.0" encoding="UTF-8"?>
<svg width="1536px" height="1536px" viewBox="0 0 1536 1536" version="1.1" xmlns="http://www.w3.org/2000/svg" xmlns:xlink="http://www.w3.org/1999/xlink">
    <!-- Generator: Sketch 43.2 (39069) - http://www.bohemiancoding.com/sketch -->
    <title>Shape</title>
    <desc>Created with Sketch.</desc>
    <defs></defs>
    <g id="Page-1" stroke="none" stroke-width="1" fill="none" fill-rule="evenodd">
        <g id="icon-facebook" fill-rule="nonzero" fill="#000000">
            <path d="M1451,0 C1474.33333,0 1494.33333,8.33333333 1511,25 C1527.66667,41.6666667 1536,61.6666667 1536,85 L1536,1451 C1536,1474.33333 1527.66667,1494.33333 1511,1511 C1494.33333,1527.66667 1474.33333,1536 1451,1536 L1060,1536 L1060,941 L1259,941 L1289,709 L1060,709 L1060,561 C1060,523.666667 1067.83333,495.666667 1083.5,477 C1099.16667,458.333333 1129.66667,449 1175,449 L1297,448 L1297,241 C1255,235 1195.66667,232 1119,232 C1028.33333,232 955.833333,258.666667 901.5,312 C847.166667,365.333333 820,440.666667 820,538 L820,709 L620,709 L620,941 L820,941 L820,1536 L85,1536 C61.6666667,1536 41.6666667,1527.66667 25,1511 C8.33333333,1494.33333 0,1474.33333 0,1451 L0,85 C0,61.6666667 8.33333333,41.6666667 25,25 C41.6666667,8.33333333 61.6666667,0 85,0 L1451,0 Z" id="Shape"></path>
        </g>
    </g>
</svg>