<?xml version="1.0" encoding="UTF-8" standalone="no"?>
<svg width="60px" height="60px" viewBox="0 0 60 60" version="1.1" xmlns="http://www.w3.org/2000/svg" xmlns:xlink="http://www.w3.org/1999/xlink" xmlns:sketch="http://www.bohemiancoding.com/sketch/ns">
    <!-- Generator: Sketch 3.1 (8751) - http://www.bohemiancoding.com/sketch -->
    <title>balloon-alert</title>
    <desc>Created with Sketch.</desc>
    <defs></defs>
    <g id="Page-1" stroke="none" stroke-width="1" fill="none" fill-rule="evenodd" sketch:type="MSPage">
        <g id="balloon-alert" sketch:type="MSArtboardGroup">
            <g id="balloon---white-translucent" sketch:type="MSLayerGroup" transform="translate(3.000000, 1.000000)">
                <path d="M51.849441,26.615967 C51.5558085,19.4562822 49.3835412,11.9232709 43.7433675,7.09612976 C38.4661002,2.58001442 31.1065857,1.34815654 24.3556837,2.17777755 C18.6562183,2.87879506 13.0569955,5.0621277 8.79003341,8.94579815 C4.3343118,13.0017364 2.21664588,18.8144593 1.95746993,24.718035 C1.69805345,30.6317652 3.12562584,36.9750896 6.33585969,42.0023934 C7.9793118,44.576793 10.0850111,46.8267868 12.622049,48.5499423 C13.1855612,48.9329454 13.8065612,49.2089681 13.8868998,49.9566962 C13.951363,50.555034 13.8675969,51.1951843 13.7547261,51.7833079 C13.5027661,53.0943708 12.9682984,54.3711473 12.2684031,55.5066571 C14.0650757,55.0948033 16.4777572,54.4300433 17.7112183,52.9316004 C18.0885568,52.5207621 18.3157416,51.8303172 18.9182205,51.7082842 C19.3922539,51.6125335 19.8653252,51.8126962 20.3168686,51.9252915 C21.4792517,52.2157693 22.6631024,52.4233388 23.8537483,52.5595881 C28.9114076,53.14138 34.1758062,52.3993862 38.8149354,50.2932873 C43.182922,48.3104161 46.9190846,44.982793 49.0750557,40.6881648 C51.2526147,36.3503502 52.0471604,31.4347456 51.849441,26.615967 C51.7714477,24.7101504 51.8587016,26.8453388 51.849441,26.615967" id="Fill-1" fill-opacity="0.8" fill="#FFFFFF" sketch:type="MSShapeGroup"></path>
                <path d="M47.5360557,8.17250463 C40.1439488,-0.692953656 26.6710089,-1.76359423 16.3890601,2.13417302 C11.4213608,4.01788877 6.83713363,7.23984552 3.91271492,11.7081153 C1.080902,16.0347003 -0.0639821826,21.2579258 -0.00625389755,26.3727374 C0.0526169265,31.5983522 1.28896437,36.8785026 3.79467261,41.487621 C5.05344989,43.8034398 6.64284187,45.9468115 8.55455011,47.771691 C9.48000668,48.6560865 10.4787661,49.4634274 11.5404855,50.1792585 C12.2893898,50.6845335 11.2178686,52.8167353 10.8905011,53.4527642 C10.4449109,54.3169104 9.8285412,55.1539979 9.12293318,55.8252688 C8.68840757,56.2384964 8.39261024,56.7906612 8.71161915,57.3523831 C9.23682628,58.2652709 10.6242294,57.8335263 11.4462561,57.6867642 C12.9569332,57.4185664 14.4757884,57.0254089 15.9013163,56.4555036 C17.0790935,55.9839176 18.2234967,55.362105 19.1452851,54.4837425 C19.3710869,54.2682286 19.5822762,54.0384387 19.7744633,53.7926406 C20.1112116,53.8765046 20.4496437,53.9538579 20.7892183,54.0264325 C21.5825612,54.194758 22.3826993,54.3313656 23.1868664,54.4364943 C26.063118,54.8130463 28.993069,54.7893924 31.8617439,54.3559753 C36.7068909,53.6242554 41.5155969,51.7146756 45.2743697,48.5458805 C49.0927951,45.3275675 51.6626659,40.8962719 52.8740579,36.0949351 C55.1941336,26.9013079 53.7461759,15.6218908 47.5360557,8.17250463 M51.6015702,26.6381277 C51.7971247,31.4082842 51.0107572,36.275207 48.8549666,40.5700742 C46.7204031,44.8216952 43.0218241,48.1158084 38.6974343,50.0788486 C34.1046682,52.1631452 28.8930067,52.8979114 23.8858597,52.3227497 C22.707,52.1878744 21.5351759,51.9820968 20.3843385,51.6948445 C19.9374855,51.5828465 19.4689844,51.3848939 18.9998218,51.4792709 C18.4034165,51.6004676 18.1782762,52.2835654 17.8048463,52.6907003 C16.5835924,54.1740906 14.1949644,54.8322204 12.416392,55.2401916 C13.1092517,54.115792 13.6383675,52.8518579 13.887922,51.5534583 C13.9995902,50.9717858 14.0825145,50.3374892 14.0185924,49.7451843 C13.9391559,49.0046838 13.3242895,48.731827 12.76649,48.3525273 C10.2548886,46.6474706 8.17023608,44.418622 6.54302004,41.8706838 C3.36495768,36.8935551 1.9516971,30.6143234 2.20858797,24.7586529 C2.46499777,18.9151081 4.56155679,13.1600268 8.97277951,9.14500515 C13.1972873,5.29974253 18.7403452,3.13821215 24.3828641,2.44424305 C31.0664766,1.62268589 38.352147,2.84235839 43.5766771,7.31325644 C49.160265,12.0921936 51.3108241,19.5494645 51.6015702,26.6381277 C51.6108307,26.8653491 51.5244788,24.7514253 51.6015702,26.6381277" id="Fill-178" fill="#000000" sketch:type="MSShapeGroup"></path>
            </g>
            <g id="!?" sketch:type="MSLayerGroup" transform="translate(31.000000, 29.000000) rotate(-9.000000) translate(-31.000000, -29.000000) translate(13.000000, 11.000000)" fill="#000000">
                <path d="M18.3055698,31.3769223 C18.3055698,29.1597319 16.7420319,27.8860268 14.488698,27.8860268 C14.2127795,27.8860268 13.9368611,27.8860268 13.706929,27.9332011 C11.8214863,28.2162467 9.52216593,30.8108311 9.52216593,32.5562788 C9.52216593,34.3960751 11.2696494,36 13.2010785,36 C15.3164533,36 18.3055698,33.4997641 18.3055698,31.3769223 L18.3055698,31.3769223 Z M3.56843133,3.17936776 C0.932432963,4.13879271 -0.783896161,7.62498812 0.216445819,10.3734051 L2.07191885,15.4712754 C2.8947808,17.73207 3.58800348,20.0400495 4.41086543,22.3008441 C5.104651,24.2070043 6.69159015,28.2981732 9.3708016,27.32302 C12.7846355,26.080486 12.2388753,22.5641932 11.3843071,19.8129207 C10.0082429,15.4943941 8.62698806,11.0271514 7.84496304,6.59281589 C7.73258408,5.88069146 7.63633967,5.21289633 7.39432145,4.54795673 C6.73280498,2.73045517 5.16731558,2.59742149 3.56843133,3.17936776 Z M35.4662831,14.6229365 C35.5683266,14.3088788 35.6703702,13.9948211 35.7432557,13.6216874 C37.157244,6.88883654 33.6291831,3.01439253 27.6373959,1.06754287 C23.1763573,-0.381936444 16.003737,-1.07559754 14.1669533,4.57744158 C13.8170897,5.65421093 13.8900106,7.215565 15.0708738,7.5992507 C17.3451288,8.33820093 20.7273123,7.15544905 24.3573732,8.33492731 C25.844386,8.81808708 28.4831122,10.0722768 27.7542298,12.3155463 C25.8445578,18.1929124 19.4737245,15.9244954 16.1790395,18.6237359 C15.3189228,19.3363062 14.7212338,20.8781736 14.3859478,21.9100776 C13.715376,23.9738855 13.7445667,25.8186425 16.1500178,26.0049975 C19.153188,26.2863593 20.5235442,25.1939544 22.3020719,22.6965118 C27.4628295,21.5460322 33.5857664,20.4105718 35.4662831,14.6229365 L35.4662831,14.6229365 Z" sketch:type="MSShapeGroup"></path>
            </g>
        </g>
    </g>
</svg>