<?xml version="1.0" encoding="UTF-8" standalone="no"?>
<svg width="128px" height="40px" viewBox="0 0 128 40" version="1.1" xmlns="http://www.w3.org/2000/svg" xmlns:xlink="http://www.w3.org/1999/xlink" xmlns:sketch="http://www.bohemiancoding.com/sketch/ns">
    <!-- Generator: Sketch 3.3.2 (12043) - http://www.bohemiancoding.com/sketch -->
    <title>button-latest</title>
    <desc>Created with Sketch.</desc>
    <defs>
        <rect id="path-1" x="0" y="0" width="32" height="249"></rect>
        <rect id="path-3" x="0" y="0" width="32" height="249"></rect>
        <rect id="path-5" x="0" y="0" width="32" height="249"></rect>
        <rect id="path-7" x="0" y="0" width="32" height="249"></rect>
    </defs>
    <g id="Page-1" stroke="none" stroke-width="1" fill="none" fill-rule="evenodd" sketch:type="MSPage">
        <g id="button-latest" sketch:type="MSArtboardGroup">
            <g id="purple-+-purple-dots" sketch:type="MSLayerGroup" transform="translate(0.000000, -142.000000)">
                <mask id="mask-2" sketch:name="purple 2" fill="white">
                    <use xlink:href="#path-1"></use>
                </mask>
                <use id="purple-2" fill="#5835A1" sketch:type="MSShapeGroup" xlink:href="#path-1"></use>
                <path d="M1.33582034e-12,242.876007 C-1.36472889,245.335425 -3.98797315,247 -7,247 C-11.4182782,247 -15,243.418278 -15,239 C-15,234.581722 -11.4182782,231 -7,231 C-6.9764985,231 -6.95302066,231.000101 -6.92956691,231.000304 C-7.61035589,229.823542 -8,228.457274 -8,227 C-8,222.581722 -4.41827822,219 0,219 C4.41827822,219 8,222.581722 8,227 C8,228.489106 7.59314749,229.883187 6.88453848,231.077146 L6.88453848,231.077146 C7.24906757,231.026291 7.62146353,231 8,231 C8.37853647,231 8.75093243,231.026291 9.11546152,231.077146 L9.11546152,231.077146 C8.40685251,229.883187 8,228.489106 8,227 C8,222.581722 11.5817218,219 16,219 C20.4182782,219 24,222.581722 24,227 C24,228.457274 23.6103559,229.823542 22.9295669,231.000304 C22.9530207,231.000101 22.9764985,231 23,231 C23.7884151,231 24.5501924,231.11405 25.2697337,231.326552 L25.2697337,231.326552 C24.4662172,230.079204 24,228.594048 24,227 C24,222.581722 27.5817218,219 32,219 C36.4182782,219 40,222.581722 40,227 C40,228.477884 39.5992565,229.86217 38.9005073,231.050118 C42.8948679,231.497567 46,234.886162 46,239 C46,243.418278 42.4182782,247 38,247 C35.6106149,247 33.4658889,245.95249 32,244.291649 L32,250 L0,250 L0,242.876007 Z M29.7302663,234.673448 C30.0391189,235.152899 30.2981372,235.667485 30.5,236.209884 C30.663592,235.770317 30.8647218,235.349017 31.0994927,234.949882 C30.6295739,234.897241 30.1719624,234.803894 29.7302663,234.673448 L29.7302663,234.673448 Z M1.11546152,234.922854 C0.873831916,235.329984 0.667289099,235.760383 0.5,236.209884 L0.5,236.209884 C0.34319822,235.788562 0.151910068,235.384023 -0.0704330925,234.999696 C-0.0469793394,234.999899 -0.0235015042,235 0,235 C0.378536473,235 0.750932434,234.973709 1.11546152,234.922854 L1.11546152,234.922854 Z M14.8845385,234.922854 C15.1261681,235.329984 15.3327109,235.760383 15.5,236.209884 L15.5,236.209884 C15.6568018,235.788562 15.8480899,235.384023 16.0704331,234.999696 C16.0469793,234.999899 16.0235015,235 16,235 C15.6214635,235 15.2490676,234.973709 14.8845385,234.922854 L14.8845385,234.922854 Z M8,221 C11.8659934,221 15,217.865993 15,214 C15,210.134007 11.8659934,207 8,207 C4.13400656,207 1,210.134007 1,214 C1,217.865993 4.13400656,221 8,221 Z M8,193 C11.3137087,193 14,190.313709 14,187 C14,183.686291 11.3137087,181 8,181 C4.68629134,181 2,183.686291 2,187 C2,190.313709 4.68629134,193 8,193 Z M24,193 C27.3137087,193 30,190.313709 30,187 C30,183.686291 27.3137087,181 24,181 C20.6862913,181 18,183.686291 18,187 C18,190.313709 20.6862913,193 24,193 Z M16,179 C19.3137087,179 22,176.313709 22,173 C22,169.686291 19.3137087,167 16,167 C12.6862913,167 10,169.686291 10,173 C10,176.313709 12.6862913,179 16,179 Z M8,164 C10.7614239,164 13,161.761424 13,159 C13,156.238576 10.7614239,154 8,154 C5.23857611,154 3,156.238576 3,159 C3,161.761424 5.23857611,164 8,164 Z M24,164 C26.7614239,164 29,161.761424 29,159 C29,156.238576 26.7614239,154 24,154 C21.2385761,154 19,156.238576 19,159 C19,161.761424 21.2385761,164 24,164 Z M16,149 C18.7614239,149 21,146.761424 21,144 C21,141.238576 18.7614239,139 16,139 C13.2385761,139 11,141.238576 11,144 C11,146.761424 13.2385761,149 16,149 Z M8,133 C10.2091391,133 12,131.209139 12,129 C12,126.790861 10.2091391,125 8,125 C5.79086089,125 4,126.790861 4,129 C4,131.209139 5.79086089,133 8,133 Z M24,133 C26.2091391,133 28,131.209139 28,129 C28,126.790861 26.2091391,125 24,125 C21.7908609,125 20,126.790861 20,129 C20,131.209139 21.7908609,133 24,133 Z M16,117 C18.2091391,117 20,115.209139 20,113 C20,110.790861 18.2091391,109 16,109 C13.7908609,109 12,110.790861 12,113 C12,115.209139 13.7908609,117 16,117 Z M8,100 C9.65685433,100 11,98.6568543 11,97 C11,95.3431457 9.65685433,94 8,94 C6.34314567,94 5,95.3431457 5,97 C5,98.6568543 6.34314567,100 8,100 Z M24,100 C25.6568543,100 27,98.6568543 27,97 C27,95.3431457 25.6568543,94 24,94 C22.3431457,94 21,95.3431457 21,97 C21,98.6568543 22.3431457,100 24,100 Z M16,83 C17.6568543,83 19,81.6568543 19,80 C19,78.3431457 17.6568543,77 16,77 C14.3431457,77 13,78.3431457 13,80 C13,81.6568543 14.3431457,83 16,83 Z M8,63 C9.10456955,63 10,62.1045696 10,61 C10,59.8954304 9.10456955,59 8,59 C6.89543045,59 6,59.8954304 6,61 C6,62.1045696 6.89543045,63 8,63 Z M24,63 C25.1045696,63 26,62.1045696 26,61 C26,59.8954304 25.1045696,59 24,59 C22.8954304,59 22,59.8954304 22,61 C22,62.1045696 22.8954304,63 24,63 Z M0,83 C1.65685433,83 3,81.6568543 3,80 C3,78.3431457 1.65685433,77 0,77 C-1.65685433,77 -3,78.3431457 -3,80 C-3,81.6568543 -1.65685433,83 0,83 Z M32,83 C33.6568543,83 35,81.6568543 35,80 C35,78.3431457 33.6568543,77 32,77 C30.3431457,77 29,78.3431457 29,80 C29,81.6568543 30.3431457,83 32,83 Z M0,117 C2.20913911,117 4,115.209139 4,113 C4,110.790861 2.20913911,109 0,109 C-2.20913911,109 -4,110.790861 -4,113 C-4,115.209139 -2.20913911,117 0,117 Z M32,117 C34.2091391,117 36,115.209139 36,113 C36,110.790861 34.2091391,109 32,109 C29.7908609,109 28,110.790861 28,113 C28,115.209139 29.7908609,117 32,117 Z M0,149 C2.76142389,149 5,146.761424 5,144 C5,141.238576 2.76142389,139 0,139 C-2.76142389,139 -5,141.238576 -5,144 C-5,146.761424 -2.76142389,149 0,149 Z M32,149 C34.7614239,149 37,146.761424 37,144 C37,141.238576 34.7614239,139 32,139 C29.2385761,139 27,141.238576 27,144 C27,146.761424 29.2385761,149 32,149 Z M0,179 C3.31370866,179 6,176.313709 6,173 C6,169.686291 3.31370866,167 0,167 C-3.31370866,167 -6,169.686291 -6,173 C-6,176.313709 -3.31370866,179 0,179 Z M32,179 C35.3137087,179 38,176.313709 38,173 C38,169.686291 35.3137087,167 32,167 C28.6862913,167 26,169.686291 26,173 C26,176.313709 28.6862913,179 32,179 Z M24,221 C27.8659934,221 31,217.865993 31,214 C31,210.134007 27.8659934,207 24,207 C20.1340066,207 17,210.134007 17,214 C17,217.865993 20.1340066,221 24,221 Z M16,208 C19.8659934,208 23,204.865993 23,201 C23,197.134007 19.8659934,194 16,194 C12.1340066,194 9,197.134007 9,201 C9,204.865993 12.1340066,208 16,208 Z M0,208 C3.86599344,208 7,204.865993 7,201 C7,197.134007 3.86599344,194 0,194 C-3.86599344,194 -7,197.134007 -7,201 C-7,204.865993 -3.86599344,208 0,208 Z M32,208 C35.8659934,208 39,204.865993 39,201 C39,197.134007 35.8659934,194 32,194 C28.1340066,194 25,197.134007 25,201 C25,204.865993 28.1340066,208 32,208 Z M16,44 C17.1045696,44 18,43.1045696 18,42 C18,40.8954304 17.1045696,40 16,40 C14.8954304,40 14,40.8954304 14,42 C14,43.1045696 14.8954304,44 16,44 Z M8,22 C8.55228478,22 9,21.5522848 9,21 C9,20.4477152 8.55228478,20 8,20 C7.44771522,20 7,20.4477152 7,21 C7,21.5522848 7.44771522,22 8,22 Z M24,22 C24.5522848,22 25,21.5522848 25,21 C25,20.4477152 24.5522848,20 24,20 C23.4477152,20 23,20.4477152 23,21 C23,21.5522848 23.4477152,22 24,22 Z M32,2 C32.5522848,2 33,1.55228478 33,1 C33,0.447715223 32.5522848,0 32,0 C31.4477152,0 31,0.447715223 31,1 C31,1.55228478 31.4477152,2 32,2 Z M16,2 C16.5522848,2 17,1.55228478 17,1 C17,0.447715223 16.5522848,0 16,0 C15.4477152,0 15,0.447715223 15,1 C15,1.55228478 15.4477152,2 16,2 Z M0,2 C0.552284777,2 1,1.55228478 1,1 C1,0.447715223 0.552284777,0 0,0 C-0.552284777,0 -1,0.447715223 -1,1 C-1,1.55228478 -0.552284777,2 0,2 Z M0,44 C1.10456955,44 2,43.1045696 2,42 C2,40.8954304 1.10456955,40 0,40 C-1.10456955,40 -2,40.8954304 -2,42 C-2,43.1045696 -1.10456955,44 0,44 Z M32,44 C33.1045696,44 34,43.1045696 34,42 C34,40.8954304 33.1045696,40 32,40 C30.8954304,40 30,40.8954304 30,42 C30,43.1045696 30.8954304,44 32,44 Z" id="purple-dots-2" opacity="0.25" fill="#7855C1" sketch:type="MSShapeGroup" mask="url(#mask-2)"></path>
            </g>
            <g id="purple-+-purple-dots" sketch:type="MSLayerGroup" transform="translate(32.000000, -142.000000)">
                <mask id="mask-4" sketch:name="purple 3" fill="white">
                    <use xlink:href="#path-3"></use>
                </mask>
                <use id="purple-3" fill="#5835A1" sketch:type="MSShapeGroup" xlink:href="#path-3"></use>
                <path d="M1.33582034e-12,242.876007 C-1.36472889,245.335425 -3.98797315,247 -7,247 C-11.4182782,247 -15,243.418278 -15,239 C-15,234.581722 -11.4182782,231 -7,231 C-6.9764985,231 -6.95302066,231.000101 -6.92956691,231.000304 C-7.61035589,229.823542 -8,228.457274 -8,227 C-8,222.581722 -4.41827822,219 0,219 C4.41827822,219 8,222.581722 8,227 C8,228.489106 7.59314749,229.883187 6.88453848,231.077146 L6.88453848,231.077146 C7.24906757,231.026291 7.62146353,231 8,231 C8.37853647,231 8.75093243,231.026291 9.11546152,231.077146 L9.11546152,231.077146 C8.40685251,229.883187 8,228.489106 8,227 C8,222.581722 11.5817218,219 16,219 C20.4182782,219 24,222.581722 24,227 C24,228.457274 23.6103559,229.823542 22.9295669,231.000304 C22.9530207,231.000101 22.9764985,231 23,231 C23.7884151,231 24.5501924,231.11405 25.2697337,231.326552 L25.2697337,231.326552 C24.4662172,230.079204 24,228.594048 24,227 C24,222.581722 27.5817218,219 32,219 C36.4182782,219 40,222.581722 40,227 C40,228.477884 39.5992565,229.86217 38.9005073,231.050118 C42.8948679,231.497567 46,234.886162 46,239 C46,243.418278 42.4182782,247 38,247 C35.6106149,247 33.4658889,245.95249 32,244.291649 L32,250 L0,250 L0,242.876007 Z M29.7302663,234.673448 C30.0391189,235.152899 30.2981372,235.667485 30.5,236.209884 C30.663592,235.770317 30.8647218,235.349017 31.0994927,234.949882 C30.6295739,234.897241 30.1719624,234.803894 29.7302663,234.673448 L29.7302663,234.673448 Z M1.11546152,234.922854 C0.873831916,235.329984 0.667289099,235.760383 0.5,236.209884 L0.5,236.209884 C0.34319822,235.788562 0.151910068,235.384023 -0.0704330925,234.999696 C-0.0469793394,234.999899 -0.0235015042,235 0,235 C0.378536473,235 0.750932434,234.973709 1.11546152,234.922854 L1.11546152,234.922854 Z M14.8845385,234.922854 C15.1261681,235.329984 15.3327109,235.760383 15.5,236.209884 L15.5,236.209884 C15.6568018,235.788562 15.8480899,235.384023 16.0704331,234.999696 C16.0469793,234.999899 16.0235015,235 16,235 C15.6214635,235 15.2490676,234.973709 14.8845385,234.922854 L14.8845385,234.922854 Z M8,221 C11.8659934,221 15,217.865993 15,214 C15,210.134007 11.8659934,207 8,207 C4.13400656,207 1,210.134007 1,214 C1,217.865993 4.13400656,221 8,221 Z M8,193 C11.3137087,193 14,190.313709 14,187 C14,183.686291 11.3137087,181 8,181 C4.68629134,181 2,183.686291 2,187 C2,190.313709 4.68629134,193 8,193 Z M24,193 C27.3137087,193 30,190.313709 30,187 C30,183.686291 27.3137087,181 24,181 C20.6862913,181 18,183.686291 18,187 C18,190.313709 20.6862913,193 24,193 Z M16,179 C19.3137087,179 22,176.313709 22,173 C22,169.686291 19.3137087,167 16,167 C12.6862913,167 10,169.686291 10,173 C10,176.313709 12.6862913,179 16,179 Z M8,164 C10.7614239,164 13,161.761424 13,159 C13,156.238576 10.7614239,154 8,154 C5.23857611,154 3,156.238576 3,159 C3,161.761424 5.23857611,164 8,164 Z M24,164 C26.7614239,164 29,161.761424 29,159 C29,156.238576 26.7614239,154 24,154 C21.2385761,154 19,156.238576 19,159 C19,161.761424 21.2385761,164 24,164 Z M16,149 C18.7614239,149 21,146.761424 21,144 C21,141.238576 18.7614239,139 16,139 C13.2385761,139 11,141.238576 11,144 C11,146.761424 13.2385761,149 16,149 Z M8,133 C10.2091391,133 12,131.209139 12,129 C12,126.790861 10.2091391,125 8,125 C5.79086089,125 4,126.790861 4,129 C4,131.209139 5.79086089,133 8,133 Z M24,133 C26.2091391,133 28,131.209139 28,129 C28,126.790861 26.2091391,125 24,125 C21.7908609,125 20,126.790861 20,129 C20,131.209139 21.7908609,133 24,133 Z M16,117 C18.2091391,117 20,115.209139 20,113 C20,110.790861 18.2091391,109 16,109 C13.7908609,109 12,110.790861 12,113 C12,115.209139 13.7908609,117 16,117 Z M8,100 C9.65685433,100 11,98.6568543 11,97 C11,95.3431457 9.65685433,94 8,94 C6.34314567,94 5,95.3431457 5,97 C5,98.6568543 6.34314567,100 8,100 Z M24,100 C25.6568543,100 27,98.6568543 27,97 C27,95.3431457 25.6568543,94 24,94 C22.3431457,94 21,95.3431457 21,97 C21,98.6568543 22.3431457,100 24,100 Z M16,83 C17.6568543,83 19,81.6568543 19,80 C19,78.3431457 17.6568543,77 16,77 C14.3431457,77 13,78.3431457 13,80 C13,81.6568543 14.3431457,83 16,83 Z M8,63 C9.10456955,63 10,62.1045696 10,61 C10,59.8954304 9.10456955,59 8,59 C6.89543045,59 6,59.8954304 6,61 C6,62.1045696 6.89543045,63 8,63 Z M24,63 C25.1045696,63 26,62.1045696 26,61 C26,59.8954304 25.1045696,59 24,59 C22.8954304,59 22,59.8954304 22,61 C22,62.1045696 22.8954304,63 24,63 Z M0,83 C1.65685433,83 3,81.6568543 3,80 C3,78.3431457 1.65685433,77 0,77 C-1.65685433,77 -3,78.3431457 -3,80 C-3,81.6568543 -1.65685433,83 0,83 Z M32,83 C33.6568543,83 35,81.6568543 35,80 C35,78.3431457 33.6568543,77 32,77 C30.3431457,77 29,78.3431457 29,80 C29,81.6568543 30.3431457,83 32,83 Z M0,117 C2.20913911,117 4,115.209139 4,113 C4,110.790861 2.20913911,109 0,109 C-2.20913911,109 -4,110.790861 -4,113 C-4,115.209139 -2.20913911,117 0,117 Z M32,117 C34.2091391,117 36,115.209139 36,113 C36,110.790861 34.2091391,109 32,109 C29.7908609,109 28,110.790861 28,113 C28,115.209139 29.7908609,117 32,117 Z M0,149 C2.76142389,149 5,146.761424 5,144 C5,141.238576 2.76142389,139 0,139 C-2.76142389,139 -5,141.238576 -5,144 C-5,146.761424 -2.76142389,149 0,149 Z M32,149 C34.7614239,149 37,146.761424 37,144 C37,141.238576 34.7614239,139 32,139 C29.2385761,139 27,141.238576 27,144 C27,146.761424 29.2385761,149 32,149 Z M0,179 C3.31370866,179 6,176.313709 6,173 C6,169.686291 3.31370866,167 0,167 C-3.31370866,167 -6,169.686291 -6,173 C-6,176.313709 -3.31370866,179 0,179 Z M32,179 C35.3137087,179 38,176.313709 38,173 C38,169.686291 35.3137087,167 32,167 C28.6862913,167 26,169.686291 26,173 C26,176.313709 28.6862913,179 32,179 Z M24,221 C27.8659934,221 31,217.865993 31,214 C31,210.134007 27.8659934,207 24,207 C20.1340066,207 17,210.134007 17,214 C17,217.865993 20.1340066,221 24,221 Z M16,208 C19.8659934,208 23,204.865993 23,201 C23,197.134007 19.8659934,194 16,194 C12.1340066,194 9,197.134007 9,201 C9,204.865993 12.1340066,208 16,208 Z M0,208 C3.86599344,208 7,204.865993 7,201 C7,197.134007 3.86599344,194 0,194 C-3.86599344,194 -7,197.134007 -7,201 C-7,204.865993 -3.86599344,208 0,208 Z M32,208 C35.8659934,208 39,204.865993 39,201 C39,197.134007 35.8659934,194 32,194 C28.1340066,194 25,197.134007 25,201 C25,204.865993 28.1340066,208 32,208 Z M16,44 C17.1045696,44 18,43.1045696 18,42 C18,40.8954304 17.1045696,40 16,40 C14.8954304,40 14,40.8954304 14,42 C14,43.1045696 14.8954304,44 16,44 Z M8,22 C8.55228478,22 9,21.5522848 9,21 C9,20.4477152 8.55228478,20 8,20 C7.44771522,20 7,20.4477152 7,21 C7,21.5522848 7.44771522,22 8,22 Z M24,22 C24.5522848,22 25,21.5522848 25,21 C25,20.4477152 24.5522848,20 24,20 C23.4477152,20 23,20.4477152 23,21 C23,21.5522848 23.4477152,22 24,22 Z M32,2 C32.5522848,2 33,1.55228478 33,1 C33,0.447715223 32.5522848,0 32,0 C31.4477152,0 31,0.447715223 31,1 C31,1.55228478 31.4477152,2 32,2 Z M16,2 C16.5522848,2 17,1.55228478 17,1 C17,0.447715223 16.5522848,0 16,0 C15.4477152,0 15,0.447715223 15,1 C15,1.55228478 15.4477152,2 16,2 Z M0,2 C0.552284777,2 1,1.55228478 1,1 C1,0.447715223 0.552284777,0 0,0 C-0.552284777,0 -1,0.447715223 -1,1 C-1,1.55228478 -0.552284777,2 0,2 Z M0,44 C1.10456955,44 2,43.1045696 2,42 C2,40.8954304 1.10456955,40 0,40 C-1.10456955,40 -2,40.8954304 -2,42 C-2,43.1045696 -1.10456955,44 0,44 Z M32,44 C33.1045696,44 34,43.1045696 34,42 C34,40.8954304 33.1045696,40 32,40 C30.8954304,40 30,40.8954304 30,42 C30,43.1045696 30.8954304,44 32,44 Z" id="purple-dots-3" opacity="0.25" fill="#7855C1" sketch:type="MSShapeGroup" mask="url(#mask-4)"></path>
            </g>
            <g id="purple-+-purple-dots" sketch:type="MSLayerGroup" transform="translate(64.000000, -142.000000)">
                <mask id="mask-6" sketch:name="purple 4" fill="white">
                    <use xlink:href="#path-5"></use>
                </mask>
                <use id="purple-4" fill="#5835A1" sketch:type="MSShapeGroup" xlink:href="#path-5"></use>
                <path d="M1.33582034e-12,242.876007 C-1.36472889,245.335425 -3.98797315,247 -7,247 C-11.4182782,247 -15,243.418278 -15,239 C-15,234.581722 -11.4182782,231 -7,231 C-6.9764985,231 -6.95302066,231.000101 -6.92956691,231.000304 C-7.61035589,229.823542 -8,228.457274 -8,227 C-8,222.581722 -4.41827822,219 0,219 C4.41827822,219 8,222.581722 8,227 C8,228.489106 7.59314749,229.883187 6.88453848,231.077146 L6.88453848,231.077146 C7.24906757,231.026291 7.62146353,231 8,231 C8.37853647,231 8.75093243,231.026291 9.11546152,231.077146 L9.11546152,231.077146 C8.40685251,229.883187 8,228.489106 8,227 C8,222.581722 11.5817218,219 16,219 C20.4182782,219 24,222.581722 24,227 C24,228.457274 23.6103559,229.823542 22.9295669,231.000304 C22.9530207,231.000101 22.9764985,231 23,231 C23.7884151,231 24.5501924,231.11405 25.2697337,231.326552 L25.2697337,231.326552 C24.4662172,230.079204 24,228.594048 24,227 C24,222.581722 27.5817218,219 32,219 C36.4182782,219 40,222.581722 40,227 C40,228.477884 39.5992565,229.86217 38.9005073,231.050118 C42.8948679,231.497567 46,234.886162 46,239 C46,243.418278 42.4182782,247 38,247 C35.6106149,247 33.4658889,245.95249 32,244.291649 L32,250 L0,250 L0,242.876007 Z M29.7302663,234.673448 C30.0391189,235.152899 30.2981372,235.667485 30.5,236.209884 C30.663592,235.770317 30.8647218,235.349017 31.0994927,234.949882 C30.6295739,234.897241 30.1719624,234.803894 29.7302663,234.673448 L29.7302663,234.673448 Z M1.11546152,234.922854 C0.873831916,235.329984 0.667289099,235.760383 0.5,236.209884 L0.5,236.209884 C0.34319822,235.788562 0.151910068,235.384023 -0.0704330925,234.999696 C-0.0469793394,234.999899 -0.0235015042,235 0,235 C0.378536473,235 0.750932434,234.973709 1.11546152,234.922854 L1.11546152,234.922854 Z M14.8845385,234.922854 C15.1261681,235.329984 15.3327109,235.760383 15.5,236.209884 L15.5,236.209884 C15.6568018,235.788562 15.8480899,235.384023 16.0704331,234.999696 C16.0469793,234.999899 16.0235015,235 16,235 C15.6214635,235 15.2490676,234.973709 14.8845385,234.922854 L14.8845385,234.922854 Z M8,221 C11.8659934,221 15,217.865993 15,214 C15,210.134007 11.8659934,207 8,207 C4.13400656,207 1,210.134007 1,214 C1,217.865993 4.13400656,221 8,221 Z M8,193 C11.3137087,193 14,190.313709 14,187 C14,183.686291 11.3137087,181 8,181 C4.68629134,181 2,183.686291 2,187 C2,190.313709 4.68629134,193 8,193 Z M24,193 C27.3137087,193 30,190.313709 30,187 C30,183.686291 27.3137087,181 24,181 C20.6862913,181 18,183.686291 18,187 C18,190.313709 20.6862913,193 24,193 Z M16,179 C19.3137087,179 22,176.313709 22,173 C22,169.686291 19.3137087,167 16,167 C12.6862913,167 10,169.686291 10,173 C10,176.313709 12.6862913,179 16,179 Z M8,164 C10.7614239,164 13,161.761424 13,159 C13,156.238576 10.7614239,154 8,154 C5.23857611,154 3,156.238576 3,159 C3,161.761424 5.23857611,164 8,164 Z M24,164 C26.7614239,164 29,161.761424 29,159 C29,156.238576 26.7614239,154 24,154 C21.2385761,154 19,156.238576 19,159 C19,161.761424 21.2385761,164 24,164 Z M16,149 C18.7614239,149 21,146.761424 21,144 C21,141.238576 18.7614239,139 16,139 C13.2385761,139 11,141.238576 11,144 C11,146.761424 13.2385761,149 16,149 Z M8,133 C10.2091391,133 12,131.209139 12,129 C12,126.790861 10.2091391,125 8,125 C5.79086089,125 4,126.790861 4,129 C4,131.209139 5.79086089,133 8,133 Z M24,133 C26.2091391,133 28,131.209139 28,129 C28,126.790861 26.2091391,125 24,125 C21.7908609,125 20,126.790861 20,129 C20,131.209139 21.7908609,133 24,133 Z M16,117 C18.2091391,117 20,115.209139 20,113 C20,110.790861 18.2091391,109 16,109 C13.7908609,109 12,110.790861 12,113 C12,115.209139 13.7908609,117 16,117 Z M8,100 C9.65685433,100 11,98.6568543 11,97 C11,95.3431457 9.65685433,94 8,94 C6.34314567,94 5,95.3431457 5,97 C5,98.6568543 6.34314567,100 8,100 Z M24,100 C25.6568543,100 27,98.6568543 27,97 C27,95.3431457 25.6568543,94 24,94 C22.3431457,94 21,95.3431457 21,97 C21,98.6568543 22.3431457,100 24,100 Z M16,83 C17.6568543,83 19,81.6568543 19,80 C19,78.3431457 17.6568543,77 16,77 C14.3431457,77 13,78.3431457 13,80 C13,81.6568543 14.3431457,83 16,83 Z M8,63 C9.10456955,63 10,62.1045696 10,61 C10,59.8954304 9.10456955,59 8,59 C6.89543045,59 6,59.8954304 6,61 C6,62.1045696 6.89543045,63 8,63 Z M24,63 C25.1045696,63 26,62.1045696 26,61 C26,59.8954304 25.1045696,59 24,59 C22.8954304,59 22,59.8954304 22,61 C22,62.1045696 22.8954304,63 24,63 Z M0,83 C1.65685433,83 3,81.6568543 3,80 C3,78.3431457 1.65685433,77 0,77 C-1.65685433,77 -3,78.3431457 -3,80 C-3,81.6568543 -1.65685433,83 0,83 Z M32,83 C33.6568543,83 35,81.6568543 35,80 C35,78.3431457 33.6568543,77 32,77 C30.3431457,77 29,78.3431457 29,80 C29,81.6568543 30.3431457,83 32,83 Z M0,117 C2.20913911,117 4,115.209139 4,113 C4,110.790861 2.20913911,109 0,109 C-2.20913911,109 -4,110.790861 -4,113 C-4,115.209139 -2.20913911,117 0,117 Z M32,117 C34.2091391,117 36,115.209139 36,113 C36,110.790861 34.2091391,109 32,109 C29.7908609,109 28,110.790861 28,113 C28,115.209139 29.7908609,117 32,117 Z M0,149 C2.76142389,149 5,146.761424 5,144 C5,141.238576 2.76142389,139 0,139 C-2.76142389,139 -5,141.238576 -5,144 C-5,146.761424 -2.76142389,149 0,149 Z M32,149 C34.7614239,149 37,146.761424 37,144 C37,141.238576 34.7614239,139 32,139 C29.2385761,139 27,141.238576 27,144 C27,146.761424 29.2385761,149 32,149 Z M0,179 C3.31370866,179 6,176.313709 6,173 C6,169.686291 3.31370866,167 0,167 C-3.31370866,167 -6,169.686291 -6,173 C-6,176.313709 -3.31370866,179 0,179 Z M32,179 C35.3137087,179 38,176.313709 38,173 C38,169.686291 35.3137087,167 32,167 C28.6862913,167 26,169.686291 26,173 C26,176.313709 28.6862913,179 32,179 Z M24,221 C27.8659934,221 31,217.865993 31,214 C31,210.134007 27.8659934,207 24,207 C20.1340066,207 17,210.134007 17,214 C17,217.865993 20.1340066,221 24,221 Z M16,208 C19.8659934,208 23,204.865993 23,201 C23,197.134007 19.8659934,194 16,194 C12.1340066,194 9,197.134007 9,201 C9,204.865993 12.1340066,208 16,208 Z M0,208 C3.86599344,208 7,204.865993 7,201 C7,197.134007 3.86599344,194 0,194 C-3.86599344,194 -7,197.134007 -7,201 C-7,204.865993 -3.86599344,208 0,208 Z M32,208 C35.8659934,208 39,204.865993 39,201 C39,197.134007 35.8659934,194 32,194 C28.1340066,194 25,197.134007 25,201 C25,204.865993 28.1340066,208 32,208 Z M16,44 C17.1045696,44 18,43.1045696 18,42 C18,40.8954304 17.1045696,40 16,40 C14.8954304,40 14,40.8954304 14,42 C14,43.1045696 14.8954304,44 16,44 Z M8,22 C8.55228478,22 9,21.5522848 9,21 C9,20.4477152 8.55228478,20 8,20 C7.44771522,20 7,20.4477152 7,21 C7,21.5522848 7.44771522,22 8,22 Z M24,22 C24.5522848,22 25,21.5522848 25,21 C25,20.4477152 24.5522848,20 24,20 C23.4477152,20 23,20.4477152 23,21 C23,21.5522848 23.4477152,22 24,22 Z M32,2 C32.5522848,2 33,1.55228478 33,1 C33,0.447715223 32.5522848,0 32,0 C31.4477152,0 31,0.447715223 31,1 C31,1.55228478 31.4477152,2 32,2 Z M16,2 C16.5522848,2 17,1.55228478 17,1 C17,0.447715223 16.5522848,0 16,0 C15.4477152,0 15,0.447715223 15,1 C15,1.55228478 15.4477152,2 16,2 Z M0,2 C0.552284777,2 1,1.55228478 1,1 C1,0.447715223 0.552284777,0 0,0 C-0.552284777,0 -1,0.447715223 -1,1 C-1,1.55228478 -0.552284777,2 0,2 Z M0,44 C1.10456955,44 2,43.1045696 2,42 C2,40.8954304 1.10456955,40 0,40 C-1.10456955,40 -2,40.8954304 -2,42 C-2,43.1045696 -1.10456955,44 0,44 Z M32,44 C33.1045696,44 34,43.1045696 34,42 C34,40.8954304 33.1045696,40 32,40 C30.8954304,40 30,40.8954304 30,42 C30,43.1045696 30.8954304,44 32,44 Z" id="purple-dots-4" opacity="0.25" fill="#7855C1" sketch:type="MSShapeGroup" mask="url(#mask-6)"></path>
            </g>
            <g id="purple-+-purple-dots" sketch:type="MSLayerGroup" transform="translate(96.000000, -142.000000)">
                <mask id="mask-8" sketch:name="purple" fill="white">
                    <use xlink:href="#path-7"></use>
                </mask>
                <use id="purple" fill="#5835A1" sketch:type="MSShapeGroup" xlink:href="#path-7"></use>
                <path d="M1.33582034e-12,242.876007 C-1.36472889,245.335425 -3.98797315,247 -7,247 C-11.4182782,247 -15,243.418278 -15,239 C-15,234.581722 -11.4182782,231 -7,231 C-6.9764985,231 -6.95302066,231.000101 -6.92956691,231.000304 C-7.61035589,229.823542 -8,228.457274 -8,227 C-8,222.581722 -4.41827822,219 0,219 C4.41827822,219 8,222.581722 8,227 C8,228.489106 7.59314749,229.883187 6.88453848,231.077146 L6.88453848,231.077146 C7.24906757,231.026291 7.62146353,231 8,231 C8.37853647,231 8.75093243,231.026291 9.11546152,231.077146 L9.11546152,231.077146 C8.40685251,229.883187 8,228.489106 8,227 C8,222.581722 11.5817218,219 16,219 C20.4182782,219 24,222.581722 24,227 C24,228.457274 23.6103559,229.823542 22.9295669,231.000304 C22.9530207,231.000101 22.9764985,231 23,231 C23.7884151,231 24.5501924,231.11405 25.2697337,231.326552 L25.2697337,231.326552 C24.4662172,230.079204 24,228.594048 24,227 C24,222.581722 27.5817218,219 32,219 C36.4182782,219 40,222.581722 40,227 C40,228.477884 39.5992565,229.86217 38.9005073,231.050118 C42.8948679,231.497567 46,234.886162 46,239 C46,243.418278 42.4182782,247 38,247 C35.6106149,247 33.4658889,245.95249 32,244.291649 L32,250 L0,250 L0,242.876007 Z M29.7302663,234.673448 C30.0391189,235.152899 30.2981372,235.667485 30.5,236.209884 C30.663592,235.770317 30.8647218,235.349017 31.0994927,234.949882 C30.6295739,234.897241 30.1719624,234.803894 29.7302663,234.673448 L29.7302663,234.673448 Z M1.11546152,234.922854 C0.873831916,235.329984 0.667289099,235.760383 0.5,236.209884 L0.5,236.209884 C0.34319822,235.788562 0.151910068,235.384023 -0.0704330925,234.999696 C-0.0469793394,234.999899 -0.0235015042,235 0,235 C0.378536473,235 0.750932434,234.973709 1.11546152,234.922854 L1.11546152,234.922854 Z M14.8845385,234.922854 C15.1261681,235.329984 15.3327109,235.760383 15.5,236.209884 L15.5,236.209884 C15.6568018,235.788562 15.8480899,235.384023 16.0704331,234.999696 C16.0469793,234.999899 16.0235015,235 16,235 C15.6214635,235 15.2490676,234.973709 14.8845385,234.922854 L14.8845385,234.922854 Z M8,221 C11.8659934,221 15,217.865993 15,214 C15,210.134007 11.8659934,207 8,207 C4.13400656,207 1,210.134007 1,214 C1,217.865993 4.13400656,221 8,221 Z M8,193 C11.3137087,193 14,190.313709 14,187 C14,183.686291 11.3137087,181 8,181 C4.68629134,181 2,183.686291 2,187 C2,190.313709 4.68629134,193 8,193 Z M24,193 C27.3137087,193 30,190.313709 30,187 C30,183.686291 27.3137087,181 24,181 C20.6862913,181 18,183.686291 18,187 C18,190.313709 20.6862913,193 24,193 Z M16,179 C19.3137087,179 22,176.313709 22,173 C22,169.686291 19.3137087,167 16,167 C12.6862913,167 10,169.686291 10,173 C10,176.313709 12.6862913,179 16,179 Z M8,164 C10.7614239,164 13,161.761424 13,159 C13,156.238576 10.7614239,154 8,154 C5.23857611,154 3,156.238576 3,159 C3,161.761424 5.23857611,164 8,164 Z M24,164 C26.7614239,164 29,161.761424 29,159 C29,156.238576 26.7614239,154 24,154 C21.2385761,154 19,156.238576 19,159 C19,161.761424 21.2385761,164 24,164 Z M16,149 C18.7614239,149 21,146.761424 21,144 C21,141.238576 18.7614239,139 16,139 C13.2385761,139 11,141.238576 11,144 C11,146.761424 13.2385761,149 16,149 Z M8,133 C10.2091391,133 12,131.209139 12,129 C12,126.790861 10.2091391,125 8,125 C5.79086089,125 4,126.790861 4,129 C4,131.209139 5.79086089,133 8,133 Z M24,133 C26.2091391,133 28,131.209139 28,129 C28,126.790861 26.2091391,125 24,125 C21.7908609,125 20,126.790861 20,129 C20,131.209139 21.7908609,133 24,133 Z M16,117 C18.2091391,117 20,115.209139 20,113 C20,110.790861 18.2091391,109 16,109 C13.7908609,109 12,110.790861 12,113 C12,115.209139 13.7908609,117 16,117 Z M8,100 C9.65685433,100 11,98.6568543 11,97 C11,95.3431457 9.65685433,94 8,94 C6.34314567,94 5,95.3431457 5,97 C5,98.6568543 6.34314567,100 8,100 Z M24,100 C25.6568543,100 27,98.6568543 27,97 C27,95.3431457 25.6568543,94 24,94 C22.3431457,94 21,95.3431457 21,97 C21,98.6568543 22.3431457,100 24,100 Z M16,83 C17.6568543,83 19,81.6568543 19,80 C19,78.3431457 17.6568543,77 16,77 C14.3431457,77 13,78.3431457 13,80 C13,81.6568543 14.3431457,83 16,83 Z M8,63 C9.10456955,63 10,62.1045696 10,61 C10,59.8954304 9.10456955,59 8,59 C6.89543045,59 6,59.8954304 6,61 C6,62.1045696 6.89543045,63 8,63 Z M24,63 C25.1045696,63 26,62.1045696 26,61 C26,59.8954304 25.1045696,59 24,59 C22.8954304,59 22,59.8954304 22,61 C22,62.1045696 22.8954304,63 24,63 Z M0,83 C1.65685433,83 3,81.6568543 3,80 C3,78.3431457 1.65685433,77 0,77 C-1.65685433,77 -3,78.3431457 -3,80 C-3,81.6568543 -1.65685433,83 0,83 Z M32,83 C33.6568543,83 35,81.6568543 35,80 C35,78.3431457 33.6568543,77 32,77 C30.3431457,77 29,78.3431457 29,80 C29,81.6568543 30.3431457,83 32,83 Z M0,117 C2.20913911,117 4,115.209139 4,113 C4,110.790861 2.20913911,109 0,109 C-2.20913911,109 -4,110.790861 -4,113 C-4,115.209139 -2.20913911,117 0,117 Z M32,117 C34.2091391,117 36,115.209139 36,113 C36,110.790861 34.2091391,109 32,109 C29.7908609,109 28,110.790861 28,113 C28,115.209139 29.7908609,117 32,117 Z M0,149 C2.76142389,149 5,146.761424 5,144 C5,141.238576 2.76142389,139 0,139 C-2.76142389,139 -5,141.238576 -5,144 C-5,146.761424 -2.76142389,149 0,149 Z M32,149 C34.7614239,149 37,146.761424 37,144 C37,141.238576 34.7614239,139 32,139 C29.2385761,139 27,141.238576 27,144 C27,146.761424 29.2385761,149 32,149 Z M0,179 C3.31370866,179 6,176.313709 6,173 C6,169.686291 3.31370866,167 0,167 C-3.31370866,167 -6,169.686291 -6,173 C-6,176.313709 -3.31370866,179 0,179 Z M32,179 C35.3137087,179 38,176.313709 38,173 C38,169.686291 35.3137087,167 32,167 C28.6862913,167 26,169.686291 26,173 C26,176.313709 28.6862913,179 32,179 Z M24,221 C27.8659934,221 31,217.865993 31,214 C31,210.134007 27.8659934,207 24,207 C20.1340066,207 17,210.134007 17,214 C17,217.865993 20.1340066,221 24,221 Z M16,208 C19.8659934,208 23,204.865993 23,201 C23,197.134007 19.8659934,194 16,194 C12.1340066,194 9,197.134007 9,201 C9,204.865993 12.1340066,208 16,208 Z M0,208 C3.86599344,208 7,204.865993 7,201 C7,197.134007 3.86599344,194 0,194 C-3.86599344,194 -7,197.134007 -7,201 C-7,204.865993 -3.86599344,208 0,208 Z M32,208 C35.8659934,208 39,204.865993 39,201 C39,197.134007 35.8659934,194 32,194 C28.1340066,194 25,197.134007 25,201 C25,204.865993 28.1340066,208 32,208 Z M16,44 C17.1045696,44 18,43.1045696 18,42 C18,40.8954304 17.1045696,40 16,40 C14.8954304,40 14,40.8954304 14,42 C14,43.1045696 14.8954304,44 16,44 Z M8,22 C8.55228478,22 9,21.5522848 9,21 C9,20.4477152 8.55228478,20 8,20 C7.44771522,20 7,20.4477152 7,21 C7,21.5522848 7.44771522,22 8,22 Z M24,22 C24.5522848,22 25,21.5522848 25,21 C25,20.4477152 24.5522848,20 24,20 C23.4477152,20 23,20.4477152 23,21 C23,21.5522848 23.4477152,22 24,22 Z M32,2 C32.5522848,2 33,1.55228478 33,1 C33,0.447715223 32.5522848,0 32,0 C31.4477152,0 31,0.447715223 31,1 C31,1.55228478 31.4477152,2 32,2 Z M16,2 C16.5522848,2 17,1.55228478 17,1 C17,0.447715223 16.5522848,0 16,0 C15.4477152,0 15,0.447715223 15,1 C15,1.55228478 15.4477152,2 16,2 Z M0,2 C0.552284777,2 1,1.55228478 1,1 C1,0.447715223 0.552284777,0 0,0 C-0.552284777,0 -1,0.447715223 -1,1 C-1,1.55228478 -0.552284777,2 0,2 Z M0,44 C1.10456955,44 2,43.1045696 2,42 C2,40.8954304 1.10456955,40 0,40 C-1.10456955,40 -2,40.8954304 -2,42 C-2,43.1045696 -1.10456955,44 0,44 Z M32,44 C33.1045696,44 34,43.1045696 34,42 C34,40.8954304 33.1045696,40 32,40 C30.8954304,40 30,40.8954304 30,42 C30,43.1045696 30.8954304,44 32,44 Z" id="purple-dots" opacity="0.25" fill="#7855C1" sketch:type="MSShapeGroup" mask="url(#mask-8)"></path>
            </g>
            <path d="M36.037,26.348 C36.037,25.308 35.179,24.97 34.295,24.97 C32.865,24.97 31.435,25.178 30.005,25.178 C28.991,25.178 27.977,25.126 26.989,25.048 C26.937,23.514 26.807,21.954 26.807,20.394 C26.807,18.158 27.015,15.922 27.015,13.686 L27.015,11.554 C27.015,10.462 27.041,9.032 25.559,9.032 C23.869,9.032 22.699,11.398 22.517,12.854 C22.413,13.608 22.387,14.388 22.387,15.142 C22.387,16.988 22.517,18.834 22.517,20.68 C22.517,22.396 22.491,24.112 22.361,25.828 C22.309,26.53 22.075,27.258 22.075,27.96 C22.075,29.52 23.505,29.702 24.727,29.702 C27.353,29.702 29.979,29.598 32.579,29.286 C33.905,29.13 36.037,27.856 36.037,26.348 L36.037,26.348 Z M47.243,22.838 C47.191,23.618 47.165,24.372 47.113,25.152 C46.099,25.49 45.033,25.698 43.967,25.698 C42.875,25.698 41.549,25.646 41.549,24.294 C41.549,22.968 43.551,22.604 44.513,22.604 C45.501,22.604 46.333,22.76 47.243,22.838 L47.243,22.838 Z M51.481,20.836 C51.481,19.458 51.403,17.586 50.883,16.312 C49.947,14.076 46.905,13.608 44.773,13.608 C42.485,13.608 38.403,14.544 38.351,16.962 C38.325,17.69 38.741,18.34 39.547,18.34 C40.613,18.34 42.329,17.404 43.993,17.404 C45.839,17.404 46.957,17.768 47.217,19.38 L46.879,19.38 C45.501,19.38 43.395,19.51 42.095,19.978 C40.015,20.732 37.103,22.344 37.103,24.788 C37.103,27.414 39.339,29.728 41.965,29.728 C42.901,29.728 43.915,29.676 44.825,29.468 C45.527,29.312 46.437,29 47.295,28.558 C47.529,29.182 48.049,29.572 48.985,29.572 C51.299,29.572 51.429,26.66 51.429,24.97 C51.429,23.592 51.481,22.214 51.481,20.836 L51.481,20.836 Z M64.481,26.556 C64.481,25.932 64.221,25.204 63.493,25.204 C62.635,25.204 61.933,25.88 61.075,25.88 C59.333,25.88 59.333,23.306 59.333,22.084 C59.333,21.304 59.359,20.524 59.359,19.718 C59.359,19.068 59.411,18.392 59.463,17.742 C59.671,17.716 59.879,17.716 60.113,17.716 C61.309,17.716 64.325,16.936 64.325,15.402 C64.325,14.258 63.493,13.868 62.479,13.868 C61.777,13.868 61.075,14.024 60.373,14.024 L59.697,14.024 L59.697,13.478 C59.697,12.932 59.801,12.412 59.801,11.866 C59.801,11.034 59.515,10.046 58.475,10.046 C58.293,10.046 58.085,10.098 57.903,10.124 C56.629,10.462 55.745,12.282 55.745,13.53 L55.745,14.206 C54.835,14.544 53.925,15.714 53.925,16.546 C53.925,17.508 54.549,17.794 55.407,17.794 L55.745,17.794 C55.719,19.874 55.693,21.98 55.693,24.06 C55.693,26.582 56.655,29.754 59.697,29.754 C61.569,29.754 64.481,28.844 64.481,26.556 L64.481,26.556 Z M77.247,19.432 C74.959,19.562 72.697,19.614 70.435,19.614 C71.215,17.95 72.515,17.3 73.997,17.3 C75.167,17.3 76.909,17.69 77.247,19.432 L77.247,19.432 Z M80.705,20.342 C80.705,17.43 79.457,14.44 76.285,13.842 C75.479,13.686 74.647,13.686 73.815,13.686 C71.813,13.686 69.057,15.09 67.913,16.728 C66.691,18.418 65.677,20.758 65.677,22.838 C65.677,26.764 69.733,29.754 73.425,29.754 C75.817,29.754 79.587,29.156 80.471,26.556 C80.523,26.4 80.549,26.218 80.549,26.036 C80.549,25.49 80.289,24.58 79.613,24.58 C78.157,24.58 77.065,25.568 75.609,25.698 C75.141,25.75 74.673,25.776 74.205,25.776 C73.555,25.776 72.489,25.724 71.917,25.464 C71.007,25.022 70.019,24.138 69.759,23.124 C72.021,23.15 74.257,23.176 76.519,23.176 C78.365,23.176 80.705,22.656 80.705,20.342 L80.705,20.342 Z M95.993,24.32 C95.993,18.34 87.179,20.784 87.179,18.678 C87.179,17.82 88.427,17.534 89.025,17.534 C89.883,17.534 91.105,17.508 91.937,17.716 C92.457,17.846 93.497,18.444 93.887,18.444 C94.823,18.444 95.135,17.508 95.135,16.78 C95.135,14.128 92.457,13.764 90.377,13.764 C89.103,13.764 87.101,14.284 85.957,14.856 C84.423,15.61 83.097,17.898 83.097,19.614 C83.097,22.5 85.905,23.02 88.063,23.618 C88.635,23.8 92.119,24.19 92.119,24.684 C92.119,25.906 89.441,26.088 88.583,26.088 C86.139,26.088 85.827,24.918 84.475,24.918 C83.461,24.918 82.967,25.412 82.967,26.426 C82.967,28.714 85.437,29.702 87.543,29.728 C88.583,29.728 89.649,29.78 90.689,29.572 C93.107,29.078 95.993,27.024 95.993,24.32 L95.993,24.32 Z M107.693,26.556 C107.693,25.932 107.433,25.204 106.705,25.204 C105.847,25.204 105.145,25.88 104.287,25.88 C102.545,25.88 102.545,23.306 102.545,22.084 C102.545,21.304 102.571,20.524 102.571,19.718 C102.571,19.068 102.623,18.392 102.675,17.742 C102.883,17.716 103.091,17.716 103.325,17.716 C104.521,17.716 107.537,16.936 107.537,15.402 C107.537,14.258 106.705,13.868 105.691,13.868 C104.989,13.868 104.287,14.024 103.585,14.024 L102.909,14.024 L102.909,13.478 C102.909,12.932 103.013,12.412 103.013,11.866 C103.013,11.034 102.727,10.046 101.687,10.046 C101.505,10.046 101.297,10.098 101.115,10.124 C99.841,10.462 98.957,12.282 98.957,13.53 L98.957,14.206 C98.047,14.544 97.137,15.714 97.137,16.546 C97.137,17.508 97.761,17.794 98.619,17.794 L98.957,17.794 C98.931,19.874 98.905,21.98 98.905,24.06 C98.905,26.582 99.867,29.754 102.909,29.754 C104.781,29.754 107.693,28.844 107.693,26.556 L107.693,26.556 Z" id="Latest" fill="#FFFFFF" sketch:type="MSShapeGroup"></path>
        </g>
    </g>
</svg>