<?xml version="1.0" encoding="UTF-8" standalone="no"?>
<svg width="128px" height="40px" viewBox="0 0 128 40" version="1.1" xmlns="http://www.w3.org/2000/svg" xmlns:xlink="http://www.w3.org/1999/xlink" xmlns:sketch="http://www.bohemiancoding.com/sketch/ns">
    <!-- Generator: Sketch 3.3.2 (12043) - http://www.bohemiancoding.com/sketch -->
    <title>button-random</title>
    <desc>Created with Sketch.</desc>
    <defs>
        <rect id="path-1" x="0" y="0" width="32" height="249"></rect>
        <rect id="path-3" x="0" y="0" width="32" height="249"></rect>
        <rect id="path-5" x="0" y="0" width="32" height="249"></rect>
        <rect id="path-7" x="0" y="0" width="32" height="249"></rect>
    </defs>
    <g id="Page-1" stroke="none" stroke-width="1" fill="none" fill-rule="evenodd" sketch:type="MSPage">
        <g id="button-random" sketch:type="MSArtboardGroup">
            <g id="purple-+-purple-dots" sketch:type="MSLayerGroup" transform="translate(0.000000, -142.000000)">
                <mask id="mask-2" sketch:name="purple 2" fill="white">
                    <use xlink:href="#path-1"></use>
                </mask>
                <use id="purple-2" fill="#5835A1" sketch:type="MSShapeGroup" xlink:href="#path-1"></use>
                <path d="M1.33582034e-12,242.876007 C-1.36472889,245.335425 -3.98797315,247 -7,247 C-11.4182782,247 -15,243.418278 -15,239 C-15,234.581722 -11.4182782,231 -7,231 C-6.9764985,231 -6.95302066,231.000101 -6.92956691,231.000304 C-7.61035589,229.823542 -8,228.457274 -8,227 C-8,222.581722 -4.41827822,219 0,219 C4.41827822,219 8,222.581722 8,227 C8,228.489106 7.59314749,229.883187 6.88453848,231.077146 L6.88453848,231.077146 C7.24906757,231.026291 7.62146353,231 8,231 C8.37853647,231 8.75093243,231.026291 9.11546152,231.077146 L9.11546152,231.077146 C8.40685251,229.883187 8,228.489106 8,227 C8,222.581722 11.5817218,219 16,219 C20.4182782,219 24,222.581722 24,227 C24,228.457274 23.6103559,229.823542 22.9295669,231.000304 C22.9530207,231.000101 22.9764985,231 23,231 C23.7884151,231 24.5501924,231.11405 25.2697337,231.326552 L25.2697337,231.326552 C24.4662172,230.079204 24,228.594048 24,227 C24,222.581722 27.5817218,219 32,219 C36.4182782,219 40,222.581722 40,227 C40,228.477884 39.5992565,229.86217 38.9005073,231.050118 C42.8948679,231.497567 46,234.886162 46,239 C46,243.418278 42.4182782,247 38,247 C35.6106149,247 33.4658889,245.95249 32,244.291649 L32,250 L0,250 L0,242.876007 Z M29.7302663,234.673448 C30.0391189,235.152899 30.2981372,235.667485 30.5,236.209884 C30.663592,235.770317 30.8647218,235.349017 31.0994927,234.949882 C30.6295739,234.897241 30.1719624,234.803894 29.7302663,234.673448 L29.7302663,234.673448 Z M1.11546152,234.922854 C0.873831916,235.329984 0.667289099,235.760383 0.5,236.209884 L0.5,236.209884 C0.34319822,235.788562 0.151910068,235.384023 -0.0704330925,234.999696 C-0.0469793394,234.999899 -0.0235015042,235 0,235 C0.378536473,235 0.750932434,234.973709 1.11546152,234.922854 L1.11546152,234.922854 Z M14.8845385,234.922854 C15.1261681,235.329984 15.3327109,235.760383 15.5,236.209884 L15.5,236.209884 C15.6568018,235.788562 15.8480899,235.384023 16.0704331,234.999696 C16.0469793,234.999899 16.0235015,235 16,235 C15.6214635,235 15.2490676,234.973709 14.8845385,234.922854 L14.8845385,234.922854 Z M8,221 C11.8659934,221 15,217.865993 15,214 C15,210.134007 11.8659934,207 8,207 C4.13400656,207 1,210.134007 1,214 C1,217.865993 4.13400656,221 8,221 Z M8,193 C11.3137087,193 14,190.313709 14,187 C14,183.686291 11.3137087,181 8,181 C4.68629134,181 2,183.686291 2,187 C2,190.313709 4.68629134,193 8,193 Z M24,193 C27.3137087,193 30,190.313709 30,187 C30,183.686291 27.3137087,181 24,181 C20.6862913,181 18,183.686291 18,187 C18,190.313709 20.6862913,193 24,193 Z M16,179 C19.3137087,179 22,176.313709 22,173 C22,169.686291 19.3137087,167 16,167 C12.6862913,167 10,169.686291 10,173 C10,176.313709 12.6862913,179 16,179 Z M8,164 C10.7614239,164 13,161.761424 13,159 C13,156.238576 10.7614239,154 8,154 C5.23857611,154 3,156.238576 3,159 C3,161.761424 5.23857611,164 8,164 Z M24,164 C26.7614239,164 29,161.761424 29,159 C29,156.238576 26.7614239,154 24,154 C21.2385761,154 19,156.238576 19,159 C19,161.761424 21.2385761,164 24,164 Z M16,149 C18.7614239,149 21,146.761424 21,144 C21,141.238576 18.7614239,139 16,139 C13.2385761,139 11,141.238576 11,144 C11,146.761424 13.2385761,149 16,149 Z M8,133 C10.2091391,133 12,131.209139 12,129 C12,126.790861 10.2091391,125 8,125 C5.79086089,125 4,126.790861 4,129 C4,131.209139 5.79086089,133 8,133 Z M24,133 C26.2091391,133 28,131.209139 28,129 C28,126.790861 26.2091391,125 24,125 C21.7908609,125 20,126.790861 20,129 C20,131.209139 21.7908609,133 24,133 Z M16,117 C18.2091391,117 20,115.209139 20,113 C20,110.790861 18.2091391,109 16,109 C13.7908609,109 12,110.790861 12,113 C12,115.209139 13.7908609,117 16,117 Z M8,100 C9.65685433,100 11,98.6568543 11,97 C11,95.3431457 9.65685433,94 8,94 C6.34314567,94 5,95.3431457 5,97 C5,98.6568543 6.34314567,100 8,100 Z M24,100 C25.6568543,100 27,98.6568543 27,97 C27,95.3431457 25.6568543,94 24,94 C22.3431457,94 21,95.3431457 21,97 C21,98.6568543 22.3431457,100 24,100 Z M16,83 C17.6568543,83 19,81.6568543 19,80 C19,78.3431457 17.6568543,77 16,77 C14.3431457,77 13,78.3431457 13,80 C13,81.6568543 14.3431457,83 16,83 Z M8,63 C9.10456955,63 10,62.1045696 10,61 C10,59.8954304 9.10456955,59 8,59 C6.89543045,59 6,59.8954304 6,61 C6,62.1045696 6.89543045,63 8,63 Z M24,63 C25.1045696,63 26,62.1045696 26,61 C26,59.8954304 25.1045696,59 24,59 C22.8954304,59 22,59.8954304 22,61 C22,62.1045696 22.8954304,63 24,63 Z M0,83 C1.65685433,83 3,81.6568543 3,80 C3,78.3431457 1.65685433,77 0,77 C-1.65685433,77 -3,78.3431457 -3,80 C-3,81.6568543 -1.65685433,83 0,83 Z M32,83 C33.6568543,83 35,81.6568543 35,80 C35,78.3431457 33.6568543,77 32,77 C30.3431457,77 29,78.3431457 29,80 C29,81.6568543 30.3431457,83 32,83 Z M0,117 C2.20913911,117 4,115.209139 4,113 C4,110.790861 2.20913911,109 0,109 C-2.20913911,109 -4,110.790861 -4,113 C-4,115.209139 -2.20913911,117 0,117 Z M32,117 C34.2091391,117 36,115.209139 36,113 C36,110.790861 34.2091391,109 32,109 C29.7908609,109 28,110.790861 28,113 C28,115.209139 29.7908609,117 32,117 Z M0,149 C2.76142389,149 5,146.761424 5,144 C5,141.238576 2.76142389,139 0,139 C-2.76142389,139 -5,141.238576 -5,144 C-5,146.761424 -2.76142389,149 0,149 Z M32,149 C34.7614239,149 37,146.761424 37,144 C37,141.238576 34.7614239,139 32,139 C29.2385761,139 27,141.238576 27,144 C27,146.761424 29.2385761,149 32,149 Z M0,179 C3.31370866,179 6,176.313709 6,173 C6,169.686291 3.31370866,167 0,167 C-3.31370866,167 -6,169.686291 -6,173 C-6,176.313709 -3.31370866,179 0,179 Z M32,179 C35.3137087,179 38,176.313709 38,173 C38,169.686291 35.3137087,167 32,167 C28.6862913,167 26,169.686291 26,173 C26,176.313709 28.6862913,179 32,179 Z M24,221 C27.8659934,221 31,217.865993 31,214 C31,210.134007 27.8659934,207 24,207 C20.1340066,207 17,210.134007 17,214 C17,217.865993 20.1340066,221 24,221 Z M16,208 C19.8659934,208 23,204.865993 23,201 C23,197.134007 19.8659934,194 16,194 C12.1340066,194 9,197.134007 9,201 C9,204.865993 12.1340066,208 16,208 Z M0,208 C3.86599344,208 7,204.865993 7,201 C7,197.134007 3.86599344,194 0,194 C-3.86599344,194 -7,197.134007 -7,201 C-7,204.865993 -3.86599344,208 0,208 Z M32,208 C35.8659934,208 39,204.865993 39,201 C39,197.134007 35.8659934,194 32,194 C28.1340066,194 25,197.134007 25,201 C25,204.865993 28.1340066,208 32,208 Z M16,44 C17.1045696,44 18,43.1045696 18,42 C18,40.8954304 17.1045696,40 16,40 C14.8954304,40 14,40.8954304 14,42 C14,43.1045696 14.8954304,44 16,44 Z M8,22 C8.55228478,22 9,21.5522848 9,21 C9,20.4477152 8.55228478,20 8,20 C7.44771522,20 7,20.4477152 7,21 C7,21.5522848 7.44771522,22 8,22 Z M24,22 C24.5522848,22 25,21.5522848 25,21 C25,20.4477152 24.5522848,20 24,20 C23.4477152,20 23,20.4477152 23,21 C23,21.5522848 23.4477152,22 24,22 Z M32,2 C32.5522848,2 33,1.55228478 33,1 C33,0.447715223 32.5522848,0 32,0 C31.4477152,0 31,0.447715223 31,1 C31,1.55228478 31.4477152,2 32,2 Z M16,2 C16.5522848,2 17,1.55228478 17,1 C17,0.447715223 16.5522848,0 16,0 C15.4477152,0 15,0.447715223 15,1 C15,1.55228478 15.4477152,2 16,2 Z M0,2 C0.552284777,2 1,1.55228478 1,1 C1,0.447715223 0.552284777,0 0,0 C-0.552284777,0 -1,0.447715223 -1,1 C-1,1.55228478 -0.552284777,2 0,2 Z M0,44 C1.10456955,44 2,43.1045696 2,42 C2,40.8954304 1.10456955,40 0,40 C-1.10456955,40 -2,40.8954304 -2,42 C-2,43.1045696 -1.10456955,44 0,44 Z M32,44 C33.1045696,44 34,43.1045696 34,42 C34,40.8954304 33.1045696,40 32,40 C30.8954304,40 30,40.8954304 30,42 C30,43.1045696 30.8954304,44 32,44 Z" id="purple-dots-2" opacity="0.25" fill="#7855C1" sketch:type="MSShapeGroup" mask="url(#mask-2)"></path>
            </g>
            <g id="purple-+-purple-dots" sketch:type="MSLayerGroup" transform="translate(32.000000, -142.000000)">
                <mask id="mask-4" sketch:name="purple 3" fill="white">
                    <use xlink:href="#path-3"></use>
                </mask>
                <use id="purple-3" fill="#5835A1" sketch:type="MSShapeGroup" xlink:href="#path-3"></use>
                <path d="M1.33582034e-12,242.876007 C-1.36472889,245.335425 -3.98797315,247 -7,247 C-11.4182782,247 -15,243.418278 -15,239 C-15,234.581722 -11.4182782,231 -7,231 C-6.9764985,231 -6.95302066,231.000101 -6.92956691,231.000304 C-7.61035589,229.823542 -8,228.457274 -8,227 C-8,222.581722 -4.41827822,219 0,219 C4.41827822,219 8,222.581722 8,227 C8,228.489106 7.59314749,229.883187 6.88453848,231.077146 L6.88453848,231.077146 C7.24906757,231.026291 7.62146353,231 8,231 C8.37853647,231 8.75093243,231.026291 9.11546152,231.077146 L9.11546152,231.077146 C8.40685251,229.883187 8,228.489106 8,227 C8,222.581722 11.5817218,219 16,219 C20.4182782,219 24,222.581722 24,227 C24,228.457274 23.6103559,229.823542 22.9295669,231.000304 C22.9530207,231.000101 22.9764985,231 23,231 C23.7884151,231 24.5501924,231.11405 25.2697337,231.326552 L25.2697337,231.326552 C24.4662172,230.079204 24,228.594048 24,227 C24,222.581722 27.5817218,219 32,219 C36.4182782,219 40,222.581722 40,227 C40,228.477884 39.5992565,229.86217 38.9005073,231.050118 C42.8948679,231.497567 46,234.886162 46,239 C46,243.418278 42.4182782,247 38,247 C35.6106149,247 33.4658889,245.95249 32,244.291649 L32,250 L0,250 L0,242.876007 Z M29.7302663,234.673448 C30.0391189,235.152899 30.2981372,235.667485 30.5,236.209884 C30.663592,235.770317 30.8647218,235.349017 31.0994927,234.949882 C30.6295739,234.897241 30.1719624,234.803894 29.7302663,234.673448 L29.7302663,234.673448 Z M1.11546152,234.922854 C0.873831916,235.329984 0.667289099,235.760383 0.5,236.209884 L0.5,236.209884 C0.34319822,235.788562 0.151910068,235.384023 -0.0704330925,234.999696 C-0.0469793394,234.999899 -0.0235015042,235 0,235 C0.378536473,235 0.750932434,234.973709 1.11546152,234.922854 L1.11546152,234.922854 Z M14.8845385,234.922854 C15.1261681,235.329984 15.3327109,235.760383 15.5,236.209884 L15.5,236.209884 C15.6568018,235.788562 15.8480899,235.384023 16.0704331,234.999696 C16.0469793,234.999899 16.0235015,235 16,235 C15.6214635,235 15.2490676,234.973709 14.8845385,234.922854 L14.8845385,234.922854 Z M8,221 C11.8659934,221 15,217.865993 15,214 C15,210.134007 11.8659934,207 8,207 C4.13400656,207 1,210.134007 1,214 C1,217.865993 4.13400656,221 8,221 Z M8,193 C11.3137087,193 14,190.313709 14,187 C14,183.686291 11.3137087,181 8,181 C4.68629134,181 2,183.686291 2,187 C2,190.313709 4.68629134,193 8,193 Z M24,193 C27.3137087,193 30,190.313709 30,187 C30,183.686291 27.3137087,181 24,181 C20.6862913,181 18,183.686291 18,187 C18,190.313709 20.6862913,193 24,193 Z M16,179 C19.3137087,179 22,176.313709 22,173 C22,169.686291 19.3137087,167 16,167 C12.6862913,167 10,169.686291 10,173 C10,176.313709 12.6862913,179 16,179 Z M8,164 C10.7614239,164 13,161.761424 13,159 C13,156.238576 10.7614239,154 8,154 C5.23857611,154 3,156.238576 3,159 C3,161.761424 5.23857611,164 8,164 Z M24,164 C26.7614239,164 29,161.761424 29,159 C29,156.238576 26.7614239,154 24,154 C21.2385761,154 19,156.238576 19,159 C19,161.761424 21.2385761,164 24,164 Z M16,149 C18.7614239,149 21,146.761424 21,144 C21,141.238576 18.7614239,139 16,139 C13.2385761,139 11,141.238576 11,144 C11,146.761424 13.2385761,149 16,149 Z M8,133 C10.2091391,133 12,131.209139 12,129 C12,126.790861 10.2091391,125 8,125 C5.79086089,125 4,126.790861 4,129 C4,131.209139 5.79086089,133 8,133 Z M24,133 C26.2091391,133 28,131.209139 28,129 C28,126.790861 26.2091391,125 24,125 C21.7908609,125 20,126.790861 20,129 C20,131.209139 21.7908609,133 24,133 Z M16,117 C18.2091391,117 20,115.209139 20,113 C20,110.790861 18.2091391,109 16,109 C13.7908609,109 12,110.790861 12,113 C12,115.209139 13.7908609,117 16,117 Z M8,100 C9.65685433,100 11,98.6568543 11,97 C11,95.3431457 9.65685433,94 8,94 C6.34314567,94 5,95.3431457 5,97 C5,98.6568543 6.34314567,100 8,100 Z M24,100 C25.6568543,100 27,98.6568543 27,97 C27,95.3431457 25.6568543,94 24,94 C22.3431457,94 21,95.3431457 21,97 C21,98.6568543 22.3431457,100 24,100 Z M16,83 C17.6568543,83 19,81.6568543 19,80 C19,78.3431457 17.6568543,77 16,77 C14.3431457,77 13,78.3431457 13,80 C13,81.6568543 14.3431457,83 16,83 Z M8,63 C9.10456955,63 10,62.1045696 10,61 C10,59.8954304 9.10456955,59 8,59 C6.89543045,59 6,59.8954304 6,61 C6,62.1045696 6.89543045,63 8,63 Z M24,63 C25.1045696,63 26,62.1045696 26,61 C26,59.8954304 25.1045696,59 24,59 C22.8954304,59 22,59.8954304 22,61 C22,62.1045696 22.8954304,63 24,63 Z M0,83 C1.65685433,83 3,81.6568543 3,80 C3,78.3431457 1.65685433,77 0,77 C-1.65685433,77 -3,78.3431457 -3,80 C-3,81.6568543 -1.65685433,83 0,83 Z M32,83 C33.6568543,83 35,81.6568543 35,80 C35,78.3431457 33.6568543,77 32,77 C30.3431457,77 29,78.3431457 29,80 C29,81.6568543 30.3431457,83 32,83 Z M0,117 C2.20913911,117 4,115.209139 4,113 C4,110.790861 2.20913911,109 0,109 C-2.20913911,109 -4,110.790861 -4,113 C-4,115.209139 -2.20913911,117 0,117 Z M32,117 C34.2091391,117 36,115.209139 36,113 C36,110.790861 34.2091391,109 32,109 C29.7908609,109 28,110.790861 28,113 C28,115.209139 29.7908609,117 32,117 Z M0,149 C2.76142389,149 5,146.761424 5,144 C5,141.238576 2.76142389,139 0,139 C-2.76142389,139 -5,141.238576 -5,144 C-5,146.761424 -2.76142389,149 0,149 Z M32,149 C34.7614239,149 37,146.761424 37,144 C37,141.238576 34.7614239,139 32,139 C29.2385761,139 27,141.238576 27,144 C27,146.761424 29.2385761,149 32,149 Z M0,179 C3.31370866,179 6,176.313709 6,173 C6,169.686291 3.31370866,167 0,167 C-3.31370866,167 -6,169.686291 -6,173 C-6,176.313709 -3.31370866,179 0,179 Z M32,179 C35.3137087,179 38,176.313709 38,173 C38,169.686291 35.3137087,167 32,167 C28.6862913,167 26,169.686291 26,173 C26,176.313709 28.6862913,179 32,179 Z M24,221 C27.8659934,221 31,217.865993 31,214 C31,210.134007 27.8659934,207 24,207 C20.1340066,207 17,210.134007 17,214 C17,217.865993 20.1340066,221 24,221 Z M16,208 C19.8659934,208 23,204.865993 23,201 C23,197.134007 19.8659934,194 16,194 C12.1340066,194 9,197.134007 9,201 C9,204.865993 12.1340066,208 16,208 Z M0,208 C3.86599344,208 7,204.865993 7,201 C7,197.134007 3.86599344,194 0,194 C-3.86599344,194 -7,197.134007 -7,201 C-7,204.865993 -3.86599344,208 0,208 Z M32,208 C35.8659934,208 39,204.865993 39,201 C39,197.134007 35.8659934,194 32,194 C28.1340066,194 25,197.134007 25,201 C25,204.865993 28.1340066,208 32,208 Z M16,44 C17.1045696,44 18,43.1045696 18,42 C18,40.8954304 17.1045696,40 16,40 C14.8954304,40 14,40.8954304 14,42 C14,43.1045696 14.8954304,44 16,44 Z M8,22 C8.55228478,22 9,21.5522848 9,21 C9,20.4477152 8.55228478,20 8,20 C7.44771522,20 7,20.4477152 7,21 C7,21.5522848 7.44771522,22 8,22 Z M24,22 C24.5522848,22 25,21.5522848 25,21 C25,20.4477152 24.5522848,20 24,20 C23.4477152,20 23,20.4477152 23,21 C23,21.5522848 23.4477152,22 24,22 Z M32,2 C32.5522848,2 33,1.55228478 33,1 C33,0.447715223 32.5522848,0 32,0 C31.4477152,0 31,0.447715223 31,1 C31,1.55228478 31.4477152,2 32,2 Z M16,2 C16.5522848,2 17,1.55228478 17,1 C17,0.447715223 16.5522848,0 16,0 C15.4477152,0 15,0.447715223 15,1 C15,1.55228478 15.4477152,2 16,2 Z M0,2 C0.552284777,2 1,1.55228478 1,1 C1,0.447715223 0.552284777,0 0,0 C-0.552284777,0 -1,0.447715223 -1,1 C-1,1.55228478 -0.552284777,2 0,2 Z M0,44 C1.10456955,44 2,43.1045696 2,42 C2,40.8954304 1.10456955,40 0,40 C-1.10456955,40 -2,40.8954304 -2,42 C-2,43.1045696 -1.10456955,44 0,44 Z M32,44 C33.1045696,44 34,43.1045696 34,42 C34,40.8954304 33.1045696,40 32,40 C30.8954304,40 30,40.8954304 30,42 C30,43.1045696 30.8954304,44 32,44 Z" id="purple-dots-3" opacity="0.25" fill="#7855C1" sketch:type="MSShapeGroup" mask="url(#mask-4)"></path>
            </g>
            <g id="purple-+-purple-dots" sketch:type="MSLayerGroup" transform="translate(64.000000, -142.000000)">
                <mask id="mask-6" sketch:name="purple 4" fill="white">
                    <use xlink:href="#path-5"></use>
                </mask>
                <use id="purple-4" fill="#5835A1" sketch:type="MSShapeGroup" xlink:href="#path-5"></use>
                <path d="M1.33582034e-12,242.876007 C-1.36472889,245.335425 -3.98797315,247 -7,247 C-11.4182782,247 -15,243.418278 -15,239 C-15,234.581722 -11.4182782,231 -7,231 C-6.9764985,231 -6.95302066,231.000101 -6.92956691,231.000304 C-7.61035589,229.823542 -8,228.457274 -8,227 C-8,222.581722 -4.41827822,219 0,219 C4.41827822,219 8,222.581722 8,227 C8,228.489106 7.59314749,229.883187 6.88453848,231.077146 L6.88453848,231.077146 C7.24906757,231.026291 7.62146353,231 8,231 C8.37853647,231 8.75093243,231.026291 9.11546152,231.077146 L9.11546152,231.077146 C8.40685251,229.883187 8,228.489106 8,227 C8,222.581722 11.5817218,219 16,219 C20.4182782,219 24,222.581722 24,227 C24,228.457274 23.6103559,229.823542 22.9295669,231.000304 C22.9530207,231.000101 22.9764985,231 23,231 C23.7884151,231 24.5501924,231.11405 25.2697337,231.326552 L25.2697337,231.326552 C24.4662172,230.079204 24,228.594048 24,227 C24,222.581722 27.5817218,219 32,219 C36.4182782,219 40,222.581722 40,227 C40,228.477884 39.5992565,229.86217 38.9005073,231.050118 C42.8948679,231.497567 46,234.886162 46,239 C46,243.418278 42.4182782,247 38,247 C35.6106149,247 33.4658889,245.95249 32,244.291649 L32,250 L0,250 L0,242.876007 Z M29.7302663,234.673448 C30.0391189,235.152899 30.2981372,235.667485 30.5,236.209884 C30.663592,235.770317 30.8647218,235.349017 31.0994927,234.949882 C30.6295739,234.897241 30.1719624,234.803894 29.7302663,234.673448 L29.7302663,234.673448 Z M1.11546152,234.922854 C0.873831916,235.329984 0.667289099,235.760383 0.5,236.209884 L0.5,236.209884 C0.34319822,235.788562 0.151910068,235.384023 -0.0704330925,234.999696 C-0.0469793394,234.999899 -0.0235015042,235 0,235 C0.378536473,235 0.750932434,234.973709 1.11546152,234.922854 L1.11546152,234.922854 Z M14.8845385,234.922854 C15.1261681,235.329984 15.3327109,235.760383 15.5,236.209884 L15.5,236.209884 C15.6568018,235.788562 15.8480899,235.384023 16.0704331,234.999696 C16.0469793,234.999899 16.0235015,235 16,235 C15.6214635,235 15.2490676,234.973709 14.8845385,234.922854 L14.8845385,234.922854 Z M8,221 C11.8659934,221 15,217.865993 15,214 C15,210.134007 11.8659934,207 8,207 C4.13400656,207 1,210.134007 1,214 C1,217.865993 4.13400656,221 8,221 Z M8,193 C11.3137087,193 14,190.313709 14,187 C14,183.686291 11.3137087,181 8,181 C4.68629134,181 2,183.686291 2,187 C2,190.313709 4.68629134,193 8,193 Z M24,193 C27.3137087,193 30,190.313709 30,187 C30,183.686291 27.3137087,181 24,181 C20.6862913,181 18,183.686291 18,187 C18,190.313709 20.6862913,193 24,193 Z M16,179 C19.3137087,179 22,176.313709 22,173 C22,169.686291 19.3137087,167 16,167 C12.6862913,167 10,169.686291 10,173 C10,176.313709 12.6862913,179 16,179 Z M8,164 C10.7614239,164 13,161.761424 13,159 C13,156.238576 10.7614239,154 8,154 C5.23857611,154 3,156.238576 3,159 C3,161.761424 5.23857611,164 8,164 Z M24,164 C26.7614239,164 29,161.761424 29,159 C29,156.238576 26.7614239,154 24,154 C21.2385761,154 19,156.238576 19,159 C19,161.761424 21.2385761,164 24,164 Z M16,149 C18.7614239,149 21,146.761424 21,144 C21,141.238576 18.7614239,139 16,139 C13.2385761,139 11,141.238576 11,144 C11,146.761424 13.2385761,149 16,149 Z M8,133 C10.2091391,133 12,131.209139 12,129 C12,126.790861 10.2091391,125 8,125 C5.79086089,125 4,126.790861 4,129 C4,131.209139 5.79086089,133 8,133 Z M24,133 C26.2091391,133 28,131.209139 28,129 C28,126.790861 26.2091391,125 24,125 C21.7908609,125 20,126.790861 20,129 C20,131.209139 21.7908609,133 24,133 Z M16,117 C18.2091391,117 20,115.209139 20,113 C20,110.790861 18.2091391,109 16,109 C13.7908609,109 12,110.790861 12,113 C12,115.209139 13.7908609,117 16,117 Z M8,100 C9.65685433,100 11,98.6568543 11,97 C11,95.3431457 9.65685433,94 8,94 C6.34314567,94 5,95.3431457 5,97 C5,98.6568543 6.34314567,100 8,100 Z M24,100 C25.6568543,100 27,98.6568543 27,97 C27,95.3431457 25.6568543,94 24,94 C22.3431457,94 21,95.3431457 21,97 C21,98.6568543 22.3431457,100 24,100 Z M16,83 C17.6568543,83 19,81.6568543 19,80 C19,78.3431457 17.6568543,77 16,77 C14.3431457,77 13,78.3431457 13,80 C13,81.6568543 14.3431457,83 16,83 Z M8,63 C9.10456955,63 10,62.1045696 10,61 C10,59.8954304 9.10456955,59 8,59 C6.89543045,59 6,59.8954304 6,61 C6,62.1045696 6.89543045,63 8,63 Z M24,63 C25.1045696,63 26,62.1045696 26,61 C26,59.8954304 25.1045696,59 24,59 C22.8954304,59 22,59.8954304 22,61 C22,62.1045696 22.8954304,63 24,63 Z M0,83 C1.65685433,83 3,81.6568543 3,80 C3,78.3431457 1.65685433,77 0,77 C-1.65685433,77 -3,78.3431457 -3,80 C-3,81.6568543 -1.65685433,83 0,83 Z M32,83 C33.6568543,83 35,81.6568543 35,80 C35,78.3431457 33.6568543,77 32,77 C30.3431457,77 29,78.3431457 29,80 C29,81.6568543 30.3431457,83 32,83 Z M0,117 C2.20913911,117 4,115.209139 4,113 C4,110.790861 2.20913911,109 0,109 C-2.20913911,109 -4,110.790861 -4,113 C-4,115.209139 -2.20913911,117 0,117 Z M32,117 C34.2091391,117 36,115.209139 36,113 C36,110.790861 34.2091391,109 32,109 C29.7908609,109 28,110.790861 28,113 C28,115.209139 29.7908609,117 32,117 Z M0,149 C2.76142389,149 5,146.761424 5,144 C5,141.238576 2.76142389,139 0,139 C-2.76142389,139 -5,141.238576 -5,144 C-5,146.761424 -2.76142389,149 0,149 Z M32,149 C34.7614239,149 37,146.761424 37,144 C37,141.238576 34.7614239,139 32,139 C29.2385761,139 27,141.238576 27,144 C27,146.761424 29.2385761,149 32,149 Z M0,179 C3.31370866,179 6,176.313709 6,173 C6,169.686291 3.31370866,167 0,167 C-3.31370866,167 -6,169.686291 -6,173 C-6,176.313709 -3.31370866,179 0,179 Z M32,179 C35.3137087,179 38,176.313709 38,173 C38,169.686291 35.3137087,167 32,167 C28.6862913,167 26,169.686291 26,173 C26,176.313709 28.6862913,179 32,179 Z M24,221 C27.8659934,221 31,217.865993 31,214 C31,210.134007 27.8659934,207 24,207 C20.1340066,207 17,210.134007 17,214 C17,217.865993 20.1340066,221 24,221 Z M16,208 C19.8659934,208 23,204.865993 23,201 C23,197.134007 19.8659934,194 16,194 C12.1340066,194 9,197.134007 9,201 C9,204.865993 12.1340066,208 16,208 Z M0,208 C3.86599344,208 7,204.865993 7,201 C7,197.134007 3.86599344,194 0,194 C-3.86599344,194 -7,197.134007 -7,201 C-7,204.865993 -3.86599344,208 0,208 Z M32,208 C35.8659934,208 39,204.865993 39,201 C39,197.134007 35.8659934,194 32,194 C28.1340066,194 25,197.134007 25,201 C25,204.865993 28.1340066,208 32,208 Z M16,44 C17.1045696,44 18,43.1045696 18,42 C18,40.8954304 17.1045696,40 16,40 C14.8954304,40 14,40.8954304 14,42 C14,43.1045696 14.8954304,44 16,44 Z M8,22 C8.55228478,22 9,21.5522848 9,21 C9,20.4477152 8.55228478,20 8,20 C7.44771522,20 7,20.4477152 7,21 C7,21.5522848 7.44771522,22 8,22 Z M24,22 C24.5522848,22 25,21.5522848 25,21 C25,20.4477152 24.5522848,20 24,20 C23.4477152,20 23,20.4477152 23,21 C23,21.5522848 23.4477152,22 24,22 Z M32,2 C32.5522848,2 33,1.55228478 33,1 C33,0.447715223 32.5522848,0 32,0 C31.4477152,0 31,0.447715223 31,1 C31,1.55228478 31.4477152,2 32,2 Z M16,2 C16.5522848,2 17,1.55228478 17,1 C17,0.447715223 16.5522848,0 16,0 C15.4477152,0 15,0.447715223 15,1 C15,1.55228478 15.4477152,2 16,2 Z M0,2 C0.552284777,2 1,1.55228478 1,1 C1,0.447715223 0.552284777,0 0,0 C-0.552284777,0 -1,0.447715223 -1,1 C-1,1.55228478 -0.552284777,2 0,2 Z M0,44 C1.10456955,44 2,43.1045696 2,42 C2,40.8954304 1.10456955,40 0,40 C-1.10456955,40 -2,40.8954304 -2,42 C-2,43.1045696 -1.10456955,44 0,44 Z M32,44 C33.1045696,44 34,43.1045696 34,42 C34,40.8954304 33.1045696,40 32,40 C30.8954304,40 30,40.8954304 30,42 C30,43.1045696 30.8954304,44 32,44 Z" id="purple-dots-4" opacity="0.25" fill="#7855C1" sketch:type="MSShapeGroup" mask="url(#mask-6)"></path>
            </g>
            <g id="purple-+-purple-dots" sketch:type="MSLayerGroup" transform="translate(96.000000, -142.000000)">
                <mask id="mask-8" sketch:name="purple" fill="white">
                    <use xlink:href="#path-7"></use>
                </mask>
                <use id="purple" fill="#5835A1" sketch:type="MSShapeGroup" xlink:href="#path-7"></use>
                <path d="M1.33582034e-12,242.876007 C-1.36472889,245.335425 -3.98797315,247 -7,247 C-11.4182782,247 -15,243.418278 -15,239 C-15,234.581722 -11.4182782,231 -7,231 C-6.9764985,231 -6.95302066,231.000101 -6.92956691,231.000304 C-7.61035589,229.823542 -8,228.457274 -8,227 C-8,222.581722 -4.41827822,219 0,219 C4.41827822,219 8,222.581722 8,227 C8,228.489106 7.59314749,229.883187 6.88453848,231.077146 L6.88453848,231.077146 C7.24906757,231.026291 7.62146353,231 8,231 C8.37853647,231 8.75093243,231.026291 9.11546152,231.077146 L9.11546152,231.077146 C8.40685251,229.883187 8,228.489106 8,227 C8,222.581722 11.5817218,219 16,219 C20.4182782,219 24,222.581722 24,227 C24,228.457274 23.6103559,229.823542 22.9295669,231.000304 C22.9530207,231.000101 22.9764985,231 23,231 C23.7884151,231 24.5501924,231.11405 25.2697337,231.326552 L25.2697337,231.326552 C24.4662172,230.079204 24,228.594048 24,227 C24,222.581722 27.5817218,219 32,219 C36.4182782,219 40,222.581722 40,227 C40,228.477884 39.5992565,229.86217 38.9005073,231.050118 C42.8948679,231.497567 46,234.886162 46,239 C46,243.418278 42.4182782,247 38,247 C35.6106149,247 33.4658889,245.95249 32,244.291649 L32,250 L0,250 L0,242.876007 Z M29.7302663,234.673448 C30.0391189,235.152899 30.2981372,235.667485 30.5,236.209884 C30.663592,235.770317 30.8647218,235.349017 31.0994927,234.949882 C30.6295739,234.897241 30.1719624,234.803894 29.7302663,234.673448 L29.7302663,234.673448 Z M1.11546152,234.922854 C0.873831916,235.329984 0.667289099,235.760383 0.5,236.209884 L0.5,236.209884 C0.34319822,235.788562 0.151910068,235.384023 -0.0704330925,234.999696 C-0.0469793394,234.999899 -0.0235015042,235 0,235 C0.378536473,235 0.750932434,234.973709 1.11546152,234.922854 L1.11546152,234.922854 Z M14.8845385,234.922854 C15.1261681,235.329984 15.3327109,235.760383 15.5,236.209884 L15.5,236.209884 C15.6568018,235.788562 15.8480899,235.384023 16.0704331,234.999696 C16.0469793,234.999899 16.0235015,235 16,235 C15.6214635,235 15.2490676,234.973709 14.8845385,234.922854 L14.8845385,234.922854 Z M8,221 C11.8659934,221 15,217.865993 15,214 C15,210.134007 11.8659934,207 8,207 C4.13400656,207 1,210.134007 1,214 C1,217.865993 4.13400656,221 8,221 Z M8,193 C11.3137087,193 14,190.313709 14,187 C14,183.686291 11.3137087,181 8,181 C4.68629134,181 2,183.686291 2,187 C2,190.313709 4.68629134,193 8,193 Z M24,193 C27.3137087,193 30,190.313709 30,187 C30,183.686291 27.3137087,181 24,181 C20.6862913,181 18,183.686291 18,187 C18,190.313709 20.6862913,193 24,193 Z M16,179 C19.3137087,179 22,176.313709 22,173 C22,169.686291 19.3137087,167 16,167 C12.6862913,167 10,169.686291 10,173 C10,176.313709 12.6862913,179 16,179 Z M8,164 C10.7614239,164 13,161.761424 13,159 C13,156.238576 10.7614239,154 8,154 C5.23857611,154 3,156.238576 3,159 C3,161.761424 5.23857611,164 8,164 Z M24,164 C26.7614239,164 29,161.761424 29,159 C29,156.238576 26.7614239,154 24,154 C21.2385761,154 19,156.238576 19,159 C19,161.761424 21.2385761,164 24,164 Z M16,149 C18.7614239,149 21,146.761424 21,144 C21,141.238576 18.7614239,139 16,139 C13.2385761,139 11,141.238576 11,144 C11,146.761424 13.2385761,149 16,149 Z M8,133 C10.2091391,133 12,131.209139 12,129 C12,126.790861 10.2091391,125 8,125 C5.79086089,125 4,126.790861 4,129 C4,131.209139 5.79086089,133 8,133 Z M24,133 C26.2091391,133 28,131.209139 28,129 C28,126.790861 26.2091391,125 24,125 C21.7908609,125 20,126.790861 20,129 C20,131.209139 21.7908609,133 24,133 Z M16,117 C18.2091391,117 20,115.209139 20,113 C20,110.790861 18.2091391,109 16,109 C13.7908609,109 12,110.790861 12,113 C12,115.209139 13.7908609,117 16,117 Z M8,100 C9.65685433,100 11,98.6568543 11,97 C11,95.3431457 9.65685433,94 8,94 C6.34314567,94 5,95.3431457 5,97 C5,98.6568543 6.34314567,100 8,100 Z M24,100 C25.6568543,100 27,98.6568543 27,97 C27,95.3431457 25.6568543,94 24,94 C22.3431457,94 21,95.3431457 21,97 C21,98.6568543 22.3431457,100 24,100 Z M16,83 C17.6568543,83 19,81.6568543 19,80 C19,78.3431457 17.6568543,77 16,77 C14.3431457,77 13,78.3431457 13,80 C13,81.6568543 14.3431457,83 16,83 Z M8,63 C9.10456955,63 10,62.1045696 10,61 C10,59.8954304 9.10456955,59 8,59 C6.89543045,59 6,59.8954304 6,61 C6,62.1045696 6.89543045,63 8,63 Z M24,63 C25.1045696,63 26,62.1045696 26,61 C26,59.8954304 25.1045696,59 24,59 C22.8954304,59 22,59.8954304 22,61 C22,62.1045696 22.8954304,63 24,63 Z M0,83 C1.65685433,83 3,81.6568543 3,80 C3,78.3431457 1.65685433,77 0,77 C-1.65685433,77 -3,78.3431457 -3,80 C-3,81.6568543 -1.65685433,83 0,83 Z M32,83 C33.6568543,83 35,81.6568543 35,80 C35,78.3431457 33.6568543,77 32,77 C30.3431457,77 29,78.3431457 29,80 C29,81.6568543 30.3431457,83 32,83 Z M0,117 C2.20913911,117 4,115.209139 4,113 C4,110.790861 2.20913911,109 0,109 C-2.20913911,109 -4,110.790861 -4,113 C-4,115.209139 -2.20913911,117 0,117 Z M32,117 C34.2091391,117 36,115.209139 36,113 C36,110.790861 34.2091391,109 32,109 C29.7908609,109 28,110.790861 28,113 C28,115.209139 29.7908609,117 32,117 Z M0,149 C2.76142389,149 5,146.761424 5,144 C5,141.238576 2.76142389,139 0,139 C-2.76142389,139 -5,141.238576 -5,144 C-5,146.761424 -2.76142389,149 0,149 Z M32,149 C34.7614239,149 37,146.761424 37,144 C37,141.238576 34.7614239,139 32,139 C29.2385761,139 27,141.238576 27,144 C27,146.761424 29.2385761,149 32,149 Z M0,179 C3.31370866,179 6,176.313709 6,173 C6,169.686291 3.31370866,167 0,167 C-3.31370866,167 -6,169.686291 -6,173 C-6,176.313709 -3.31370866,179 0,179 Z M32,179 C35.3137087,179 38,176.313709 38,173 C38,169.686291 35.3137087,167 32,167 C28.6862913,167 26,169.686291 26,173 C26,176.313709 28.6862913,179 32,179 Z M24,221 C27.8659934,221 31,217.865993 31,214 C31,210.134007 27.8659934,207 24,207 C20.1340066,207 17,210.134007 17,214 C17,217.865993 20.1340066,221 24,221 Z M16,208 C19.8659934,208 23,204.865993 23,201 C23,197.134007 19.8659934,194 16,194 C12.1340066,194 9,197.134007 9,201 C9,204.865993 12.1340066,208 16,208 Z M0,208 C3.86599344,208 7,204.865993 7,201 C7,197.134007 3.86599344,194 0,194 C-3.86599344,194 -7,197.134007 -7,201 C-7,204.865993 -3.86599344,208 0,208 Z M32,208 C35.8659934,208 39,204.865993 39,201 C39,197.134007 35.8659934,194 32,194 C28.1340066,194 25,197.134007 25,201 C25,204.865993 28.1340066,208 32,208 Z M16,44 C17.1045696,44 18,43.1045696 18,42 C18,40.8954304 17.1045696,40 16,40 C14.8954304,40 14,40.8954304 14,42 C14,43.1045696 14.8954304,44 16,44 Z M8,22 C8.55228478,22 9,21.5522848 9,21 C9,20.4477152 8.55228478,20 8,20 C7.44771522,20 7,20.4477152 7,21 C7,21.5522848 7.44771522,22 8,22 Z M24,22 C24.5522848,22 25,21.5522848 25,21 C25,20.4477152 24.5522848,20 24,20 C23.4477152,20 23,20.4477152 23,21 C23,21.5522848 23.4477152,22 24,22 Z M32,2 C32.5522848,2 33,1.55228478 33,1 C33,0.447715223 32.5522848,0 32,0 C31.4477152,0 31,0.447715223 31,1 C31,1.55228478 31.4477152,2 32,2 Z M16,2 C16.5522848,2 17,1.55228478 17,1 C17,0.447715223 16.5522848,0 16,0 C15.4477152,0 15,0.447715223 15,1 C15,1.55228478 15.4477152,2 16,2 Z M0,2 C0.552284777,2 1,1.55228478 1,1 C1,0.447715223 0.552284777,0 0,0 C-0.552284777,0 -1,0.447715223 -1,1 C-1,1.55228478 -0.552284777,2 0,2 Z M0,44 C1.10456955,44 2,43.1045696 2,42 C2,40.8954304 1.10456955,40 0,40 C-1.10456955,40 -2,40.8954304 -2,42 C-2,43.1045696 -1.10456955,44 0,44 Z M32,44 C33.1045696,44 34,43.1045696 34,42 C34,40.8954304 33.1045696,40 32,40 C30.8954304,40 30,40.8954304 30,42 C30,43.1045696 30.8954304,44 32,44 Z" id="purple-dots" opacity="0.25" fill="#7855C1" sketch:type="MSShapeGroup" mask="url(#mask-8)"></path>
            </g>
            <path d="M21.0370004,16.182 C21.0370004,17.196 20.7250004,17.534 19.7890004,17.846 C18.5670004,18.236 16.7730004,18.418 15.2130004,18.574 C15.2650004,17.014 15.2910004,15.454 15.2910004,13.894 L15.2910004,13.764 C15.8630004,13.712 16.4350004,13.66 17.0330004,13.66 C18.7230004,13.66 21.0370004,13.972 21.0370004,16.182 L21.0370004,16.182 Z M28.0310004,27.7 C28.0310004,27.076 27.6930004,26.582 27.2250004,26.192 C26.8610004,25.906 26.4710004,25.698 26.1590004,25.386 C25.2490004,24.424 24.3650004,23.384 23.4810004,22.396 C22.9870004,21.798 22.4930004,21.2 22.0250004,20.576 C24.1830004,19.354 25.7430004,17.56 25.7430004,15.012 C25.7430004,11.658 21.9730004,9.526 18.9570004,9.5 L18.1250004,9.5 C15.5770004,9.5 10.2730004,9.318 10.2730004,13.01 C10.2730004,13.452 10.4290004,13.894 10.7410004,14.18 C10.6370004,15.766 10.5850004,18.418 10.5850004,18.756 C10.5850004,20.628 10.6370004,22.474 10.6370004,24.346 C10.6370004,25.282 10.5330004,26.218 10.5330004,27.154 C10.5330004,28.636 11.1310004,29.728 12.7430004,29.728 C13.8610004,29.728 15.3430004,28.09 15.3170004,26.998 L15.3170004,26.92 C15.2650004,25.828 15.1350004,24.762 15.1350004,23.644 L15.1350004,22.76 C15.7070004,22.656 16.3310004,22.552 16.9290004,22.422 C18.5670004,24.086 20.2310004,25.75 21.7130004,27.518 C22.7010004,28.74 23.9490004,30.066 25.6390004,30.066 C26.7310004,30.066 28.0310004,28.818 28.0310004,27.7 L28.0310004,27.7 Z M39.1970003,22.838 C39.1450003,23.618 39.1190003,24.372 39.0670003,25.152 C38.0530003,25.49 36.9870003,25.698 35.9210003,25.698 C34.8290003,25.698 33.5030003,25.646 33.5030003,24.294 C33.5030003,22.968 35.5050003,22.604 36.4670003,22.604 C37.4550003,22.604 38.2870003,22.76 39.1970003,22.838 L39.1970003,22.838 Z M43.4350003,20.836 C43.4350003,19.458 43.3570003,17.586 42.8370003,16.312 C41.9010003,14.076 38.8590003,13.608 36.7270003,13.608 C34.4390003,13.608 30.3570003,14.544 30.3050003,16.962 C30.2790003,17.69 30.6950003,18.34 31.5010003,18.34 C32.5670003,18.34 34.2830003,17.404 35.9470003,17.404 C37.7930003,17.404 38.9110003,17.768 39.1710003,19.38 L38.8330003,19.38 C37.4550003,19.38 35.3490003,19.51 34.0490003,19.978 C31.9690003,20.732 29.0570003,22.344 29.0570003,24.788 C29.0570003,27.414 31.2930003,29.728 33.9190003,29.728 C34.8550003,29.728 35.8690003,29.676 36.7790003,29.468 C37.4810003,29.312 38.3910003,29 39.2490003,28.558 C39.4830003,29.182 40.0030003,29.572 40.9390003,29.572 C43.2530003,29.572 43.3830003,26.66 43.3830003,24.97 C43.3830003,23.592 43.4350003,22.214 43.4350003,20.836 L43.4350003,20.836 Z M60.0510002,26.348 C59.9730002,24.19 59.7910002,22.032 59.7390002,19.874 C59.7130002,18.756 59.6610002,17.248 59.2970002,16.182 C58.5950002,14.258 56.2810002,13.816 54.4610002,13.816 C53.2910002,13.816 51.5750002,14.518 50.2750002,15.402 C50.1450002,14.492 49.5730002,14.05 48.5590002,14.05 C46.3490002,14.05 46.0110002,16.26 46.0110002,17.976 C46.0110002,19.926 46.1410002,21.85 46.1410002,23.774 C46.1410002,24.762 46.0630002,25.724 45.9330002,26.686 C45.9070002,26.868 45.9070002,27.024 45.9070002,27.18 C45.9070002,28.298 46.4010002,29.39 47.6750002,29.39 C49.8590002,29.39 50.0670002,26.764 50.0670002,25.126 C50.0670002,23.228 50.1450002,21.304 50.2230002,19.406 C51.1850002,18.574 52.2510002,17.95 53.2650002,17.95 C55.7870002,17.95 56.0730002,20.264 56.0730002,22.266 C56.0730002,23.8 55.8910002,25.334 55.8910002,26.868 C55.8910002,27.882 56.0470002,29.728 57.4250002,29.728 C59.2190002,29.728 60.1290002,28.168 60.0770002,26.556 L60.0510002,26.348 Z M72.0650001,24.398 C71.2850001,24.892 70.3490001,25.386 69.3610001,25.386 C66.8390001,25.386 66.0070001,23.046 66.0070001,20.888 C66.0070001,18.73 66.9950001,17.69 69.1530001,17.69 C70.1410001,17.69 71.1810001,18.054 71.9870001,18.34 C72.0130001,20.316 72.0910001,22.318 72.0910001,24.32 L72.0650001,24.398 Z M76.4330001,25.074 C76.4330001,23.514 76.1990001,21.954 76.1990001,20.394 C76.1990001,17.17 76.1210001,13.946 76.0430001,10.748 C75.9910001,9.448 75.8610001,8.096 74.2490001,8.096 C72.1950001,8.096 71.8310001,11.84 71.8310001,13.322 L71.8310001,13.92 C70.8170001,13.738 69.8030001,13.634 69.2830001,13.634 C65.4610001,13.634 61.6130001,17.924 61.6130001,21.668 C61.6130001,23.254 61.8210001,25.126 62.5490001,26.556 C63.5370001,28.454 65.6170001,29.468 67.7230001,29.468 C68.7370001,29.468 70.6090001,29.026 72.1170001,28.272 C72.2730001,28.844 72.6630001,29.312 73.4170001,29.312 C75.5750001,29.312 76.4330001,26.894 76.4330001,25.074 L76.4330001,25.074 Z M89.5649999,21.954 C89.5649999,24.138 89.4089999,26.062 86.5489999,26.062 C83.8189999,26.062 82.1029999,24.554 82.1029999,21.824 C82.1029999,18.99 82.6229999,17.768 85.9509999,17.768 C88.4469999,17.768 89.5649999,19.666 89.5649999,21.954 L89.5649999,21.954 Z M93.5949999,20.706 C93.5949999,16.52 90.3709999,13.998 86.3409999,13.998 C85.1969999,13.998 84.0269999,14.206 83.0129999,14.726 C80.0749999,16.286 78.1509999,19.744 78.1509999,23.02 C78.1509999,27.284 81.5049999,29.832 85.5609999,29.832 C90.7089999,29.832 93.5949999,25.516 93.5949999,20.706 L93.5949999,20.706 Z M118.947,25.932 C118.947,24.346 118.661,22.76 118.661,21.148 C118.661,19.718 118.843,18.236 118.453,16.806 C117.959,15.064 116.373,13.816 114.553,13.868 L114.345,13.868 C112.317,13.92 110.497,14.57 108.781,15.636 C108.677,15.688 108.573,15.766 108.469,15.844 C107.663,14.674 106.415,13.894 104.595,13.894 C103.009,13.894 101.033,14.492 99.4469998,15.48 C99.2649998,14.674 98.7449998,14.102 97.6789998,14.102 C95.8329998,14.102 95.3129998,18.08 95.3129998,19.458 C95.3129998,21.018 95.1829998,27.024 95.4429998,28.116 C95.6509998,29 96.2749998,29.52 97.1849998,29.52 C98.9269998,29.52 99.5769998,26.946 99.5249998,25.594 L99.4989998,25.256 C99.4209998,23.332 99.3429998,21.382 99.3429998,19.432 C100.409,18.704 101.579,18.132 102.775,18.132 C105.427,18.132 105.193,20.368 105.193,22.318 C105.193,24.06 105.089,25.802 105.089,27.518 C105.089,28.844 105.427,29.598 106.883,29.598 C108.703,29.598 109.327,25.88 109.327,24.528 C109.327,23.02 109.561,21.538 109.561,20.03 C109.561,19.718 109.561,19.406 109.535,19.12 C110.393,18.574 111.329,18.184 112.525,18.184 C114.293,18.184 114.683,19.146 114.683,20.732 C114.683,21.954 114.735,23.176 114.735,24.398 C114.735,25.542 114.553,26.686 114.553,27.804 C114.553,29 115.229,29.52 116.399,29.52 C118.245,29.52 118.947,27.492 118.947,25.932 L118.947,25.932 Z" id="Random" fill="#FFFFFF" sketch:type="MSShapeGroup"></path>
        </g>
    </g>
</svg>