<?xml version="1.0" encoding="UTF-8" standalone="no"?>
<svg width="640px" height="684px" viewBox="0 0 640 684" version="1.1" xmlns="http://www.w3.org/2000/svg" xmlns:xlink="http://www.w3.org/1999/xlink" xmlns:sketch="http://www.bohemiancoding.com/sketch/ns">
    <!-- Generator: Sketch 3.1.1 (8761) - http://www.bohemiancoding.com/sketch -->
    <title>login-background</title>
    <desc>Created with Sketch.</desc>
    <defs></defs>
    <g id="Page-1" stroke="none" stroke-width="1" fill="none" fill-rule="evenodd" sketch:type="MSPage">
        <g id="login-background" sketch:type="MSArtboardGroup" fill="#312558" fill-opacity="0.1">
            <circle id="Oval-1" sketch:type="MSShapeGroup" cx="61" cy="508" r="61"></circle>
            <circle id="Oval-1" sketch:type="MSShapeGroup" cx="64" cy="273" r="51"></circle>
            <circle id="Oval-1" sketch:type="MSShapeGroup" cx="65.5" cy="43.5" r="39.5"></circle>
            <circle id="Oval-1" sketch:type="MSShapeGroup" cx="127.5" cy="393.5" r="57.5"></circle>
            <circle id="Oval-1" sketch:type="MSShapeGroup" cx="127.5" cy="153.5" r="44.5"></circle>
            <circle id="Oval-1" sketch:type="MSShapeGroup" cx="190" cy="508" r="61"></circle>
            <circle id="Oval-1" sketch:type="MSShapeGroup" cx="191" cy="273" r="51"></circle>
            <circle id="Oval-1" sketch:type="MSShapeGroup" cx="192" cy="44" r="39.5"></circle>
            <circle id="Oval-1" sketch:type="MSShapeGroup" cx="254.5" cy="393.5" r="57.5"></circle>
            <circle id="Oval-1" sketch:type="MSShapeGroup" cx="254.5" cy="153.5" r="44.5"></circle>
            <circle id="Oval-1" sketch:type="MSShapeGroup" cx="319" cy="508" r="61"></circle>
            <circle id="Oval-1" sketch:type="MSShapeGroup" cx="318" cy="273" r="51"></circle>
            <circle id="Oval-1" sketch:type="MSShapeGroup" cx="319" cy="44" r="39.5"></circle>
            <circle id="Oval-1" sketch:type="MSShapeGroup" cx="381.5" cy="393.5" r="57.5"></circle>
            <circle id="Oval-1" sketch:type="MSShapeGroup" cx="381.5" cy="153.5" r="44.5"></circle>
            <circle id="Oval-1" sketch:type="MSShapeGroup" cx="448" cy="508" r="61"></circle>
            <circle id="Oval-1" sketch:type="MSShapeGroup" cx="445" cy="273" r="51"></circle>
            <circle id="Oval-1" sketch:type="MSShapeGroup" cx="446" cy="44" r="39.5"></circle>
            <circle id="Oval-1" sketch:type="MSShapeGroup" cx="508.5" cy="393.5" r="57.5"></circle>
            <circle id="Oval-1" sketch:type="MSShapeGroup" cx="508.5" cy="153.5" r="44.5"></circle>
            <circle id="Oval-1" sketch:type="MSShapeGroup" cx="579" cy="508" r="61"></circle>
            <circle id="Oval-1" sketch:type="MSShapeGroup" cx="574" cy="273" r="51"></circle>
            <circle id="Oval-1" sketch:type="MSShapeGroup" cx="575" cy="44" r="39.5"></circle>
            <g id="Group" sketch:type="MSLayerGroup" transform="translate(0.000000, 556.000000)">
                <rect id="Rectangle-3" sketch:type="MSShapeGroup" x="0" y="64" width="640" height="64"></rect>
                <path d="M0,64 L0,0 L64,0 C64,35.346224 35.346224,64 0,64 Z" id="Rectangle-3" sketch:type="MSShapeGroup" transform="translate(32.000000, 32.000000) rotate(-90.000000) translate(-32.000000, -32.000000) "></path>
                <path d="M576,64 L576,0 L640,0 C640,35.346224 611.346224,64 576,64 Z" id="Rectangle-3" sketch:type="MSShapeGroup" transform="translate(608.000000, 32.000000) scale(-1, 1) rotate(-90.000000) translate(-608.000000, -32.000000) "></path>
                <path d="M96,-32 C131.346224,-32 160,-3.34622399 160,32 C160,67.346224 131.346224,96 96,96 L96,-32 Z" id="Oval-1" sketch:type="MSShapeGroup" transform="translate(128.000000, 32.000000) rotate(-90.000000) translate(-128.000000, -32.000000) "></path>
                <path d="M224,-32 C259.346224,-32 288,-3.34622399 288,32 C288,67.346224 259.346224,96 224,96 L224,-32 Z" id="Oval-1" sketch:type="MSShapeGroup" transform="translate(256.000000, 32.000000) rotate(-90.000000) translate(-256.000000, -32.000000) "></path>
                <path d="M352,-32 C387.346224,-32 416,-3.34622399 416,32 C416,67.346224 387.346224,96 352,96 L352,-32 Z" id="Oval-1" sketch:type="MSShapeGroup" transform="translate(384.000000, 32.000000) rotate(-90.000000) translate(-384.000000, -32.000000) "></path>
                <path d="M480,-32 C515.346224,-32 544,-3.34622399 544,32 C544,67.346224 515.346224,96 480,96 L480,-32 Z" id="Oval-1" sketch:type="MSShapeGroup" transform="translate(512.000000, 32.000000) rotate(-90.000000) translate(-512.000000, -32.000000) "></path>
            </g>
            <path d="M0,336 C32.0325155,336 58,361.743627 58,393.5 C58,425.256373 32.0325155,451 0,451 L0,336 Z" id="Oval-1" sketch:type="MSShapeGroup"></path>
            <path d="M0,109 C24.8528137,109 45,128.699471 45,153 C45,177.300529 24.8528137,197 0,197 L0,109 Z" id="Oval-1" sketch:type="MSShapeGroup"></path>
            <path d="M640,336 C607.967485,336 582,361.743627 582,393.5 C582,425.256373 607.967485,451 640,451 L640,336 Z" id="Oval-1" sketch:type="MSShapeGroup"></path>
            <path d="M640,109 C615.147186,109 595,128.699471 595,153 C595,177.300529 615.147186,197 640,197 L640,109 Z" id="Oval-1" sketch:type="MSShapeGroup"></path>
        </g>
    </g>
</svg>