<?xml version="1.0" encoding="UTF-8"?>
<svg width="68px" height="72px" viewBox="0 0 68 72" version="1.1" xmlns="http://www.w3.org/2000/svg" xmlns:xlink="http://www.w3.org/1999/xlink">
    <!-- Generator: Sketch 43.2 (39069) - http://www.bohemiancoding.com/sketch -->
    <title>Logo</title>
    <desc>Created with Sketch.</desc>
    <defs></defs>
    <g id="Page-1" stroke="none" stroke-width="1" fill="none" fill-rule="evenodd">
        <g id="Logo">
            <g id="logo1">
                <g id="Group" transform="translate(0.149033, 0.140129)" fill-rule="nonzero" fill="#FFD580">
                    <path d="M8.30299943,54.075546 C4.29530691,58.433826 0.0716547955,59.7716934 0.526463706,60.6149583 C1.00665036,61.5050436 7.3923864,61.8661583 12.9033368,60.6637711 C19.3671965,68.0569082 28.4917381,71.9833449 40.5959249,69.8470406 C60.9822118,66.2483465 67.5052862,50.1859678 65.9671961,30.378955 C64.429106,10.5719421 49.9160243,-2.84558328 28.4579011,0.942882749 C6.99977784,4.72935642 -1.73762879,23.0426 3.26875244,41.4445034 C4.51226171,46.0144713 6.18221652,50.287578 8.30299943,54.075546" id="Shape"></path>
                </g>
                <g id="Group" transform="translate(40.454855, 51.443311)" fill-rule="nonzero" fill="#FFEABF">
                    <path d="M4.21867609,2.29569286 C4.21867609,1.14311458 3.28368053,0.208201262 2.13173017,0.208201262 C0.978784603,0.208201262 0.0442866445,1.14311458 0.0442866445,2.29569286 C0.0442866445,3.44777305 0.978784603,4.38218829 2.13173017,4.38218829 C3.28368053,4.38218829 4.21867609,3.44777305 4.21867609,2.29569286" id="Shape"></path>
                </g>
                <g id="Group" transform="translate(31.995609, 53.435668)" fill-rule="nonzero" fill="#FFEABF">
                    <path d="M2.51936271,4.33885453 C3.67181067,4.33885453 4.60630863,3.40493739 4.60630863,2.25136293 C4.60630863,1.09828656 3.67181067,0.163373239 2.51936271,0.163373239 C1.36691475,0.163373239 0.431919184,1.09828656 0.431919184,2.25136293 C0.431919184,3.40493739 1.36691475,4.33885453 2.51936271,4.33885453" id="Shape"></path>
                </g>
                <g id="Group" transform="translate(24.033965, 54.929935)" fill-rule="nonzero" fill="#FFEABF">
                    <path d="M2.4093925,4.51418191 C3.56184046,4.51418191 4.49683602,3.58026476 4.49683602,2.42768649 C4.49683602,1.27461012 3.56184046,0.339696796 2.4093925,0.339696796 C1.25694454,0.339696796 0.32244658,1.27461012 0.32244658,2.42768649 C0.32244658,3.58026476 1.25694454,4.51418191 2.4093925,4.51418191" id="Shape"></path>
                </g>
                <g id="Group" transform="translate(19.057937, 52.439489)" fill-rule="nonzero" fill="#FFEABF">
                    <path d="M2.51488428,4.49923923 C3.74495827,4.49923923 4.74165657,3.50306095 4.74165657,2.27327885 C4.74165657,1.04399484 3.74495827,0.0468203795 2.51488428,0.0468203795 C1.28530789,0.0468203795 0.28811199,1.04399484 0.28811199,2.27327885 C0.28811199,3.50306095 1.28530789,4.49923923 2.51488428,4.49923923" id="Shape"></path>
                </g>
                <g id="Group" transform="translate(21.545951, 47.458598)" fill-rule="nonzero" fill="#FFEABF">
                    <path d="M5.036735,2.80175143 C5.036735,1.41855788 3.91513841,0.29686113 2.53180278,0.29686113 C1.14846714,0.29686113 0.0268705483,1.41855788 0.0268705483,2.80175143 C0.0268705483,4.18494498 1.14846714,5.30664174 2.53180278,5.30664174 C3.91513841,5.30664174 5.036735,4.18494498 5.036735,2.80175143" id="Shape"></path>
                </g>
                <g id="Group" transform="translate(13.584307, 48.952865)" fill-rule="nonzero" fill="#FFEABF">
                    <path d="M0.474215418,2.83761385 C0.474215418,4.14410167 1.53311406,5.20353728 2.83981888,5.20353728 C4.14652369,5.20353728 5.20591994,4.14410167 5.20591994,2.83761385 C5.20591994,1.53112603 4.14652369,0.472686597 2.83981888,0.472686597 C1.53311406,0.472686597 0.474215418,1.53112603 0.474215418,2.83761385" id="Shape"></path>
                </g>
                <g id="Group" transform="translate(8.608280, 46.462420)" fill-rule="nonzero" fill="#FFEABF">
                    <path d="M0.162218495,2.68519857 C0.162218495,4.06739595 1.28331748,5.1890927 2.66715072,5.1890927 C4.05048636,5.1890927 5.17158535,4.06739595 5.17158535,2.68519857 C5.17158535,1.30200502 4.05048636,0.18030827 2.66715072,0.18030827 C1.28331748,0.18030827 0.162218495,1.30200502 0.162218495,2.68519857" id="Shape"></path>
                </g>
                <g id="Group" transform="translate(11.096293, 53.933757)" fill-rule="nonzero" fill="#FFEABF">
                    <path d="M4.63218397,2.44860623 C4.63218397,1.21882413 3.63548567,0.222645847 2.40541168,0.222645847 C1.17583529,0.222645847 0.179136989,1.21882413 0.179136989,2.44860623 C0.179136989,3.67838833 1.17583529,4.67556279 2.40541168,4.67556279 C3.63548567,4.67556279 4.63218397,3.67838833 4.63218397,2.44860623" id="Shape"></path>
                </g>
                <g id="Group" transform="translate(6.617869, 50.945222)" fill-rule="nonzero" fill="#FFEABF">
                    <path d="M4.10074424,2.37688139 C4.10074424,1.1470993 3.10404593,0.149924832 1.87397194,0.149924832 C1.34452262,0.149924832 0.859359943,0.335712083 0.477201034,0.644029263 C0.908125013,1.54108781 1.3579579,2.41971706 1.83416372,3.27095141 C1.49032023,3.64451826 1.14448632,3.99567111 0.800145217,4.3264023 C1.11861097,4.50272586 1.48434899,4.60383795 1.87397194,4.60383795 C3.10404593,4.60383795 4.10074424,3.60666349 4.10074424,2.37688139" id="Shape"></path>
                </g>
                <g id="Group" transform="translate(27.019581, 50.447133)" fill-rule="nonzero" fill="#FFEABF">
                    <path d="M4.85162678,2.73550558 C4.85162678,1.42802157 3.79223053,0.369582145 2.48552572,0.369582145 C1.17931851,0.369582145 0.119922262,1.42802157 0.119922262,2.73550558 C0.119922262,4.0419934 1.17931851,5.10142901 2.48552572,5.10142901 C3.79223053,5.10142901 4.85162678,4.0419934 4.85162678,2.73550558" id="Shape"></path>
                </g>
                <g id="Group" transform="translate(34.483623, 48.454776)" fill-rule="nonzero" fill="#FFEABF">
                    <path d="M5.1805422,2.77933742 C5.1805422,1.4728496 4.12164355,0.413413989 2.81444114,0.413413989 C1.50823393,0.413413989 0.448837677,1.4728496 0.448837677,2.77933742 C0.448837677,4.08582524 1.50823393,5.14426467 2.81444114,5.14426467 C4.12164355,5.14426467 5.1805422,4.08582524 5.1805422,2.77933742" id="Shape"></path>
                </g>
                <g id="Group" transform="translate(42.942869, 46.462420)" fill-rule="nonzero" fill="#FFEABF">
                    <path d="M4.79241205,2.82416544 C4.79241205,1.51767762 3.73351341,0.458242012 2.42631099,0.458242012 C1.12010378,0.458242012 0.0607075351,1.51767762 0.0607075351,2.82416544 C0.0607075351,4.13065327 1.12010378,5.1890927 2.42631099,5.1890927 C3.73351341,5.1890927 4.79241205,4.13065327 4.79241205,2.82416544" id="Shape"></path>
                </g>
                <g id="Group" transform="translate(45.430883, 41.979617)" fill-rule="nonzero" fill="#FFEABF">
                    <path d="M0.355785964,2.8535527 C0.355785964,4.16004053 1.41518221,5.21947614 2.72138942,5.21947614 C4.02759663,5.21947614 5.08699288,4.16004053 5.08699288,2.8535527 C5.08699288,1.54806106 4.02759663,0.48862545 2.72138942,0.48862545 C1.41518221,0.48862545 0.355785964,1.54806106 0.355785964,2.8535527" id="Shape"></path>
                </g>
                <g id="Group" transform="translate(37.469239, 44.470063)" fill-rule="nonzero" fill="#FFEABF">
                    <path d="M0.24631336,2.57113616 C0.24631336,3.95333353 1.36790995,5.07503028 2.75174319,5.07503028 C4.13458122,5.07503028 5.25617781,3.95333353 5.25617781,2.57113616 C5.25617781,1.18694643 4.13458122,0.0662458561 2.75174319,0.0662458561 C1.36790995,0.0662458561 0.24631336,1.18694643 0.24631336,2.57113616" id="Shape"></path>
                </g>
                <g id="Group" transform="translate(53.392527, 40.983439)" fill-rule="nonzero" fill="#FFEABF">
                    <path d="M4.64064322,2.31960114 C4.64064322,1.08981905 3.64344731,0.0931426698 2.41387092,0.0931426698 C1.18379693,0.0931426698 0.187098633,1.08981905 0.187098633,2.31960114 C0.187098633,3.54888515 1.18379693,4.54506344 2.41387092,4.54506344 C3.64344731,4.54506344 4.64064322,3.54888515 4.64064322,2.31960114" id="Shape"></path>
                </g>
                <g id="Group" transform="translate(55.880541, 36.002548)" fill-rule="nonzero" fill="#FFEABF">
                    <path d="M5.21388158,2.70860876 C5.21388158,1.40212094 4.15448533,0.342685331 2.84827812,0.342685331 C1.54207091,0.342685331 0.482177062,1.40212094 0.482177062,2.70860876 C0.482177062,4.01509659 1.54207091,5.07403411 2.84827812,5.07403411 C4.15448533,5.07403411 5.21388158,4.01509659 5.21388158,2.70860876" id="Shape"></path>
                </g>
                <g id="Group" transform="translate(47.918897, 37.994904)" fill-rule="nonzero" fill="#FFEABF">
                    <path d="M0.372704457,2.52531196 C0.372704457,3.90800742 1.49380345,5.02970417 2.87763668,5.02970417 C4.26097232,5.02970417 5.38207131,3.90800742 5.38207131,2.52531196 C5.38207131,1.14162032 4.26097232,0.020919744 2.87763668,0.020919744 C1.49380345,0.020919744 0.372704457,1.14162032 0.372704457,2.52531196" id="Shape"></path>
                </g>
                <g id="Group" transform="translate(39.957253, 39.489172)" fill-rule="nonzero" fill="#FFEABF">
                    <path d="M5.55125624,2.8401043 C5.55125624,1.37970693 4.36745931,0.195749033 2.90749285,0.195749033 C1.44653118,0.195749033 0.263729456,1.37970693 0.263729456,2.8401043 C0.263729456,4.30000358 1.44653118,5.48296529 2.90749285,5.48296529 C4.36745931,5.48296529 5.55125624,4.30000358 5.55125624,2.8401043" id="Shape"></path>
                </g>
                <g id="Group" transform="translate(50.904513, 33.512102)" fill-rule="nonzero" fill="#FFEABF">
                    <path d="M5.45870213,2.69416418 C5.45870213,1.23376681 4.2749052,0.0503070035 2.81444114,0.0503070035 C1.35397707,0.0503070035 0.170677742,1.23376681 0.170677742,2.69416418 C0.170677742,4.15456155 1.35397707,5.33851944 2.81444114,5.33851944 C4.2749052,5.33851944 5.45870213,4.15456155 5.45870213,2.69416418" id="Shape"></path>
                </g>
                <g id="Group" transform="translate(58.866157, 31.519745)" fill-rule="nonzero" fill="#FFEABF">
                    <path d="M5.01185486,2.59902915 C5.01185486,1.21633369 3.88976067,0.0946369373 2.50692264,0.0946369373 C1.123587,0.0946369373 0.00199041099,1.21633369 0.00199041099,2.59902915 C0.00199041099,3.98272079 1.123587,5.10441754 2.50692264,5.10441754 C3.88976067,5.10441754 5.01185486,3.98272079 5.01185486,2.59902915" id="Shape"></path>
                </g>
                <g id="Group" transform="translate(29.507595, 45.466241)" fill-rule="nonzero" fill="#FFEABF">
                    <path d="M5.14620761,2.84558328 C5.14620761,1.4633859 4.02461102,0.341689152 2.64177298,0.341689152 C1.25793974,0.341689152 0.136343153,1.4633859 0.136343153,2.84558328 C0.136343153,4.22977301 1.25793974,5.35047358 2.64177298,5.35047358 C4.02461102,5.35047358 5.14620761,4.22977301 5.14620761,2.84558328" id="Shape"></path>
                </g>
                <g id="Group" transform="translate(16.072321, 44.470063)" fill-rule="nonzero" fill="#FFEABF">
                    <path d="M5.7791583,2.86799729 C5.7791583,1.4085961 4.59536137,0.224638204 3.1348973,0.224638204 C1.67493085,0.224638204 0.491133911,1.4085961 0.491133911,2.86799729 C0.491133911,4.32839466 1.67493085,5.51235255 3.1348973,5.51235255 C4.59536137,5.51235255 5.7791583,4.32839466 5.7791583,2.86799729" id="Shape"></path>
                </g>
                <g id="Group" transform="translate(64.339787, 34.508280)" fill-rule="nonzero" fill="#FFEABF">
                    <path d="M1.97647811,0.258010176 C1.0504394,0.527476403 0.37320206,1.38070311 0.37320206,2.39331833 C0.37320206,3.3815272 1.01610481,4.21732078 1.90631612,4.50920102 C1.97946373,3.11903422 2.00235345,1.70047634 1.97647811,0.258010176" id="Shape"></path>
                </g>
                <g id="Group" transform="translate(47.918897, 49.949044)" fill-rule="nonzero" fill="#FFEABF">
                    <path d="M4.26893396,2.25983044 C4.26893396,1.18296172 3.39713395,0.311305715 2.32081921,0.311305715 C1.24500207,0.311305715 0.372704457,1.18296172 0.372704457,2.25983044 C0.372704457,3.33470682 1.24500207,4.207359 2.32081921,4.207359 C3.39713395,4.207359 4.26893396,3.33470682 4.26893396,2.25983044" id="Shape"></path>
                </g>
                <g id="Group" transform="translate(50.406910, 45.466241)" fill-rule="nonzero" fill="#FFEABF">
                    <path d="M4.44458773,2.42818457 C4.44458773,1.27610439 3.51008977,0.341689152 2.35714421,0.341689152 C1.20419865,0.341689152 0.269700689,1.27610439 0.269700689,2.42818457 C0.269700689,3.58076285 1.20419865,4.51567618 2.35714421,4.51567618 C3.51008977,4.51567618 4.44458773,3.58076285 4.44458773,2.42818457" id="Shape"></path>
                </g>
                <g id="Group" transform="translate(61.851774, 38.991083)" fill-rule="nonzero" fill="#FFEABF">
                    <path d="M2.16556715,0.415904435 C1.01262159,0.415904435 0.0781236312,1.34982158 0.0781236312,2.50239986 C0.0781236312,3.6564724 1.01262159,4.59038955 2.16556715,4.59038955 C3.08812265,4.59038955 3.86189492,3.98819977 4.13806444,3.15788517 C4.16991102,2.87248009 4.20474321,2.58807119 4.23211136,2.30017567 C4.12860999,1.2432305 3.24835073,0.415904435 2.16556715,0.415904435" id="Shape"></path>
                </g>
                <g id="Group" transform="translate(59.363760, 43.473885)" fill-rule="nonzero" fill="#FFEABF">
                    <path d="M3.95743464,2.33404573 C3.95743464,1.25767509 3.08513703,0.385520997 2.00882229,0.385520997 C0.932507547,0.385520997 0.0607075351,1.25767509 0.0607075351,2.33404573 C0.0607075351,3.4089221 0.932507547,4.28157428 2.00882229,4.28157428 C3.08513703,4.28157428 3.95743464,3.4089221 3.95743464,2.33404573" id="Shape"></path>
                </g>
                <g id="Group" transform="translate(56.378143, 48.454776)" fill-rule="nonzero" fill="#FFEABF">
                    <path d="M3.88080382,1.94454002 C3.88080382,0.945373195 3.07170176,0.135978336 2.07201784,0.135978336 C1.07283152,0.135978336 0.263231853,0.945373195 0.263231853,1.94454002 C0.263231853,2.94370684 1.07283152,3.75409788 2.07201784,3.75409788 C3.07170176,3.75409788 3.88080382,2.94370684 3.88080382,1.94454002" id="Shape"></path>
                </g>
                <g id="Group" transform="translate(53.392527, 52.937579)" fill-rule="nonzero" fill="#FFEABF">
                    <path d="M3.80566581,1.7756878 C3.80566581,0.853226703 3.05776888,0.105096809 2.13571099,0.105096809 C1.2136531,0.105096809 0.465756171,0.853226703 0.465756171,1.7756878 C0.465756171,2.69814889 1.2136531,3.44528261 2.13571099,3.44528261 C3.05776888,3.44528261 3.80566581,2.69814889 3.80566581,1.7756878" id="Shape"></path>
                </g>
                <g id="Group" transform="translate(63.842185, 47.458598)" fill-rule="nonzero" fill="#FFEABF">
                    <path d="M0.313987333,1.68902029 C0.313987333,1.99235657 0.401067814,2.27377694 0.543382199,2.51983298 C0.77725549,1.76971073 0.995205493,1.01012478 1.18528974,0.230615273 C0.668280489,0.515024174 0.313987333,1.05744325 0.313987333,1.68902029" id="Shape"></path>
                </g>
                <g id="Group" transform="translate(50.904513, 57.420381)" fill-rule="nonzero" fill="#FFEABF">
                    <path d="M1.84013496,0.354141381 C1.07233392,0.354141381 0.448837677,0.976752811 0.448837677,1.74530436 C0.448837677,2.51385591 1.07233392,3.13646734 1.84013496,3.13646734 C2.6089312,3.13646734 3.23192984,2.51385591 3.23192984,1.74530436 C3.23192984,0.976752811 2.6089312,0.354141381 1.84013496,0.354141381" id="Shape"></path>
                </g>
                <g id="Group" transform="translate(61.354171, 51.941400)" fill-rule="nonzero" fill="#FFEABF">
                    <path d="M0.29706884,1.65764067 C0.29706884,2.21101771 0.622003433,2.68420239 1.08875481,2.9088406 C1.49927708,2.0874916 1.87546475,1.24223432 2.21731784,0.372570679 C2.05410414,0.305328645 1.87596235,0.26747387 1.68886372,0.26747387 C0.919569876,0.26747387 0.29706884,0.8900853 0.29706884,1.65764067" id="Shape"></path>
                </g>
                <g id="Group" transform="translate(19.057937, 64.393629)" fill-rule="nonzero" fill="#FFEABF">
                    <path d="M1.5405781,0.338700618 C0.848910286,0.338700618 0.28811199,0.899050904 0.28811199,1.59089672 C0.28811199,1.70844576 0.310006511,1.82051582 0.340360279,1.92810307 C0.823034943,2.23791452 1.31516406,2.53128903 1.81774283,2.80972086 C2.37555551,2.68320622 2.79354182,2.18710943 2.79354182,1.59089672 C2.79354182,0.899050904 2.23274352,0.338700618 1.5405781,0.338700618" id="Shape"></path>
                </g>
                <g id="Group" transform="translate(14.579513, 61.405094)" fill-rule="nonzero" fill="#FFEABF">
                    <path d="M1.28779591,0.264485335 C0.732968846,0.264485335 0.267710278,0.62809041 0.103003769,1.12817191 C0.645888365,1.6656101 1.20469625,2.17914 1.78042263,2.66826354 C2.22726989,2.47649922 2.54026202,2.03419606 2.54026202,1.51767762 C2.54026202,0.8258318 1.97946373,0.264485335 1.28779591,0.264485335" id="Shape"></path>
                </g>
                <g id="Group" transform="translate(48.416499, 62.401272)" fill-rule="nonzero" fill="#FFEABF">
                    <path d="M1.26689659,0.104100631 C0.651859598,0.104100631 0.153759249,0.603185953 0.153759249,1.21782796 C0.153759249,1.83296805 0.651859598,2.33105719 1.26689659,2.33105719 C1.88143599,2.33105719 2.38003394,1.83296805 2.38003394,1.21782796 C2.38003394,0.603185953 1.88143599,0.104100631 1.26689659,0.104100631" id="Shape"></path>
                </g>
                <g id="Group" transform="translate(58.866157, 56.922292)" fill-rule="nonzero" fill="#FFEABF">
                    <path d="M1.11512776,0.0164369417 C0.50009076,0.0164369417 0.00199041099,0.515522264 0.00199041099,1.13016427 C0.00199041099,1.6790585 0.399575006,2.13231962 0.92205789,2.22396803 C1.32511611,1.6885222 1.71175345,1.14012605 2.07450585,0.574794872 C1.88243119,0.243067502 1.52714283,0.0164369417 1.11512776,0.0164369417" id="Shape"></path>
                </g>
                <g id="Group" transform="translate(40.454855, 63.895540)" fill-rule="nonzero" fill="#FFEABF">
                    <path d="M1.43558392,0.280424188 C0.820546929,0.280424188 0.32244658,0.778513331 0.32244658,1.39315533 C0.32244658,2.00829543 0.820546929,2.50638457 1.43558392,2.50638457 C2.05012332,2.50638457 2.54872127,2.00829543 2.54872127,1.39315533 C2.54872127,0.778513331 2.05012332,0.280424188 1.43558392,0.280424188" id="Shape"></path>
                </g>
                <g id="Group" transform="translate(32.493212, 65.887896)" fill-rule="nonzero" fill="#FFEABF">
                    <path d="M1.46494249,0.235596165 C0.92753152,0.235596165 0.491133911,0.671424166 0.491133911,1.20936044 C0.491133911,1.74729672 0.92753152,2.18312472 1.46494249,2.18312472 C2.00334866,2.18312472 2.43924866,1.74729672 2.43924866,1.20936044 C2.43924866,0.671424166 2.00334866,0.235596165 1.46494249,0.235596165" id="Shape"></path>
                </g>
                <g id="Group" transform="translate(37.966842, 68.876431)" fill-rule="nonzero" fill="#FFEABF">
                    <path d="M0.861847957,0.307321002 C0.400570211,0.307321002 0.0268705483,0.681884038 0.0268705483,1.14311458 C0.0268705483,1.26564451 0.0547363021,1.3812012 0.102008563,1.486298 C0.623993844,1.43101011 1.14896474,1.36775279 1.68189728,1.28805853 C1.69085413,1.24123815 1.69682537,1.19242541 1.69682537,1.14311458 C1.69682537,0.681884038 1.3226281,0.307321002 0.861847957,0.307321002" id="Shape"></path>
                </g>
                <g id="Group" transform="translate(45.928486, 66.884075)" fill-rule="nonzero" fill="#FFEABF">
                    <path d="M0.971818164,0.0737171932 C0.510540418,0.0737171932 0.136840755,0.447284051 0.136840755,0.908514598 C0.136840755,1.22181267 0.311499319,1.49227507 0.567267131,1.63423048 C0.965349329,1.49775405 1.36243632,1.36077954 1.74807845,1.21284706 C1.78490105,1.11870822 1.80679557,1.01659994 1.80679557,0.908514598 C1.80679557,0.447284051 1.43309591,0.0737171932 0.971818164,0.0737171932" id="Shape"></path>
                </g>
                <g id="Group" transform="translate(55.880541, 60.907005)" fill-rule="nonzero" fill="#FFEABF">
                    <path d="M0.482674664,1.31993623 C0.482674664,1.50572348 0.54537261,1.67606997 0.648376379,1.81503684 C1.05740584,1.44346234 1.45200481,1.06092988 1.83217331,0.666941363 C1.69035653,0.554373217 1.51271235,0.485138826 1.31765207,0.485138826 C0.856374327,0.485138826 0.482674664,0.858705684 0.482674664,1.31993623" id="Shape"></path>
                </g>
                <g id="Group" transform="translate(24.531568, 67.382164)" fill-rule="nonzero" fill="#FFEABF">
                    <path d="M1.21614111,0.410425454 C0.755360969,0.410425454 0.381661307,0.78498849 0.381661307,1.24522286 C0.381661307,1.40162285 0.426943157,1.54557061 0.501085966,1.67108908 C0.84791508,1.79013238 1.19872502,1.90270053 1.55351578,2.00879352 C1.84660379,1.87929034 2.05111852,1.58641392 2.05111852,1.24522286 C2.05111852,0.78498849 1.67791646,0.410425454 1.21614111,0.410425454" id="Shape"></path>
                </g>
                <g id="Group" transform="translate(42.942869, 58.914648)" fill-rule="nonzero" fill="#FFEABF">
                    <path d="M1.59133358,0.251036928 C0.74640412,0.251036928 0.0607075351,0.936905679 0.0607075351,1.78216296 C0.0607075351,2.62692214 0.74640412,3.3122928 1.59133358,3.3122928 C2.43676065,3.3122928 3.12245724,2.62692214 3.12245724,1.78216296 C3.12245724,0.936905679 2.43676065,0.251036928 1.59133358,0.251036928" id="Shape"></path>
                </g>
                <g id="Group" transform="translate(34.483623, 60.907005)" fill-rule="nonzero" fill="#FFEABF">
                    <path d="M1.97946373,0.206208905 C1.13453426,0.206208905 0.448837677,0.892077656 0.448837677,1.73733493 C0.448837677,2.58259221 1.13453426,3.26846096 1.97946373,3.26846096 C2.82489079,3.26846096 3.51058738,2.58259221 3.51058738,1.73733493 C3.51058738,0.892077656 2.82489079,0.206208905 1.97946373,0.206208905" id="Shape"></path>
                </g>
                <g id="Group" transform="translate(27.019581, 62.401272)" fill-rule="nonzero" fill="#FFEABF">
                    <path d="M1.51121954,0.382532462 C0.742920901,0.382532462 0.119922262,1.00514389 0.119922262,1.77469162 C0.119922262,2.54224699 0.742920901,3.1658546 1.51121954,3.1658546 C2.28001579,3.1658546 2.90301442,2.54224699 2.90301442,1.77469162 C2.90301442,1.00514389 2.28001579,0.382532462 1.51121954,0.382532462" id="Shape"></path>
                </g>
                <g id="Group" transform="translate(45.430883, 54.431846)" fill-rule="nonzero" fill="#FFEABF">
                    <path d="M2.04514729,3.89904182 C3.0443336,3.89904182 3.85443088,3.08964696 3.85443088,2.08948396 C3.85443088,1.09031714 3.0443336,0.280922277 2.04514729,0.280922277 C1.04596097,0.280922277 0.235863702,1.09031714 0.235863702,2.08948396 C0.235863702,3.08964696 1.04596097,3.89904182 2.04514729,3.89904182" id="Shape"></path>
                </g>
                <g id="Group" transform="translate(37.469239, 56.424203)" fill-rule="nonzero" fill="#FFEABF">
                    <path d="M2.05559695,3.85520997 C3.05478326,3.85520997 3.86488053,3.04481893 3.86488053,2.04565211 C3.86488053,1.04648529 3.05478326,0.237090432 2.05559695,0.237090432 C1.05641063,0.237090432 0.24631336,1.04648529 0.24631336,2.04565211 C0.24631336,3.04481893 1.05641063,3.85520997 2.05559695,3.85520997" id="Shape"></path>
                </g>
                <g id="Group" transform="translate(29.507595, 57.918470)" fill-rule="nonzero" fill="#FFEABF">
                    <path d="M4.03356786,1.94254766 C4.03356786,0.943380838 3.22347059,0.13398598 2.22428428,0.13398598 C1.22509796,0.13398598 0.415000691,0.943380838 0.415000691,1.94254766 C0.415000691,2.94171448 1.22509796,3.75110934 2.22428428,3.75110934 C3.22347059,3.75110934 4.03356786,2.94171448 4.03356786,1.94254766" id="Shape"></path>
                </g>
                <g id="Group" transform="translate(21.545951, 59.910827)" fill-rule="nonzero" fill="#FFEABF">
                    <path d="M1.9754829,0.0896560458 C1.05342501,0.0896560458 0.305528086,0.837785939 0.305528086,1.75925086 C0.305528086,2.68121386 1.05342501,3.42934375 1.9754829,3.42934375 C2.89754079,3.42934375 3.64543772,2.68121386 3.64543772,1.75925086 C3.64543772,0.837785939 2.89754079,0.0896560458 1.9754829,0.0896560458" id="Shape"></path>
                </g>
                <g id="Group" transform="translate(16.569924, 56.922292)" fill-rule="nonzero" fill="#FFEABF">
                    <path d="M3.88976067,2.10442663 C3.88976067,1.10525981 3.080161,0.295864951 2.08097469,0.295864951 C1.08178837,0.295864951 0.2716911,1.10525981 0.2716911,2.10442663 C0.2716911,3.10359345 1.08178837,3.91398449 2.08097469,3.91398449 C3.080161,3.91398449 3.88976067,3.10359345 3.88976067,2.10442663" id="Shape"></path>
                </g>
                <g id="Group" transform="translate(8.608280, 58.416559)" fill-rule="nonzero" fill="#FFEABF">
                    <path d="M1.83217331,0.470694241 C0.909617821,0.470694241 0.162218495,1.21782796 0.162218495,2.14028905 C0.162218495,2.45508139 0.254772606,2.74596545 0.406043841,2.99799856 C1.40373735,2.90684824 2.42581339,2.77236417 3.43345895,2.58956546 C3.47376477,2.44561769 3.50212813,2.29668904 3.50212813,2.14028905 C3.50212813,1.21782796 2.75472881,0.470694241 1.83217331,0.470694241" id="Shape"></path>
                </g>
                <g id="Group" transform="translate(3.632252, 55.926113)" fill-rule="nonzero" fill="#FFEABF">
                    <path d="M2.61788805,0.401957939 C1.7565377,1.13464707 0.928029123,1.743312 0.184113016,2.25634382 C0.367230827,2.98006735 1.01710001,3.51800362 1.79833633,3.51800362 C2.72039422,3.51800362 3.46779354,2.77086991 3.46779354,1.84840881 C3.46779354,1.22579738 3.12295484,0.688857286 2.61788805,0.401957939" id="Shape"></path>
                </g>
                <g id="Group" transform="translate(1.641841, 0.140129)" fill-rule="nonzero" fill="#FFEABF">
                    <path d="M2.81444114,30.9178874 C3.49217608,30.9178874 4.12263876,30.7211422 4.65756171,30.3859282 C4.71180041,30.7769282 4.83371308,31.1465103 5.01633329,31.4802301 C4.97801788,31.4782377 4.94020007,31.474253 4.90188466,31.474253 C4.15448533,31.474253 3.47028156,31.742723 2.93884182,32.1875166 C2.94680347,32.0898912 2.9537699,31.9907714 2.9537699,31.8916517 C2.9537699,31.5529511 2.90301442,31.2272008 2.81294833,30.9178874 L2.81444114,30.9178874 Z M4.64263363,18.489069 C4.66104493,18.6718677 4.69786753,18.8491875 4.74265178,19.0220244 C4.4923576,19.0728295 4.25151787,19.1495352 4.0226206,19.248655 C3.99226684,19.0439403 3.94648738,18.8452027 3.88329183,18.6534384 C4.14602609,18.6270397 4.39980349,18.5692614 4.64263363,18.489069 L4.64263363,18.489069 Z M6.86393229,25.9031259 C6.88831482,26.2288762 6.95847681,26.5421743 7.06297339,26.8385373 C6.78580866,26.9057794 6.5220792,27.0068915 6.27825385,27.1418736 C6.24839769,26.7882303 6.16579563,26.4505259 6.03840933,26.1352355 C6.32602372,26.0894113 6.60318845,26.0132036 6.86393229,25.9031259 L6.86393229,25.9031259 Z M7.26748812,38.9884258 C6.37379358,38.9884258 5.57514117,39.3903837 5.03922302,40.0224589 C5.12978672,39.7405404 5.18004459,39.4396946 5.18004459,39.1273927 C5.18004459,38.5625596 5.01683089,38.0360794 4.73867096,37.5887953 C4.79290966,37.5912858 4.84665075,37.5972628 4.90188466,37.5972628 C5.64928398,37.5972628 6.33348776,37.3287928 6.86492749,36.8835011 C6.85597064,36.9811266 6.84999941,37.0797482 6.84999941,37.1798641 C6.84999941,37.8547749 7.05998777,38.4798768 7.41676894,38.9963952 C7.36700866,38.9934067 7.31774599,38.9884258 7.26748812,38.9884258 L7.26748812,38.9884258 Z M7.82380799,33.144844 C8.49905491,33.144844 9.12454157,32.9346504 9.64055561,32.5775204 C9.6380676,32.6273294 9.63309157,32.675644 9.63309157,32.7264491 C9.63309157,33.1737331 9.72564568,33.6000974 9.891845,33.9866146 C9.15041691,34.0229751 8.47616519,34.3103726 7.95169189,34.7671203 C7.95716552,34.6904146 7.96313675,34.6137089 7.96313675,34.5360069 C7.96313675,34.0299484 7.83873607,33.5542732 7.62178127,33.133886 C7.68846004,33.1383688 7.75563641,33.144844 7.82380799,33.144844 L7.82380799,33.144844 Z M9.91871555,21.3202077 C9.92817,21.5687542 9.96300219,21.8103274 10.0202265,22.042935 C9.68484226,22.0847745 9.36339088,22.1689516 9.06283883,22.2954662 C9.04641793,22.0787975 9.01059054,21.8676077 8.95784465,21.6623949 C9.29820492,21.5941567 9.6201539,21.4766077 9.91871555,21.3202077 L9.91871555,21.3202077 Z M12.5689478,39.1508029 C12.47092,39.4506525 12.4161837,39.7694296 12.4161837,40.1011569 C12.4161837,40.6131926 12.5430724,41.0938486 12.7650033,41.5167263 C12.6505546,41.5027798 12.5346132,41.492818 12.4161837,41.492818 C11.4070454,41.492818 10.5257909,42.0322486 10.0376426,42.8371606 C10.1346751,42.5457785 10.189909,42.2349708 10.189909,41.9107148 C10.189909,41.3428932 10.0247049,40.8134244 9.74405699,40.3646461 C9.84507034,40.3741098 9.94707891,40.3800869 10.0505803,40.3800869 C11.0736515,40.3800869 11.9827717,39.8979366 12.5689478,39.1508029 L12.5689478,39.1508029 Z M12.4390735,28.6615436 C12.4734081,28.9668722 12.5480485,29.2587525 12.6560283,29.5351919 C12.0494505,29.5685639 11.487657,29.7677996 11.0174224,30.0930518 C11.0194128,30.0432429 11.0248865,29.9944301 11.0248865,29.943625 C11.0248865,29.69209 10.9930399,29.4490225 10.937806,29.2139244 C11.4866618,29.1426977 11.996207,28.9499372 12.4390735,28.6615436 L12.4390735,28.6615436 Z M12.53113,17.091929 C12.5784022,17.2856856 12.6371194,17.4744614 12.7122574,17.6552678 C12.4092173,17.7254984 12.1211053,17.8325875 11.8523998,17.9735467 C11.8454334,17.8012079 11.8285149,17.6318576 11.7986587,17.4674882 C12.0544265,17.3628895 12.2982519,17.2358767 12.53113,17.091929 L12.53113,17.091929 Z M14.9464937,35.1262426 C14.931068,35.251761 14.9216136,35.37977 14.9216136,35.5097712 C14.9216136,36.0681292 15.0649232,36.5921189 15.3162125,37.0488667 C14.4120684,37.0956871 13.6124207,37.5330093 13.083469,38.1974602 C13.1909512,37.877687 13.2516587,37.5359979 13.2516587,37.1798641 C13.2516587,36.7315839 13.1591046,36.3057177 12.9929053,35.9187024 C13.7408022,35.8818438 14.42003,35.5899636 14.9464937,35.1262426 L14.9464937,35.1262426 Z M15.0111821,24.4756024 C15.042531,24.6145693 15.0843297,24.7490534 15.1311043,24.8815451 C14.7479502,24.9682126 14.3896762,25.1176393 14.0662344,25.3188673 C14.0488183,25.1300916 14.0219478,24.9438062 13.9776612,24.7644941 C14.3419064,24.719168 14.6892331,24.6200483 15.0111821,24.4756024 L15.0111821,24.4756024 Z M15.8954221,31.7531829 C16.565693,31.7531829 17.1891893,31.5599243 17.720629,31.2316836 C17.7564564,31.6162084 17.8589626,31.9793154 18.013717,32.3150275 C17.245916,32.34043 16.5477793,32.6357969 16.0093732,33.1094796 C16.0243013,32.9839612 16.0342533,32.8569484 16.0342533,32.7264491 C16.0342533,32.3867523 15.9805122,32.0600058 15.8824845,31.7526848 C15.8869629,31.7526848 15.8909437,31.7531829 15.8954221,31.7531829 L15.8954221,31.7531829 Z M17.7300835,19.7945607 C17.7435187,19.9121097 17.7614324,20.0291606 17.7853174,20.1437211 C17.53154,20.1975148 17.2887098,20.2796995 17.0578222,20.383302 C17.0289612,20.254795 16.9926362,20.1302727 16.9508376,20.0077428 C17.2210359,19.9629148 17.4817797,19.891688 17.7300835,19.7945607 L17.7300835,19.7945607 Z M20.2136188,37.9284921 C20.2126236,37.9573813 20.209638,37.9852743 20.209638,38.0141634 C20.209638,38.6930589 20.4221143,39.3216474 20.7828763,39.8396601 C20.6858438,39.8296984 20.5873184,39.8237213 20.4877979,39.8237213 C19.6995951,39.8237213 18.989516,40.1524601 18.483454,40.6784423 C18.5192814,40.4916588 18.5391855,40.2988983 18.5391855,40.1011569 C18.5391855,39.598585 18.4157801,39.1249022 18.2003181,38.7065073 C18.9701095,38.68758 19.6707342,38.3981902 20.2136188,37.9284921 L20.2136188,37.9284921 Z M19.9449133,27.0168532 C19.962827,27.2599207 20.0046256,27.496015 20.0688164,27.7236417 C19.8195174,27.7993513 19.5836537,27.9064404 19.3627181,28.0354455 C19.3433116,27.7590061 19.2960393,27.4895398 19.2164229,27.2345182 C19.4692051,27.1862035 19.7130304,27.1139806 19.9449133,27.0168532 L19.9449133,27.0168532 Z M23.0171126,33.6070707 C23.0026822,33.7296006 22.9927301,33.8531267 22.9927301,33.9791433 C22.9927301,34.2730159 23.0365192,34.5574248 23.1141452,34.8273891 C22.4299414,34.8901483 21.8094308,35.1700744 21.3182969,35.5954426 C21.3192921,35.5665534 21.3227753,35.5386604 21.3227753,35.5097712 C21.3227753,35.0644795 21.231714,34.6411038 21.0675051,34.2555828 C21.7974883,34.2511 22.4697496,34.0095267 23.0171126,33.6070707 L23.0171126,33.6070707 Z M23.0708537,22.7596853 C23.0987195,22.8911809 23.1355421,23.0186917 23.1768431,23.1442101 C22.8140907,23.1810687 22.4672616,23.2722191 22.1443174,23.4086955 C22.1343654,23.2931388 22.1204325,23.1790764 22.1015236,23.0670063 C22.4428791,23.0077337 22.7673161,22.9036331 23.0708537,22.7596853 L23.0708537,22.7596853 Z M25.5200545,29.7727805 C25.5653363,30.1842021 25.6842634,30.5727116 25.8604147,30.9278492 C25.2991188,30.9627154 24.7781288,31.1455141 24.3387455,31.4433715 C24.3661137,31.2720288 24.3840274,31.0967014 24.3840274,30.9178874 C24.3840274,30.6987282 24.3616353,30.4845499 24.3213294,30.2768467 C24.755239,30.1822097 25.1592925,30.0078785 25.5200545,29.7727805 L25.5200545,29.7727805 Z M28.0100586,36.3336107 C28.007073,36.3839177 28.002097,36.4327304 28.002097,36.4845317 C28.002097,37.1021622 28.1867076,37.6759609 28.5021877,38.1576131 C28.474322,38.1566169 28.447949,38.1536284 28.4200833,38.1536284 C27.67766,38.1536284 27.002413,38.4325583 26.4868966,38.8883099 C26.5655178,38.6098781 26.6103021,38.3174997 26.6103021,38.0141634 C26.6103021,37.6640068 26.5520826,37.3277966 26.4485812,37.0120081 C27.0372452,36.9362985 27.5746562,36.6957215 28.0100586,36.3336107 L28.0100586,36.3336107 Z M28.2877209,25.2172572 C28.297673,25.4727769 28.3344956,25.7213234 28.3947055,25.9609043 C27.9453703,26.0366138 27.5258911,26.1974966 27.1526891,26.429108 C27.1273113,26.1456953 27.070087,25.8717463 26.9840017,25.6112457 C27.4507531,25.5624329 27.890634,25.4254584 28.2877209,25.2172572 L28.2877209,25.2172572 Z M28.9764031,32.865914 C29.7641083,32.865914 30.4881203,32.6009306 31.0713107,32.1596236 C31.0693203,32.2099306 31.0638467,32.2587434 31.0638467,32.3095485 C31.0638467,32.7040351 31.1355015,33.0805905 31.261395,33.4322414 C31.1957114,33.4277586 31.1305254,33.4222796 31.0638467,33.4222796 C30.3199306,33.4222796 29.6387124,33.6877611 29.1077703,34.1290681 C29.1107559,34.0787611 29.1157319,34.0294503 29.1157319,33.9791433 C29.1157319,33.5846567 29.0381059,33.2085994 28.9027579,32.8619293 C28.9276381,32.8624274 28.951523,32.865914 28.9764031,32.865914 L28.9764031,32.865914 Z M31.1544104,21.1369109 C31.1827737,21.2654179 31.2195963,21.3909364 31.2618926,21.5149606 C30.8931689,21.5807083 30.5433542,21.7012459 30.2219028,21.8691019 C30.2139412,21.6748472 30.1945347,21.484079 30.1577121,21.2987899 C30.4970771,21.2679083 30.827983,21.2081376 31.1544104,21.1369109 L31.1544104,21.1369109 Z M33.3558049,28.3836098 C33.4025796,28.624685 33.4737368,28.8582888 33.5677837,29.0794404 C33.1572614,29.1850353 32.7775905,29.3663397 32.4441967,29.6089091 C32.4486751,29.5351919 32.4551439,29.4614748 32.4551439,29.3872595 C32.4551439,29.1362225 32.4277758,28.892657 32.3775179,28.6560646 C32.7208638,28.6102404 33.0492816,28.5190901 33.3558049,28.3836098 L33.3558049,28.3836098 Z M34.4032587,35.6487381 C35.1337395,35.6487381 35.8060008,35.4121458 36.3558519,35.0156668 C36.3548567,35.0410693 36.3518711,35.0659738 36.3518711,35.0923725 C36.3518711,35.3842528 36.3951625,35.665175 36.4717933,35.9326489 C36.4314875,35.9306566 36.3921769,35.9271699 36.3518711,35.9271699 C35.4536981,35.9271699 34.6490745,36.3161775 34.0887738,36.9318157 C34.1101707,36.7848794 34.1250988,36.6364489 34.1250988,36.4845317 C34.1250988,36.184682 34.0803145,35.8957903 34.0002005,35.6223394 C34.1325628,35.6382782 34.2669155,35.6487381 34.4032587,35.6487381 L34.4032587,35.6487381 Z M36.1179978,23.6627209 C36.1498443,23.8744088 36.1976142,24.0806177 36.2647906,24.2793553 C35.9871282,24.3201986 35.7189204,24.3909273 35.4661382,24.4935336 C35.4332964,24.2893171 35.3845313,24.0915757 35.3188478,23.9008076 C35.5975053,23.8509986 35.8652156,23.7718025 36.1179978,23.6627209 L36.1179978,23.6627209 Z M38.5871026,30.6793027 C38.6149683,31.1793842 38.7557899,31.6505765 38.9876728,32.0639905 C38.5288831,32.128244 38.1024375,32.2916173 37.7317235,32.5351829 C37.7371971,32.4599714 37.7436659,32.3857561 37.7436659,32.3095485 C37.7436659,31.8866708 37.6620591,31.4847129 37.5187495,31.1126403 C37.9028988,31.0279651 38.262168,30.8790365 38.5871026,30.6793027 L38.5871026,30.6793027 Z M38.5880978,18.8666206 C38.6020307,19.1340945 38.6448245,19.3945951 38.7144889,19.6446358 C38.5572464,19.6884677 38.4034872,19.7412651 38.2561968,19.8050205 C38.218379,19.5524893 38.1546858,19.3089237 38.0676053,19.0768142 C38.2482351,19.0210282 38.4214009,18.9488053 38.5880978,18.8666206 L38.5880978,18.8666206 Z M41.6528331,26.1626304 C41.6841821,26.5700673 41.7871859,26.9555883 41.9503996,27.3087335 C41.8941704,27.3052469 41.8369461,27.2997679 41.7792242,27.2997679 C41.2238995,27.2997679 40.7019143,27.4417233 40.2471054,27.6902698 C40.2446173,27.3525653 40.1933643,27.026815 40.1013078,26.7179998 C40.6690725,26.6547424 41.1955362,26.4584953 41.6528331,26.1626304 L41.6528331,26.1626304 Z M41.6538283,14.6373457 C41.6662684,14.7912552 41.6871677,14.9426743 41.7180191,15.0901087 C41.2880903,15.1468909 40.8815489,15.2773902 40.5128252,15.471645 C40.5003852,15.3182335 40.4794858,15.1668144 40.4486345,15.0198781 C40.8785632,14.9625979 41.2851047,14.8320985 41.6538283,14.6373457 L41.6538283,14.6373457 Z M44.1567701,32.6377892 C44.1507989,32.7134988 44.1448277,32.7887102 44.1448277,32.865914 C44.1448277,33.6643509 44.4533414,34.3890707 44.9544273,34.9339802 C44.6981619,34.8562783 44.4264708,34.8139407 44.1448277,34.8139407 C43.5113794,34.8139407 42.928189,35.028119 42.4599448,35.3852489 C42.4693992,35.2886196 42.4748729,35.1914923 42.4748729,35.0923725 C42.4748729,34.5823292 42.3489794,34.1036656 42.1285413,33.6807879 C42.9321698,33.5936223 43.6442393,33.2081013 44.1567701,32.6377892 L44.1567701,32.6377892 Z M44.4269684,21.517451 C44.4264708,21.5438497 44.4229876,21.5687542 44.4229876,21.5946548 C44.4229876,21.9428191 44.4762311,22.2790293 44.5707756,22.5963121 C44.1139763,22.6516 43.6855403,22.8005286 43.3048742,23.0221783 C43.296415,22.7218306 43.2516307,22.4309465 43.1735071,22.1530127 C43.6357801,22.0245058 44.0597376,21.8063427 44.4269684,21.517451 L44.4269684,21.517451 Z M44.7295109,10.1779536 C44.7598647,10.4250058 44.8180842,10.6635905 44.899691,10.8917153 C44.4269684,10.9216007 43.9811164,11.0441306 43.5785557,11.2433662 C43.5661157,11.012751 43.5327763,10.7881128 43.4795328,10.5709459 C43.9263801,10.515658 44.3483472,10.381672 44.7295109,10.1779536 L44.7295109,10.1779536 Z M46.9323983,28.6142251 C46.9314031,28.6401258 46.9284174,28.6655283 46.9284174,28.6909308 C46.9284174,29.0859155 47.0050483,29.4614748 47.1413914,29.8076467 C46.2815339,29.8265741 45.5102496,30.1986467 44.9653746,30.7843995 C44.9738338,30.6912568 44.9798051,30.5966199 44.9798051,30.5004887 C44.9798051,30.0507142 44.8862558,29.6228556 44.7185636,29.2348442 C44.8046489,29.2418174 44.8917294,29.2472964 44.9798051,29.2472964 C45.7097883,29.2472964 46.3825472,29.0112022 46.9323983,28.6142251 L46.9323983,28.6142251 Z M47.2200126,17.1272933 C47.2463856,17.4854194 47.3269972,17.8286028 47.4538859,18.148376 C46.8403417,18.2270741 46.2780506,18.4661569 45.8068208,18.8222906 C45.8093089,18.7719836 45.8147825,18.723669 45.8147825,18.6728639 C45.8147825,18.3665391 45.7724863,18.069678 45.7008315,17.785269 C46.265113,17.6896359 46.7826198,17.4595187 47.2200126,17.1272933 L47.2200126,17.1272933 Z M47.2344431,5.44710287 C47.2787298,5.81020986 47.3822311,6.15339328 47.5335024,6.46967989 C47.2180222,6.51849262 46.9174702,6.60964294 46.6373198,6.74014229 C46.6139325,6.39596269 46.5432729,6.06572959 46.4308147,5.75492196 C46.7129554,5.68319713 46.9831537,5.58158694 47.2344431,5.44710287 L47.2344431,5.44710287 Z M49.744849,24.5418483 C49.7995853,24.9328483 49.921498,25.3029285 50.1046158,25.6361501 C50.0658028,25.6346559 50.0279849,25.6301731 49.9896695,25.6301731 C49.3686613,25.6301731 48.7909445,25.8164584 48.3082699,26.1342393 C48.3132459,26.0595259 48.3202123,25.9848125 48.3202123,25.9081068 C48.3202123,25.6142342 48.2779161,25.3298253 48.2062613,25.0583667 C48.76905,25.009554 49.2915329,24.8262572 49.744849,24.5418483 L49.744849,24.5418483 Z M50.0424154,12.4367878 C50.0996397,12.7774808 50.2066243,13.1012387 50.3564028,13.4015865 C49.6930983,13.4638476 49.0865205,13.7133903 48.5844394,14.0959228 C48.5580664,13.7437737 48.4794452,13.4060693 48.3555421,13.0907789 C48.9860048,13.0320044 49.563224,12.7959101 50.0424154,12.4367878 L50.0424154,12.4367878 Z M51.9960038,8.04065304 C52.0313336,8.24536768 52.0830843,8.44410525 52.1497631,8.63636766 C51.8487134,8.75989377 51.5700559,8.92525936 51.3182689,9.12349884 C51.2635326,8.8455651 51.1724713,8.58157785 51.0540418,8.33303137 C51.3874356,8.28222628 51.7034134,8.18260845 51.9960038,8.04065304 L51.9960038,8.04065304 Z M52.8847223,20.9003186 C52.3343737,20.9043033 51.8173644,21.048251 51.3660387,21.2977937 C51.3366802,20.9511236 51.2565661,20.6203925 51.1336582,20.3100829 C51.6417107,20.2448332 52.1139357,20.0710001 52.5284387,19.8100014 C52.5826774,20.2000052 52.7035949,20.5690893 52.8847223,20.9003186 L52.8847223,20.9003186 Z M55.0109788,26.5112928 C55.0050076,26.5889947 54.999534,26.6652023 54.999534,26.7434023 C54.999534,27.6026061 55.3891569,28.3696634 56.0007107,28.8797066 C55.689709,28.7601652 55.3528319,28.6909308 54.999534,28.6909308 C54.1560973,28.6909308 53.4027268,29.0674862 52.892684,29.6597142 C52.9936973,29.3543856 53.0514192,29.0296315 53.0514192,28.6909308 C53.0514192,28.1853704 52.9265209,27.7101933 52.7090685,27.2898061 C52.7767425,27.2937908 52.8434213,27.2997679 52.9120905,27.2997679 C53.7157189,27.2997679 54.4491853,27.0014125 55.0109788,26.5112928 L55.0109788,26.5112928 Z M55.2826699,14.8186501 C55.2816747,14.851524 55.2776939,14.8829036 55.2776939,14.9157775 C55.2776939,15.3630615 55.370248,15.7894259 55.5359497,16.175943 C55.0353614,16.2008475 54.5641316,16.3373239 54.1496285,16.566943 C54.1113131,16.120157 53.9889028,15.6987736 53.798321,15.3167393 C54.3387175,15.2654361 54.8422915,15.0891125 55.2826699,14.8186501 L55.2826699,14.8186501 Z M57.5114327,22.0020917 C57.5094422,22.0514026 57.5044662,22.1012115 57.5044662,22.1510204 C57.5044662,22.847349 57.7487892,23.4863974 58.154833,23.9884712 C58.0329203,23.9720343 57.9090172,23.9600802 57.7826261,23.9600802 C57.1397234,23.9600802 56.5490689,24.1807337 56.0778391,24.5468292 C56.0987385,24.3998929 56.1126713,24.2519604 56.1126713,24.0995451 C56.1126713,23.5446738 55.9708545,23.0221783 55.7225508,22.5669248 C56.3868504,22.5619439 57.002385,22.3542408 57.5114327,22.0020917 L57.5114327,22.0020917 Z M60.29552,17.5491748 C60.2920368,17.5989837 60.2875584,17.6472984 60.2875584,17.6981034 C60.2875584,18.2813658 60.4786378,18.8183059 60.7976012,19.2556282 C60.6761861,19.2401874 60.5527806,19.2292295 60.4268871,19.2292295 C59.8581272,19.2292295 59.3296731,19.394097 58.8798402,19.6750193 C58.8902899,19.5739072 58.8957635,19.4717989 58.8957635,19.3686944 C58.8957635,18.9209123 58.8032094,18.4950461 58.6375077,18.1075327 C59.2510519,18.0776474 59.8203094,17.8769175 60.29552,17.5491748 L60.29552,17.5491748 Z M63.0407944,26.831066 C62.8273228,26.7762762 62.605392,26.7434023 62.3750019,26.7434023 C61.6047128,26.7434023 60.9135426,27.0751297 60.4298728,27.6006137 C60.5174508,27.3301513 60.5657183,27.0427539 60.5657183,26.7434023 C60.5657183,26.0988749 60.3452803,25.5076431 59.9770543,25.0349565 C60.1243447,25.0583667 60.2736255,25.0738075 60.4268871,25.0738075 C61.1349759,25.0738075 61.7833522,24.8222725 62.2894142,24.4028814 C62.254582,24.5742241 62.2361707,24.7520419 62.2361707,24.9338444 C62.2361707,25.6789858 62.5446844,26.35041 63.0407944,26.831066 L63.0407944,26.831066 Z M4.48638636,41.0156486 C4.39532506,41.2980652 4.34506718,41.5984129 4.34506718,41.9107148 C4.34506718,42.6239785 4.6013326,43.2769733 5.02628534,43.7845262 C4.85162678,43.7436829 4.67099698,43.7192765 4.48439595,43.7192765 C3.77182882,43.7192765 3.1343997,44.0360612 2.70049011,44.5341503 C3.13290689,45.8610598 3.6046343,47.1580839 4.11567232,48.4187476 C4.23609218,48.4371769 4.35850246,48.4511234 4.48439595,48.4511234 C5.79060316,48.4511234 6.84999941,47.3916877 6.84999941,46.0851999 C6.84999941,45.5676853 6.68180968,45.091014 6.40066413,44.7015083 C6.67434564,44.7861834 6.96544325,44.8320076 7.26748812,44.8320076 C8.33235799,44.8320076 9.26138232,44.2611975 9.77242034,43.4099631 C9.68285185,43.6834141 9.63309157,43.973302 9.63309157,44.2756421 C9.63309157,45.8127452 10.8795865,47.0589642 12.4161837,47.0589642 C13.9532786,47.0589642 15.1997735,45.8127452 15.1997735,44.2756421 C15.1997735,43.8602357 15.1062242,43.4672434 14.9430105,43.113102 C15.1166738,43.1444816 15.2953132,43.1629109 15.4779334,43.1629109 C16.3775992,43.1629109 17.1842133,42.7729071 17.7440163,42.1547785 C17.7201314,42.3017148 17.7042081,42.4526358 17.7042081,42.6065453 C17.7042081,44.1431503 18.950703,45.3883732 20.4877979,45.3883732 C22.0248928,45.3883732 23.2708901,44.1431503 23.2708901,42.6065453 C23.2708901,42.0780728 23.1211116,41.5864588 22.8653438,41.1655734 C23.0424904,41.1959569 23.2241154,41.2153824 23.4102188,41.2153824 C24.2541531,41.2153824 25.0199637,40.8861454 25.5917093,40.3511977 C25.5319969,40.5838053 25.4971647,40.8253786 25.4971647,41.0764155 C25.4971647,41.8374957 25.7917456,42.5288434 26.2689466,43.0488485 C25.9843178,42.9447479 25.6792873,42.8844791 25.3583336,42.8844791 C23.8978695,42.8844791 22.7145702,44.068437 22.7145702,45.5283363 C22.7145702,46.9877374 23.8978695,48.1716953 25.3583336,48.1716953 C26.8183,48.1716953 28.002097,46.9877374 28.002097,45.5283363 C28.002097,44.8633873 27.7547884,44.2572128 27.3492422,43.7924956 C27.6811432,43.9229949 28.04091,43.9977083 28.4200833,43.9977083 C30.033809,43.9977083 31.3425042,42.6892281 31.3425042,41.0764155 C31.3425042,40.5105862 31.1787929,39.9836079 30.900633,39.53732 C30.9553693,39.5398105 31.0091104,39.5447914 31.0638467,39.5447914 C31.9620196,39.5447914 32.7666433,39.1562818 33.326944,38.5401456 C33.3050494,38.6870819 33.290619,38.8355124 33.290619,38.9884258 C33.290619,39.7485098 33.5692765,40.442348 34.0280662,40.9772958 C33.8777902,40.9523913 33.7255238,40.9364524 33.5687789,40.9364524 C32.031684,40.9364524 30.7856867,42.1821734 30.7856867,43.7192765 C30.7856867,45.2563796 32.031684,46.5025986 33.5687789,46.5025986 C35.1058738,46.5025986 36.3518711,45.2563796 36.3518711,43.7192765 C36.3518711,43.0652854 36.1244666,42.4645899 35.7462885,41.9894129 C35.942344,42.0287619 36.1443707,42.0496817 36.3518711,42.0496817 C38.0427252,42.0496817 39.4136208,40.6794384 39.4136208,38.9884258 C39.4136208,38.6965456 39.3698317,38.4151252 39.2936985,38.1471532 C39.3335067,38.1491456 39.3733149,38.1536284 39.4136208,38.1536284 C40.1570393,38.1536284 40.838755,37.8881469 41.3691995,37.4463418 C41.3667115,37.4966488 41.3617355,37.5469558 41.3617355,37.5972628 C41.3617355,39.1343659 42.6077328,40.3800869 44.1448277,40.3800869 C45.6819226,40.3800869 46.9284174,39.1343659 46.9284174,37.5972628 C46.9284174,36.8959533 46.6666784,36.2579011 46.2397352,35.7682795 C46.5437705,35.8693916 46.8682075,35.9271699 47.2065774,35.9271699 C48.8974315,35.9271699 50.2678295,34.5564286 50.2678295,32.865914 C50.2678295,32.4714274 50.190701,32.0958682 50.0548555,31.7496963 C50.9729326,31.7302708 51.7914891,31.3088874 52.3398473,30.6519078 C52.2597333,30.9119103 52.2159442,31.1883498 52.2159442,31.474253 C52.2159442,33.0113561 53.4624391,34.2575751 54.999534,34.2575751 C56.5366289,34.2575751 57.7826261,33.0113561 57.7826261,31.474253 C57.7826261,30.6155473 57.3925056,29.8479919 56.7814494,29.3369525 C57.0924511,29.45749 57.4293282,29.5257283 57.7826261,29.5257283 C58.6041683,29.5257283 59.3401227,29.1685983 59.8491704,28.6027691 C59.7725395,28.8503194 59.7307409,29.1143066 59.7307409,29.3872595 C59.7307409,30.8466607 60.9150354,32.0306186 62.3750019,32.0306186 C63.2537683,32.0306186 64.0305262,31.5997714 64.5107129,30.9403014 C64.4977752,30.7530199 64.489316,30.5677307 64.4743879,30.379453 C63.913092,23.1506853 61.6216313,16.7746462 57.8975724,11.7743293 C57.5552217,11.8370885 57.2292919,11.9496566 56.9347111,12.1120337 C56.9406823,12.0263624 56.9476487,11.9416872 56.9476487,11.8545216 C56.9476487,11.5526796 56.9053525,11.2612974 56.8327025,10.9818694 C56.9516296,10.9445128 57.067571,10.8991866 57.1810244,10.8493777 C50.6340651,2.75443296 40.1008101,-1.3762203 26.9650928,0.942882749 C12.8038163,3.44179598 4.18682951,12.2694299 1.40025413,23.2712229 C1.56595584,23.2268929 1.72916954,23.1730993 1.8844216,23.1063554 C1.93268907,23.4291171 2.02375037,23.7364381 2.15063907,24.0253298 C1.78987708,24.0950623 1.45100961,24.2230712 1.13901269,24.3944139 C0.400570211,27.8352137 0.222926031,31.4692721 0.607075351,35.1760515 C1.07183632,35.0156668 1.49330584,34.7611432 1.84560859,34.4329025 C1.84411578,34.4667726 1.84013496,34.5006426 1.84013496,34.5360069 C1.84013496,35.1541356 2.02524318,35.7284324 2.34022572,36.2090884 C2.31235996,36.2085903 2.28548942,36.2051037 2.25762366,36.2051037 C1.71822228,36.2051037 1.2141507,36.3540323 0.78073871,36.6095521 C1.00913837,38.2138972 1.33656098,39.8292003 1.7759442,41.4450015 C1.8296853,41.6422448 1.88890003,41.8360014 1.94363633,42.0317505 C2.0471377,42.0432065 2.15163428,42.0496817 2.25762366,42.0496817 C3.15131819,42.0496817 3.9499706,41.6472257 4.48638636,41.0156486 L4.48638636,41.0156486 Z" id="Shape"></path>
                </g>
                <g id="Group" transform="translate(7.970408, 5.478703)" fill="#FFFFFF">
                    <path d="M15.4485203,16.8478107 C14.7757614,15.0885598 13.7472165,13.7755968 12.5484915,13.1554758 C12.0250134,12.8840173 11.4761576,12.7520236 10.9248137,12.7520236 C9.99031578,12.7520236 9.04188495,13.1335599 8.1815298,13.8871688 C7.00818252,14.916221 6.27471607,16.1758884 6.0627373,17.5341775 C5.86518901,18.8092857 6.1338945,20.0908691 6.83501677,21.2314932 C7.8740113,22.9215097 9.77734181,24.1308701 12.1912127,24.6369287 C13.4501477,24.8974293 14.8265169,24.9731389 16.3029042,24.8625631 C16.5566816,21.7395441 16.2670768,18.9826207 15.4485203,16.8478107 M31.3459329,18.9243443 C32.5570979,18.0158297 33.6060445,17.0475444 34.4912798,16.0194884 C36.2712048,13.9504261 37.2997497,11.6661893 37.385835,9.59114993 C37.4589826,7.81048125 36.8026446,6.53437686 36.1139624,6.19567624 C35.8586922,6.07015778 35.6039196,6.01636415 35.3556158,6.01636415 C34.3101524,6.01636415 33.4010322,6.97618193 33.010414,7.46132076 C31.2971678,9.57869771 30.2079154,13.6605382 31.3459329,18.9243443 M38.6930374,44.7906116 C37.9376764,42.7429672 36.5443888,40.3586144 34.5450209,37.6913471 C33.8802237,38.0230744 33.2199048,38.383691 32.5531171,38.7746909 C25.8474225,42.7290207 22.8006009,45.9531517 21.4267197,47.9649337 C20.6997221,49.0313426 19.5786231,51.0401361 20.2334683,52.5588099 C20.6693683,53.5624595 21.8805334,54.403234 23.5584499,54.8594837 C25.3149876,55.3411359 28.7668578,55.3411359 30.9403866,54.7205168 C35.872625,53.3183958 38.4546857,51.5118265 39.1483439,49.3501196 C39.5285124,48.1626751 39.378734,46.631051 38.6930374,44.7906116 M36.4617867,29.9629959 C38.8841169,29.231303 41.6065015,28.6251285 44.6179933,28.1464648 C45.1479402,28.0612916 46.4377266,27.923819 46.4377266,27.923819 C48.2062067,27.5114011 49.9726965,28.6116801 50.3857068,30.382387 C50.7967266,32.1530939 49.7020006,33.9437243 47.934018,34.3561422 C47.1940827,34.4203957 46.4476786,34.5140364 45.6838584,34.6315854 C43.9696169,34.903044 42.4374981,35.2083727 41.0695881,35.5326287 C42.7216293,37.9518477 44.1089457,40.4198794 44.8896844,42.5267965 C46.0879118,45.7663683 46.2700344,48.7354776 45.435057,51.3484533 C44.6224717,53.872271 42.8783741,56.0170428 40.2510316,57.7145306 C38.2884864,58.9891407 35.9398014,60.1232897 32.7571343,61.0273215 C30.7652305,61.5991279 28.5727928,61.7276349 26.6047739,61.7276349 C24.9328287,61.7276349 23.3091509,61.5991279 21.8014146,61.1827253 C18.1315943,60.1780795 15.425133,58.0387867 14.1771453,55.1608276 C13.4576117,53.4987041 13.2620538,51.69861 13.5894765,49.8073655 C13.901971,47.994321 14.7041066,46.133958 15.9710032,44.2800702 C18.5197245,40.551873 22.9653074,36.8057446 29.1843465,33.1323371 C29.6466195,32.8588862 30.7955842,32.2571945 30.7955842,32.2571945 C29.7839578,30.7285589 28.8937465,29.1874711 28.1358975,27.6379158 C27.4093975,27.9636661 26.6595102,28.2839374 25.8832499,28.5902622 C24.4003937,29.1690418 22.9399297,29.6447169 21.5167858,30.0078239 C20.2503868,34.975267 17.5454183,39.1238514 13.4382052,42.3684041 C13.4382052,42.3684041 11.3816131,44.0464664 9.28471509,41.8992041 C7.3853654,39.9536679 9.71265345,37.7152553 9.71265345,37.7152553 C11.4826264,36.3181153 12.9177127,34.6774097 13.972133,32.8444416 C14.3408566,32.2103741 14.662308,31.5543907 14.9464391,30.8610506 C13.5591227,30.8570659 12.2225617,30.7245742 10.9591483,30.4575984 C6.91463321,29.6088545 3.63791912,27.4346954 1.72961259,24.3390714 C0.299502292,22.0110027 -0.262291209,19.2715124 0.148231057,16.6241686 C0.576169419,13.8702338 1.98737081,11.3807842 4.23056399,9.41930918 C7.45602499,6.59763418 11.7020692,6.00789664 15.3101867,7.87822137 C17.8484584,9.1936748 19.8319029,11.5650772 21.0400824,14.7329242 C22.013891,17.280152 22.4552646,20.2338207 22.3651985,23.5396383 C22.8006009,23.3917058 23.2434673,23.2298269 23.6853386,23.0559938 C24.479015,22.7426957 25.24184,22.4179416 25.9748088,22.0772486 C25.508555,20.4574627 25.1930749,18.8486348 25.0243876,17.2597304 C24.4730437,11.9530887 25.6842088,7.02250422 28.3493691,3.73212734 C31.1548534,0.260446008 35.245148,-0.865733546 38.7592186,0.861639604 C40.2803902,1.60777714 41.5164354,2.88338344 42.3330015,4.55347634 C43.0863721,6.09954504 43.4471341,7.92653602 43.3665224,9.83521361 C43.2670019,12.2424784 42.4365029,15.9417865 39.0373785,19.8886449 C37.5017764,21.6762868 35.6098908,23.3060345 33.3836161,24.7719109 C34.1688332,26.4151069 35.2247463,28.2052393 36.4617867,29.9629959" id="Shape"></path>
                </g>
            </g>
        </g>
    </g>
</svg>