<?xml version="1.0" encoding="UTF-8" standalone="no"?>
<svg width="200px" height="200px" viewBox="0 0 200 200" version="1.1" xmlns="http://www.w3.org/2000/svg" xmlns:xlink="http://www.w3.org/1999/xlink" xmlns:sketch="http://www.bohemiancoding.com/sketch/ns">
    <!-- Generator: Sketch 3.2.2 (9983) - http://www.bohemiancoding.com/sketch -->
    <title>it.image_right</title>
    <desc>Created with Sketch.</desc>
    <defs></defs>
    <g id="Page-1" stroke="none" stroke-width="1" fill="none" fill-rule="evenodd" sketch:type="MSPage">
        <g id="it.image_right" sketch:type="MSArtboardGroup">
            <rect id="Rectangle-1" fill="#EEEEEE" sketch:type="MSShapeGroup" x="0" y="0" width="200" height="200"></rect>
            <text id="Some-things-in-life-" sketch:type="MSTextLayer" font-family="Verdana" font-size="9" font-weight="normal" fill="#000000">
                <tspan x="20" y="26">Some things in </tspan>
                <tspan x="20" y="37">life are bad / </tspan>
                <tspan x="20" y="48">They can really </tspan>
                <tspan x="20" y="59">make you mad / </tspan>
                <tspan x="20" y="70">Other things just </tspan>
                <tspan x="20" y="81">make you swear </tspan>
                <tspan x="20" y="92">and curse / </tspan>
                <tspan x="20" y="103">When you're </tspan>
                <tspan x="20" y="114">chewing on life's </tspan>
                <tspan x="20" y="125">gristle / Don't </tspan>
                <tspan x="20" y="136">grumble, give a </tspan>
                <tspan x="20" y="147">whistle / And </tspan>
                <tspan x="20" y="158">this'll help things </tspan>
                <tspan x="20" y="169">turn out for the </tspan>
                <tspan x="20" y="180">best... / </tspan>
                <tspan x="20" y="191">And... / ...alway</tspan>
                <tspan x="20" y="202">s look on the </tspan>
                <tspan x="20" y="213">bright side / of </tspan>
                <tspan x="20" y="224">life... / </tspan>
                <tspan x="20" y="235">(Whistle) / </tspan>
                <tspan x="20" y="246">Always look on </tspan>
                <tspan x="20" y="257">the light side / </tspan>
                <tspan x="20" y="268">of life... / </tspan>
                <tspan x="20" y="279">(Whistle) / If life </tspan>
                <tspan x="20" y="290">seems jolly </tspan>
                <tspan x="20" y="301">rotten / There's </tspan>
                <tspan x="20" y="312">something </tspan>
                <tspan x="20" y="323">you've </tspan>
                <tspan x="20" y="334">forgotten / And </tspan>
                <tspan x="20" y="345">that's to laugh </tspan>
                <tspan x="20" y="356">and smile and </tspan>
                <tspan x="20" y="367">dance and sing / </tspan>
                <tspan x="20" y="378">When you're </tspan>
                <tspan x="20" y="389">feeling in the </tspan>
                <tspan x="20" y="400">dumps / Don't </tspan>
                <tspan x="20" y="411">be silly </tspan>
                <tspan x="20" y="422">chumps / Just </tspan>
                <tspan x="20" y="433">purse your lips </tspan>
                <tspan x="20" y="444">and whistle / - </tspan>
                <tspan x="20" y="455">that's the </tspan>
                <tspan x="20" y="466">thing. / </tspan>
                <tspan x="20" y="477">And...always </tspan>
                <tspan x="20" y="488">look on the </tspan>
                <tspan x="20" y="499">bright / side of </tspan>
                <tspan x="20" y="510">life... / (Whistle)</tspan>
            </text>
            <g id="Rectangle-3" sketch:type="MSLayerGroup" transform="translate(110.000000, 20.000000)" fill="#6E1EAB">
                <rect sketch:type="MSShapeGroup" x="0" y="0" width="70" height="69"></rect>
            </g>
            <rect id="Rectangle-42" fill="#EDEDED" sketch:type="MSShapeGroup" x="-2" y="180" width="200" height="20"></rect>
        </g>
    </g>
</svg>