<?xml version="1.0" encoding="UTF-8" standalone="no"?>
<svg width="200px" height="200px" viewBox="0 0 200 200" version="1.1" xmlns="http://www.w3.org/2000/svg" xmlns:xlink="http://www.w3.org/1999/xlink" xmlns:sketch="http://www.bohemiancoding.com/sketch/ns">
    <!-- Generator: Sketch 3.2.2 (9983) - http://www.bohemiancoding.com/sketch -->
    <title>it.image_left</title>
    <desc>Created with Sketch.</desc>
    <defs></defs>
    <g id="Page-1" stroke="none" stroke-width="1" fill="none" fill-rule="evenodd" sketch:type="MSPage">
        <g id="it.image_left" sketch:type="MSArtboardGroup">
            <rect id="Rectangle-1" fill="#EEEEEE" sketch:type="MSShapeGroup" x="0" y="0" width="200" height="200"></rect>
            <text id="Some-things-in-life-" sketch:type="MSTextLayer" font-family="Verdana" font-size="9" font-weight="normal" fill="#000000">
                <tspan x="108" y="26">Some things in </tspan>
                <tspan x="108" y="37">life are bad / </tspan>
                <tspan x="108" y="48">They can really </tspan>
                <tspan x="108" y="59">make you mad / </tspan>
                <tspan x="108" y="70">Other things just </tspan>
                <tspan x="108" y="81">make you swear </tspan>
                <tspan x="108" y="92">and curse / </tspan>
                <tspan x="108" y="103">When you're </tspan>
                <tspan x="108" y="114">chewing on life's </tspan>
                <tspan x="108" y="125">gristle / Don't </tspan>
                <tspan x="108" y="136">grumble, give a </tspan>
                <tspan x="108" y="147">whistle / And </tspan>
                <tspan x="108" y="158">this'll help things </tspan>
                <tspan x="108" y="169">turn out for the </tspan>
                <tspan x="108" y="180">best... / </tspan>
                <tspan x="108" y="191">And... / ...always </tspan>
                <tspan x="108" y="202">look on the </tspan>
                <tspan x="108" y="213">bright side / of </tspan>
                <tspan x="108" y="224">life... / </tspan>
                <tspan x="108" y="235">(Whistle) / </tspan>
                <tspan x="108" y="246">Always look on </tspan>
                <tspan x="108" y="257">the light side / of </tspan>
                <tspan x="108" y="268">life... / </tspan>
                <tspan x="108" y="279">(Whistle) / If life </tspan>
                <tspan x="108" y="290">seems jolly </tspan>
                <tspan x="108" y="301">rotten / There's </tspan>
                <tspan x="108" y="312">something </tspan>
                <tspan x="108" y="323">you've </tspan>
                <tspan x="108" y="334">forgotten / And </tspan>
                <tspan x="108" y="345">that's to laugh </tspan>
                <tspan x="108" y="356">and smile and </tspan>
                <tspan x="108" y="367">dance and sing / </tspan>
                <tspan x="108" y="378">When you're </tspan>
                <tspan x="108" y="389">feeling in the </tspan>
                <tspan x="108" y="400">dumps / Don't be </tspan>
                <tspan x="108" y="411">silly chumps / </tspan>
                <tspan x="108" y="422">Just purse your </tspan>
                <tspan x="108" y="433">lips and whistle / </tspan>
                <tspan x="108" y="444">- that's the </tspan>
                <tspan x="108" y="455">thing. / </tspan>
                <tspan x="108" y="466">And...always look </tspan>
                <tspan x="108" y="477">on the bright / </tspan>
                <tspan x="108" y="488">side of life... / </tspan>
                <tspan x="108" y="499">(Whistle)</tspan>
            </text>
            <g id="Rectangle-3" sketch:type="MSLayerGroup" transform="translate(20.000000, 20.000000)" fill="#6E1EAB">
                <rect sketch:type="MSShapeGroup" x="0" y="0" width="70" height="69"></rect>
            </g>
            <rect id="Rectangle-42" fill="#EDEDED" sketch:type="MSShapeGroup" x="-1" y="180" width="200" height="20"></rect>
        </g>
    </g>
</svg>